<mxfile host="app.diagrams.net" modified="2023-05-16T16:24:58.792Z" agent="Mozilla/5.0 (Windows NT 10.0; Win64; x64; rv:109.0) Gecko/20100101 Firefox/114.0" etag="f5FBTdxl7snf855DDBxD" version="21.3.2" type="device">
  <diagram name="StrÃ¡nka-1" id="7-S1b991G5Fh-oEeQEHZ">
    <mxGraphModel dx="1388" dy="762" grid="0" gridSize="10" guides="1" tooltips="1" connect="1" arrows="1" fold="1" page="0" pageScale="1" pageWidth="1100" pageHeight="850" math="0" shadow="0">
      <root>
        <mxCell id="0" />
        <mxCell id="1" parent="0" />
        <mxCell id="Z4fjTaCAJ1MgGn6guNNH-9" value="" style="rounded=0;whiteSpace=wrap;html=1;labelBackgroundColor=none;labelBorderColor=none;fontColor=default;fillColor=none;dashed=1;strokeWidth=2;" parent="1" vertex="1">
          <mxGeometry x="40" y="90" width="340" height="670" as="geometry" />
        </mxCell>
        <mxCell id="Z4fjTaCAJ1MgGn6guNNH-3" value="" style="shape=image;verticalLabelPosition=bottom;labelBackgroundColor=default;verticalAlign=top;aspect=fixed;imageAspect=0;image=data:image/png,iVBORw0KGgoAAAANSUhEUgAAAPcAAAEPCAYAAACeOlKTAAAACXBIWXMAAAsTAAALEwEAmpwYAADex0lEQVR4nOz9ebRt2V3fh37mnKvd7enb299b91bfSqWqUlclIaEGgYwRICIw4A7HXRye7RcPnoNDYnjxiMlLbGeY2HFC3MZxD8Q2jY1tZAwWQkgqVX/rtqff7epn9/5Yp6QC06hKV1RJ1HeMNfbZ6+y51jr7rO+av/lrvj/BG/hqhQQGQP/4tQssAsOXbf3jLT7eouNN/ZpjecAcbzXQAAWQA/PjbQZMjreX9mXH+82X4w98A785xGt9AW/gS0IXWAC2gZPAWWALOHG8bxHo0RK4Q0vcLzc0Lemz49cJcAO49rLXl7bx8Wfcb8N1/Y7DG+T+ysEKcA64ANwBXAJOHW/L/PYQ91bB0BL7BnAVeAF4EngOuHy87w3Cf4l4g9yvT/SBM8CdwAPAPbSEXqOdrb9aUdPO9C8AnwF+5Xh7nvZB8AZeAd4g9+sDCXAReDPwGPAgrYk9fC0v6nUCS2vCPwN8HPgPtITfofUFvIHfAG+Q+7XDOvAm4AlaQt9Huy5+A781rgOfAP4t8O9oyV6+plf0OsQb5P7txSngHcDXAm8FTtN6td/Aq0dGu1b/GeBf0JL+6DW9otcJ3iD3lx9rtGT+EO0Mvf3aXs5XPT4H/Bvgnx6/Zq/t5bx2eIPcXx6EwKPAtwAfoHWOvYHffnwK+GfAP6ad0X9H4XcEuf/EH7j2q97XlWO4GPDmtw5YWo852NdUzjL62c8w+t//NaaYIUXymx7T+zanY/jBryV51zuYvjji+/7n1RPANwLfRuvl/goJT/1mt8FXhc9qDvwc8HeAnwAOX9vL+e1B8FpfwFcD/uj3qgeBb6cl9qnX+HJeIQRCiJe/O6bzMak9v/r9Vyb6wPuOt6eAvwv8Ldq1+lct3iD3l4D/lh96Bz/+Q7+PltRfgfHnltgvkVsgQIh2Hvf+ZaT2eP8VTe6X43bg+4E/Qkvyvw788mt4PV82vEHuV4gf8N8vgMeBPwa8nzYn+ysQXyC2ELJ9fZl57oVHIvB4nDtOFvOelvKCr/CZHNqMvz9Ca3H9I+B/Bn7pNb2iW4yvOHLv7N38oj872rlKU1X86P92a879A/77HwP+S+AbeJ1+dy/Nwr/RTJskCdub65w/d57zZ0+RFxWfe+YFrrx4hcls9qsIDuC8QynB6vIaD7/5AW6/7RwnN1fppgm2zJkdHmGrkiRNifoDRBjSlBVKSmSc4mXA7sEhWTYH79nZ2+fmwYjnL7/IweERRfmah6eHwHcC3wT8feCHf/FnfvzTg83TDNa3EQKy0SH7z3yG/uISMk45vHEFLwJkELBx6W6itIt3X/5s2bObG6/o86/LG/T1hh/w338R+BPAd/A6SzR5+Xr5V6+fPUopVpYWGA76SBVw5swpHrr3Dh558G7OnDzFoNfBOM/13RG/+MnP8Au/9Ck+8cuf4cbNneNDePCCSxfO83u/6et4/PG3srS8jBQWW5eU0zGXP/c0ezeusTrssLSxwmB9g2w0oShy1k+fJu4PcB6cNbimJssy5nnNlZ09Pnf5Kp/63LM8/ezzvHjt+mtt+veA7wI+/OZ3ffB/Bf7Szmh87bcY87rGG+T+TfAD/vuHwB+lNcFXX91RfquAxEs39Cs3dYUQdDtdOt0ua6srLC8ucnJ7iyQKOHtyizOba6wvD9nc3iTp9Vgc9JFS4TwgAxAS6zy39xa4/exJvu3D72XnYMynPvsc//4XP8kvf/pJVBTyp77r2zi3PmBh2EdJcM7irUEYi7eWvcNDbF4gVYCSAltVVJXBC0kQBXg83oKPJEEoGQ4cJzcWeev9lzDf8B4m85ynr+7yHz/1WX7x00/y2c89TZbnr+K7viVYBP4U8NHNpcW/CPzIc88/W7xWF/Ol4A1yvwQB3nlcY3AY/jv//R8E/hzw0Cs6CC85pr6w7zei9+cdVh78b0DsxcUF+v0+W5sbSCHY3NhgcdBjaWmJ8+fOcubUaVbXNllZWcKPb9DkMwhDhIpRYUiSJsT9IUGU4oVEYhEiRAUJKohw1uGtwRqHaUq2wwGbG6d437vfSVWWmKYmihQSj5ce25R4o7F1TVOUNFVFrT03ygndtU3keIbVDcsnT9FfWUEGApzBS/AOpIhxWoM7Xr83hsVeysMXTvDQmQ1+7wcf56mru/zsL32an/73v8izz7/wxX/9txYngR8GPnLh/G1/7uP/zz/6l6/VhbxavEHuz0OA9/yA+bObtKT+Ll7B9yOE5PNEfjmxxa9D7WPz8wvrY3fMdMHa6gp3XrrAw2+6nzc/cD+nT26RhIJeHBEkXZJOj2o+Bl0RdnqE3WXiwSq6KTm6WTK/fp2gt0Bnc5vOwipxd4CUEqsr6ukuzjR455FBjIpTZBgTxF1E3CeKO4S9NXBgnSVZdOBqvLO4pkRXY5p8jC1LdFHS5CXGWoyxFGVDYz211iRBQG9hSBgHCO8hSPHeY5sKaHC1wzYNzljqLKfKC8oiJ5tn6KYmdp67V3uceP8TPLtzNz/3yU8zmc2Yz+bUTfMq/7+vGo8BP/bY+3/XXwP+289+8he+eKfPa4w3yH0Mm1f8F3/1bd8E/BBw/osb9QUyfz6M9OuElv4TvGxt6fFIobj7rjv4pg+9l8cffZDzZ7ZI+msESZfy8Drjy09x8OKLJMNFOhubOBFiipygkxMtWOaH+xRH+xS7u9TznN5whc7SOkHSpTi6QTXaw5QlxcE+5XiE0xohFSKMCNMe8cIi6eo28XAZIRUy6uNlD1RIFMdESYB3Bl1UNLMMnWU0RcFsPGM+niCMIW80N49GbK6cY2E4pL+ySpAMUEEEHkw9ox4foMuKOsvQec58POVoNCavKrKqQnqPCAKEDOh2u6x1+zz+tkf4L7/n9zCeTTk8OOTq7hFPv3CFX/jUZ3jyqWep6/pL/dd/MQiBPwS8764HHv6+n/2xv/+3fztO+qXiDXIDH/lIdwH4r4E/zivI2hMcz9jHhJYv+/nzoaaXTPTjCJL3/gsxZO959OGH+Pbf/QHefv9F0kgSpB1U2CHoLFDP9th78pPsPf0s+eiI7sKUziyjt7oBYYwtKhxjyumUejyjnEwg6RAtbmB0gxnXWCvx0YAw7dMJU7QVTK9fo8jGCEAFETK4QZQ8T5B2ibodgv4KVi1CkBIFllCVSNfO1q6uKPOcIssYT8ccjedYYwmTDgv9AZ0kZeXCBXrrJ4k7iwgpKMY7zK4+x+T6TaqioqorpuMp0yyjshbrPQhBJ20tkzSJWNtY48TFCySDLqYuWewKtjqK2wYxT5xb5w988J08tT/jx//1x/nxn/pXTKezW31b/Ho4C/ytd37dR94NfN+/+Rf/bOe346SvFr/jyf34O6MHaGOcb/3iR/3aGLH8wvuX1t1SvvRJPB4h5edn9DCMePTND/C73/8Ej915nkDnVLs3kWsbiERgdEU1O6DYu8bB1Ztc390nNA0uKjFySmMhXVyms3GKYj4nPxyji4LGS3qDZYQIMUYhgwQVhsT9FQKh8cOG7toG/VNn2H/meUa7uxR5hp0XRFGFCnKEBBUeQG+bIOojXIVsRmBynHDouqHUlllRMJmNaeoKYx3DxQFn11dYPnmS/uYZOsN1lFIUkz2mLz7F6MWr7N7cZTSdU+qG0mi8dQgEYRIzXF5nbW2NRMLCUp/1Oy6SdBcxum7DTM4T9QXaB+xfuUqzd8gdJ0/wyPd+D9/69e/j7/3Yv+QnfvJfMZ5Mbu0N8uvju4GH3/G1H/p/PfPi5X/x23HCV4Pf0eT+xm/ufwz4i7wiT/ivTvyQQh4TV35+v5Sq3YREqgCBaD3M3vHIWx7iO7/5wzx02zbzK88zffZJrG4IBst0wwSPoqlq6tkVjp59ntF4Stk0TLKMQdInWU7xUYpIOpiqoNjfp8pySu2JhquIoEc5ryDuEUoBYYIMQ4LQ4XQNQtFfDwmSDsnSCoc3djjY2yXPcwIaVNQB45DNGPwEZ3Ok1zRNibEN2hiMMxRaU9cG1xjCtMuF06fYOLFFf2ubKB3gvWd+dJP53ouMr9/k6GDE4WzOOMtwzmGdxztHmMQsLq1y9uIdJKFA6pyN2+9gsHkbUsUYXaPzMZU4xDSaOFYsb29ztH/AdDQhWcp55G1v4/67L/Gxr/8a/slP/xw/8dM/y9VrX3bhlruBf3jxzNkfBH7o8s7u604E8nckuf/Kj55WtGb49/GKimfEywjcOtB46f0xyaVUBEGEUiGBConjLkIIzp09wTd//dfwtU+8FSU8kxefY3Jzl3I6QnvBydMXCftDlHR4ZyjHI3av36A2hpXtE/RX19g4e57h8jJhnCBkQF02JL0Bs6Mxdn8GnVV0bWhmGUGcEIQReItUKUIppAhw1iKsI+oOWD4dkHZ7hEmXq9evMzs6JAkiBCnUFU01xVZThExBBGjnMbqmzGbU3uEFBN5y26X7OHdqExkomrqhqSvy2QhTzpntHjA9GnE0n5PVNdZ5rNZoaxEqpNMZsHXqLN1OiJmO6awtES+uE/WWkSqAfEYx2aGZzWhmM4qjMU1RstAb0rguoysv4pqKlXOXuOvSBS6dWOPbP/Ru/s9/8lP8g5/4lxwcfllLuzvADwAPnt3c+OOXd3ZfV3Hx33Hk/uEfOTkA/jLwsVc6VrzMYfaSs+zls7SQEikUgnZ/EMZcunCJ9zz+dt77trtYXl0m7C2QH+yQj8Y0XtColOULF9i4dBtxHOJNg24czsPqmbOc39pi5eQ5glAgkASdZUSQYsopMpvTXTtN/4Shv3vA9RdukE/HyCYgTBPShR6B0Mg2WRy8QEYpoZAgY4SKCZI+QZoQJT1eiA4YHc0Iao2wFWVZUGQVS+trrG5ucuL8adJeSllMmR0ecf2FZ2mampOnzhCIClsbbF2R7V2mPaOgmEyYlBWl1lhn0bohL2uGi8tsnjrFiZMn2Tq5RRCFNEmMF57icJ86zwnCiHx/h2LvKqbWVPM5h7u7lHnFYGWFhc0t1MIi+1evko9HrJw9D0KxNuzxxz769Xz4iUf4hz/97/m/f/xfMBqPb+l99Gvwu4BLZzc3ft/lnd1//+U80SvB7yhy//CPnDxNWyjw7lc+uiX052fpl5nlL71XMkAIifeeOy5e5D2PvIWH77yb9RMbdLohdZFRlwX50T6NsSQrG2w8eJr1k2tIHNY2KBkQJiFLF+9ja7BMOliinuww23uR4an7wFomV55ENxXx8lmCeIiKA8yyYHFWcNQYynJKxxqkUqgwQsoApaLW5+s7+BRiqaimB+jG0tlYYVks4tSAUj/P5GgfX82wxnD3o49zx8OPESiIlCYd9lFKgrfcV76VuizBaiQNQRIRxQGmnIMM8XgWNteZZxkHhwcYbSjrhrUTJ3nru97F5slNfFPirUElCXE3pTwaMXrxBYIkwTU1+cEexWSG8zCZTJhOxkgpcVIigoDB6irDlRWElDRFhgpDrDZgLScGKd/zde/kPW+6l//zn/8M//Sf/9QtvqN+Fe4Efux4Bv+bX84TfbH4HUPuH/6Rkxdoq4BeQVLKFyDEF0JdiC+Y4y9trTke8vCbHuJrHnuQh86ewZQabEUxPsI3Eu/M58evX7yTdJiipMdUJUhaU77bIxluEiYpKgwx9Zy9T/8i2jjq4hPMrjyHrQ2DC7ejqhnIEBUPCZIlokFJMmso8YTDxTYUFQ2RYQxh8IW4utFYa5jt7jI7mrJ8+yOkqx0W64rNg4TDsSO3ggcffIQ3PfEuLAqrG4rpEUY3dFfW8dYjgi69YQ9cCaLEe4MrM/AGPNiyAl3RjSOcVBxM5ywurfKux9/O1sVzWGcp8hnF7g54j0w6CBXghaAYT3BCURqYFSVFVTIaHdHMM4JAEYQhk4MDqjyn2x8w3FjHO4/OMlxVohuN0RpjDIvK8N1PvBljHT/xkz9zC++q/wRLwP9xdnPj5OWd3R/8cp7oi8HvCHL/8I+cvIeW2He+mvHHc/av+vnla+x+v8/73/Nuvvbxt/HAPXcinCUbzynzBlOUWF2B7JMuLhCFAUoBzoCusYAMw9azHXfxQR9dV1TjG5SHNyknI+Y7u5imxly+gp3PiBZXKMdzHPsEjUeloG2CC5YIew1xN6G/tkmYDlFBhJch3nmsrvGuITu4xvTGLkfX9wjTFGFyBitLVEcDemmPXmdAd3GVe978IF5IhHck3S5RuEk5uk49n5Mun8I7cGiU6IAZY6bXcbpCBBG+abB1ST0vqPOcKIzwYczt588RWU05mZAsrpIuriCEYnztOvmVqyAlIoywHmazOVme01Q1+WzOfJaTz6aESUo6tKRSEkYxzjqyw0PUeIxuaorZjFprhAow3rcPhyzjsTvP8zP/9uNUVXXL7q1fBxL482c3N7aB7728s/vbEoj/9fBVT+4HHnn8AeAf8iqljl4yxV8i8ue94FLR6XR45yMP8y0ffA93XjhFsrhO3F/GWo+YNSAF3bUOaeRRgSAIBV436Nq0obKg9aSbRhKHCSpaRJczRteepTjcpZxMsdZSVBWmyHFNhdM1XRTegs5zkjWH6GgMQ7QZEi5s0U1XUHEXawVVWRHoCtcUVNND5rtXme7sMxnVgGQxifG2QiiJTAYIFbM5HNDfWCNJU8AQKggjUINNVJwwv/kczloWztyHwLZOQK3IbzxN0FsA5XFVja0qdJFT5Bm11ix0UwJdQhgTD1YJwggpQS0vEva6zHYXOXjhBSZ7e1ghqLSmbBwOiZGK0WRKUZa87S2PcOeb30J/cYhU4IzD6IamqMiORmSVZnQ0ZZ5NqE27PHEobDXnuz7yDVzZO8I7z6c++1lu7uzeupvtV+MPA+tnNze++/LO7vzLdZLfDF/V5L7r/kfupS3jO/NKxn0hZbQ1w5UMEFKiVPB5T/mjb3kL3/Hhr+PiMMHrmuzmTXRlyY5GVLOKuoHu8jK9hRA92kXECQaPNx5nLU6X6KpClzXOOoQKEdLj6oKmaKjynLKYU1UzmnyGbjReVzhrSaYZ3d4h3aMR/VlOunECNYQgXQDZxVKSTedQT7BVhqtz6vmYcnTEeDxjVhqkSBgMFgiSlFqDKj1B3EHS0A0cK0tDnG8IMaggRQUBwms6C0v4aoV8/xp2eYV0cR0hPNn+DiIZEvVX0PkBzjTURU1RVIzznCLP8VVDVtaoAFAOEXUIZR9TzojIWDyxTmfYJ372Ba5fvoy3DuUtzmqMbrDe875v+Wbe+t6vRUYxtsqpy0lrPUhFFKSk6SZLG+tsTedcvXyZZ599Dik9g26PM8vrfPD22xksLlLN5zz59HP83Kc+zaefeYGf/8Qvfzlm9G8CorObG995eWf3y+rR+/XwVUvuzfWte2hn7C8ylfQlUrfElvILcesgCFuHmQp4+E1v4iNf97W87eH7iKOYJiuZ7O3iypLm2hW0F1jRo7d9njBJUHGHvHiBEImeNlTjEboqacqCqqgxXqLCHlamOFuByXCmpikrvHD0FxdYP3uWqNvFWY13FikE1glc1VDOZujyOYKFOeGqQ0QL5PMpJp9iqil1PqGpcuqmoa41jfEYpwjCgEG6QGM7FJkl6TuabIQtc6JA0OsnKOlQUiGVxHuLNxZbTXHeIFSAbhr09acpZwdEvQHDU/fSZHs02ZxqmlHOc4p5RpkV+LqmLmtcUVDs7SHjkKULXcLOOjKI0GWCKEb41LB16TxRmvL0pz5Fmc2QKqAuS97zDR/krR/4AD7s4xGI0CGbGusraGp0UYKKkCqgP+hw+113sH3iFPtHR6Abzly6RG9pgSqbIk3J9qDD7ct9nvjQE3zHh9/PP/ipf8f/85M//QVxiluDrwf+3tnNjY9d3tndv5UH/q3wVUnuzfWt88D/xSskthTq85llUsrjTSFlwKWLF/i2D32AdzxwJ71uQiAVQgZEgwU6jePa4XMkSYdiNGGwuUXSTXBW4EjwssP+089TVBXlbILRBucsxjqckxBbVCIQTlMXGc7VbJw5w5l77mNle5m028G7Cimhmk0wZU40XMJ5RZVXzHcOmO4eMXn2U1jZxRLjvMA2BXlRUDYVzgm8T/AIvDdEaZ+oM8QFiwiV4F1FtncVnU/pr6+TDlOCSCJVjAhChFR4DyrsoqKGeOgwdUk1OaC7doqFzZN4p5ntjKlGY4qjCZPDQ8aTMdPplKKsKKuMo6NDpru7iEAhg4h0ZULUGZAO1rFhBLNdnJuxemoTj+eXf+E/cnR0yGBljXseuAeLIuktE4Qx1mqcv0pxuIueZ8g4JuimuKrC6bZyLVGWreUhxkuaImduNd5oTFnhrMF6y9HokLvvuY///k/+Yd7x8AP8xb/6N9jbP7iVt+R7gL99dnPjWy7v7P62aap/1ZF7c31rg9Z5dvsXO+YlU/ul15bQ7Tp7cWGBb/q69/P++29HVG0llE07KC8QMgEZIVWBinocjaaoaEB3YQHhDSrtomuPDRcp6ucY7++2JZKNpqoabNPglYJ4RhgdoWRE0u1z+6OPcfqO8yhpCOMOznkOnvw0UoAXEA8HRN6jhCAdDEkGq/RPNcyPZkwOcqajgnyaURYZTVOBCLBWYXRD3RSEUcTZrU0WNzYI+yv0F4fU02sUe1cJo4DlMycIkggpQ6SSCBmAlMTJAK9iismEqiwYDNZYXT+Nd4Yqn9DMD6kO9ynHM44ODtk7OiLL5kznBZPZBIQkVxGldQR7ezR5Rn9zQrqyhMCTLpwgDRPkbJdissvKxgp33nMXn/n057h02xnq6YRoqSK2tg3r4ajGu5SHh5jGsHzqAkJC3VxHuDZ7rsgyTNOAkDRSIoOwrZKzhqppKPOCRnjqsiSQnt/17sfYXujyZ/7Hv8bVa7c0J+XdwN88JvhvSyL8VxW5N9e3hsD/Ttum57fEy7PNfhWxlUKpgLe95c38gW/9Rra6HWY7NxkdTAmXToHqY3xE2lkBLyjnVwlkhJMRnd4iiBAvI1SSUh5NOLp+k4IYozrMyilF1ZAMFlg9t8FgYYi1mvk8oztY59w9D7C6tYg1OUHSRcVD9j/9s9z81K9gdMPqpdvprKzgnUHFXVTYwxMRJiFRf41ksaA3r8mOZhzcuMbNqy9gvcT7EKQgSgXnLpxm+9J5ot56mypqpoye/hTF4QGb995Fd3UR9VJKbRChgggVdnBCMdu7TllpeifuJxkMMMWIOtvHFHOKm5eZ7e0yHY0ZTabkVcF0OiHA88jj7+bi/fexur6GUpbi8IjZ1ReZXr2CayqEUiQLm6SLq0RpH4Qiq59neXWJs6dO4uZTqlmX1cEq1mqmL3yKZrrPfOcGkytX8Uazds+bSVa2aKaHSFERKEBIpvMc01REcYIM2pCgVyFFUWJMQ5ymxJ0UGUUoJbj/tjP8yT/w7fyxP/uDt1od5n20obJvv7yz+2VvlvBVQ+7N9a0A+Eu03T2+CPynxFYqQEpFHCf8vo99Kx993+OUoymjgwnz3CGWT9Fd3sKJCC9ikGm7/vXgnCEIA+I4wsiQMF6gmlfkezdpyjnOOGzQYfHcXdx38TxbZ86Q9obobEpxtEdd1/Q3TqHCBF0VxN0hnZXT1JNrHL3wPLs3dxFSsOYsuqqRYYxQmiDwhN0eiBhhFdokxGaOXPJ0O2cZLgy5vjNmnlUoaTl3ZoMTpzcIukM6/e5xHP0/MH7hRQYnT7Fwug1xoRTeO4RQBGmfaj5lPjpCxov0t24H55jt36SZ3qAZHaCzCcXokOn4kCybUsxmUOec3Fznwfd9HWfuvhdnDbrK0OWM3toqYZpy+ORnyI+OCLodvLWYusbUJSpKkVGMCCpW15bZf/aA6d4+vavPUc+nFIc3MXlJMZsz3z9gsLqCVAG2miGCEIIQoTS9bkythzz3wgg3n5PEaZvpF8WMZ1NMXbO8vc3i1jaDjVM02Yh0WPGOO87ynd/6Ef7G3/m/bvWt+mHgL5/d3Pi9X+589K8acgP/DV90SunLq7qOyzWPw1zLyyv86T/y+3nbXbeTjSbMDsfM5iXRwgobJ08TCo/3BulDnK1BSJACnCUMJN47VBBjXUA5nlNkBabJSAcLbN95B+sntuj0uxAk1PmUcj5FdfssrCzhHOhGk/a6dBZPgFKtc6rxTCYzfBhQlZpkXqLCECEFQbpAEIRYJHiBkAEq6uCaAmMbuv1ltuUi0/mMfqpZXR/gghCpAppyytGTv8jkymXC4RLL5y+0pamyLXSJghgRJsx2rzHd3yNdu0CYJtTjF6mmU8rZnGY+o5mNaLJDiskeZZ4h4phTFy9x8uIFNi9eIkhiyvkYazVWV9hsiohTXFXgVcjulavYuqK3dRvp5jlcUyKdI0wXaLKMKAnora5zdPUq/hc+jnOOqiwpyoo8myOrnOGJUxSTQ6pnr5Oub5OsblMd3ARRsrIckDcn+fTnPofMatJOD1HWHB3uUxQVqxtbxJ0+SX+BzsIqU57E1hV//Jvew/pin7/6t/9vxpPprbxXv4O2S+n/+1Ye9Nfiq4Lcm+tbf5BX8EW1ddjiZdVc7fr61MmT/H/++B/izu01Dq9dp5gXlJUmWVpnbesEIRbb2LYWOxBo7TF1Qa0lxAsIXVPVmjrPUS6ibgSyu8LG5jr9tXXCMESEEURDnMmY37iKNY50qYO3AusFyBiVrOBFhHNgiVBRHx10GFc183nOYM3iPHgCpIyO/waFrStMneO9JwhAC4tpKqTq0ok7ROIIZ2qEWkGXGdnNKxy98DRl7dm+7XZUGOGsRYoAqVJs0Cfb3WV64xrx0ha2mjG+9hnq6Zgyr9E2oCor9PwQXRzR63XZvPNO1s+eY3Fjo02LrdvIgAzbYhc9H2GdRxiHzubUec7BPKPKZkj5L1m8417iwZBksIzqDAkHrZ8jGQyppeTqlavEaUpVVeRlRV2XBLqiv78Hn/gFhDWsD5dIV0+h4h759adxVcXpzRWUuodfefpZ9g8PqPMZB9dvIOKYG9evstxNEDgWT18k6i9TT0ekdcm3veMBHrxwmv/x7/xjPv6Lt1T5+E+f3dzYubyz+/+7lQd9Ob7iyb25vvU48Bf4oqu7frU6SjtrS7Y3t/hvvvc/587TW9x8+nlm05y6rIlXtljb2sTWJY31BEGEFIJQpMhGYl1C2N+ktmMEObYuyI4OibuGoLtKunqBMAow3uKMoNNZwmjN5IVnme8dka6s47THeoGXCiETrEtoNIR4nIxRvUU6C8uMdnfI5xVWg/MSZIQIEggCvLboum7XiM5gmgJTl9iixAoPQpHnDdJprFXYumC+e53RwSGdlW2iOMHUGiUEqjckWdhkNjri6Op1wrSPcCXjp59kPp5SVTVWG5zzFFlGtxNx2yOPsXnxdoSskVIgO0tYU2CMRThH3FmkGt2kmc1Q/QV8XaLLmmwyY17WjKqS5MUroBSd1VXcScvSufvwzlONj1Clpre4xGeu/Qqdfp9ef4i3Hms0eWZQ16+htWFp+yTl0SFxf4F0aYtmsEStdxHOsr06pNd/gI//4if4hX/7b6mqmnd+zbs4f/cDFNmMG//x40ye/RU6a9uIMGzDbUJwdrHLn/vO383fOneWH/37/+hWhsp+8OzmxrOXd3Z/4lYd8OX4iib35vrWGeBHaNvFvCIIIT6vW7a9fYIf+BN/kLsunGH84otk4wnTrET1Fjl56hSmyJlPM4wPEZEjSkNSZTDe4AEVd0i6HoIOOqyRoqa7tEDaT7DO4iwgFAR9qsozPrhBfmix0UlC1WuVSGhrv1UQYn1AVUGV15RZiRABUdon6ZUEw7ass9g7xBSaqLNG0F3ENhpnG7ANpsippnOq6YxiOkMrCdGQOp/RzHK6dYUuC4rZhNpJVpfX2hrrxuB6i8SL2xjrmV59kWp0iB/WzK4fMD46pCkLnLaURYGzlpN33MXFxx6lt7QMCMrDfZLhClFvmSZzJL1lEJJ6fsj48udINs4ipaecjkFIksEQFe7z4vUdbJYRLy4TLi5jqpLpjWdAeIIwQEYB3U4HLwImeUlvZQshFDrLmE5n6DJkuLKO0ZrxlasIFaLiiGi4gqkK3GSENQ39SPGOtzzIjZ0Dwjjmfe9/H8vraxi9ymxvl8nuTWa7n6SzuEzY62GtxVhLGio+9rYHOLu5xv/w1/8ms/ktSTpLgR85u7nxvss7u5+5FQd8Ob5iyb25vpUA/wtw2ysZ99Kk/VKueBRF/Bff/VHuOneSpqyYHY3J6gatQk6eO08SJ1RGIJVBZyWmclRaUupDktyglML7BoGn019CLnUIlCcOGrAFUoStbrcT+MZSzXPKcYWL1lDdJbRwSN8QeEfgBN7HWBOgS4dtLDqDskkIoiW6CyHpYJV4dRUVd/CmZP+ZzzDIKwgidJVRTguKuaGezsnmFbPKY1WFrB3ldEQUOkRZk01beaZOd4mk28cZjY9AV5r9pz9LMRoz27lGmR3B6Ab5dERV1dRFRVWUDFdWufvx97B55z1IpbBERGmKTPqodIgXgri/fFxu6jh48j/QVIa17fPMbjwLKiZIYWUr5J5+n6DTQ5cZwfI68eI6YaeH08WxLBVIpQijmG435frePrPZlDCOMQgqL4hk6wV3WhMsLYIMEUEHvEHFKRqBChRGGxIh+Nav/1pGkzmuLqmzGVIKwjAgXdtktrfD+Lln6QwXCQZD4POuCN5yZpPv+57v4C/93X/C1WvXb8WtvA38r2c3N95/eWd3cisO+BK+YslNu8Z+3ysd5L2nnbQ9UkieePtj3H9iHesF+bxABwlBX7K5vEm3M8QHXdKVZbzq0LgD8v1d7HyK7C2SJzmRigjDgIWlHp3Y46THEqNdSHCc+OG8wGqDLY9o8pK60qjeEBV0aDw4awmFIUAhfII3HqMdVntc08UEK6h+xeqSIA47OB+RDJaJOwNm159h51c+gUq7qDhB146qMORZxbxRaBbRjaMpdymmh0RphPYh1XxGWVYMN06j8G3uem3Ru2PKoqEuZuTTPXQ9xzhHM58znUxxKO58+FEuPvYEycIatREoEdEJO9hmTp3NSAYruKYGATIM0FXGfPcmycomQRDhhUBGCQqJigK2FgecvXQe4gQVRm2oytY4bXFNg65q6vkcXZV0Oh2qpmF37yYLS6tYJIW2CCoqY8F7OitrBN0+1hhsk+O0xtNaat55tLEEQtGPFUd7h1RZztL6Ks45hC7pLq0wmWfMdncJDg+RgwFREBKnXcIk5Z7tDf7Ud/9n/Pkf+T9uVW76I8AP0oow3jJ8RZJ7c33r64A/86oP4Pm8/v+bL57FW8d0/+gL2mQiIEoGyCAiiAJUFNAZ9tFlRl4MKMdjmE1QjSVcXGdhbZ1+V+BsjbcKggRDjPOtcAOBAuXxtcZHAb6fIPsL+DAG47BOIHyAMxLpApz1WOtwjcW6GKeGBF1NZ9DDBpbad1B1gAwV/e27MI1kcuMadT1BqoiichSNpGwERTmhyA6pij2qbETSG9I0nno6Jur06A36aA3GKLCWutbUdUGRT8mnE5qmwHtJmdWozjKPfeBDnLj9HqyTaO0Jkw7IAK090grqWUYR77YqKs4QJinj538FU9UsnL5Ek49xVYbzDqEUKJDyWGfO1Bhd4Y0B067rddlQFyWz0YTZbI6zbQJQXh7SGIeva+aTCZ2tdYxtxSCqg12iOKbOM8zkADMfYxqNbRqMc3jrcFIRSIjjgMk8RylFp9fBOBBYVje3KJdXeOEznyLb2aG7tMRgYYlOt0/S6XCqn/Cff/u38EN/5a+TZbckZP0Hz25u/MKLewd/41YcDL4Cyb25vrUF/E8c5yi9Glw4d4YH7rydk6vL3HlqizBOsEiUCvFeYk1bLxwEEmkbpIO4E7GwsohzHhHGzCYZURSzur5BpAJ0pfEywAdhW8tsDE4pZCBxGryMcCKEWBEkFpEmgEA5A7Y8/nPa8JYUDudqMBWuqbHW44zAaIWNB9Q2RTYRqgmwTqKGW9ibB8zncyyGotJYBtTaMNq7wmR0lUBp0v6A3sISoYookDgkXmtqKXFhHy80xkyo7ZTSGGov8aL1THcWT/DQ17yX5VPnqCqQgSTpxIShwhhLUxaARqQrjF54imK0R7K8is2nHH32l0nXNgHLwVOfpplnoNRxP7EY611bVOM8OI03Bm8dtqmosoL50SHz8YSsrJhXNe44+chVJUVREna79JbWEWGEd556dMhUV4Q717FGI8MAaxy2qvAvNZ9Qql2XC48UntlshrGWXr8H3iEDR9JJuestb+PTv/QJbr74PAc7Nxkur5IuLLC0sMyZfocPf+iD/M2/8/duxa0tgP/+zPrqz3/mM5/63K044FcauRWtZ/zsqxkcRxHf+o1fzzc9/lbSQBFGIb1+HxXFRL0FnJMUs4J8NsdVOQiPEw6pJCrsEC+u0teepqowgx7D4SrCWpqyRimBVwHOhyCO5YudRYioJbq3eNeuCcEihUYph8Tg6imBSAg6XYI4bGftusDZBmdyTJXRNAbmOd20h/EJxoRoHWCdoKkc2kCjPbWpqCuL9hVlY+kvLnPnA7exfWqN4eIKMojRpjWVyyLHNFAVAcZ4jM4wTYE1Dd56VNTHKEG/n3Lvw4/RW9mkyjKiUKDiAd4Z6rxAVyV1keNNjbQ55WROU5aYsmR24wrFvKR/bsDup36RbH8H5xwqilFhmwnoAasN3mi81bThAMt4b4/RwSHJcMDWxTs4u32SoNPncSGQ0oMxVFWFrXIkCikFwhr0fEZ1sE+xvw9JByFD/LGzxTmH8759uESWWhswjtxYrLWEgaI/GNDUNdbULC2v8uZHH+Xq1gmeefpzTA6PmI7GTIYjFpbXeNO5E/zsiRNcu35L1t8rwP909933ffDJT3/iS+6+8JVG7u8Evu3VDBwO+vzZP/Y9PH7vxXa9FyiUkqiki4z7mLpmun+ACFKqYkbjJYGQKAdCKpAF8eIGvdU15ns3iF1FlY0RxiGDCKUUMvL4QLVe7zBEStXK93oLpsbpdv0ogxRCd6zBBijQ0z3CZBulOghn0c7gvcfh8SpsHVVJF0sHaRWNVsgmQClJUwp048FLrIaibAh7IRcu3cXJM+ssLgTgM4SMsC4ikCFB3CXsOqpGEDaCOs+YHVTUpLholUguIIxFeceF82fpr6xgHSgRYnWBH98gz6ZYY4+VXVoxiCY/QmdjvHfMj46YHe2T9IccPPM5yumIStvWq+lmOCHAWqxu8MYgvMU3FU1RUMynRMMFbnvnuzj/0MOkwwXwIJzB2gqja1xVUo4sDTFxf4DqpHhvcXaT+sQ2kyvXmN68jrYeEbWpp1aINpRlDbbRWO9wKMrGkFc10jvCMKLOpvQWFwiTmLSpue3MCba21hmPJxR52xmlsR5vNG999C383b9/S8gN8DXA9y5ubH3JSi5fSeS+APz5VzNwaXGB7/tD382j5zYRRiO8wzcK1+kTBgmjqy9w/YUrOBkSJSn7+wd0ugPCMCXt0AoZKIGv56TDJZJuBzcaM5vNqdKCIOgAkiDOiToFYdRpW/2oLjiLFB4pNc5MsXWFDCI8AofAGIFKhgRSUk/nBOkizoK1L8WyE2QcEiUBYX8JIxQKi3PQNK0tpxuFNQptFUVt6CyscP6uB+gvreHRFJVDurabh3USr2JEEFHZmrpukEoS93osiC1EZ5miMZimRhYzOolneX0ZFVgCGWC1QUY94s4CUknmN9qqLNNUOKcpqpy6LrB1hbaGpqnoNDX7+01bty4Vzlsa3bRqLUWOK3KMblrCVDXD5WXufucT3PXEe9pqMy/RdYGp59g6QxsNdUk9HTN64RoL589DIKmzHGhLU6WApTOnCLo9dp95mnw2gqSHD0K8920bJATeObwKmOclxmiEKXBaE3nNxoULBN0utsjQpSawhuVhn9WlYfvgj2OKRrOwsc0vffKTPPPcLetr9l9trm7+ixt7N76krJmvFHIr4P8LrL3Sgb1ejz/ybR9mweUU8xlO13ipcF6g9w+YjH6J8XSGQRCGCcbB3sGcMG2I4gUWXUDq2vxxGdf4oKS3dZZ4PMdOdxjPdwnjLkE8INCCoNEodUScpfRXt4iSPtZ5lALdNBhdEbsKYUqc7OFFgrCSuJtQzyaUM42QsnWkcSzaHyqCJIWNHiYEXxgowedghCQIlxlsX8BKSWdlg43z9yB8e74wUpimQaAwRmJJ8UGK8QFORCBnoALQAh/2SToRXhbkpqYxGaeXFkm6EqE8Urm21FV5EAFRf5GF04KoF9LMxuTTMarJ0c5Q6Yq6LKiahkrXOO/bXHWtKbMZ1WQGum6TiFSICAMW1re5eO4cd771rZy49y0EUZcgTpFBSOQ9VjeUo6uYgxepZzPmu/ufN7ebogTvEFLirAfbJtl0+l3Wzp/j5pVr7B8cgpD4QGGDEJA4L9tsvTxHNzW+VKhGc/LkSWSSIIUnCCNU2KC1RtcV3gu8d3R1TL/X49JKj7/wR7+bH/2pf88/+Gc/fivu9z7wg9vr2x+6sXfjVZvnXynk/hjwja90kJSSP/J7PsrZpQ5hGHBzd4/IW5wMKRpNPs8oa40XCgFYKxBxl3S4zHxu2N09QhtJr9SkZU1VObrL7Xq611+g25sxObxCPR4RxH26gzXipIvwOWGk8DiGyxvIIMERohuDd6C8QdgGbywmSTEqxFkLyTJ1UR7P7BFeWAgEqADZTbGJgiHIJYXZt7iRxziBJyXpn2C9mxJ3+tR1QJ3PCKIIo8HUQNhF+xSCFKUCnAFvy3b9rES7DjUNNFPMdA9f5yjmLC8uEwQNQgZI5RBhiHMKpw1KWtJuSJpu4uwqdT5ldv0a5rlnyOeWrKpoGo1F4JsanWXMjg7o9HpcePDNnLhwgeHaGmmvSxhHJN0eKooJkl5bknlwlWY2xjYlndVtemun24dWUWCtJx4ukW4kbeTDWnAOJ1xLYN82WNRlBR62z51HS8X+jRuUpcYHETKK8U5SVAW6zNGzCXZhieU7TrF26RJh2gVbI+OQsIkw2lDXDc6DNg4zneG9RwWKtW7Md7zzIQa97q0qNnkv8HvB/y+v9gBfCeTeoG0g8IrxsY98mHdeOsNgOEAKiVGK+f4+l5/6LOPJFG0cujZ4FTBcWmX7/Dk2T55FyZSdG4fsXN9hHGUYIckbTTjLiUejVgRQhqSDAf2VReZXr3Fj7ya94ZyFpW0i2dDtxfRNjdcZQRIjpMA0BiFDkOHn148m8Jgoom4C4iBCSGiaBmE9CIkLFTYEpwwiCwljQboGGkntQVUeU3jKKiRUfUQTYBqNMwIXtbni1ndxJsUTEShBrDyiPkT4hnRhDWyFlxVNdYSudtDTGzTlnMXFIdI1bWMDKVHKY73CE6ACQRQ4QqnxTiACRRgOSQJHU+bcPDpiVlSfd3rND/bJZlPe+s538M5v/iib5y+hoi7WNtT5mPLwJs30CKsNpiyw1mDnU8rJBBUELJzeQ5dz8IZouErQLXF13bYSrhrAI6TAGof3Dmcsrqmo8gKVdFBRxNbmFkmccPXmDvt7ezil2h7lTdMq48xzHnrLo9z9ljcTDpfANtiyIlTQfN5BKjCm7T1eGIcsS9IkJYgiFoYD3nP3Ba6/65385M/87K24979ve/3Ej+8e7l19NYO/Esj9X/MqvONvf/Qt/J7HHyYNA6TVyKRDb2kVXTcEvQHVtRscjKesnD7LY29/ByfPnqW/sIRXHSb7RzTzGfMOzA6u4JshIowJVIhwHqECkjQhikOGCz2E2GJhZUjRBGiTIcKwXUeHCUJ1iNIB84Ob6LIi7C21HnWX4FzYmngATmAF7Riv0LbCYXDSgxP42iCqCicjykihtcBFHtEBFXiYgqBDnVc0BpzoY32MFwZChRCCSDgi5aCYIGnor6yCMChlsL7EugzfjDDlEb7MiPoSU84J0hgnFM45vDCoQBLHkiAA5SReCLy1OFPinabbi1nsdxhlQ2ajQ0a7u+RZxke+/Tt41+/6XW0JaTbHmRHlaI9i/ybZ7g51Nm+16uKUaGGJqDtgMFgk7naI+n2sqQmCkKA7pDqcgG5awlmLNwbrHM61SUF1UTMfj/Hesry0ireGIAzpDRY5E6VEaY+nnnmK+WRCXZR43fCOd7+Lh97+GMvn78V5T3FwGess4FCBIE5jvJBU0zll1ValZUXJ2kpAoC1CwKCT8L433ccnfvnTjEajL/Xe3wL+qyCMXlVyy+ud3O+mbbr2irC1ucn3fP27CL1u19aNxlYll597mv39A/JZRiMVdzz0MI898QRLCwO88Fiv6S6tIuMOs73rLC/GFLNddl+8gUy6BCqhk/ZZO3GazZMn6HVCkiSiuzQA62i0pcgtTSPRJsA0tu0VJkOaPMd4kF5hbCsK4b1ClIbIOKRvZ0PXNIjjqq66yjGVRjiJN6otEnE9yiZBJJIgAZFAVFui1BMQkGmPSWO8SrAIlFBI5YmUJQ0sFPt4XZBunADfINFIUaHLEXq6TzkbY5sC5yxFWVOO5yAjgp5CJIog9ITKEipFoECGCd7SOgGbaetYq2tCHN1QMok7HGYV3/AN38B7PvIRLIqmzCj2rzF+/mlmN2+Sj8cIJVnYPsHS+Uv0Nk8R9XpIHHiHNiW2qXFNSV3MiAdrqCBtw2/W4Y2mqWqM1ngvsNZS1w1Hkwk4RzKcIIzG04ZDjVGc2Gir9H725z7OUZbzrrc9xtvf/Tj9E2fpLKxTFzmotrECThAEEhFJQhURyAHTLKAxnp2DA4qyYKHfQ0UpdWOgmvIN738Pf+Nv3ZL493etDBd/9GA6fsWdTF7P5E5oZ+3olQxSSvEHvulDLIWCShtsUVFWFdPphL2DEeVsRl7V3P2mR3jowftQwlHMZoSdLmEnxHtDEIV0ex3yNKG3sMiN3T1Ge/tsnjzFmx59iHMXLyHjHnWhcdUUKQwyiVFxRNIFawSWCOsDHJ1W7qisMdojmoYm0oSyQgmDqgKEDpFxgtQeaWqE10gliANFXmRUeYk2ApkOkTIkdrJVR5EOMbME85zQNngfIHoeudbDW4mYW6LGobwjxEMzxxQT0pUVpGgQtkaIhqaaUh7tMd3fY3S0S1kWKBUxL2omsxovCyIjiIcaqSKkjxEmRIZdVCAQYRdv21ZIZbOPqWtwnsQ1+KrksXe8nfd9+EN4IbHVnGz3KpPnnmf32aexQrB28U7Wb7+D/vomKgxxRuNMhXUW6zSuadoYuGmoJ2Py4Arp6ibl+ADbtMSui5K6qjHGYZ1DG80sz8F55HPPEihJGMd0hgskcUItBFtrq7zniXdybXePR9/6CCqO0I1F1229vIo6rcSUUgAI7/HOEAhDP42IwmWCOOG5y88zms6IegOyLEMXcx44fZofW1vjYP9L1kSMgT+zOlz8BuAVlaO9nsn9MeDtr3TQ+979OPduLtAYS50XTLOMIs+Yjcbk0zmzouDi/Q9x521naeZTZCBRQUzQXae7eoL8aI8qLwh7PeJel7jbZbC8xMrmFu944h1sbq3gfYGpalSyii4V1bQgXgwJowQhQzrdNRxBmxSTV4xuXEY78CJA64a6muNcRRLFyLCHwKN0jRRthxK8QTpBGASoBMy8pKotDRBIhdQaGXWQSGxjKQ6mVOUMkgi5sUKgwCmPSME7AU4Ctl2SdBfadNGqxAcaX42pDm8w293l8GifyazAOUEQKpy1HO3tEmPw9RSpO8RigI96ONXBGwFBikdgqglWVxhtqPIC7yx10zDoJnzgA++hu7SGqXPKo5scPfU5bj79NIOTZ7jjPR+gu7SMPW7p671EBh2EbPAehLc0+gjvDDiPCEJm1y8jOn08Clu14bOmamWUi6omb2qK2ZxiPqXXG5AMh2xdvEi6uISQbdGQznOK6Zxev8upE1v4qqIYT+iuncEYTRhJwnRIFRzgfYn3AnfcX91Yj9MNAsFqL0acOctnX3iByWhEoGvSbo9BpHjszQ/yT378n98KLnwA+Drgn76SQa9Xcq/zKlQqFhYW+NoH7qCuKxprGY/HTMYT6vmMyWhEZTwbZ89z5uRJstmUKAgJowipPEFZoYs5tmkopxOcE6ggpJeGPPzwm9jaWCNJY3TZ9rBGhISyRgso5zUqrREiQoaKgBAhIspixnRnhzrPEYHE1pqmqPG2wMYhwg8gSFBGQz0lFDVSWlASvAIiZKAIIokvSmbZCCk8YVTCTKNcFx8IrExaTTUPUWUIxg0qkjgv8ErihMBYi5chKu5hrMFYTZMVbarm3j6HR4dk85LGRqggwQQRdTHjyuEhUo9ZSCOaaUIgThIlQCBR0SK99XMICdVkn/zJf0cznbYPjnxOGige/cAHOXX77TRNgSnnZNevc/PpZxiePssDv/s/I0j6gEDFom2NpEK8B2sqnGlwuqYRY/Ae5zwcdwdVQYStS4wx6LqhKGrysmJ/MiGfz8lGh3TTLuvbW9z25ocZbmwhpMLUc0wxRWqBSwKE9236q3GUk2n7UCrn5KNdnC5w2qCzDNs0OGcwxuGdxwsJzhIIwfqwg7ztAp968iniQHL63Hliq3nH/XfxY//8J7HWfql8kMCfBP4l8EWLq6sv9axfJvxpWq2pV4T3v+fdXFhM0c4yGk8YjacU4wm7BweQdLh47/0sry7jrEbY9p/ktMFah65KyqxNpiizjKaumWdzep2UlYU+StpjzXDAS7xUIDwijGjmM4KkcyyMmKCCFJDMDq4z3x9hnCSIAiajm4wmh0hJ29o3SHCmwZZHmGIf30zbZvfYNltLyHZRLSLqpiGvCnSVoaRFRAkq7eADjy0yzGwEXtPtdQmdR2lHYCESAmlKTDZFRDE+TNoWunlNOcvJiobJLCPLa7SPIeziZYhzhqqYMJ4cMp4cIpsC6oJOL2WwuUGQpvSWTxKkKQDZ/ovMrjzH7GDE9OCAyf4ul976Nu5/13txIsCZgnL/Jld/6ZNoPA9/9LvorZ1tGx7EHaQM29nZe0ydgXPYpk1c0dkEW5aYusFUDbooUGmXZj7GVDVVVVPVDTvjMXuHh0z2D2iKnLseehN3PPQgg42tNs3VVtg6x5V5m2euTavb1jRYY8gmY4xucLok37vOfOcG+d4ezXyGLkt0VWONxfo2D/6l4pdAKtIopNvtEnb7qCBCupoTq0tcHmW3qjT0FPBp4LNf7IDX48x9HvieVzqo0+lw+4k1iqrCecvRZEY1nTKbjOlvbPOWRx5DeM2Ll59nHsWU/R4LaYdABQipENMpwWjCcPm44H98hAQW0z7FbNySJvLY4/pk4T2BlEjpELbA6wrSLkpJnG9asz3u0V0J8OMRQsLyUoe8KjFI6sbg/ASrc1x9hBIVsRKkUUKSxG33j9DjhcFaQSgqQqnJK01sUtJIIWKwJqfKDxD1mIWlVRJ5nAlGhyAOkb6gnF9HWojCGFtPWnKXU4psRlFUaFJkukbcFTT1nLo4xJkKhEE7zXQ+I5secn5lyJ3vfifhoEsyWCXsDjBVTlNMGD//GabXbzK+uUM2GbN520XufvxrCAerSG3wtqEcTTi4cYM73vO19LfOI8MUWxXU00NM1c6azmhMkxMP13HGoIspuijQeYFtGnTZln9mu1fbctBaY6zFOsesyKnygtFszsntDbZPbtJZWkBFETiN1SW2ylqSNhpnWm871mC0pdCeKz/7M6wsLtAfDPHWUOc5vi6QSYcg7eG8x7g2D91LRZgkxFFEHEdsLg3plpqDec7hdM4gifnGd7+Nj//8f7hV6i1/DPjHwBeV2PJ6JPf3AquvdNB9996DqHKqSFEUJdPpnHw64/xd9/LYI4/QT1Nu3LyBQjLaO8B5j3PuuO9XSBDEhNpT1NeYz+fgPSc21rFaoyQ0VQ3eI7RuG9lbg6kbkqU1uqsL2HrG6tk305QNVTHF2RAhI5JBgKlmSAVrG1sE8Qq704p5UWAOD5F2jrM5gYIwDOkkmq42qMahgja/XOuaqtEEdEi7fYi7yDSGwOGKkk4iWTy9QpIqvKgQQQ8XBASdBDffo5nu0FnbQtZ76NmcRjuyyQGTyYimcYigC0EM3tDUc2ajm0ivEb5BSU8Uh5y6cBsPPPwAi2dPEcV9kuE61lRUs0OOnv0VRk8/zf7Vq0zHY9KFJe75mvcy2DyPSvqEHkw1p5rP6C4ssH33g8fEzsj2X6SeH6DzGSDwTYOIE2TSx1U59XSEns8wtaapKnRRMR1NKcsKqQKch6qsGc9mlJWmKCsaY9jY2mZpbYUgSog6CzTFUasxV7SbbhpsrduiHusIJOzt7/G5zz7JYr/HwqBPRx1Lcrk2eUekXbwKMd7RHKv4pFHAoD9gcXGJJBYMOhFZXbPbWCZ5xv2nNrnj0kU++7mnbgU3HqVdf//jL+bDrzdy382rLAy55+I5qiqn0Yr5ZEqWZdz7prfwyIP343XD4cEe0/ER2lrm0ymT6YyN7U3Sbo84iokCiysL6qamahqWBwvUdYWwkm4YYK2msrqd5aX8QrfPOKW7usnOJ3+e4e5VOuunKWYNOs9w9AjihDgGpCLsLhL2FEF6xAvPHbB/eB3VTEgiRZT0aBpDU9cURU4QpYRxgrc1VVXhCOkMe0RxQtOUmHxOEgek6SJxEhLbIwQVIvSIuEvZNOhyjp21/cJsOaLIZ5RZQVZpirKkbhqMdjR5RlmVeFMRKs2JrRXWN1ZZXBmysLJIpxvT78WEaULcX0WqhPzgMtVkn+zGNWbXrrPz4oscHB4RKsXZB+9jeOIUTls8rf66M63JvX7qBFGnj7cOXRVUk12K/R1MfWxxeE/Q7WHrBn/8ANVVQ1O1s/Zkdw/iDtHCCsf6VfigInEgR1PyoiTtdFhcbGfsqL9CMlyhnNzEljmmrmnqClvrtmfbcdKLd4KlpSVO33kv1AWDpSU2NjeI45DZZMrelRc5uHadUus2vBkGqCimSlMa4xAqYLHfI+31WFsYMJrN2RuNWV5Y4ANPvO1WkVvSCjr8M+C3XMi/3sj9R4HhKx20vLzEQBiy8SFlVTPPcs5cupMH7ryd2eEu++MR2XTKdDxhNJlSlgX7hxOuXt/l1NYqw8UFVJzQmNZ0ipRE4oiTgIU0xukQKQQqDJBCobzDeoFUkrppIEwIhss89dM/Qbq4Qnd1g6C/jIwUgQroLC6QjUaEnYgwiFnbCunEFuyE3T19XF3lEYFACYdSrUpqoAJMU7ZaY/GQKikY9pdZWlqlMxwiiNq0S2/amLU0CGfxjUe6IWaeUeclLoio8xmTw13GkwllVbedMb2kqAwqVGxtLnDi1G1sbK0wXB6SdtteYR6Hcw04iBe3iLuLFIdXyA5uMn3xRfKbN7h59Rq7u3uU2ZxLD9zP+m23QZAeSzNP0GVGNdkn6nZZvO0OZNTBW8N853mynetU0+y45LN1JsaOdk3sPabRmLpuiX14SFHV3Pbo47hsis4mGGORwtFNAoa9LhpIwpDlYY9kYZnO8hbOGXQ2Rmc5pmpwjW6VcYzGGocDKm1ZGvbZ2tzEWkt3OGC4tkwQtzXixex+Dvf22bl6ldHhEfl8TlXVNMZiphMaXVOWQ1bcGsP+gNObG3yuLBjNMt573+2MPvYt/NN//tMcHB5+qRx5Angn8Fs2Gn89kfteXuWsffedd9JJItTyGn48xiC5cOY0+zvX2TvYJZ/MyCZjRNLltjvuRgrB0WzO3sEROpsxOTzEGYsIAsI4RgtJMZ8hhMQs9ElUQBgopIcwCACBdZ4wUERhTfnUp+gurNDgGV1+ns7+Lssnz7N05hJKeMpiji5LZM9hbdu+d2n7JG9fXeDKs0/xqU/+R6aHO3hTIaUk7Q6RxuC9RZcZUkSE64ssLvTY3lwi7A5pZAeLQtoSbyucs6jAER7Pan6cUVQOQ4QNejTlAbNsTpbPaLIZ04N9wrTP+QfewoW772F1Y4UoNEhhwBu0blVTvbPEvSW6KyeRQcj4+U8yvfosxcEh090ddm/c4Oa160wnE5Ik4eRddxF0hkTpIrYpabJDdDmlno1ACJKlDWQYM776JLPrz1GOZ9RZjm4seZYho4jlICJwDvDHs3ZFnVcc7B1w4r4HMLMJ9fgAoRTOWRCSQCqWhkPSwQKJdERSIoOAIOkyv/kMzXyKrhp03ZrjxpjWOWYdzjmMNm0+ujMoPK4syA8cQZqiAoG0jtWlIevL9+JalyeNMZR5yd7eHtdefIG9g32Ma4trBoMhJ7e2GR/usSrgiXsucWp1mb//kz/LZz7zRfvEfj2EwO/jK4zc3wP0Xs3Atz54H2eW+kzqiq0Lt2ObCtuUvLC7R5WVmEazevYS991/Hyv9Dnv7ByyVDRfOnsV6qKuC/d2bjPYPqbRGW4N1goPxFI8gCgSBFARSooQEKZEyIAoColAT5jk3r1wh7C9x+yNvI0o7HDz7DJf/w79GRQki7EPYRw0sMu4h0HhTE3X73PXQm9jeWuLZJz/Jc8+9wOF4hp7P8BiENXgrWD97jtsfeoTNzU2axlN6iZcBom7w9RT8HE/b4tZbDaYi7QjK0RhdaRoLdROijaTJco72brKxucGbnnic7QuXEEGIdQ3eK6yIQQYI2UUoidBzQDHfuUx24wVmN69STObMRiN2d25ybWePejJjOs948K676C/0kVGHMO0zvfk02cFVnNY0kxnVaMTs2nNYnVPuXKWezWmKijKvqMqKw9ERg5UVtPE4HHiP1gbTWEZHR2hvkXjyo32iJG17pxkQGHCOUEkGvRRX1dR50YbU6pI6m7ShLGvbNFnX5p5rbTC2Ne2dEJTzGUkcEUURKpCt4EZVoaUAqzGNwRjTiinGEZEMCGPJ8NxpVlZWeO6ZZ5iND7gpJFt4locLTGdTirJgdWmRw9GI3//17+VH45hPfOJLquZ8P3AJePo3+9Drhdx3AB99NQO3t7e4a3uNTiCprcVLD8IznhxRljW1Npw9f4l7b79A4A3ZdEQoPL1I4jxESYdkfYWTW1uUVY1xDotkMj7iyaef4mg6oxsFOO9REqRQeCmIgoBQKeIkQTqPbgynN3qU40Nc02ft9rswjSHqDCnmFbNRQba/R39NoiKHUh60hjDh5J13s3n2FGef/CxXrlzjuSuX2b1xnap2nL5wLw898g6Gi8tYL6EzRIgUVxrM/BBlxihRIoTF0eBdOzshwOZHmKKh9h0sMcguZe259MCbeet7301nodcqi4ZtfbcuckxV4qzFaIPwGleOaSaHmGLeKp+WJdPZjL29fXb3j8hnc7K8QsQdTp45i2ks6eImRpcU4x2a6awt7shyrLEE3UXynZvo2Yy6qKnrmryo2D08YDqbMtjYatszNa3cUl0WHO3us3+4z8nb70YKSdgfEEiBN01bJOIcHk8Yhiz1+8ytp9ENQgRUeYa1tvWQHD+YXwpleQ9Fo2mMQYUxVdUwOzpidWsLoRTC27Za71gfXdcWBxjj0Y1tq+mcR0hJP+ly+x138tSTn+XwsFWb2dwQ9HoDZsWUrYVlNlfXCKzmez/2TfwF5/jkJ3/51fJl4Zgv3/+bfej1Qu7fT3vBrxgPP3A/6BrCDlJAXpZ4a+l2+ggvWN1cZmlxyHR0QN00KClJkoQkDAjDkDBs49VRErG8ukw6XKIuCz77iUNCpzkqC+o4QTiPxCPDgEAqCtHgESRhicATRwn7u1cZH+2y0FtgsLDCcG2DME7prW4QLSaMrl8nP7zGYKWPTARKBkgRUFUVKuywuLWFr/M27BVGlDrh9vseoZP20MUcLyQilIQEKNEwL0fUtoFQ4LxFYrFN2wfbS9mmZeYzymaKlymWkEsPPsb9D99B0k8QKsBbS7ZzlXo2o5gcYau2nNLLqC1qsRpjDbqpqKuCbD5mND7iaDRmOs+oa81eXnHP7bexsLRMurZF1FtieuM5mskRrqrQVUOdF1RlTZNnNJMJujY0VU1Z1szrisPprF1bW3fsFZ+Rz2aUeYGWijP3PsjGiZP4KsPjcceySN5osLZ9+ApJJ+1wsL/PPMuwdQnO0OTT9vPG4IxpBRoAAkkYRVTGkRcl1sMsy1imLeZxziO8wxpN01icdcggoKoNTZ7R7fdaaScpsWUBHja3TzI6OuLgYB+hFN2FzdbHoWvSJMZXltVhyp/41g/z5/Ocp5559tVy5iPA/wD8hgLqrwdybwPf+moGSim5eOYERZ4xno7Jy4yz5++gnyYcjScYo+mGAaPRPlNraJqaIIropR16aZdOEhNHhjhKiHoDpJIY02CaNvTktCGfZ1TGI137T5beteZ5GBCGCToKAU+kHbWu6XW6aCcojaWoKopc01kxqM4yveUh0xefIru5R7S9SW/jIlHSZ7Z/hca1ed4ilERJj+1Ty4hklSQSuGaGUiAYIJBQV1CNMeUR82xOk4b0I0EkLTIOkGGIzguqqqHIM4rKoPWEtTMXufTAPfgArOxTH15l/Oynme/doKkrjHNorXHG4oWCKEUIRWUtjTHoRjOfTRkdHDLJM8qipNYWK0LOnjtP2EnpnbiI1Yb57mWa2Yym1tiqoqkaykaTHe7hjxVXqqIkq2rGeclknpFIQZFnzCdjpK7pLixz8sF76fY62DxDj/fxrU4qHIs3WK1pmuP1Mo5QBVR1Q3G8z5ga1zStY65psPXLElG8QypFnHYpTMYkn9BTEq8inG9DYM4abGNah59oe6jlVcl4PGYjDEk6Cc44mrqkyAtm2ZyTJ08xmk7YPRoxcCG2LinKAqEiyqYCITi9vswf/ujv5gf+yl9n/+BV9QK/g9a59humpL4eyP1RYPPVDDx9+hQdaTkcH9IUGesnz7G5OACj8Z0EnKKxjrquORxP2nCMUiRpzrBXMOh06aYp/Y7BAP2kg83m7N64yeF4jFWq1T1D4nVDNh5T5SVVo0EIwihiOBww6PfopAlRElMUmqK2dDo1i1ZgwyWsmhGXhnTQY+nkJrOrzzO9cYPO2kmcVzhdo+f7OCGRQYKIB3TiLl5KbDnCaEPQXSKMI0QAzXxKMdklm+4yOTxAJQF2eYl+FOKsQFbtMqGoNdpLrLYEKuTsxdOEscR5hRUdjOgw3tvn4OYudd12EhFS0Io3WawTFFVrOhsZ4+MueVUyKS1ZrtHaMskrVtfX2NzcIohTyvERzXxKNTqkKRqaos3Dn8/mzPKSblni6wpd1+R1zawsOZzNmMzm9DodjqZT1jc2ue2eBwgDiStzyv2buLolhUfgvW+FLky7BtbeY7ynco6mqcFopPME/WVM01DPM3RVYesG3bQppM4atAcnJYEUdKKAAy+ZVjXZ5IhwZaWt2zYWayzuZc0sGgeH8zlpt4f2Egfs3rxOOTli/eQZ1jfWWN8+wZPPPMeVK5dZXhyS5zn9hZS60ZRZxurmFqeX+vzeb/4GfvAv/7VXc/sL2tn7dUvuHm3Hw1eFC2dOs3/jBuiaheUVlpeWccUM5xyxatdTeVlTa0sxz5jP5+i6Jun1qJYWyYcFy8MFjHOElaFoLEIo9vb2mMzmVE4io5hZlqGsY2Nri15/SF3XTMcjRkdjdnb2uHbtJv1OQq/Xpd8f0h8usL59CpVqwqKBIKNTZbjqiO7iIisX72D/qV/h6PKzrN52AafbRgXaxtR+iEwS9HyG0FPSTkgQdXBOUI4meNVQVwVFNqKuc/JshMksQjnUcAHnFcrW1MbRaNqEmyDgxLnzdPs9nDOEkUQA6dIW3dMXKbxgKBz91RW6i8t0BgukvT51WXJw9So7V17g8uUr7E5mFI2nUT1MIsnqEYfzEW960zaDpSWsijn4zC+hFK0pm5eU85yqqtnZP0BEIVWRY6uaWmuypiGrNVlZUZQlcaDoDxY5d8e9JKEi22m7f1rTmsTQ5pc71zrDtDFo5zDeox3szWZcu36DbDxGKoWuyjZ3/NjqaKqGutForbHeY4VEKNDWE4QhK0tLHIzG7Ozu4pqaTr+P5FjJVrSmuvAC7wR5XnDl5g4rK6vUdcON55/lttvv5MT521DeIBHcddsFxpMxXiq0gzhJCOIORWNwzrK0ssy9WcbXPPFOfupfvSpxh/cCJ4Frv94vX2tyfxC459UO3lhZQtdztrdPsrm5ReQaZnNLoBSN0eR1w2TeVoLNi5K60SyurGGNZrR/QFPVCK9aVU8ZIOYZxlr2jg6p6pqqLCEIOXvmLA/cfRfba2vESbtWnWc5B4f7HB4esX84IsszqqKiaQxFWTI6GJEOtuhoC9kYLWp8J0V43S4NNk4wvvIiURoCgqqJ0E5RaU1V5lTjXWw5pbO5TdhfIF7YhKCLrmuaWhNFChnGGF0zy6fEvQ6hCvG9BGEKGm3QBnABaZqwvr0GXhOokDgOsbaEQHHqvoc4ddedbclrGBCmbZ63imIQklNvcpiq4OjKczzzyV/ik7/8GZ65soOIA3yk2TgRc/elS0RJzPJtd3Pzl36ew6svEiYpdVORz+dM5zP2RxPWT58mL2uaqkRrTd7UzIqKyTwny3JWFoYsLa8QRQHVZHScPWbb9bJzWNP27dLWUBuDNhpjPRZPZT0H44y9gxGqLoh6PeLugGI+xtUl9tjTXdU1o2yOM5a02yNIEqyXKKnopSlFWlHUNSrtQZgy2b1OGMcEcQxSgbNkRc7hjRtEYcDR/h7z0ZhuHLJ14SJRJ8VXBcI5+r2Etzz0IJ957gWKsiIUnuHiIvlkRF0WpP0FoijiI+9+Gz/3879AWZavlAJrtP3of92p/7Ukt6KVKn5ViOOITqw4f+oiW2trNFXOZDonkAFhELQmX5EzmxfMsxwVp7zj0bdx6uQ2TV3x7DOf4/LnnuLGfM50eZk4SXB4jHXMZ3Om84yiatg6eZr3Pv4OenHUNsvDIpH0Bz3iJGVleZ3bb4e6aciKmqKsMNYyG81pipqjvV0CrwnRnDi1TdrtUc3mLJw6TX64z+7lF+munECbiLqcMZ/sMpmOKY7aApP1zS2kEMhA0V1ZwjYlUQRVElJVGWG3i5mO0E1rgmunkF5gtMa4Vnp3ZW2JXlchXEGSbtBdbMNNQniSIEIqgdENUdoF4dFVRrb/AqYucaYBERAEMbfddQdpqPDO8OJBTqkdpzYXWVlcxDSG/HCXeDCksJ7ptesIKZjNJkymU7SQ1MYym2c0pqbRhqKumc5y8rygrmuSTpduJ21Tbo9DV1YbtLZYa2iOy0ibxlAZg9YNjWs1yGvjaYymzmYMVMBwZQ0ZRZSjXXRZtskm1mGBo3nB9OiAlY0NFuQyYRBhTPvQ0FVOaGviXh/TNFTGMS2nCCUIgraq7tkXXuBwNOLk6bMsrq6zuLpBNhlxcOUF0vC2VjYbj21qFnodTqyvcfPqi+i6pJN2ONzTNGVBZzAk7fdYtWPe+pY381P/+t+8Gip8CPjf+HVqvV9Lct8DvOPVDr790iXSNOG2c+co5zOk963utGgQQpAVJeP58Wxaltx//4PceXoTITxqdZXVlWVWl1f4hY9/nJ3LLyClREQx2kNdt3rWUW/Aw/feRV86mmJOWdfU2qGtBxlgnUd7R5p06EQRYUey2BsQd3qUJxx7O/scHY0pm4bF9RVWNk4Qpx1UFKBCxeLps9x47hp55XG2IJ8fcnR4kyLLyCeHRN1+22rHNm1XEjPDVRl6uktVaIIwpNNfIIx2KauCobfHZqvEOFpiGlhYSFC+xLsAIQy2HGOMRQUhTW0ojq7QWd3Amgqdj7HVnHq8jy4rvLVtBRQSiyKUno2lHgdHI6SrGfb7EHZBReR7N7CNpj8YsntwyNHuHsVsRlYUyDgmmUzodjoY09Do1iSf5CVlWYF3DBaW2i6nZdGWc2qN0ZaqqWmahtpayuP04KpqqI3BS4UMIkrjmBUFs1nG6bMnWT19jirPKI6OqMsaXVZoY3BA0h1w8+YN3N4BjfXESRelAqw1FJMR99z/AEvbp2iyMXGoGI3G7BwcUkzGVPUOV5/+HGduu8A7nngva+urqDBgd+eAZ3/h39FLEpY21kGqVj1GViz2+xxFEWVRsDRcpNPrUVWtQGYUJ4yrgsff8iA//bP/tm18+MrwGHAauPxrf/FakvujQOfVDn7g7jvZXlohFBAkAaOiIVCKvGwdXrN5683N85KVlVW2lxcosmmboCAFYbfPfQ+9iYWlZT71yV/m4PCQ8cHBsXe5ofGCB2+/m7NnzjC68SKz2ZzGeWoLjjb7qY2eevpxTKQglCFh0gMBkQzpnT7J6RMnSDsdhotLxP0BMgyJkhDvHU1tkZ1FiqrGVmMmoz0Ojg5bs7XIcUGAbnJsHeJzSbg2BFkhfIH0hijwDAddDpKIssgoizlxEBKoCO3B1g1p3GEwSHGmQviYYu8yhW17eTsv0XkOumSQTbBN3VZmNQ22bnDHs2fbpQOMg9oaoigiFppINIRKIFSCEyFNmWGqAqst3X6f0SyjDmrmOsPWc/zuPktra0gJZdlQNA1lWZJlOXEQ0xsMcLrBljlW15hGt7n+dSvCUNQ1jW7IG8s4K9DWEoQxncRTOagaQ1U19Lop6WBIPR+ji5ymah8m2jpq50jiiMXNU1x7/hmyvIA4ptvvI5qKu+66j7ve/jUUR7vQ1EQSloZ9vAx45so1PvfUr4A13H/f/aytr2KbCqdhedhjZ3mda1ev4MOA4XABqzXeWcK4R5x2mEzHLCwtM+j3aebTNlSHoGoMFzc2WF9fY3d375VSYYVW1OR1Q+5FXoVU8UtQSrG8uEAaBtCUBEKCVFR1Q14UTLKSuiipsgyrAra3tzFNSWUVznmkaD3CDtg+sU0cJ23HibIkm2Xs7O/y1PMvsrq8hPOC5ZPnKZ79HLvXr9HIEKlipJLHmlwx9jh2mqYdpOQ4qUIQRxEySEmHQzqrG/SX14k7CeX0gOnBiLrygKDMJxTzfebFDGPM8fo9hyigysf4yOEiSxydRxgIQ0usNF5pkgA6Uch0ckQ2OyAKQ+Kkh3EKYwWbS0tEQdB2uqxrdKUxtcbbBm0EjZV0BynZ3kGb3eZcm5KpNUY3rblqLJZWQbhxHuc9/X6fwaygKmatUqmPcU6itaNsGoSQdBcXaMIAkfbIshmF0bjxmH6vT2UcRdWQlxVlkTNYWSIII5qqpFG+VUE1hqppyKqGqq6ZlyWl9lRGUxmLtZ4gFsggpJ+m9LIc8IRJjJKScnREU5at+W7d8WZxTtLt9citZ7K7y+LqKjjLifV1brv3fsrJIdXR3nHYzODx9LspDkE+nfHomx/grkfejq0LXJW1Xnht6C4scO3yM0T7ewQqhOMEm1hUpJ0OR7sj8tmUuNOHNKWuKuKkixEQuZo7b7/91ZAb2nX3j/7ana8Vud9FW7f9qqCkJAgU4KnyHKkABGVdM8tKqqxgOpngpeTSpTuIQpjlOYFsvcT9XpeBc0QeTJKwuLrConPUVU21pBl24naWDwKKbM7G6bNsnLnA5Rde5HA0Qnb6RJ0eUaCQPqBpwDuF0Z5AOYIwIohSgjhBqhAZCaQwlJObzHZrdFFSVBJDitZTiuk+VVVQlhVlU1HW7asdaebzEUvdgKS0lPsv0lnbptMNEbYtxyyUIY0lztRMJ4cESpF2G6QKUUGH3uIGjVMI59qwXlnT1A5dV5SVRqU9Eq9wNgRjsXV9TGhDcyzCXzU1xnmEkhgvyOqKKIzpdBPqusLqCuc6eGKsk0gpiJKUoWqdfmEYEyYxR6MR03lJWRtkGDIrKqqmrfrqdY/X+9YcE7u9htq0MfZcGwrjKLT5fBWWUu0DNE1Tkm6Xwzg+zvdPmOzcoJmPqbKcLMuY5Dm1tRghUWFMYyCIU9RSxML6Fv04ZH37JDvPPEm/EyMFWGtaqwWP9QHeaNZWl7jv0be1yS9HOzitqcuCutGtfJOMOBiNSbpD4qjVo3ce4jAmr2vGszmLUhFFMQ5PBIRxwmw64c4LZ/mZf/2qvOaPAMvA0ct3vlbk/hbaON2rQhCGpEmMqQtmXlLrhmmWMc9Liloznc7IqooH3vRmlnop8/mMKmwbr+NhxbUKGj0UcRAQJzHGQiQUZTHBeVjpd4mUbHWqq5L9a1eYZTlNXmJrj3EKHYZEUQdUgLGeVEiitEMYxm36ogBJQyAibDGhyGvq2mG9woguxmuackY2H2G8p9E1RZZRVgVNXZLPaubZDKP7mIY2Hz0JiVOFqyy6yPB6RjcRdCJJVmTkYYA2mk46JAxSvFAYE+GMx2lBXVmquqYsSrQ2LKQppq5xQoJplVl1o6lqTd1oam3IK4O2hiAMEIGi1B4bxvS6g9ZEnk8I4h5BmGBVhJAhcRQgVIhUCYGQNLohjkKKqmKeF/jjirrqOCy2sLiExCMQWOdojKGxLcGN1e3P1mO9p7EW7xxBGBDHCWkc462lqes2wSgIGO3eIJ+MmByNqIzBiKD1QwhPEkBeVShvWT91ipW1dRbiGOEdk8kYnSvSJG5bNbk2acZKS1OVnNjeYnl5lcm1y9iyjZ/Xx4437SxWCCbTGd3h/5+9P4vVLEvP9LBnDXv8xzPHnBk511ysiSwWZxanJmE3ZMltywZsSDAsQIYAX0hX9oXhC/nGsA0DsmUbcttyo1u2W91So8We1FKr2U12kSxWsXLOjIw5znzOP+1xTb5YO4JsqklVVmVmk5IXEKjIqIz/ZJzY315rfd/7Pu+SSTlBiEBAkuoC6wIXy0uyrEC0PWWekKQZWV5SnW+4ffXgBy2JW8AXgf/0n6qTH/TTfoj1IhFZ/AOvL3z+c4S2QaaCqu1ouprL5Zr1pqGpG5Z1zYuvvMZzVw54cviYy/WaPItv4yRNqLqerGpwLjCXkjDfRqUFtq4pxiXb7LI4PyHLMpSQpKMJ051ddJ7R+gVNs6EQMJpMmU0nzMfxzp1likSDlCBk9Anr0RyZjeg3FW3VYiwYNNat6PqGulnS9n18mLuOqqkxXYtpW5ZVxeVqgTX7OKcx9ZJ8NKIrCqrzIySeyWzCannJeJSyaSqM6RBdQ2UN43IWCSQerE+wRtOawGK1oWk25HkBUtDXmwivCCE2u6yhtp7eS2orWdUGlRVomaIRBCUIwZDqhM4ENnXLpG/Jdbx7B5UgnUUKh8SitSLPctK8oLSOi97EED4XaOqGJEmYTqcgJFJA33dD1raNHXDrovnFWLreAIFEJ5R5SZnnBO/onUdrhdQJnTUsNzVN5yArmU4TGLjrLoBxHlW3CNujpSAXsD0pKbIUawx9taJpY9RRb6OLrxMJF6fHXNnf4fD+XcZpBEg29QbnY1hjolOE0tRtx2qzIUtztFIYZ0kJKKVZrlbMptvkaUrfeYpRPOm1fYdOA0KIH6SppoGf4E9Bcf8ysP2D/malFD/6xc9yfvgYtrZwposIn4HCsVwuGc3mvPbyi7EbbC2Hh8dMp1PK8ZhSJNRthxIC7yEvRrRNS56WOAYjQACp4vhHCoFOU6bbO0znM5qgEXWLdYFrN67z0s2rZEmck6apBgFSOqTUyDRHaEW32dCs1nQGeicxrqU3LXW1ZrO6pGlbNtWarqvo+pa26zCmp6rW3H3wiFdvHDApEvrVBc3yHF1OSbIMOxLMyzGbyzPm44KzswvWqxUToO4tUgi83eC6FGcEfdfTdAYvFfMr1+jaht72KGciRy5IrDNY29O0La2xHD45ZV3X3HjhBVSSkmUl0thnijZaQ2ssrbEoY8FavCeKRKxDeI+WgklZEryn7w1JkmKdxdlISi2ylKLIUIPF1FlD38UOuTXxmO6dxQePlJI8y5iM4snKmQ7vJElRkqUJQsWfz7f3GGUZTVNhuo62q+OIDYUQcvCK9+jgGaWaVCuEt8hgUToWZGvj90UrzeHRERcnx+xfu8ZytSLk6aA57wlCRGLNKAeV0rpAVTdMJwalkiHxLaCTjOXynN4Y8iwlAMF7losl1XrNwf4trl2/zuMfLA74x4in4Wdvhk+6uBVxLvcDr89+5tNsjwtO6pw79++xubxECxBC0hmD8Z5vfP7zXJtP6IXmhVc+xflizemjB1SjMdOdXQTTGD2Loig7yq6lGGJ3Te/QeUmQCqUVBHCmYzyd8vyN5xlNNhw1HaVWfPHF24zzhDB0zwNxFipkHDp6B265om96utbQkWI91PWSrmup2o7lpqbrWjabNVW1xPQd3lnWfc+iarj/5JiLxZK9yZS+bVncf5ut258mLSe0mxNsb9A6HiPHZcbjOw9ZLVckScKVg6so12CrE6wR9DbQ9h0q0QTvMLbHqmioMA6MB2N7OtPQNDUXiyXv373LdHsHKQOpjqabJFMElcUivlzSNoa6bZGqhiGU4KmjyhOddJlWjIqcyWTExWoVj7zW0LQtB/u7cUQoVRx/WUPbG7q+pzOGzkaIpZKKRAmyRCKDRaqc6WQWxbJCUK03KGdIkwTTtXRtQ9fUMa/MGroQHVxK5yilMV2HaxuUlJi+p7d9TBt1NjYJPSAEVe/5/e+9jszyZ3LmhYnXBUJAqgis1c6SFCWd80NYIBAC+ADOsLW9y8X5Icb0OF8itI62VG+pgyKYnl/9xW/yf/n3/uIPUhpfJCaUPH76C590cb9K5ED9wOtrX/0y88mUcZ5xlmrOlOD85JRqs2JTt3zhK1/mcy/cINMKJ1NeeOklDvb2+M//7q9z5533aduGvt2jKEuMl+xs70T1Ut8i0xzZ9dBahEops4wkS/BdS7m9w2e+9lWWp2csVxXCGqR3dF2LUkk8iwO2a0AoXJA4HyH5xgl6Unpr6ZoNq9UZbe/onaSuG6q6ousabNdiupZNU3N5cYGVMNqZs+4NTd8xNob24pzN+BFCyugC69ooi8STakmRK+4+fEBWlPz8z/wkRSro2xrTB7rO0LUdSivWyzaebESC6+NJxAdBZx3GGFoXqDvDuu7Z2k9IE02aaJSIXutECShysrJk0xqmxkNdocyGYDYoofA+HqGNNzRtT28MUkCeJrRNTAbx3rO1NUeEQG8MjRKE3tBbQ2sNxjkcgqY3eGuZb20xHo8Zj8YUxYhgOkzfUdcd69UqOudUQtu29H0flXomnkacUCgRN7c8zzBC8+jOu8xmY/r5FsJHsczTRFIlFSIp+Na3v8PZ6Rm3XnmFEIgqRNfGuvUWiacsIOl7iqIgSdLYcxnspcp5ut4wn83Iiglt10eRjhb0PmDqilsHe9y6fpWQ5fytW7d48OBDx4MdEIEn/9yK++eA6Q/zAfM8Q7k4X90/uMK1q9ewpudysWC1qfjci8+TKUgSjVIJpu1Ilebmi69QNz0fvH+H1apma3sbicLcguA83gVs3+CMp+978jQlS3VEA4fIqdZFyXg6JctzNqsNZ4ePybKcRIE0NnqGB+a4Ewk+SHoX4g/fDi6tFXW9ogsSR0LdVFTrS9qmoek6LtZrjo/OcMHyxS99ltu3byMVfyC/bFr6zZpsOkPlJWJdQwjkWc6oyNjemfPoyQl115NoSVtVmLahtxZnfUzJbAPL1ZI0Swgux1oD3mId9E5gvKRqe5q2Azw+OKwPeGcJtkMGogJLeOY729S1oVou6RJFqi15sBjfR7ukt/R9T9N3dDZguh5rHD7E0D6AMk8JQ0NRBI+3hq7raHpD7z1V0yKD5/bLr7I1nUe9t3f0XUXTtVgfaE3PZr1G6QSlEzZVhTcdnY3NOB8CUgRAIaVme5zxwquv8p3f+IeE3/ldrt9+nnQ8Jk81iU5QWqOV4r13P+D917/H7q3nSIuSosgxIdBbR9M0VKtLJtMpKknRXTdcDdSzHoZxBoImtY5MRALtuq6QSlJkO9RNw/LshO0XXmCap9zamfFrv/KL/Dv/7oc2kwjgR4Bff/oLn3Rx/7kf9gMyLenrCoNgfz5nkufocsR8tqQ3HTu5Gt6ogeX6ktXhEVXTYF3g4Pp1Hj18zPHRGafLDaoYE4TEGItUSTxu+joaTKzB9B3WRC10kY7Ix2Ns1yHyMf3ZBXXXIWR8gTjnEUIilcYJhRcpQSQYa2nahk29preezsXjmpeKro937U1ds9pUnF5ecnJyynJT8ZUvvsYXPvdFZmWGqJcDqN/Rdz16uUACKnhEcORZymQ6pes6Nl3Pzv4OTmqsabm4qHE2huB5JBJobUdVr6iqQJ3HkYwI8WaIyDBB0lRrjO2RwrNaLHHG4IzG4lAioIJAOsesLCkzy3q5wvaCTbdmXAiSVBOMoe9amrbBECBIemOw3hGCx/UtQgh0XtIbg3c8c3r1vcF6z2a9wXi49fwLjLKUZn2JELG4O2voTU8QsQu/WKzYnY4xIbBcr5CCiM8KPnbuhUBKSfCOVAo+9dJLOGP47m9/i/PV6+zs7zHf2yVJM7RUHJ5e8O6bbzGezZlub7M9nTAuR4QAjTF8cOc9sjRlMt/GeTCmZ1RMyYoRbdfR9wadpxHAKASbukYIqJoarRW92+b4/kPq9YosTWk2KybjMb/wpc/yDz7zGd5440PjmL76h//hkyzu28BXftgPGZcFm4sjZFaSJxpcz+njE2rj2J6MSVSCMY6qXnGyvOR8ueRyUdGZuINs33yOl7/0VS4uL1FCxLthCKgso682rBYrqrqhd2C9oDOWsN7g775LNpnSDpjdxdk5ddMCAtNGPbnOx6RZRlAp1gb6bkXXVKzrNVXT0LuATHLSfIppWs5OnnB4fMjp2THr1YblZk3VtOSJ4NWXbnMwKZBSUns/FETUitu6og8eax3O9LFZozVpljItc65f3cfJBGN6NpsVHs94PCYEEe+MTY/vKjZVi08zvHNorSjLkjxLUHI4hucp02nB2ckR5yePKa5fQ3qBFSFmaIVAlo442LmGfrHk8uKCsycf0K7P8DY6n5quj9nfQG8tddsRggc8fdcjk4QkS6naaNSRAqzp4r/fdRTlmNvXbyII1JsVUsYmlA8eM9zFvfBsqoamadB721ys12QiUOZFJBM7j2vjZ06KKCv23pKJhK9/+cvsH1zh9TfeYLlccPHuHYKUtG3HxeWC6XzO7rXr7GzN2ZrNSRON8YGzszNWiyXXnr9NkuUIIXEB1stLRqOSdrOiN4ZRkSOlinSZrmV7Z4/3Xv8eYWuG6ToevH+Hnd1tNm3PqK5QWnFlOuFf+rVf5q233vqwvPOXidCTBXyyxf3j/AA88j+6lps1W9Ntrs3HhG7Do8sL2t6yt7tPqeM9rmk7FnXFYrPm4mLJxdklQkr2rt/i9gsvsLe1w9nlBZvVCi01Smu69Zrl+TmL5QahcpTOCULTWYEPhub4BPfoMdY7jHP03tP1jt5u8B6E0iRB43zcGZq2ZrO8YL1ZsFxtaI0FJGmSEWTF+fk5h08eUNdrjOsRwjOdZpSZICtyXrx1k2s7u+B6Pjg/pOkjAiqxFtc09FI+U3GFEBAhRHGPVJQSGttRtRV93xGEIDFRRddbS9O2VL2hMz1SKEQS0yzzNKEsciQJUpS44Gm2JpwfH/P2G68zHRdMxmMEFqU0SiaEvkHYnvnePtvzMbvTFGcqCI6jJ48Ji3P6rond987SdD1t19N10WSTacUoz7HOcbpYs1ot0EpQZjkHe/tcv3kDhlOUJKCVIuCxbvhhA4aeVR2ZaQjBcrkkVbEZGnPRO+aTGVmWsru1RZEXOGcisgnDZ27f5MaVKzw4OuJ73/0uF+dn6CTlpVdeZvvqdeazGfvz6TB2C2z6muPjY2SWk6QpWimECJxdXqKE5OXbL/LOe+9EUkwIEQLiHc4ZZlv73Hz5NarFBU9Ozqjqmqm8wuOTY2ZFSt62ZHnB1159mR/72lf5x7/1Tz5Medwk5tkv4JMt7m9+FB+S5QXXtiaIvubw7ITOC27duEUSoqqp7Xo2Tc1FtWF1uWF9ds5sOufVT3+GaVHgfYzfmRc50nRkaQpCsb5csd7UVPUGlWQopbFB0BpD0wWc6XB9R2sMvbdYD1Xb4JAkaUmSTgiioKoq6vUFq9Ulm6qi7Q22N/F4Xndcrio2dUeRp4zGOdNZjsoUeV6Q5Amha5EisDcZMZ9PCa4nTzR129K2LYkoEL3BUQMRWhCshRDTLXtn6eua5aZisToA77HGkCQlUniMdbSmp7OeYnsXHTwgIpM8z8gU8SSjJJlWjMuCvYMdHtx/xNvvvc/nP/NplPBY06O1RsnAZnGCbdZkqcT2NV0XJwBdvcHZLirdnKO3Zrj7W1bLNc2m5uZnXmE+nWK7mu1pydZsSqIVWarBeZanh/GYrBRCqohY8kSHl3dYB43z9MaQJAprY3hBSDSXl/H7fO3qDQ72DtACpIgxRRGKCCZIdIBJonnpxnWKPKdpW8JwhC+0pszzKFn2Di889aaiaWrGsy2kjJLmi82SIsu5efUaOi/Y3z+gWS2IV2FB2xuEtwQfeOGFFxjPvkTbtty78z5HTx4wGw9ZZrbHdC2zcotf/ebP8lvf+u0Ps3tPibv32/DJFfeMOIf7odd2ltBtzun6nsZ4bly7iXYdm7aJc0wXNeKXl0uq80t2r93gC5/9HMpblpsVSiVYCeVkTpoq6s6gSk2oe+q2xwRJ33uUyui8xHqD7TtM38cHx7qorybB6QnIBJekGBNo16dsFicszk84PzvnYlNHPJGHtutZdxYtBV949QVee/lFxpMR56enyDJn7+Aa41Tx5MFdnDEx9WJ3n+XZMUJImrpi3bZorRFCoEQsQtN2NE+pJlWNG2AEIs0wziIC1E1L2z5ha3sLrVOytGB7npKXI9IkoWtbRpMJqfA4Z54RSERwSO9JypLRuOTu+3coiowXnrtBIiOSqmk8wRn6RqHweBxmGGPF3bqlt/Gl4p1HeEvXVJw+OWG2NeVLX/wC1/Z2KUYjpE5ip75uGE9GrJdLTo6f0LUNjXMoOej18xwfAC8idilA17QYY6mbjj2Vsr2zzSjPmIym0a5rGmzwfwBfCOAE8XvpHIiETdNi6iW3rt1ChoAgEl5ECDhj6GxPEJL1eh3HnzICMpuuYWu+zdX9KwTbge24trfHcXAEASDo+p5cKfrgOXrykNdGOdd25uzOv8K3THwRGrtFVAFbci358isvcuvWTe7du/9hSuRVYmjBJ1bcnwNe+ig+KHQ1G9tSNx2j0ZiEnsVmQ9X1UYhhHOtNzeJswc1bz/Hqyy9i2g1n1QoXArkOcXRUrxkVE06Xa0LTo6XEo7HBgVAgNJ2TsYtsAs4rei9wweGkwosEj8f7QLfecHZ2wsmTBxwfH1LVLZ2xNMbTDQggJwSzIuWXfvJH+eVf+CYHB1d4+MH7vLW5ZGtvl+duXKNaLbhQgs44tJS09Ybe9EBU4m3ahlGaooVACYH0AescddfT9iZqusuc0XzOOCsZFwVN16MTTdt0LJcrdnZ3GY8n7CQpSZLivGPhHRoIIe7Ipnd0JmCswbmI/01GBaLr+e73XmfTVHzqhedJtcJJgzFtZHsTXzh2oKT05umPgPMBaw3NasHh/UdoJfiFn/0pvvGVL7Ozu0uS5rRtw+HjR0gt8G3DrEgZ3bwVeWdIFstLLs9OcesVSZoTkOhEkgjPqqrjuExIRpMx0519tooCTQAf59ZCxJ6DJIAAYwMIgfTgCZydnwGBRBBTRYOP7DwXkU7OxQnB2XmUcKeJjkQ379jb2SGYLl51pCTLRhSjCaZaDamqFpmleB9o2oamqsjSDKk1BwdXeXzvPYxpcXkWHXbGIbqGr3/lSx+2uF9++pNPqrh/7KP6WlF8EWisJxeCTVtxsVrz5PgiClm6jnZgVL1w+zlcW3G2WrBqOqTQKNkwHU8x1jOeSA6u3uTsckXlBFJq2rahaipG5YQkyQhCIWSJFwGHpw9xZ6w2F6xWC6r1gsX5BadnFyzWK7I8Y2tniyLTQ2OvYb2p2Nqa84s/8w2++XM/x/WXXmZ1coi2LZNC45o1VbWi2ixIhKcnCiU2iwWbdXwp9U1UjPXOIfse7X1sPnmHIJo60jzDS0k5jYH0QkjKvMBZT289LgTavqcsRmgVTTR4wFmc7SB4etNH66RTWOvpjMF5F0GCZU617PnN77zO4dkFn37uGmWek6QaJeVQNE9xvx7v4ygwBEvbNJycnnL3zn3apuWXf+Gn+clvfJ1rt56j3Nphc3YMfcN2mdMGQ9c0Ea4YAkopAoKtcUmWXOfs/JRNvcYEgRAKi+Do/IKqtyRJHKutzs9QZcHWNOafW2tIkgQVwnC0j6Oq4MCEeAJou46dnV2c87RtpJmGEHAuhhcIKVk3Dedn56RpglaKtlpz68WXEQiathn+7AIpO8ZFwcb2uOBRUsZGorNIJGeXC4JQ6DSlHMdRWt11TMYB7zxt37O+PONHP/85/vL/9699mBJ54elPPqni/sZH9UFtb2nrlrbrcRNP01k2VUe93tCu1yw3G0ZbO7z88ovQt6zaGudhvapoekeWFyiV4zNJv7xkrkv29/aomp62aylHOednTzg7PSYfTSnLKVKnWG/pe0ddb1idn3F5dsJqtWS9XsU5bKJ5/vkbPHfrBuUodvIFgbZrUQJevn6VL375Kzz/xR/h5O67LJ48xHUViZZUq0tWFwV928Qsq6ah6Vr08pKL5SV122D6PiZyzkH1Pc5FeanzfiB5Dkx1DIkUXCwXOATbB1dIdEKe56gkReqEpqlRokSEPnLITBsfQCFpOkvTe4wjNr3aDmvjriekwDjHpmr4jd9/m7fvPeLq9oyt8YhRnlHkmnxwZmklEVJijWW5WvH46JSjoxOUEPz8z/4EP/8zP82NW88xv3IN09b4akloK3y7iVgk2+ONwYeA68H5gA/RQT+bzZE6Zble0/Y9y6rh6PQCMaCXXN8hUwVE+XAiBV4oHDFgS4QQJw0BLBC8IRDNLYhoaOm7PspDgyd4RwigkpKHjw9pqzWTyVWM7ZlN9ynKEW3T0PcGACEliA6ZZGRZHmOLAnghOTo7pesbelOyaXtoWqbjEWmeU9c1dhajor3zGNPz/P4+e7u7HyaG6HmGjvknUdy7/BCctD+66q7j8uKCummY7eyC8+hiTJEv2Rwfslquee1HvkquAlVbU7UtXe9QKqFer+iDpKganIciT7k8P6ZtakaTKSoYUgU3n3ue+48e8ujRQ5I0pxiN6fueerNicXKCMYasyClGGWm5x/UiJy9id7cclYwnI7bHI0ZZSt+1jFPN9jjHN2tO33+TdnEWu8zCI4OnqysuT0+ipdJZrOlZbSoIsKk2WGvRWcbFYslsOkMWGcJErXU0Qwh88FgfBsGIoapbKnPG7rXrjMdjtMkIBGbjMV1T07YNWgnavmexXNF5mIynWAN972n6jrqJjTHv47F0sVxxfr5g3fYQAovVmt4a7j98AsYitSRNVGy0KQkE+s7QdT0CuLq7xc/85I/x41/7KvPZFFOvOLvzFrZaY7smEkqbaJp5Oue23sfRF0BwGOexBDKdcLC3hwlw9vZ79L0lDZ5qvcL1PUJNY5F4R1AaKeWQ7OrwxtE7ix2ac0FoGtOCioiutqlp+y4GNkThIVJKWmt57/07mD4Wq7MOR2BxeUGiZDxBIaI3QTp86IhJoBmNMazWK4TSCGB3e5/51jbLzYZN00Q5bFtjnAelUUnUqG8Fx098/Uf5a3/jb36/JbJFVKt9IsX9AnDjo/qwQBT8bxYLVnXDNE8ZT3PSNKFuaq4dXGNra8pms4ncLeNoe0s6mjIa1aw2G6qifNaYMs5jesNmtUBIiXEgkpRr16+TjSY8uv+AxfIS5xyrk2Os6fni17/OqMhoNxVhMDTUbYdwPdJJspCivUVaQak8oavYhBbpLb7Z4F00ubi+RzhHU6/pkBTjaVRbNS1tV5NqGR9uqcnGU7rlkqOzc/zOnEme4to+HoNDIHhPNzDGjPegNUdHR+zsH/DC7RdJTUeiEzIpwVoulwsCkk1VcXq+wCmN9ZI0yWktNHVNZxqcs6zXGx4ennB0eolxnrmW7B3scvPmVSbjCZvlivVqFaW0bUfdxZ6IM5ZEKWaTkuduXOdHvvQFXr39PImAZrNBmBYRXIz6GRqBffdUzRZhiGG4+wbvcYSII/YWT+wTWBs4Pj2jyBOyPOHscs1qvebgYJ8AUX8gQRBwzkdhjTF0wRKCwAVJkLDerBlPJvHl2kd9eQgCKUEiSLKEy/WG05MTcilomwalSpaXl2RSkugErQRpksQmnZIQQClJkBLTNexubdEax9rFPoD3Nnbksxykpu1bqnqDv1CMZ5F84/qWn//aj/Af/yd/C+f+K4M9AUZEcOI7n0RxfxrIPqoP63xApBmzvQOCTrFSo61lOtti76WXkSrBOEfTCQgOayMVBSmZ7uyxWt+lqhvyPMc3HUpLksSRKI1QijAwynGWcVFw67mbnF0uuTw5pqsrnvvUp3nlhReQzpHsx+yq3hiq9YqLxSXrxQWLtsLNollfeEuqBdujEp9ltPUQ09t00RVWVdR1iySFrIguKOeH9MkYE6xUglCx3wCCxabGmZ5Sp3hvo+UwBFzwBA8OgUxTgofvfPcNDg6usL81HxqOHQKPEIKLQbJrRYKQCVXTUdUWj6DrWlbrJcdnlzw+PGVjPbNM8/yNK7zw3A1293cZZYNIRCmstVwul6zXG+qmxodAOhqzu3cApieXcHV3J+aa9y1WBVoLwge8GWCH1mD6SDbtrcUOGu947YgvMOejpxslMM5yua54cnzMtMzZu3mV7mLJ0cNH3Lp+HSlSur5FiwwRQvSG2x5nbQQrSkmQKvr/V0tm0ylt28ZEkhDwBHAgdRzDXSxX7BxcoV5cYK3BDTr83gW8iABGrSRapwQEUoASAuuiqm8232Xx4D5SCZQEF6IgJ/ZOPEU5ZlNvSBMFbJNqRZKkfOa5XV59+SXefPtPjAZ7unJicX8id+4vfJQf1vQWVRZMijFd1yJDikwUhTXM8oyLqkYJRevjvSr4eFSi70hHYw6uX+fwwUMupWRrPoMAfdtRpB7lk5gnJRxeSEzbYkIg8T2uWiK15qXnblLiSPMYuj4axxGO6zqOHt7lzvs9Dx8+YrO8YLK9TZln6LIApelNh209fRNRy8uqYrlaUzcdUtbIrozSWtNTdx3TEBBIfHADvdOxXq+5PrvButnQCEOZJTA0h3wIeMAYS+c8aVHw+P4T/t5/8Vv8+V/6WSSezrRYZxEiMs3TvCBB0TtHU7c4G+hMz+X5GfcfH7KoWrYnBV99+Taf/tSr3LxxjclohFYaISAEQes967oGEa2vRZ6hspxia4dMCoTRTLKEcZaQSIVzjr5tsYPs1RmHGaSkxnhc8DHCyHvMYMH1hIivikoVhNQEF7j74BHriwUHV/Z58fo1xq99modvvsnZyTEH166yCtVwTBZDsqfFOB/hFChWyw2XF+fs7OwQPBgfc8QFAiRIqUjSnLPVmkcPH3Jw6ypHItBv1viiiN12AmmSkEjifxvxXg+Kxlg8ljIvCSGwWJxRFhlaJ2gg0Yq2a9FYbtx8nqIoyfOMbDpHOItWglGm+MJnP/X9FjdEIcvHXtyCj/C+DSB1EvOYpzOSvudiuSSZTtjUNUqAbWs2TiBnkyF/2SBkjN/VXcfW3hWstTx5+BBHYG93lywdomBDiDtREHgkvXP0vWGzPGd1fs6VazfYGmWYesNkPqHQ0cooE83Bpz/HzU99mjT7O/Rdy707H2D6HrO7y7gcR/5WHc0hXVNTNS3rphvm9Qa3XKNGU3pjI2O9M/GtLongxzYqsFbLBQcHB2zNd1itlyyqmnGeDTP+KBSx1mJ6i9SarMj5rW9/j4ODXb7+xc9gbVSpOS9IdRIbSMZh6i4C+zvDxcUl9x49woXAz3zlc3zti5/l5dvPs3/1OtPdbaTS2K5hfbmi6XtWqxVNtSHTgkxLrE9QQtJfnOHwFHnObHeXNMli590FehTCO7zt6Y3DW4sZ1H/WuTg683HUKIg9hRACQQmU0gipWNYN771/jzJN2JpNuLK7z43nX2JvMub+229wcXLCbCf+96Y6viS984QgQWqWq4qjoydsb+1S5NFAI4RASQkilqlOUnyScufem3R9z1hIptMZZ+dnBGfjQy5AeA9CEoSI/0xsrHmhMPWKvf0rnJyf0NQV1/eejy+DRGGB5dkJaZKQJwmpFDEuWiryIkcHgw/w8u3nP0yZfCI79xXgtY/yA1U+RtWG9aYiHU3IszhqEqOSTEKZZJytLvEIxuMRwflIwhAS13WYrOPK9ZsE5zk6PGRzecne1Wtsz6dIwAUX86GCwLuodro8PaMTgpvP3aStKqwKpMqBbVmeOKSSpGXB/PotXvrClzFti7eGh4+PSeo60kTaBtdF4H3M2BqkmGbQXytN03YEF6OAmrZDSjWwqGInO0hJU9c8evyYV19+iel4zPlFR9X15Gm8jgRr487oHBaBUopECs7OL1isK5QSWBtHaC4EnIemaej6DmEdi/NL7j06ZD6f8Gs//5N86Quf5/rNm2wdXCHNS/pmTXt5zvr8PGKnjKWpNnSbJcH0eO+RISCdIThDCLB75YCrV66ggqNv6kHFZgjOYUz/B4z1EOf23nvMgEQKQ4Kn8CHip4VCCIWxgXfu3GNxecnVvW3m0wnTyYTcGw529/C3X+TJB++Bd2ilkUU+9CbAB8/i8pxVtWY6m5FmKX3fkyUJUsfmm5CSRGuSouDde/c5Pj4iLUrGWc74Ssn5w4exWRcCjgEaLmKSaJwsyBgLvFmTCk+WF1xe3mF/e5vJaEySpjihWW9WVJsVB/MZMlgECTor6I2lrStUkYMQ7O98KL7JLiA+7uJ+ZfhCH9k6vVzw/NaYqm2o2pRxVrDpljRdhypiGohIUy7Ozqg2G8azOUqmWB9QwWP7hl7A1sFBnI8+fsJ7b75BPp6wt78f5Y9K0nUNF5dLjo5PeHx4zKufeo0iS1iuV5R5RpW0rFYrXN8xLUuKt3+f5aO7KKXZmk25cetGBB46S9t3VK3Etm3MirLDvdJ52t6waXryWY61Lj4lStM0zTCaEYQwsMRsTPE8evKYa9euMZ+MGZUjLpcLEBIfYoPQOR8VWCHgreXK3javvHibvjeoYQczxsYghU0Vm1+d4fh4wb2jE1547gr/wq/8PJ966Tb7N5/n+me/gG1bTt57nfXRY6pNRd111H1L21s2VcN6uaCparwdhB9di5SC2y+8yGc+81myNAFraPAsnaEzBms6uraLu7X12HjiRkRESTyKD1wRIeIuKNA44NHxCe+98z7joqCYjCnKkmAN3vaM0pTr126QaMXdt96kvXuHg5vPMRpPsMJzen6Gs5bt3YOhg24JQuGDJxGQKIXOc2SS8sHDh7zx+usEqZlNxswmJVIXjCaj6AKUOl7hvMcbyISM0cCmoW4uEAR2rl6j7S2JThilJVma4pCcn52yWC0YlyPSrCRIjc5L1k3PO6//Nqqv2dndZWf/yrNTwve5toD04y7u1/gIm2kADx8f8sr1L1J3PVmaobDkWUrbtrQDTUXqBD0u6duek5MTxuMJo9EIFUC7gGlbhBTko5LR7g5WSVaXC44OD5E6JRsVLFcrLlYb+t5y4+o+169doesaUklkdSlNUZQEZ8lloKkqms063u2EJs8L9vZ2OLlc0jYtfaqxLopQrAuxmRIiz2xtXXwohtGN05qNeUofiTJHP+RdEQT9IO+0zqGUJNGKpmlRaYpxgc4OXdWhEXXj2gHT6YS8yLEm6ty7vqWuNjR1S1/XPHh8zPFlxVc+/yl+9ee+wc2rB+xdvcbeCy+BEJzffZvN47scH52wWtf0ztKZaGtc1Q31ZkPddIPoJTCbTPjCl7/MV7/xU5TTKavTIxbHx/R9i+3a+P1q22e+bScEOskG7HSIJxYRx2nxfwVSaHwQXJ4v+c7rb9KbnvlW9LXnoxEyCOh7lJaUieTG1WsUaco7b3yPD959l629fdLRGJRmZ28frTV926KCirJWISKwcDymalvefvN7vPfee0itmW3Nmc23kFKTZWmMIXKeTWfw55fI4OLROi8os4SiKJlMp2RZjlcJ9++9D84gy5Lz1ZpH777H8uKcItHM5xOCNbRdyZOLFfce3Kc6P6HE0yzOoW/p1IfCIEyB/OMu7s981B/4+6+/zs//xI8hACVAJxneNOhkSrW8pLOWrIjBAOvgUCRUTYX3Dr01i/JR6xEEgnNkUkTlUlGQAKvVisPzc6ouhgiWo5wbN66hlKDve4RWsYNrLUjQ+GgnbSM0Qch4fPZSkRQFRdNiiWFzPgScdxFyJQTOWt57fEzrXYRAGBu7uiFQNdEFliYaYQJSxrGKSlJ2d/dI0jRaGUN8INfrCmdih10PFBAbwCeKbFTSG0uR+iiGaTuapqVrGpr1mjv3n7CqW775k1/jl37qJ9jb3mK0u8PWrRfIZ3NWj+/RXpxERG9RkrpAt7jEty22i5ppNRozmc7Ji5L51hYvvPoKL33uSxSzGfXlBe1mzcXRwxi39Mw/L2g6Q9t2NMagdEdWlEil0AwqYCGH5pbEIVltKr735jsszhcUowK0ZjoZURYFPkSSinMeLQJSKq7s7ZN/5WvcufsBx4fHNEfHIASP792nGI/Y2t1lVBSgPD4Elu2Kiw/uc+/OHepNBXlBkebs7+0wLguyRKOFGKYalnVV0fU98+kYkSSkWUKel2RlGYMrvGNVbTg8OuLo8HCgynYI0zMej1BK8fiRI0lSknJEXdcAzHd2SPKUXis2bUcvqg9TJiOg/DiLOyFmCH+k6+Likt978x2++NJzuOEYGgLkZcFkXPLmt3+HM3NEMZmT5BoSjSoKXNexrCu8K0gSTXCRPBKkRCfxSNYSKMuSzhiWm/iXtjMfobWKiiFrUVIggqfrKpwJqEG0wMC3Jgz8NCUwAUgSnIlHZes9TkAQ8eu2veHR5Zp1F4/2Oond+n6gg1rrkEV8mXgPidbMtmZsX7nKqCgiDa+P6rEky7i8WOKEROkUZIszljTLMd6zaRq8d7R1RVPXbFYrTo7Puf/4CJ2m/IU//0v86Bc/x958i+n+Pvn2Dr6vubjzNtXxI5yJiqvdgzF71zRea3ReEKSmHE/iWMk5RtMpSaJACJqqYfPBMZeP7rE4PWX3xvOAoG8iGaaua6bzbWabDecX5xyfX7A+PyfJR5RFRhpAKkWiFUjFotrwxptvc/TkiLRISdKE2WTC1tY2RZahpYyKPWdABLzpsCFQJIpXXvs0+WTOk8NDurpmtVyxXi5plguSLMUEyfFixfHhMSmB0aggmUxJspTt+YTxaESWaECy2mzomiainoGyLChGY5SKzUmlemglyDg9aOuKvf19OpFw963XkcFTlgXlZMzW3gGJ0tRDEEVejhhvbzOdbXH72jWm4+ixP3vwocIKRsDo4yzuKX9I5/pRrr/xN3+d2X//v8uNnS1aY0hVAs6ST3d59TOf463vfJvTBx9AkjHa3olRrEJEeV9rKIoi7ohRCo2UgiJNsX3Puqm4OFtiCXzq5VvMxiPEgDjSQgx/wdAby8b2pE95k1IhVQxKCN4RTBzFdV2H9dDbGCAYaScCnMcZQ6klZxvHvZNz8ixF6YTO9rRNy8Vqzf7OnMLm7O2k7O1fiT5qEUhUHO0govQ0TRNGZc5yU9MHIvlUQJokscte1TTVBtu1nJ9ecO/hE1arDTduXOXPffNn+OwrL5EnimI8Rica19SRjrpa4NoGbweaqon66DwZk2U6Io9TRZLHRA7bNGyOTmlXK9rNms1igZCK3edfxHQt1cUJbdfRdYa6a0FJskTG+B2hOL+4pGojOqksctIsSsT6puXdt9/jyaMnJFmCzhLGoxH7u3uMi4J0kJlKCcZ02BBfpsY5pMrYtBtM13Lj5k2quuHGbUnf9XRNE58BpZFFyenRCUmRQ16glGY2mbC7vU1Z5rhhpIoP1G1PqSRCCpROIoPOGZJEY52n7XqKNEUpTVvXHFy9xtbuAdvzCbbrWCyXbE3G3H7xZcZlgXOepq1pOkNZ5CRJxjjRjIqc+WxCcb75MCVSAOOPs7if4yNUpv3hZYzh//7//Et89tOv8Svf/LlhvOHpNysOrt1gOt/m8f0PePTgPqdHTzi93+N81AmLAVqf5jnFqESng1On69ms1pyenDIdF3z1tZfZ29mhKItBi2xQMmKAnE/ouuj0aZ1htWnonSfPC0ZFTqIUSsUGl1IaTxgEDRonHcJD37dctj2zSYlYbLjcNJxXFVkWu95d13G52dD3BqkURa7QOiNNErx3EcIQPFJplA8gDEmaoAQsV+uIIkIQlMI6y3K5pGtqjg6POTm9YGtS8tPf+Apf/MJn2ZlOkcGSZwVCBPr1EtM2uK7HPs0P8z5eJwYAQt826OUFKokvJKk03hoWp8exa49EpRmz6zeRKqVdnLO8uKDt+z+I5g0+qghtfNFlWjKZTvAiknOsc6QBqqbh3Q/u8cH9h2SJJskSyqJg/9pVRtMJwVmc7QmpwFswBKy3WO+QQnO5WnC+uGQ024oGEikYFwW+KOhGJSBIspSj03MSLZBZhlSayWTMznzOZDQCqejXK67s73G8qnA+nhiDD7SmJYQQ2fjW0gmBDJ5kPGJT12gtKdKUYjRhVBTUTc3FcgFtTSmh1BLSjFmZExARHmIdpqmxXUPfKK7vfqhuec7HvHO/CqQf4+fz+ptv85M//mNMEoUUGmcNy8tz8vGE6y+9xvzKdZbnp6xXK1pjyZXEOcdmU9FWa9qm5vLiMiZwtD1Nb7n53E1eeekFtqZTkjRhPJmQZzkP7t+jaXq88+RZhtIacDTDKGu5XOGdIy0KkrxgOhoxLgvSNCcZBlqxiSZxPo66fAjP+NvGB9bW4hJF37QIITE2cLpYMRnl8djvA85Gc0K0EcaAvmfCDiHJ0pRM96zr+hmhpakbVssVh8enNJ3hq5/7FF/74me5feMaW5MJOivYLM4w1ZpRWWCNwXuPAjwiRur4eJ8HIAScgERKpFLxGmINpmkZHVxj98o1fNdGN5Xp2JweU202McFksJE6D1ZEhVYcd0UgQao1s/GItjcY52md4d7Dh7x/5y6pUhRlTpZlXLlyhYPdXRKlIqnFGKzV8WQUohBGDHf0s8sF2zu7cSdvW6ajMXqAGKJ11Ik7x9HxMSpJSbRmMhmxPd9iNp2S5RnNZs04S8nTDBFWCClARr55VdXoSYLzIeZ/pZZyawZK4/qWyXSGFCICN7MMjUeFCZUUrDdLticjpBIIIZBKIpREKcHZ2oBXSCmZjvMPUxoJkH2cxf3Kx/jZAIzHI7Zn85hOKQXBRwVSs7gAqUmUYmtrm7TIkUpzde8Kk1GBC4FNVdF0HY8ePuThgwc8unePK9ev8cqnXmU+GbM9nVCkKeVkxuLsFIWnbyraukIqxfZ0jAgSISR5XlD3lvVywfrsHOshn4yZz7fY35pRZmk0PwzeYGMtIcQ7dCyXqHporMG30WyRKk1rDU9OztidT8jSJKJ2EUg5vCx8wA67qvfhGZElGeycSkmsdVR1xaPjczrj+O/80k/zhVdfYjYasT0uGBcJ2WTM3vXrnD95xOb8FGssdb2J0P4kQUgRT0dEZ1gIUS7pTI9zDgGMJxMmWzvoNGV99AjbVBgTg/yivzvmX/vgMD6OuMQg8fQuOq+EgFQN9tEkwhPuHx7y5jt3SIEs0yRKs7uzw7X9A8o8A+cQWiJF1HL7EHvtbW+pNjWLxYLJfDuCGU0f3WtZEufQIXr70zTl4eExXVVRjsZkRc58OmM8LhmNCpq6Rtie8XxOCBH1pLRCyDjPlirOxAk+Xo+KnKIo2KyW1HVFkiRsxJIs0eSjCUopMiEo5jPavqNpW0ajiPvyQDAGqVNGRYnUEqUV946+b1cYEPmZH2dxv/xf/a/8cCtJEhIlyYoCvCUEi7dxfuuDJ81iUY/SlDxN8X3Nuq+RSmGMBe9JsoTZeES1NePqretsTcbcunKFnckILxTWefquZTqeoKRiUzfUmzV931EWBYpoNBlPphjv6cIa3zScH59wenrO+fY2N67uM8qyuDsFP7iKopxyUTUx+wqoVg1dohESNlXH3cMj3HzGar1mOirRWqG0Hv7ckcFtvMPYqBnvmoam7ama6CsmBDZ1zcPjC05WNX/+57/Bj3/hcyQSRqkmUwqCp1teYOoN891d8nKED57N5SXHR09YVNXgaY7fB+fi8VxKRVYUzLf22NrepigK+mbDyeOHMXTQ2Wd33ihMGY7hId6hn6ZtuMFbHZwHouBGq5SuaTk8PeV3v/sWKgSKrQl5mrC/f8DVq1cI3tI3LUWWkqQZqVJ4BG3bsVlvaNuGIAST2TwGDJqOUV5EaayUw2RDkMqEIBSPHz4iLQqyUckozxmXJWVZ0HUdptpw5WAfISVCQJakpDpuHlmaUBYlxvTkoxFFEX9v3dS01WbY/WeMihxHoOtamqYhuDixKZKEtmso8gyvBM5FbUIiB9usEBiveP3t9z5seXxsIpaEj4i88ietqoqssN3pBCFTgusiwNC7KGpxljLLydMYFNes19GfO3S0g1QkQlBmCeM0JZGC6WRMpgSuaxE6pa2jCWI8nZKWJSyWUebZdlwsV7E5pxVKKvK8pDWGIBUhSamWK+7fu8uDh4+Yb20xn01IlKTte1brmifnFzw4vniW/9JUHUIasjxBCHj93XuczUYIAYVUlFmC1pq8HDEbjyLMUMUOsekj6L4zMa1jUzecLtccXa6pOsOXPvUiP/bZ11BKkmrIlEA4h20d3nqcXXHx5HH0OA9OrExrxHSGD9A7h+5L1psNTV0znk6ZbG+jtKJaXbK+OCIYFymtLha1dxbv/GAAiQXtccN4K1JbHOGZSUNJgZAKoROWm3Nef+s9NuuK+XRErhO2t7c4uHrAlYMDRPA0mzVdW2MC1MSvI4Uiy7IYcOhiqooKkOdF1MMHEU8NIu7wUmuOT8+olgtmW1vkecZsPGVrNiXPMlaXF8wnY7SKtFcJQ+5ZFExlaWx+IQJpFm+hq+WCTAoO9q8wG49ItGacZai84PjiguVySSYlRZqQlgWgsdbhZcD0kd0ujULnJe3yHBECv//m960rh+Fb/XEV9y6DvvXjXH3fc/fRY+Yvv8B0PqcyDTb0BKlRSdwZm64bpJwSRYh3HhFTXvBRJJJlKVmWYusa4RxtXdNh40MoNXlRIpQiTzOqzQYXBPv7U5q65nKxxCeRTU0IFHmJkB1yKPgkS1mu1jw5POTeoycY52h7Q9VbWvtPW/ie7mZN3T37NUng2tYMrRS2t7TriuX5BccQD16DLDUQC7DuetZdT9X2MXYXeO3WFX7xx76MDJ6m3pCMSrwOdMZG6J+NaZ7dwAy3PgzNrrizAlgEUghG0zj2qjdLnGkZj3ISES2VeBEpam4wg3g/GFo8SBXHUwGU+ENGaQApkCiUUqisYNW0vP3uHUzfce3KDpt1jbeWnfkWWgpc3zIqcsbb2zgbA+6bLs7u0ywlTbJ4B/eWTCfDhEEixeAy8y5mwYmY0X785DGj8ZjRZMJ4NGY0KiknY/q2xXUd2c728MDEHsbT02KidJT79j1KCZaXlyhgNh4x29lFx7B2lACGXd/0JlJrlYQspeu7aNfteoTqCD66EQVQjMe0y0v+yZ37/MN//JsfpjQM0H9cxb3DDxH292HWP/iH/4jPvvwCXdeSj6c0zuJsCyJ2Hb2PDiPlPQawwlAkegDlQbAOJQRFmnBxdsbp6Rlyd4u+rcnTlDwfMStLVJoRhKRaL8mzAMEzyjP01ozlpqLpDXbIcxZSoKTASYHOC6ZKofKUqm6gjuKUzBNB9v6/7NEVQnBtf5tP3b7J7f1dxkWOFCBCHLE0Xc+mrlmsay4XK5bLNeu6pukdbQh0w91TS8HV2ZgvfeoVRmlO23U4Z8i1wiiJF4BzA+fMRDKqNXFWPAAS/PCCcINqzBOPolKMWa9X1H3P1niEHJhNUb8d77IGMAgQCoWKoQBK4EO0rorBZIEYCjtJWW4qfvO3v83h0THz7RmyzON/Y9MhRZw+mL7DSsjznGLopxTO0zYVq9WK8/UZAkmSKEIWP3v4xhIIKAFSRBPSxXJF27bM5nMm07hb53lKILC8vKDM0mceba00WZpFkIZz6LIgzfN4pQiQpQmj0YjZqESGCM6YlAWpHuALvQUhGJUFeM96syIEx3Q6Z1SW0YsfAiE4kiwjUYLxzh4nb3/w/Xq5n64eaD6u4j7gh4wN+n7X5eUlf+83fotf/Zlv4L1H5wVSCIyxkWWlIlfN9mZIBI/3VEn0EkscSmvGsylt2/H+u+8g5aeYjYuI9rGGplohahHN86YDodFS0luLVorJaESWGXqT0Q3FJ5wHHdE+iJR8cBk9tS86H9BOYoYdH6KL6LXbN/jxz32a21f3GGcJW7MZaZrhAqR5jkdxuV5xfH7O2dk5l4sFF8sl5+eXnJ1dsq5bEh/onEfiKIuMrckYQsQKma5n3bbkaYIMcbRnbMzi7r0fQvDc4IwTz2ydkTIai1cLUFIxnk5ZLJecrzfMxpPhqA0gEVpGXpkT8XQBBBnBjoFk2MVj+mVA0NrA6fET3nzjLc7Pz9nd3UYXOWqU46sWs1pjnSdLUjSxeWitHSS2DQExpImOSJIkmmd6Q900cWaeD3Pq4X4gpcQRODs9YTKdsrW9Q5omQ7c6Ybm4xHYt+XwGQqBVpMwkRc7pg0fxPONBa81oNhrQUgqsRXhHQJMlSYQ46HikX69X4D3OGpq2QQCjoiBPCzKtSHWBUgnOW7q2RqUZeZbxjc9/hv/HbMZyufx+y6IBNh9XcV+Fp3OTj3/91j/5Fp/91Gs8vzcnDNxnOURtdm2DB9IsxXRdfEhl/MuXIUYAJXlJMSqZTKYcPn7MB++9w3MvvsT1vT1ccOBiIqUbHgxrYmigdxbjB8KHi6AEKSVplsSHDoGjx/uAloqQaFyeYqzDGkcrBVpKrHOMRyX/4i/8JN/47KeZlzkByNKU+XwWGYYuULcdrQvkScr2dEbbNixXayZFgZvGIpVasa5qEi3Zmm7x6vPPkWpJs15ACOg0o247TgJkWTZgey2Ntc/CAK1jKOaAlAIp5FDgcbd1IYBzICST8ZT1ZsO6binLAiHitui8pW1MtK/2EbIYQkCJOOZRWqOICsNqs2Fxcc7l+QUguHr9OtloBFoiEk2XZlSyxuOGlM+UeKCO8+w/cJfEHXmUZwjAltANBd60TcxbT5LowVaa1XrNKFPs7hwM83qNcY6T42Muj4+Yz6akadS7p0qTFyMu1hvuvPceaZpSlAVFnseeiwDvLJqYHZ4oTVCSNEtpPDy+8wFtvaYoS5CCohwjAhRFitKSzkafgBoAk+16iZKSNB9xbX+LV154nt/+ve9+vyXRANXHeSz/RNdf/v/8Vf7n/9q/ytZkTsOCxekRXdPSDSOZ/Zu3KcclbdNGIYbWOOOH1AlIdM7ec1cYT6d88O47PPrgfZSUHOxs42z/zJXlfdztvG8QSuN9hAz01seRjogZ4kmSDJPbgHcOgQancUqTppq2lSRKUHWO6wc7/IVf+lm+9NILZIkmSxWpTpFS0NVVNJyYGMVTtQ11Z2iMQwXIEgUuoVCSSZoQysBzN67wxVde5NVb15mORwQPTVNxfnbOanHJ+XoZQ+9G4yhckRIXFC7E9BLn5YD2ZQjQi1lXcrAzMlBOnQehJPl4wnJTcfLkmKaqWW82rFZr1qs1fRfvlGq4c2op0VqRqDji0VLGXbEsuP3ibYrZFiJJyJKEvo/Y6lRrXKpJk4TeGopUo6LwPBa5iLp94UWMXI7Zu5EGoxV6MqFuW9brFVuzOSLLqdsO5x3bWztkRYlQmlXTcu/ufS6ODimLnMl0TpqkscjSjN4Ffvt3fpem2jDb22M6mTAZj/AuTl5ynZAnmjSJ05liNKILgjfefov33n2PsYaDg32mWzuIwLPjvvOQ6NhMbJsNtqkYjSboYkTftsQ8mA+1Kj7Gnbv4mD73j11VVfFX/5O/w//kX/6X2NqNM9Dzs1NMN8Z0Lc3qkiyPIe/GWLRKYWiIBOExXc1yCcV4ypVr1+DxI+69+w6LvX1u3rpJnmRYs8FaR5oo+j6O3SBa/EQIeOHBi0HOKNEovEtIE4fzHiV17AgPaRbeWj79wk1+7ae+zq2DPS6XS5zvKbOc6agk0WpAOTv6IT7HmEEtNmRxlXncfTsFmYCvfOplfuLLn+fq1oz5dEo6Kii2dllfLjhfrJBS8e7vf4f7dz/g4uSUfGuL0XhKmqaDn10Mx+/4fQ0+EISP5BMp8FIhBhtq1bacnS948PAhF6fnNHUdH/QQZ/F5ljCfTZhOp6SJZjyZRPpLoknTFKWi6WU8ivTPpyF9IcQrirGeoig4OzrBJgllEicfSki0IAp7QiTKSDG040MMgXc+Sm6kEASgyHOEELTWEtoWLWBSlORFjsxynhyd8Pu/93usFgvGkxHTrW2yLI3whjSll5K33nmbo8ePGM/mTEZjJmURASE2nihGeRTAKCnRWiN1wt17d+mqNTs721ycnvDuB/dJ1CNGqWY8GTOfz5hN58zmMxKdIPCMihKhU/qmgRBYbTY8OTr5MOWwBtqPq7i/78vBR7neeutt/tZ/9g/5pa9/lf2Dq4zHEy4uLrGux/Y9uJ4kn8SxhpAgIoDQucjZtl1L5Sw6y5nt7CLEJRfHR5yfnnH15g22t7bIyyhaKAvijv00xsaHeNx2kWlmrMPb+HBpER+4CMf3COtwXcerLz7Pr/7Uj7M1m7CpNpRZgkDx5OyEVVUyygu0ks8abz6Ad3+AXPLOIQVRU03gR7/0BX70Rz7H9mRMXpQU23Mm159HpgWb1Xe4/tJrjLZ2mO/uUvz2P+HNN97k7NEjjlVCOppQliVJlg5HcRXFMoPQI4hBW+49m6rm+OSEo8NjFucXBGeZTyfsXr/CaDYjyzLSLCMrS7Z3drly5Rr1ZvkslC8AWZaCj3p7JcIAmbBxhiNicUstcHnKsqppup4k1RSjAvl0GxMgI30h7uIyqvQIIfr6RbSLeusQfghDhNgMSxKK8ZjGWt769u/zxhuv46xlZ2eb8dYO5XiM1BqdaNCa9+4/4r0330SlGeU4Rj3pQdobhS3xXi2GF5NKUk4vLjB9H62zAcqyZHFxhmtb8I6mqmnrlqPDYzIlONjZ5uat55DjSVTAeRDBcbqsOL+4+DClsAS6j6u4f5N4NBh9TJ//x66/8/f/c0zf8c2vfwXhHF5G6ohKUlReRgWX1qi8JDhH5V1krSFjV9U6nDUorcmnE3Z1wnq94oN33uG9ICgGOMCoyMnLKCzxw0gryOGoGOJ9XkuBEwFDQASHcI7gInf92tV9fu2nf5zZqEB4zygvIvNbxS5vVW84Pjt7Bl5QUiKSBKlUFJSYpw+VwpiO/a05P/ojX2B/a4rOc9LRGF2O6TYbVo/eYH16Qjaasrj/Ds1yzXxnn+svWfSTRxweHnN2dERj3AAP9EidwpBRnQ7I5a5uaKqavm0R3pHnGbduXuPKjZtcufUceVFirEGL8Czfuqtq2vWCXEnCkPrhvEe2NUrEZpsQPt7hByCiQIBzKKU4X625+/AJ2jq+893XeX65Zm93myzLIiklUUiGBBbisXwgoGGMozNd7B2IONcviwKd5nRdy++98Tavv/4m68WC8XTMeHub8WzGdDJFZxHW0CN5cv8hd955B7RmMt9id2ebNElwxgyKQBFTVpOUIk3J0hQvoGtqyvGYJMsYlSPyLMqSrekIQx8m0YLgLOvVklVVcXx4iHeO2f4BWZbhup63Hx3Sdd2f/OD/0+sMcB9XcX8X+OvA/+Bj+vw/cf1nv/GbHF8s+JWf+Aq+XROsjzGqiEHDG5Me9vauMJvNWPpor2yMIZcSJSVKCrROCIVgpBS6KFgtliwvzzg9PkIohU4z0jyG1GmtolIqi/A7KSLC6Om9NVgTs6yMIZ+M+OWf/Dq7kxGtiRLPNM3RKr6plYijNISg6Xu6psOZnr7vcUozmUzJyuhaklIQnOPGzeuMioy+N3H3M5ZucRnFLXVDXVec3H0HAjRdT920FHnO7tXrqNGM8XLBYrni8uKSxdkFhyePOe8sEhgngmmRszMZsTWfMr5xhe29fbZ29ijnW4xHBSKA6RpwPVKCMBZhJcK0bLqK7ekcEYZRITzNx4MQj+J2MGI81cgLrWhc4PdffwvRG8rpiMPDY84PjylHeQQMas2kzGPSio0T+afzbB8Ggqz3JImK14BBwmtt/HpHpxf0TcPO/i55kVMUJaOhGLXWdL3hyZMnXJ6dk+QFkzSJO/t48my8FkIUo5RZFrvjSqO1wknFaDrDtk2Mf/KO7dmEosipqk3sQwhJnmiSNAURaJYLqsUFjx8+5OzoCQd7u0znc968c/fDlsApfHwMtQD8L4kxQi9+TF/jT1xvvvkW9+/d5xd/9id55cYBXbWOZn4vkMrTLDcsLy64cfsFxls7dJsNXdfQ+0AiBUn6FE87jIGEYGs3pZxM6boe6+I8WyYJaZJG4IOMXVgpI4jBdh1tE3OwF3VL1cdEi1/4+o9y4+oBxhjyNCWmdfY4JJ1ztKbF2PDsqN81NVVVcXx6wWJd85nPfYrdLIkiCQRZnrO7u8N6syGVklQr0qc7fN9jrWVT1xgfkFrTmagckyIaNcZlifUelaSU0zmT7R10cg/78AilJM/dvMoLt59jd2eH0TTez7O8IEszXN/hqw1SQCECeZYO9924W5Jo1lVL1zVkWTow6hxpovEeCBYvJJ5B1CIEKkmojeG3v/09jh885vq1XfavHLA1mzEuSvCevq3p24bgYpySU4reOrSOsUbOS5I8+sDjOC86+4ztEFKS5xHCcXF2Tj4ekRcFk9GYcjQhKEVVN5i2oe97xvMttJJMRwWT6ZQ0i3AhY6JhRYeAlYJEKmQqSRKNFIpcSYySaClJpSSREjX89wdrEXjyNNJbghBMxxPC1evUl2dUZ8fgHF7nvP/gyYd9/I/h4wUk3gX+R8BfJc69P/FV1TV/7W/+bW5cv86Pf+1HuLY1IZGBrq4JXY93jsd3P2Bnb5+97e2Yo9y2UZUlQjTji+h80kNTrCwKeu+HzrmPzRyl47jIW4Iz1K2laRqqpo1h9y6y0Zz3/MSPfIHP3L6JsT1aKsBRVXW8O6cpdgio7+3ATWuiFvlyseb0csUrr77Myy88z3QyY7Faslot2Z5PGZUlddOyMD3zcsS0LGjaJj6kxtB0HU4qaLuIDQ5E3JM1yOCiLFZKlJKMx2OuXrtK37TIPOPzX/g8Bwe7iMAwt1Uo2yODRQ4UJCXF4E7jmZ4gEEgSjVaSzWC4EUikjKDCIAU+xKM0xO+zShIOzy/41re+zeGjR0ynE2bb28ymM67evMWVK1fiC9f08b493OMjk72NWemDXj2aQzxiuAtv6jre60PAD9LT4ANImExnFHmO1jpSVoWI3oQBxTyfjJiMyohNcg5vDImUFHkclYUQ6PqWRAucVvQhEl2jzNWiVUaRabxMcDZDJIrgLFkaj+bGBTSQjccURcHVm8+Bt7xzuuTOnTsf5rE3wCF8/PTTfwT8q8BfAcYf89f6Y9ejx4/5f/+1x8ymUz7z2svcvnGN6WhKmQj6uuHw8QM29YrrV64jUo/poiFfCoVOJZjIMTPO4ZUFK5BDVrSE6MoyMVOr7S1mSLd0QzdXK0ntHV945UW+/KmXKIuSRAtOzy8gOAie1kSjhXUhMtKsi1RQa+k6w8Vqze3nn+PnfuLr3Lr1PMVkzp13Xsd3DePJGCEkgdiQ6qyhbgTGRonrpmnorYO+x7sI/HchZlNbH/XgQggyreODKyXz+Zzu+hXWVU3TtlFTncRuvwwBJaP1SEoRHW8uDv7c4PuOYP/4a2U+om42LJeXjCcztIrKweACQkR/vVCatje8/dY7fO/b36XrOibbWxSjEaOyYDQqkd6zuTwjSxL0H2qeEaLqTEmJH2bFT5uBPoQhXUYxm4zjNWmwmiIl1XrD8uIsgjKUGtx0guAEQQpkotCpJs8zpFZY00ZoR5GBjBJWIQSSqFgcFQVJluM7QweE4FBIJJ5EKYIQjFKFd+BUfBEJZ8hVQpIlWGNjkEU+wpHw6//470exzve/aoZjufqoCuhPWO8R89e+yScobPlnra7rePj4kO+99S5vvHeXe4dnrHuPyEo6Y1lsamZbuzAgga3pY5HLMCBrY4f9Kb9NDRw26z22j4UolKbrWox11H2PdZYqeK5eOeDHP/0yeRJHQaPRNHZPF+e4EJAqOtCMdXSDs61abVguljw5OaexgT//536RV158gb2r16kW59SbCFXIsgydKqzxQwyPiV15oDGWZdMNXDdJa3qM8/QuxAD7IcT+6a4rnspClSLPsiGe+IzZdMLWbEaepH8gbOGpVjsWt3uaCDI4wtygLVdCkOYFCIV3liQrIkJYaRyCVVVz7+Fjfud3f497775PkijK2ZSsHDEZxkWTyZQ8Gdhq3uOdwfQGayKb3nQd3sUXJQSk94QhOFAPPQw5KOQSrclTTZakVF3PycOHTOcz0iyLUA0lUTLO5PNEUwzNOx08eZqSZQWJTuIOHxxZklAWGUmas6kbjh4/ZLO4wHmDlOGZeUlKhSQgGcAX1qC8Q2kV5/EqjbN5JRAh8J1Hx/yf//2/8mGlp6fA/46PUcTyR9d/SLyD/3Pbvf/oatqWR48PefT48J/69TyPf5G3blzn9q0bXN+ZMy3S+BcsQRpDYyOrPM58LZkAqRJWdc+j0wt29w+4PD9jsr+ND46bk5xXtmcoQSwkZ1mtLp/xrru6RWTZcEc2dG3Hxek5h0cnPDpbcP9kwZ//5Z/i5ZtXSaTA1GtMtUJ7Q0Kg7zpaU+IHmL93HhUstYVVa2mNI0kVvncYB9bEE4YUAp3oP2S5jMdrreIsW5YlB9ev8fj+Pe7cucsoz9jd3iHR8hnAwQ12VT/E3LqBDS6GPoXWCq9iHE+S59RVhVmvqJuay4sFlxeXXJyd07UtAZjOp8iiIEkSyrJkPp0xmYzI08EP4Cy9jS+iZ3d7gIESq4J/dgdXUqBkIOAILuDFEM8kQEmNVJL5eIxxDtds0KMRWkZxjURHAKdSpImKBJgkJdHJIMhRBOEjiaVpePDkEevzc7quocwztnZ3yTNNkZSkacxCJ7goBFIptl8jgo8jubxAZwUhQKkVMjjuXG74t/9Pf5G+7z/so/2A2C3/xCJ8vwSUn9DX+qFW23a0dLzx9ru88fa7QFQSzWZTdrbmbM9nzOdzNps1bdejlcQYy+OjE54c/bMhdv/mv/Y/JqNGDIXjrMf5PqKSBpFFvV7jVYrpelaXCw6Pjrn75IyHy4qf/toX+HPf+AreGbpqjak39G0krSglqauKcjrH+xhxLKVAKVjUHaumi95hRQzA6zt6awghRMDAkOhh49XzWR/gaZ70aDxm72Cfo8Nj3nn/A8ytjp3tHbKh4RgQcbZvPNb1w3XEPSv2YC3e9jRtR71aRX5a00ZNu/cgFEmaUI63ETpBKMV0a5siz8jSlKLISaREBEdwMo4VGebgAEi0ltEUIhRaiWeZaUIoYi6aJAiH9yJSDEQgoMBbZuOCrZ0dmrrmapGhkhStdGyqqnhlSFR0+EV0FnRdT9+uqeqK1cU5m8sLpITJfMrWwR7FeEqRZ4yzjDRLSZREC09alFgPttkgCGR5jtQxo06mUXIcnMN0lg+Ozjg++VDClafrLvGk/IkU9wT4N+FpO/TP3uqN4fTsnNOz8w/9e3/ix77GfupRIYa1J0LhncPa6LvujMErEcEGfcV603B8dsGT0wWH65pf+Imv8Rd+4ScpEo03T3nlnn74/R7YLFekkzlpluB85KJba9k0Hev1OoIq8vjnsE8VYELgiCy0LElJ0zi3DcGjpRzMLTKywfKCYPqoo85yzk9PkUo9E70gVXySgkaogBuuFt5agjU4Ex1zOkvJtSbJc8bTaUQvB+IDLhVJniG9J89zyvEYEQKRTSIIXvD04hCIqGchNM90mSGghB8aalExGBtjMaFkkOIgnl5EgycEwShLee655/gn3/ptgrwTgRV5FgMK8ZgmsuS0iN44Z0x0p0kZm6B5xnx/j3IyoRyPSZOEVCeMsihbTQTkaUI5GnG2rDg5fESu4/dOJQmuabHe09T3McsFk9GI+d4ez+3voJT6sEdygHef/uSTKO7/GfCVT+Dr/KlbX/z8Z/lvffW1Z/cqBDgRoh6979l0HU1nscHjEDRVzXKxZN10nK1rfvxHPsu//Es/HRlrA9fMO//MydWbboApthwfHXLtuZsE7wepauzu09XoIidJUsIAJXyKIrLGUq1X9FnB3v7eYFqIO673DhliUB9EBvi1g31eeeU1mtWS44f3uHj8gK6LudZ6NKEYjRmNxmRZhukz2r7FBU+hFN4HbICubcnznETHkAaImvMwNNayNMUaQ6YEUiWD84voCPGBIAIgoyhFyMEyKp5FABFClH8qhek7+s0myoRDQKUJSZoisxSNHrTuiltXD/humnL/7j2ePH6MJircEgmpFBRlwWQ8Ji/LGD9UlugkymeVgiTJyLOCTGu0lqRJhvQWhSMvRhSjEfcfH/O73/pWNI9kOaMijxMG70gI6OCZjMeo6RStNI9PLn+QwgZ4++lPPu7i/irwb33MX+NP5cqyjF/58S8hbYvK8me2zt7EMPqq62l7Ew0nIWB6w7ppWW9qFquK+daMb379SyRK0PYxycNaExM9h+ZVb2MmWFKUrDdrmrod7svRvNK1LXXdMN9PY3NpaBIZ7/Eu0DU1dduTJEnEFIWAGybOIgickqgg0EIyHZdszya4rqEoS1789Oe4sllxeXbK4vSYxfKSo8MnkKbMd3bjj+ksagv6HiEC1jiyUUleZPGOnz5FLkXXmdYCoSNqKdq8FUkI8SUlYpNTyviSFMMxWSAi/KKusL2JFFTnUMOlQScJSaJJszQyzNKI5pLD+E7KwHQ05tb1q5yPcsrRiODjy0yKQJZljMajCHDIR6RpMkQ8gcKjFWRpRprkg/BJDjNsKMoxMkl4/8497r79NjuTnGR3i6ZrCdZQFgVlGZNJxpMpxWSK0gk6Tfg7//jv/SCPXQu8//QfPm5u+f8BmH+MX+NP7Xr15Re5OtZIN9ggxaALNzE+pxmO1xBw1tL2hqbt2dQN63XFiy8+z/ZsxqraxA666SMy2EWGemwTxSzufDqh7XtOD4+4cuMGSI3whvX5CX3Xk+cFuJhmwjC68a6jqir63kRAQZripMDagLFxd0+DIJCSZylFotFS4/qO3lVIGeEFu/v7zLa32K1qVpcXnJ+esTg+5Oz4hK29XXZ2d5mOxkjh6FVLmqQgogAkhMEvLp763AXCOxIVQyIkDpkmeAIhxLxr4zw+OOq6Zr2pY0bZeoVwljzPmc5ioaRZSp7npKmOO7FUUa4q44hTCD001wRCRb/2ZDxmPJ/HwX2IxV/mGUWek+fRZKKkQA0CHQnDET1Ed5r19MajE01aFLTG8vC991mdnbBzsM90Z5s0y7G9YXl2QpJnjKZz0iHxRqUFIljeOLrkH/3Wt36Qx+7B8AP4eIv7fwF8/WP8/D/V65Xbz+H7Nmq0pULICErobexoCxEJms4GXIgUFGMNSkCeauazCc4bOttjzZDI6YYIWmJcb3RuxS5wOh6zODnlYjFie2eHZt2xXizZunKNLE3o28hS8SFCGru2o+96MqXYns9JE03vDSiJ94qg4708SOhlDDiw1hCCQ8v4GcH00WoZAomC8WxCNiqZLtdcnJ6yOj7i8viIyXzO/sEVprMJeRFPEXrATPunslMp0FKjVWyqWeep64bL1Tmr9ZqqqtlsaqpNhXWOTVUjEVy9fsB0VDKZz9je3mE0GsdxlgwkMqCJGm6lQEsGgiwIXFQYimgNFQTyPH8WxaSQZKkkzzP0EAGsBdTVBm968iwjzXOyJIlpK0i89AQvqOqWk8NDlmenJEqxc/Ua6Xg0aCMko8kMpTX1MppBnqaFCq2RAX79N7+N9/4HeezuAJdP/+HjKu5fAv6Nj+mz/9QvpRSv3tiDYKPKLQxSRReTLD2BIKLby/kYFxyEJMly8rFj1hvyLB0KOOBCwHYdPrKBoi0S/+yhCIM/vZjPWF5ckCQJtuuQSrN/9RoqeBSx4QRgjI24XhHY29tlNplGTfsQHq+9Ho7KNhJlAOkd+IgJeqYPdx7lPXiH8p4Ei9SBZHvMZFLStB2b9ZqzkzPeOT0lTzO29nbZ3d+hLHO0VIhEEpynt57Ves1qVXF2sWC1XNJUG5qmif7sMHjBE4UQkkIJus5QLZfsbW8zmW+TFEUMUMAhQswW05HyhFLROy5VNJpEsEPMwr5YV9R1w3g+i0f/QUWnlESECG4EnvnSnzx+Qr1Zo9LofEsSHa81JkIqQ9eSaM10a4vZ7jZpVhDilxw+Kx73SSOJNc1yiiwD2/Ok6viHv/lbP+ij99sMacLw8RT3DeD/yEec7vlnad26cZ0rk5IUixRRBfZUTmqcjwDCpzNpH3ngSmvKMpro+rZlXORRJukCZoA1NE1HUIrxaEySpAgRxSo+hKgwy3OElBw9esz5csnB3j6TUUFbN7jgcT6qyVzfgOnZ2dri2tUDQvA0fccf+Kmisso9JUDFrtUQgOCHoD1QPKWy+MHOauK9HtCpQicx1SXGDK+xbcPRo0c8uHOXJE1IsjyGAjhPVTdUmwpjDFKEwWWVUcxmEdIvJDpNnuGFhYhNxma1Yn1xytb2PP7ZQkDJ+DJ4KguWT/9UUkbDiYyddyXj/P39Dz6ITLWndlHph/FXlONqJbDOY33PKMu5fusWq8sLTi4vOXxwH03EOOV5TjkZM93fJxuPyfIUlaYR4CEEaZKQaIXEI7TCJglZmjCdTEgTBTrjL/+Nf8ByufpBH73f+cP/8FEXtwD+N3wCzPI/zWs6KiPu1joYTAsuxLuyG+D+w/9B9FboZ2IM33dkWpJnkdjZmUiAsUMhVYsFi8sF8+1tRuMROgFlDEKKGPmbZlgfcGfn7OzsRvwP/lkcUAgeGeDg+jV2tndIdYK1Ldb2xAKWEByeQT4aeObjDt5HoIKQcUxk+2fmLiElwULXCfJ0YNMhkCrAuCBoTQhbFLM5m+WKpq5iNnddP1PITSYlUspIqk0SZJqhh2TTNE1jvpt4+r3zBBGbV816SVdtGJUlSokBpAhiON1YQkwBdpYwkEdH4xFZXvLe3fucHB1RTiYIJYa/h6hoS5QmGb6mDJbgJZ21MaxvMiUdTZB9RzkakeQ5eVFQjgryLCdJNckAttBSxsJWKh4jBCRKI4uCdAhJUHnJX//W6/zNv/W3f9DH7oToxny2Puri/lf452Tz/NO0rLN0ziCtRSsdZZg+KrYQEFxUpUsZHUM6BJSMRFWfavIsheDj0bzraKo6qrHSlGw8oe06jo9PEGea2WzKqIiUkeADm7bjclVRG0eWxVwxQlSSORcAQTGexEAFEQguHiW9dwilCd7C4IvGu8FfnqAFuMGP3VlLcBZvO8piBMESbBTPaB2GbnKcM0cTjiJR0cIayhydpYzNPAbxWYvru/jnUzqCBnWKTJJnTDEx7NppkkTZTBSvx1OEEEynI1zbEvoGPR5F2qhWEZwQov79aca3UJJ+YM95nfHu22/HxltZPgty1DIq65QS0cH1FC2Fj1YAEVCJInQN2wf7lLMZDKKgMotqxkynwwjek+oELdVgRCIiqY1Bax3TQ8dT/s533uV//3/9iz/MY/cd4PEf/oWPsrhfBf7tj/Dz/swu5wOdBd905KlDELlh1nuE90g1iDekJhlms9JKgg/4JCEb4oCEgCTXpCanXa5jJrSQUZutUhaLBR/cf0jXdlSbhqaN2ddt15JnKX3f4n2J9+FZ00jq6NLSSg5EVEGS6LhjA44oXBFuABxIGQEVZUHftdEUM7C2tdQoqfDSPTNvCPUUrvjUsh0ipzyATnScgVuDtR5b5lG+GsJw3JbP8MVCRkoOT3FJUkT0+TMgg3rGUZMiQY0KnOkJpkeoDI0GFY/jT40sTgTSPMX2infeeyvikfKcbDxBpwNJRQhUEsdsDPp57y1K6iEBJDbmnIswjnx7K+7sQpIlKsIadILSKv65iOo5rSPBR8loHnHOohLNGs2/+9f+Ln/5P/yPMcb8MI/dbzAo056uj6q4E+B/C+x9RJ/3Z3otVmuEVEN3FBhGMVpGx5UIoFQyUFsYVGEgUkUocrIsRfq48+EhSRRZkeNDTdu0tF28u7d9z2ax5PGTYxKlmE5KZtOS3YPbFKOCy/WG0Sjmi9sQkUwyhEHjHO+UQQgSKfEh0lZiDpnEOY/U8W6rEslkNkMM3XalYpZXGJI4lYy32qf3dRkkQXg8Hkk03eQDiirNdWSwY4aZfDLwy58WoiCEKKZJtMC6QZEm4jFbidh8DCIMx/7B5KE0usxgkLwiezTJYFCRqIGNrqXCuUBZlJHAOipjysnQhxIivvieNr6cc/GqIKLGzXnIlMJbQ1Ymz1JGEqXJk4Q8jaCHIGJ/A+JLzliHDOCEw3YtVqX87t0z/oO/+Zd4/4MPDWP4o8sQi/ufWh9Vcf9PgV/9iD7rz/w6Oj7h/vmKF0aKRMvo9uoNHjmkgyqQ8VvvnEcqRSrV4DUGrSM5NaZfxru4HjC5IyFBdNi6oVutqJZLXnnhOV577aWYgpHE+NnVakG9WXN8eMjO3h5ZlkRjhxtm5N7GloAUWCKS2dhobNBPGdyCp/4lsnJE17XY+JtQSrFZRrrp9s4WGIO0foCrSESQBByOgFIJSRo19UEIRmWJ7nuMsYMsdHgpMBzpPbjhnv+0+RULLDq74o4YRS1P77RRARh39bwsUakmUylaSoSMRiEbPFW1ZrleM9meI3TcoYOPR+3gQWn1LIctRk7F+3dk4zmUVEAeeyN5vF/jA1maRkxWkjwbY4UQYqQRisuup+0jEee9J6f8g9/57kdR1E/XB8C3/+gvfhTF/Sngf/URfM5/rdZf/9t/j3/jv/ffxrVrhIhUUdMbVssl68WSumkRKnZyZaIoihHJoH6q245xYDgSRgF23AGji6vwgdX5Kcp1/OhXf4TXPv1pinJE08TGWFVtyBNJUhbUmw1nh4dMtreZTMYo+QeRvL11UUcuA0qpmKfWtIzmU5SKIAURBEFAMS6pFmuaNpplLJ6u66LghFjQSmqeIoXjiyHSR7ROUEXKxeWa3/+9N0izjJdfus10Ug5y1+hDJwyHaEXU4IdAcAPSdJCKChkdaVJEE44caLLI6PZKhmNxkPGFUBuL6x3WWLyLtpPRZEL82D9gs0fyaERiPT2ex4mZRkoZDTFIijyJY8M0iSBIncTwwiTesY0x8cqiFN85XvG7b7zNnXv3eXh4HE1JH46F9v2u3+CfASX9YYtbAv9rPqHooD9L69Gjx/yVv/cb/MqPfRHdNygtIwRvscSYnjTVpAMUUSlJvV6zWJxj2ig+2dvdJWKe4kUqxNkNmsDZyTHC9Hz9G9/g2o3n6bua5eKMvu9QWuNcF3e4RFNOJ5imZXF8xOJUsX2wz2g0is20AIh4tw4uwiUsgb7vyNKURA9hfR6yPCdMA9b2JDpFygShNaumY1eAThJQQzaWf2rTiKaQJM+4XK555/U32Zyf0RnP0eMjrt+4wssvPz/AJsQzogkhDKq0iFaWxLrXQ76YC+HZPVwPopSnQQm1MzxZrTm+WPLo5IzHx2ekQnBzf5ft2YTZZEyZZ4OfO4mOMimxNqCDi1FDQ4c8+vc9WibRfOPDM0ZaohO0kgPQUcZ4Yh8JL0YkBDXi3/lL/zcO/xin4Ee8fv2f9Ys/bHH/i8C/8EN+xn9t17e/8/s8eXLIr33zp7k2EiTFmL1y8kwnrXRspmmpmG9vYZ0hdD3ry0uKIo8zbOKDrbRCmcDl8RGJgM/86I+xvb1D01yy2WzisT/4mP09oH6lliBAlQWTNKXZbDh5csx4a850OkYP4oyhp4cP0FjP8nyNNx2jMn/GHBdCocbx3hxURtN1PD465fGDh5Rlzo2bV6K11Pthow2gFCjJ4vSS9956B0zPtWvX8AJWqzUnDx6wOD5m72CP6XzKqIyNuzRLY2EN6jJE7Hp7z9CniMXdtIa7J+fceXJMbw19Z1ms16zaDtNGeIOUklQpji8XpGlERGVJwiTLydIY99M7R900vLi/y/O3rrIzn5KmOjLgkBA8QiaUqYrwSyXojGPdNHTWRuJNGx1+MknZuXKL5ari/OLyj384Prr1gH/GfRt+ODLK/vCh/42eaX8/K9Gaf/1f+R+Su44yy6IX2Zu4+xAQIgxHzthIsm1H33Zs7e8OwfcOYwz9Kmq6d67eIMtT2mZN27b0xmKdj44vT3RQEX/f07TO8IecYF3fo9OcNInH2jTReCQnJ+c8uH+fvm4gOJIkeRaZkxU5KsmHHLEYh+zbGuk9RVlw8/bzbO1sDVFKEmN6qqpidX7JernEyWj1TLICgadebzB9i6lrgrXoJB5zszwne2rsUJo00SRZSjGekJYFSZpRGcs7T4757p17PDo8Ae/QiabtYoKmVBKp9QBr+AOabUI8BSkpB5WaQGdZxET10eNepCl7syn7OzP2draYTSZowbPvY91GX4BzHrTE+UA7KAonkym723vM5zv8/e+8zv/rL/8Hn8Tj9e8RUWb/pfXD7Nz/Fv//wv6+lrGWt9//gM89f41VXZPohDLXpDIes4WIskYfPAqBLjJC22LajnI8ih1pIRltz5lOZjhvqasldnB3RVRSDBcEwA05Zc7BcFeP86MB+jjcpxEaLwRPTi54+OAR1XrNJE+ZT0p0liKFxHlHU1WslwuMD/E+qROmsym3Xn6J/d1dRBCslxecPHwc8cvWYfo+pqwoTTbbQuf5s0gh7zyznS28MZi2iyEBaUKSpGSpJsni/TemY6pIl80Lmr7nrQdP+N3373J0fIbHk6UaKRJaY/FKkiZ5vG8HQarjxELKyDzLVRK/D52N0b9KYWU8+idZShqidXRZN2zanocnl4zTFK3jSyJNNCKN3vc0z8hSjU4UecgZpSNGowmJ0lTed7/+d//TT0qh+R/9cf/HD1rc3wD+9R/w9/43cm2qDfQtl6dnrKqayWTE7u4eO/M5qYo3VCmi+UAIgdKS5dkZ6ShHakmm4s7etZtI2rQuJlkag3Mx18vFcytPC1qpmC/+rDnk479nraPz0FrL/YePufve+0xSzfbONlvbM8bjCcWoQAzF7XpD07SxYK0h0Qk7+zvs726Tak0QsFvs07Ut1bqia9vIcJMSlaXIJB0MGU9TPaPG2luHdxGgoIc5cqpicwopSdIEKQTLTc3b9x/xxv1HPDg+xRuLHwINfPR/khU5pZIRLyxllKwOXzPLUso8J0001nqaqiKYaIGVLuCzqN+XMspcs0STCElW/P/aO/cYO87zvP/mPnMuu3uWy7ssUqJu1sUSo1RKbTVRbMO5FGltpG2cwA2MNgEcBA7a3AAjiRu4iRGjQQ0UaYqiSOAWSBunidMGcerYUWTJjgM3liyJomRSIpfkcnfJvd/OZS7fTP94Z1esRJG7e86cOYf7/YADStTqO+8u9jkz833v+zwuI7UKvuvh+i52frKg0hRDpWRxQhRGuL6HaZk4lkOlUuW585eyxYWFfvxavQo883b/cTfiDoBPA/5uK9qLJOlmaucIdrVC2moxf/kS6ysrHDl6lEbdwzAUSpmoWGH6HunyCqvzy+w7tF/SOgAwJEooTYkTcUtV+e53lsmZsm3bWI44aTbboUQpmSaWZRNFCWsbGyxtbDA7M0dzZYUj46OMj4sJQWPfBKNjo1Q8DzIxW0wSRRxXJdA+jFBxTNV1qfoy+ABG3ugREPgBKlVb46lpHuljG9IdRn505ZgmKknAkf5vI79rsSyJ8MkyWG42OT09y9lLM8wtr6KSGM9xMDyXUMmMN3mCiWFAFCtWo3Zu9ri5423gOQ41x8Xz5apbqQT4Ix6e51APPBnMURmeI8dg4skGm7uCKs94V4m8Fxk4toXlegSuRzWo4PoVsVFynOaXnnq6X0k7f8oNort2I+6PAd+763L2KFMzVzG/+0GqpNRrDYwsJW5t0F5bZWV5EdOYoDES4DopMSZplhGMjrK6MI/p+YyMVkkzRZaJPZLchotlUr7tjWGaIowUZqemWVpYJApDyIPtM6C50WRtbYOWUkRhxLHD+7nnnjsxHY9UxdjmppeaNKWYho2TZ1Mr5aB8l6QTYaQp7U6I57kSC4S0bJIZWKmclW/6f5uGiQ0kBnTihPXcXmpxZR2VZuwbrcn9RpoSxoqra+tMzS8yvbjMarOFYRgSspAq0ky6uNJMzB+SRPYAyD/Y0nyKy3NdsSR2XTm332z9JCOJYpppSieMiKMYlaa4pkVltJY/dljy87SkOSbN0vwRJcW35a5CfEwzUhIipbBSGfB57vSZ2fPnz9/Vh1+pJvDHN/qCnYr7fuBXdl3OHmZ6epqlMGXcFCfNDANTKdwGqCRmY22ZzsYaY2N1HFe6qgw/wHRaXJ28QHb8OPWRQG5lszc8wQ3TwMwtg0zTIE5Srl68SGtjAy+o4tdqMtSRZsRJLDvIloW9scFaHHP06CGO3naEOIqJlSLutGmtLJGpGrVqgG1bGMiZM2lK6jhknkeaJKiwQytN5ZbUlF3lVCXSCeYHpErRjiJWmm2uLK9yeWmFy3MLrLdDVtfWabcjslR66G3HxjTzcdSOZGkZpiXdYpZJ2zTF+NG28yOzFMPI8FwLw3IlPTX/gKtVAvY3RqnXKgSui5/vklumbICFkUQym6aZz3dnjFZ85DQtpR0ltNsdxkarGKb0A6ytyAVybKRONfBRpGSpwnUqkEESh4wcecdzn/uN336kT79SX+VNgyJvZifitoDfpITs7VuFr37zeT78vveg1lYwgyqmY2Oa0m4a+AmdZpu11TWZUEKeA/2ROmmScOXCJOrYcWo1X55TMbEsIEVufdOUKFasLa/gBAFHDh/BNPLOqnwaLVEKvxIQRgqTjCSMaTRG8R0Lx4A4NYjNgLZKWb06z4pp0tjXYGRsBMeWttFsc7ossUk6bTKVkKUGbdNkNYKr6x1mrsxzdWEB3w+IibkwOwOGQacTAgbVwKdWCah4DmEkLjRxp41jW7i+LwEEWbY1z56plCTL5BTAlCk1DBvXlUkrM8/89lyXSuBRrwQyTJNltMOQlIya4YoNWz6T7ft+PhsubjBxmtEKY8gyAsdhbKSGaRisNTskcUy9EjA+MgqmSZwkrLWa1AOJVDKxaOw/uPrZ3/uvhlKqH1kAAJ/jmtnt67ETcf8z4INdFLPnefn0K3x5fJz3P3Q32cYyZqWObft4RkLm2PieRxLLbrNpW/i+R5JHyLK8zNXJSVoH9tMYH5MmlSTbStUgS0mjkGotwK8cwDQN0iRGKYPENlFK+qRd28K2EzqBT7VWpdEYw3McUtuESM6TjVoFyzRpbzRZmrnC+sIC9bHRPCfMkSscGXOpw4XLcyxvdDh36TJTM7M0W+3/73t+zxOPs7qyylhjFM9x8XxPJqgsk4pfx8ik063ZCWl1ZH8giWNcx8XzXNk/2GxeSeX2O8mzysMoopPJUaPnediWxDzFicIAPNehWvHxXclx64Rx3pQjHnSmknl7cYEx8WwLJ28/VWlKpBS+Y5HZ0hm31F6Xjr4sY6QS4Ns+jlfF8ipcXm4+89JLp/5Rv36VgK/c7Iu2K+7bkKu2pkue/drXmZmZ4clHH+SgFdKKYqq2QcUxcFwH1wnEcimKidshKbmX19goWZKwPDvDRrPFSKNBreLj2BlWBlkm44mW40kcDhmmLcdAlmmiTIWyZMzUMAxpm7QMSDPCKBZL5DhGRRFKZXiBS+DZRG2fsNWivbSEarfELsj1eGF2nT/68y/fNOrm8qUZjh45wtrGOm4eLm+7HkkUsby2hufYBK7H/kpVnmEzeXxYb3bYaLUxDUN6tj0Hy7LeMDwwxK/ctqTTrFrxqFd8Kq6HmbeegmyGhVEsu+GGHI+5vpefgef989fMum+0Q9YSJW6tiWzUkYFlSxCg5zhUnIA0VVimJKZU6vUvfObTn/xA4b88b/D73GAjbZPtNrH8J2QjTdNDThy/nfvuOcGdtx3hUGBhZyGu42LZYgUcxwlxHOe7tXK1SZpt5hcWmZlf5sChAxw/dhsVPxAzfhWTYsmIJdIIkqSSua3yKbMoiul0Ii6+fh7HzHjo5MNUAi+PB8qvjkrl58NAmhKnoOIII1N0nBrPnHqdr3ztb7f9fb773Y9zcWYS07IkQM9xqFYCbNveimFK89tuz3G3Ul+yTIS50eoQRWLjzOaRlWVhWiaubTMxNsqxwwfyjS/pObcs+RCzDDE/tG2xWZLAvoRWGNEKI5qdDiq3cKoFPhvtjrSVphm+5zA+MkI9kIhiM59Gk3bTFD8Y49A7bv8f//oTn3x3kiTHivo9eRNTwGPAlZt94XbE/QHgi/QvnWTP4bku+8YbPHbyIR47cRgjCbHtfAgjFVumTTNBFUbMXJ5m9socI+P7aEyIeX21WqMaiJmBxN7IBtTmMZlKU5JE7J0W5+eZmrzAbUePcPf99+K64gQqmV8KM03zTDTZuIrDkMQNeO7CFf7P03/D8g5tgEzT5AMfeJIXXz2Fbcmze5wk2JZFvVplpBrguo60coYxcRKj0iyPO9qM75HpMDt3XZUNMumuCzyXwJPTADMXtONYeLYDRkaSKCKVEscJzTAiVelWl9m1/7+fn6sHnrv1LJ/mwyVWPiqqsphUmQSVRhw0DvzJpz79W9+XZdnhIn4v3oZPAf9mO194M3GPAE+xR0MFyuDEHcd43+MnOTZeI407W95fBiYqTWg328xMTROGIROHDzO2r8HGsnSPWZbsmruOTa1WwffkFtVAbj1VBlEUc/m1c0TtFsfvuYcDRw9JOkeeu7XZt735gYDl8MrsMn/x9W9xceryrr+vJ7//H/Da5Fl83xdrYNsiDCPCvKOtVg3YN96gWglkOMOUDxaZFpOscvJ/lh+JIUkevgzeqCSV5+X8UcTAIIoV6602kUokL9u18dzNgQ855grc3OLKNLZGRkHCALPNfnYk1bQdRTiWQ2P/sannT33n3J/9xZeeoL8XvTnkqn1xO198s8J+Bi3svnJu8iLnJi/y0Dvv5eS9d3D84D7SuA25M0q72cLzPOqjo4yMNahX6ziWRacTkRmmdIHlm05hrHLjfXEwSdOU9ZU1rCzjwJGj2NWK7GBn4oRob9ojpQpsj7PzTb723Mu8fOa1rr+vlaVlDMS2OYkTHNOkMjaKShKazTar6+usrDVxHYfGaI39jVFq1QqOLfECTiqbZGKcKG6jlmXRCUM6YYxjWXiuTSdOWFxc34r3tUyDqu/JkZ4hH25rUYzjirlCJwpx8w8Fz3ZkSMe0USrDtOS5PlYWK60Wnl/npdenom9/4enGysrKk13/UHbO59imsOHGV+4HkdY2Pc5ZIocOHuCOY7dz/+2HmfAtOutrmK6D5UlEUODY4mMei5tqhkTmmkgssGFk+fSZQZLELM3OYRlQ2TcmgXe2jWWbOI6LUhmrYcK52UX+7uXvMHlxqmffx/3330c7XkcpxcT4GHGUbEXXeq6LYRjEsaIddQjDSKbZ8s0yJ29C2XQkdfKraqvToRNFeeImTIzWt3bWq4FHLfDwbEeu5CaQyoy8kfcDJCqhEyZ5LrccGxr5BqTnyE59nGRYbp12GPHUV7/OpS7uXrrkCvA99EDcNvA/0UdfA8Wdx27jkQfu58BYjaojfdoqivJeKZn6svOWSyNPxHAcmYpKkpQoSdhYWcX1PFp+lemFVVZX1shMk6X5eZqdkCtzC0TdeXldl5GROve+8wRnzp3l4MR+RuvVLc+wwPfwvdzh1BZf8YyMMJYZ8yw3loD8cSFRW74OmZJWV89zUVlGzfcYr9ewHUkYsS05drZt6Rs3DcS73DRlQi5OSFJF4Mqz/WbGWmb4GJZNlBh858zrPP/Ci2KcUR6/BvzGTv6HtxP3P0HErRlAXNfl0MED7B8f4+CB/YxUfKq+Q8VzsdJErHM3DQrzgLw4M2i1O6yGCadfv8ArZ1/v1pBvx7z3/e/l1CvPkWYGtVqN0aovjqaGbIzZeWaZnRsJGrmtkoF0a1iGIVnauQBdxxFrqM2vyTKOTjQYrQa5KWT6hjlimm25zao0pZOPydp58ECilOw92D6m7bO0tM4LL7/C5IVLN/6m+sMkctXeUabv9cTdAJ5Fbss1Q4Jt2+LbbYLjuEzsn8DOHUSXl5bodELaYUi73Sm1xscfO8nk9AWiKJYmmlqVeq0qqZxxDAZ5DK48U0sbqvxdkqR04lhaRw0T33XkKptljNUq7Bupirso4gefpRlJfoZNmoktkyWX/ERlxInMtjumjV+tsbqhOH9pmjNnXmN55abHyP3kY7NLi//58PjOmkOvJ+5PIFNfGk3PMQyDRx99mNRMuTw9hWla+J7DgX3j1Gp1UiWz1o7jysNGBu0oxLbs/Hnbkg01V0IbsizDcx08x8HKNw7llF+66MRD2thKHYlVTBxL443tulhOnSuzc5w+e56Ll0p7nr4R/xd4cnZpsd2tuO8EvgEc7FFhGs11aTTGePCB+3B8FxVGLCwsMnt1gf0T+7jnrncwt3SV0VoNx3ZIUjnj3+wYqwZ5S6nEqeA4MsUF4rIikUAGUZ5pvpnlHSUJluNiWR7rGx3OT05x7vxFWu32jYstDwX849mlxS8CdCtu3YmmKZ3R0REeeeQBFhavUq34jI2O4DkWcSKRx25uoWTkXnQG0mYqu+kS+ufYHklmyK18pOiEEStrTS5evMT8whJhMS6kveYPZpcWP7L5L92I+xHEE61fg+YazQ154IF30omaLK0scXBigrF6lVq9QuCLs0uWZrkvuYFpWliGSaU6wvMvnWVufpHFpaVS9xi6ZA549+zS4rnNv9ipuK9tYvk5tLA1A8Tp069y/PgxTtxxNy+dehE7s6h4LtVqwEi9wom7TxBUa4xU6ySdFo5bI7M9nn/hVNml94LfulbYu2FT3O9Cjr80moHiwoWLzM3Nc+/d9/LaubN0oggShZ0pXC+gXm3gej5mkrGxvkxoVsouuRc8C/xut4uYgAt8FKh3u5hGUwStVotXTp/lkXd9F4kDyrfwR+tUqzU6UZt2u0UnisGt8KWv/FXZ5XbLBvDLs0uLXW8KmMiz9ge7XUijKRKlFC9++xQnH3yYWCVYnvi2h1GHdtjhyvw8n//TL7LUnyCAIvnMleXlb/ZiIRN4H3BHLxbTaIqk3elw6sVXOXbbcZrNFhcuXaISVJlfXOEvn/lbWq1W2SV2yzNIWm5PMNHC1gwRG80m01OzjNYbKGVw5rWLfPkrTxNFUdmldcsq8AuXZqZ6duhuAJ8F/lWvFtRoNLvi48Dv9HJBEziNdMJoNJpy+DzSQNZTLGAJeBx4R68X12g0N+Us8BG2YXi4UyxgJX+DDyFRQRqNpj+EwD8HXihi8U0D9UvAt5Ar+EQRb6TRaN7CrwL/rajFr01HmAS+AHSQHfTRot5Uo9Hw34FfYsuSsfe8OfpkHfhrJGDsDLLhth+d6KnR9JJvAz+BhPkVxnZ8yx9CGl1+GHgC/Vyu0XTDVeCHEIEXynYTRwAcROgfBH4USfzUaDTbJwI+jORqDywNZPv+G2xFlOuXfunXTV6/yBARIJsCTcr/wemXfg3y6/fY2Z1y13SbJZwgV+855DmiX9nEGs0w8SXgXyC35X2jV58kLvB3iOmDRqN5gxeQC99NUzl7jdmjdXQCqEbzVmaBn6QEYUPvxH0HenRUo7mWdUTYpRm69UrcT6BtmjSaTULgp4BSPZ96IW4T+IEerKPR3Cr8MvBHZRfRC3EfQ67cGo0GPgX8h7KLgN6I+71I/7lGs9f5j8Cvl13EJr0Q9w/1YA2NZtj5X0gHWlZyHVt0K+6jyAy4RrOXeQn4GWRcemDoVtwPAod7UYhGM6RsAD9LSWfZN6IX4tYtp5q9zG8jAZoDR7fi1qaKmr3M84i4B5Juxa2v2pq9Sgb8Wwp2U+mGbsU93ZMqNJrh48vAF8su4kZ0K+7/jdjGaDR7iRj49/mfA0u34n4VsVx6mgE639NoCuZZSu4b3w69eGaeAv4QEXgTqCAOLV4P1tZoBo0M+BVKnPbaLkXYvtSBu4B7kN30/cAJ4CRwZwHvp9H0kzPA9yBJPQNNr0Y+r2UdsW39PPAUsulmA9UC3kuj6Td/xhAIG4pxUDkA/Bjw48AjaJ9zza1DjKTyDAW9FvdHgU8gt+Qaza3G8xQU2lcEvRK3DXwG+PkerafRDCJ/xYANh9yIXj1z/yRa2JpbmwjJ0RsaeiXuD/ZoHY1mULkEPFd2ETuhV+Ke7dE6Gs2g8k1gtewidkKvxP0HDHgrnkbTJd8ou4Cd0itxPwt8tkdraTSDRkwfInd7TS+bWH4V+C89XE+jGRRmgMmyi9gpvRR3jPhI/RLQ6uG6Gk3ZnEPCLoeKXrefKsSZ4geBb/V4bY2mLF4C0rKL2ClF9JYDfA14H/C7Ba2v0fSTM2UXsBuKEjfAGuIK+esFvodGUzQpcLbsInZDkeLe5DcRSxqNZhhZQRpYho5+iDtBxuQ0mmHkCjBfdhG7oR/iBm2BrBleLjPADqc3oh/irqHzxDTDyxxy9zl09EPcTyDJJBrNMDK0cxP9EPeP9+l9NJoiGMrNNChedHegb8k1w83ABfxtl6LF/SHE/VSjGUYShsQM8XoUKW4HbeKgGW5CpBlrKClS3A8Df6/A9TWaoumgr9zX5UcAv8D1NZqi6QAbZRexW4oStwu8v6C1NZp+0UZuzYeSosR9AnigoLU1mn7RZIisjN9MUeJ+FBgtaG2Npl+E6Cv3W9AbaZpbgZAhbT2FYsRtoG/JNbcG7bIL6IYixN1AR/Vqbg2G9pYcihH3IWCigHU1mn4z1F78RYh7DOlO02iGHVV2Ad1QhLgrgFXAuhpNvxk6x9NrKWpDTaO5FcjKLqAbihB3myG/ndFocvSV+00sMeQbERpNzlCbjBRR/DRDGL2i0VyHod47KkLcq8CpAtbVaPrNUJ/6FHXb8WxB62o0/SQou4BuKErcf4lcwTWaYabGED93F1X4q8CfF7S2RtMvqoBXdhG7pShxZ0iU79C6WGg0yJW7UnYRu6XIW44XgM8UuL5GUzT1/DWUFP088e+APyz4PTSaoqgA+8ouYrcULe4Q+Bg65VMznATAeNlF7JZ+7ASuAh8GfgfdlqoZLmzgYNlF7Ba7T+/TBj4OfBX4JPCuPr3vjVCIAd48cDX/c4U33DcqSFrK3cBdJdSnGQyG1nikX+Le5E+Ap4GPAB8FTvbhPRMk7+kKcAF4DXgdOI8kOF5FRJ7w1ikgExhBkkr/JTpBZS9yR9kF7JYyxzPrwHuQoMDvRX6I3TimNpHolylEvGev+XMWWKa7EHUT+Dlkk7DfH4qa8vhr4AcZwmGoQZm9DoB7Eb/ze4DbgQOI2Cu8ISaF3DavI7fQ88AMErM6nb9mKNax8lPArxW4vmawOAf8feR3bagYFHG/HQ4ymbNZZ4YIXFHerG0N+DqShaa59Wkjd5jfLruQnTLofbMxkvjQzl+d/O/KHKLfAH6/xPfX9JcAuK/sInbDoIt7UHmKIU5/1OyYB8suYDdoce+Oc8Bk2UVo+sajDP4j7FvQ4t4dHeClsovQ9I17kQ3eoUKLe/e8XnYBmr5xlCFsZNLi3j36tnzv4DCE4ZZa3LtniiG3vtXsiPeUXcBO0eLePQtoM4q9xGMM2XO3FvfuWUYfh+0ljgLfXXYRO0GLe/c0gcWyi9D0DQt4b9lF7AQt7t3TRq7emr3D9zFEdsda3LsnRt+W7zUeBh4pu4jtosXdHVfLLkDTVxzgH5ZdxHbR4u6O2bIL0PSdHwD8sovYDlrc3XGl7AI0feddDElDixZ3dywy5AHtmh3jAh8qu4jtoMXdHQsMof2Opmt+BBgru4ibocXdHXN058umGU7uAn647CJuhhZ3dyyij8P2Kj+BNLYMLFrc3bGCXL01e4/vZ8B99LS4uyNGnFc1e48K4r0/sGhxd8/lsgvQlMaPAkfKLuLt0OLuHm3asHc5guTgDSRa3N1zFn3WvZf5aQb0WEyLu3umkSRTzd7kPuCfll3E9dDi7p4Z9ADJXudnkcDIgUKLu3uW0c/de52Hkc21gUKLu3sy4OWyi9CUzseBatlFXIsWd28YupA4Tc85iXStDQxa3L3hFJI8qtnbfBIxUhwIdIh8b7gA/DEyUBCVW4qmJAzEX+1x4Asl1wLA/wOHhTYkBofRpAAAAABJRU5ErkJggg==;" parent="1" vertex="1">
          <mxGeometry x="191" y="134.01" width="169.52" height="185.99" as="geometry" />
        </mxCell>
        <mxCell id="Z4fjTaCAJ1MgGn6guNNH-30" style="edgeStyle=orthogonalEdgeStyle;rounded=0;orthogonalLoop=1;jettySize=auto;html=1;entryX=0.5;entryY=0;entryDx=0;entryDy=0;" parent="1" source="Z4fjTaCAJ1MgGn6guNNH-16" target="Z4fjTaCAJ1MgGn6guNNH-18" edge="1">
          <mxGeometry relative="1" as="geometry" />
        </mxCell>
        <mxCell id="Z4fjTaCAJ1MgGn6guNNH-16" value="" style="rounded=0;whiteSpace=wrap;html=1;" parent="1" vertex="1">
          <mxGeometry x="87.5" y="340" width="245" height="60" as="geometry" />
        </mxCell>
        <mxCell id="Z4fjTaCAJ1MgGn6guNNH-33" style="edgeStyle=orthogonalEdgeStyle;rounded=0;orthogonalLoop=1;jettySize=auto;html=1;entryX=0.5;entryY=0;entryDx=0;entryDy=0;" parent="1" source="Z4fjTaCAJ1MgGn6guNNH-18" target="Z4fjTaCAJ1MgGn6guNNH-20" edge="1">
          <mxGeometry relative="1" as="geometry">
            <Array as="points">
              <mxPoint x="210" y="510" />
            </Array>
          </mxGeometry>
        </mxCell>
        <mxCell id="Z4fjTaCAJ1MgGn6guNNH-18" value="" style="rounded=0;whiteSpace=wrap;html=1;" parent="1" vertex="1">
          <mxGeometry x="87.5" y="425" width="245" height="60" as="geometry" />
        </mxCell>
        <mxCell id="Z4fjTaCAJ1MgGn6guNNH-20" value="" style="rounded=0;whiteSpace=wrap;html=1;" parent="1" vertex="1">
          <mxGeometry x="87.89" y="510" width="242.5" height="140" as="geometry" />
        </mxCell>
        <mxCell id="Z4fjTaCAJ1MgGn6guNNH-4" value="" style="shape=image;verticalLabelPosition=bottom;labelBackgroundColor=default;verticalAlign=top;aspect=fixed;imageAspect=0;image=data:image/png,iVBORw0KGgoAAAANSUhEUgAABEQAAACGCAYAAADU6l+PAAAACXBIWXMAAAsTAAALEwEAmpwYAACyKklEQVR4nOydd5xcVd3Gn3POvXdmdtM7NZX03ntIaCG0SJGiFI2iAsIrguIbhRcUacEoCGIERKpKr4GEEEJ6L1vTK6TXLTNzT/m9f9yZbQnJltkNO5yvn3xIdmbunPHu3HvO7zy/5wEslnqM/PCdxkXfOY8K+nWiwpF9KPqLn1x7ssdksVgsFsu3ieLbf0SFI3pT0cRzSS1Z4Jzs8VhSS/SOH1NB3/ZUOKovFd101WMnezwWiyV9ISJGRJ9T7RMnonuJiPGT/aHrAr1hnRedfOfthRNG/zT24O9Gn+zxWFIHFRaESfqA4AARyI83ONljslgsFovl24KcOyuk16wCHAdm+xaYtXmnnOwxWVKHWrWcm8OHAC4AxkBHDjdS6/LDJ3tcFoslPWGMEYAdAEwtv9UuAE8zxuhbURAxWSv7qs9m/IV27/qbmvXJPWrRPPdkj8mSGqioMJNJCSYECAaIxTJP9pgstUPsr1N6xp6e2uVkj8NisVgspdC+/Zk4chgQAtAE2r3r1JM9JksKicc4CgvBHBfgDIjHbkZhgd18slgstcnHqN2CiATwLGNsHwB8Owoiu3e1QWEBWGYmqLjoQrNjW9OTPSZLaqDCwkxSChACjACKxxvp/Bx2ssdlSS3xqQ/3ky//M0u++sLfY395tPfJHo/FYrFYAqiwIMIYAMYAwUEFR+wcK42g4iKXiguDghcYyI+DCgoanexxWSyWtCYHQdGitvgSwJPJf3wrCiJUVNgAIpD6wXFgDh9qeLLHZEkNVFTUCFIGUk4CIOX9FI1+K36vv02orFVjcOQQUHBkjF6zYtzJHo/FYrFYEhQWNABL7kMwmKKCFid1PJaUQrGoi1g0aE0GA+ISFC3OONnjslgsac12ANFaOrYG8Axj7FDyB9+OhWNhYXCzTtyv6ciRJid1PJbU4cdDMAZI2uEoGcg7LWmDylrN4PsZiGSCRSJgUtqJmMVisXxDoMLyagEqKnhJ52VZpWa64PsO4j7AOcAZmFZAPGY9RCwWS21SCOBwLR17O4Cny/4g7ReOevNGTtGioNcxuYNx5HDjkzgkSypRicUxBwgEUj4Qj6f97/W3iiOHXCj5IHjitEr5oFq2WJzcQVksFosFAKiosCFKBSJANAqS0hZE0oV43CMlAZa47QYbT7YgYrFYahMfwJ5aOK4C8EfGWEHZH6Z/NJofDyMeezz4R+L+XFTQ8uQNyJJSpB8GKFCIEAFSBfJOIH6yh2ZJDXTkiEd+YneKJfqXjxxxEUjeLBZLPUAu+MJTMz8ayc9ouyn0w59tOdnjsaSQWLQxgQUzLMYAXwJa24JImkCxWAhkSlXWUoF8WxCxWCy1CgH4CoGxaio3urcAeLXiD9N+J53ivkexWMmFHESgaNQmkaQLvnRhqFT9YwiIxWyKUBpBRYUhKBkUQwCQlKDiIu9kj8uSeuL/fKZd/LmnO5zscVhSj//0n+5Rr/5rVvwvj74df/VfbU72eCypg2Kxt5J/Z4wHCgKlbEEkXYjHXRCCeTRjABkgFrUFEYvFUmskone3I7VJMz6A+xljRRUfSPuCCPy4R/F4UGdiiR0MP24LImkCKRkhUPCPxI2a/Hj6K5++TUSLw9C6TNFLA7Hi0MkdlCXVxP70UD//qcdf9//04MbYHyaPPtnjsaQOtXiBQwcOdGAtWoJx3pe2b7ZFrzRBr81liMVQsuvEOUhahUhaIf1AIZI8xwwgX9pNCYvFUtu8jaDFJVWsA/DmsR74NhREwvDjpYspxkC+b00Z0wWlwqCkQoQFhS/ftwqRNIJi0UhSIQIgaIuKxuxkLM0wG9b1g3AHwg3BbNnU/2SPx5I66MC+CMWiNya/w1RUZJPe0gRSChSPAyyxMcEZ4PuA71ufpzSBpPSS+04BDIj79h5ssVhqm81InQVCFIF3yDGTa9K/IKI1L7e7zBjgx5uc1DFZUofRibxdlFGI+FYhkk5Eo2FoA8ZY4CNCBohHrUIk3YgVN2WJaHSKRRupFcvsgipNoKKCMGSiqEkERKO2IJIuaAOm/KBVBgAYBzMaJP30n19+W5B+sPGUJPDysgURi8VS2xwAUHDCZ50YApCHQHFyTNL+hkVKOaRU+YKIUvec3FFZUobWAsRQGqtMgDX7SivI9xPRykkVEIHiMVsQSSNU1koG358CIDjPUt6PwsO2sJkmUMGRzBL/AWNA0eLX9dpc21KRDpBmFTedSCqQUragmS4o6QCEkqQ3BsC3ChGLxVLrRAHsT8FxCgHcxxiLfd0T0r4gAq0cpnSwe5FcT2kNlZNlJ2PpgNahUiknAxFA9kadXihZ4nDPkoZuUtqiVxpBR464FPeDazRngXFuYaH9HqcJdKSgEYDSpKh4DBSL2ntwOkDBnKrUX4IBWgNSpv/88tuCX0EhAha0o1ssFkvtogHsBMo37VURAyAbwKfHe1La37BISQ9KJj5pwmNCKUBLOxlLB5R6GCirHgDg+1Y9kE5I6QQ+MQj+GAL50qoH0ggqLPBI+cEdjwtASlBhQeRkj8uSIoqKGpRMZzgHpATitqUiLTCaQanSJD/OAC2D67YlLSDfj5RbjjBmFSIWi6XWKZM0U5OCSCGA3x5PHQJ8Cwoi8KVDWgOszEdVCpC2IFLf0bnZDEaX/oADgLEFkXRD+hGUZP4l8ON2sZxOFBcHhWsAAAeUAhUV2R3IdCFWXOoZErREAb4tiKQFSjLoMm3JQDDHUtK2zKQJpGT5+22iZUZvWm+LXhaLpbZ5D4FSpDoYAGsAzDvRE9N/QiKld5SpqpJWzpkGkJYskOoGMADMEBC3Us50gqQfCuS6pR4iQZHEkjZEi8NQiWQ1hmBBFSu25zhNoFjCRJUh2JxQEiTjdsGcDkjNoctGsvKgZUZJm/aWLkj574otM+THH4LWtiBisVhqm3wEXiLV4RCA3zHG/BM9Mf2LAsr3oFV5MyilAaWsQqS+o1Qg1S25UZe0zNhY5XRCqiDyj7HSlAppVUDpBMVjXrCoCnximNZAPG6/x+lCNJoZ7EmwpLG5jWVNE0iro01VtQaksovlNEDn5zD4cQBUfmMxHg9SHC0Wi6V22Q2gqBqvMwBWAphfmSen/8VMSgflWmYYSCuQsgqReo9KTMSA0sUyCGTNvtILKQNDt7JJQlLa/uU0gvy4F5xjnhABGWuOnE7EYo1KPUQSprlWpZkeKMXJVFThKpC0LTPpACkFyLIbTwlzc+mDrELEYrHUPlEA+6rxuoMA7meMyRM+E9+Cggj5vlcixQZKW2aUSvvPnu6QUoyMKf1BqXrAFkTSCKOkl0yZAThgAIrbc5xWxONhwAQTbcaD77GV3KcNFI82TC6YGeeAVoD07WIqHdCKl1OIlP7cfn/TAa0TXm0Vzq+UgDF2Hm2xWGobDWALqmasagAsA7Cosi9I/4uZUg6MBkSyZSYZCWcLIvUeKUX5vlYAIJBSdmc5nVDJiF1eapwrpfWXSCekdEtVQCz5M/s9ThPIjwexu6xMy4xNIUkP1LELIqRsy0xakGyJ4mXOLwuU1rYgYrFYaptE0szHCIoclWUfgPsqqw4Bvg0FESk9mLKGXywZu2tv1vUd3+cliyggoRABIP3MkzouS2qRMgKTiN0FAwwBftye43TC90Ml55gBIAOSyvrEpAtSRUpjWTlgtC2IpAtJBUFFVzZpW1fTAq1Z0BJVZrnAGOBbhYjFYqkzFgOIV/K5CsAqAMur8gZpfzEjpRzSptzuBdPG9remASR9Ua4gAiSk9lYhklZIGSoxdEv6xEhruJlOkPQD49ySJCHYlpk0Qa3NZdD69tIVMwOUBilbEEkHSCkRpL2VOb9BUpS9D6cDSjGoY7REGasQsVgsdcZGAAWVfO5BAP/LGFMnfGYZ0v9iphMtM+Uu5mR3p9IBKQUooaAqEzQDY2yxK51QMih+JL/DBEAZ+/1NJ6QfKdcyY6OV04fAa6D038m2VWuamx4c5SFCiWu0TSBJC7QOzm85CRADtMHRLcsWi8VSKxSicsaqGsA8AKur+gbpf8NSyik3GQMSuxdWIVLvUdIpiWMtiYRjgLGL5bRCa+eoiZcteqUVFI9nBsa5pUlCpKwpY1qgJA9MGRPwoCBiVZppglICSpX3mAh+br+/aQBpzcioo1cL2gQbjhaLxVLLJNQem3FiY9UDAH5fVXUI8G0piBwFA3xr2Ffv8X23RCFSFlsQSS+0+XW5f1sVUPqRTA0qs8kMZY1z0wKlWLmCCBB4iChpPWLSgaRxfRLOkz+3BZF0oKRlpoKHSOADZOfRFoulrngDwPFMUjWCVJk11Tl4+hdEtOYlRn1lsLtTaYD0HZgKxUIiQGt7btMElbWalTOWTqqAoCefrDFZaoFkywwAgIGC2F1rypgOSMmgyxauEzdje51OD7QSwfktm0ICkLYFzbRAK860DiLRkzAGIg2yChGLxVJ3LAMQO87jhwD8jjGmj/OcryXtCyLBBfsYFRF7Ia/3BEaMFUxVGUCk7z15o7KkFBXnx+xTJkDlZVfMNbDUV/x4ZnCeS41zoeyCOR0gpRgZU+oPkzi9x1ZvWuodSomj2pID41z7/U0HtBaBR0yZnwUqTfsdtlgsdclWBEWPY6EBzAaQVd2Dp31BBFp/TcuMNXSr90jpBDPriu7nBL02xy6W0wDyJTuq6AUKJmO+b89xmkC+n1HuPBMBUtokoXRAyQoLZgaQSaRHWeo9Unql3j9lsCkz6YFSHEqh/HKBAYZsQcRisdQlxQC+wrF9RA4B+C1j7Bg+CpXj21AQOeZnJG1v1vUeX3owFWN3ESQYqGoppizfNKTPj2qLAoKCiJS2IJIuaO2Ui1YmAFrZBXM6oHTgIVKSyspAgJXbpwlUYlB/lAr333U/GkuqIaUEGX1UPQTa2CQhi8VSZySKHRsQqEHKYgB8CmB9TY6f/hczpZ2jaknMVrbTAVLSA0xpPST5F2NAUtnFcjqg1Ne0zBiQkul//fq2UNYklzEwIpCUtvUtDSCViGUt+zUOvJ7s9zcd0Notr+BDYsGsofOsUrPeo1WiZaaiQkSDtDVVtVgsdcqrONpHZD+A/62JOgT4NhREjCrdeSyBWbluOiCld9RimSGQYys//X+3vwWQ74tAIVLRFdkAvj3HacOxUoO0gbY+MfUfKcVR12kiQFkFUDpAUrpHn1+AlASZKicfWr5pKOUg6QGUpGSeZTcWLRZLnbIGQEGZfxsA0xFE8taItF5Q6M0b+bEu2MQAUtJeyOs7UrrQFRbLhISU0ypE0gLpC5A5uj896F9O6+vXtwqi8ko+BoAIpOyCqt6jZJBCklxQJf+rtY1lTQeUco5SiIABStn7cBpASgloVdrKmPB6CpLAbEHEYrHUKfsQKELK/vt+xtixfEWqRHovKLRyoPWDR/2cYA370gCSfqic70BJy4y2E7F0QUqnXOxuEjJBscRS79H5OQxkfn3UA4HxZnrfo74FkFKCdIWWXxuPnj4odXRhi1Hg46W1vQ/Xd5R0oDUABnAOOE7wd61tWqPFYqlrfAQ+Iibx5z9IgToESPeCiJIeKk7EACR2L+zuVH3H9yMgE/wWex7ghYJFVBAHl96/298WfN85qh5CCBQitiCSHkgfKBvLWoIBZNx+j+s7SrqBB0FFJZ81Nk8LVNJHokLtQylbEEkHlBJQKiiGuC4QjgCgpBLXFkQsFkudkVCC/BeABLAXwOOpUIcAaV4QISkd0mUk12X7XKUfrvsRWVKKlBFoA4ADoXDwR2uQ1iC7s5we+L5Lho7O2NIGJKUtiKQB5MtjJwkFSj67oKrvKBm0vSVJFEbIbkqkBVTWj61M0YuUDBKGLPUbpRIFTQCeCxaOBD83GmQLIhaLpe5ZCqAIgcHqtlQdNL0XjUonpH6JtgqRTIcjkJSvntSxWWqOVm7y3LJwGCwcBhkDMjqYhFvqP1KKQBVX6j9AjIGCdgo7GUsHpGQwFWVALPAQsUWv+o9UolzEDGMIdpi1VYikA8nCFkOwKcE4SlsqbEGk3iOVE2wmcjDXAwuHkUyZsS0zFovlJPAlgFwAf0mVOgRI+4KIcqBUMBcTAsjITKyrEoZflnoNaS2SBl8sFAYLhQIZp7aGm+kCKemV7C5zHvwBkikVdjKWBpCSHJQoXCdJmKrCRivXf6TvHZ0SBUDr507KeCypRal3SzYmGjQICiIMQRucsdHK9R6dKIgwBjheomUGQcHL3oMtFkvdEwPwGFKoDgHSvCAStMzoYGItBFgkUjrnlj50fq7dvajPaCNACG7UoVCphwgZkFR2Zzkd8P1EpCMFE7FQGMwE32nyfTsZSwdkMlq5AoYA3ypE6juk5NEFERCgVWCoa6m36PxsRtIPovsYByINAJ5oiTIaZIw9v/UcMtqjZNKb5wLhcOLnBChb8LJYLHVLQhXyaSrVIQCQ3guKIGUGIAPGBVgkE1Tavxy0VljqL0aFS9qhXA9wTMJUVQPaLqTSAumHYSg4zV7Qqm6IwIwJ3O8t9R8pecWWGQIDjPWJSQt8P3R0PYSSLRUnZUiWFBEkjQSpMpyBZWaAOAMS3197ftMApXnJxpPrBi0zDDZlxmKxnDQYY8WpPmZ6X8yUcqBKFSKIRBL9yyyIhDuqb91SrzBawBhAJExVlSo9p8oqRNIBktIhk1CIhEJITrQpWCxbU8Y0gKQU5QyvSx4gW/RKA0grp1xBhJVREGh7D67PkNaMlEZywcwyImCMBwXNYMFsFQT1Ha0dGBO0q3phwHETSmsCaWPPr8ViSQvSe7KplANTpmUmIxPBVjMAowAyCXc3S71E6RCIAO4EuxbxeCJJiAF2sZwe+H6oZLEcSoQZJFtolD3HaYGUgsgEberJnyU9RKxCpP7j+6HAaDMJSxS7NKAlB2BlBPUVrRmkH/ydMSAcAQkBxhiYNoAhu2Cu55BRQdsq4+DhEJibuO0yViZy2WKxWOo36V0Q0dopSagQAiwjAwAL/pdUjljqL0lTVccBQl4g3U0ulrVViKQFSjlA+ZaZkqKXtrGdaYGSwQ4kKycjSKbM2HNc35FlZPXJqhdjgQG2UtZjoj6jFINSpSFgkQiYI4IkMKNAxqbM1HuU8kAExnlgXO+4pbuI1lTVYrGkCel9MdPSgTYAqDRlBqVyXVsQqd+QNoIMgQsBFgqD4j6ICAwMZCNZ0wOtQ4wAAgUqIEJpW5S0k7F0gKQUMAYMVJoilCiCWYVIGqD8jJK/O06Z+64B2YJIvYa0ZsFGROIH4QxAuImCl7Zpb+lAScsMC1qTXbfkO0zamqpaLJb0IL0vZko5MCa4VwsBZCTmZQyJeFbrgF6vMToEmIRCJNnbmpiZSd/uLKcDZVUgoVDC4T5xjpVViKQFySQhQ4E5spc8rSYR2Wqp1/h+EEvBORDJALgAQEFh08Yq12+MCRQiAAAeJIE5TjCzNMZ6eaUDWruACVKEkgWRJLZlxmKxpAnpvcOa9BABgpSZcCSYlDEWtFfY3an6jVb3wiTUP14IcMv8OksZPnkDs6QMpVwkk7W8UPDdTUa02slYeqCkC5NIiAonv7aHgrQo3xZE6j3SD4OxIIUkIwMkZVC4DhbMtiBSnzEJc3oWXJpZJFEQKTVVtQWR+o5SHhmAGA8K1q6bEFoz2zJjsVjShrSejJBSDmkDBl66aBaiVM6pbX9rfUXnZrFkpDK4SNyovYQPAQG+bZlJB0gpD4RgAeV5YJ6HwF8CIClDJ3t8lhQgpQMYkCGwUBgslCiKBC0z9hzXd6R8KVgx80RLhShtfZO2IFKvUZpD61L/n0gGmOOUnWPZ+3B9R2sezLMA5rqBqSpjyXPM9aYN9hxbLJZ6T3pPRpIKEc4A4YKFQmAi8ZGNBhmrEKmvkFIsGanMBAfzXDDHAWMMIAay7RTpgVZBxl9yd8rzgu8zkW2ZSReULCl6sVAoaI0iSp5jO9mu55BMtFSwQCHCnOBrS1qDbMtM/Ubr4D6ckIiwZMsMY4F6xLbM1H90YKoKxgJ1iOeVFMBIyanQ9hptsVjqP+l9IVPaYYZAjAFuQiHCki0zJqh8W+onWjMYE7RPMJ5omUnGwZFtp0gXtBElDvduohjCORgjmzKTJpCULhEL1F5eqSCEiEDStwqR+o70S1NIwhFQ8jodFLzsPbg+Q4aBdElyEAuFEh4xQWsj2cVy/ceoF0AJDxHPA3M9MPBgXq01YIz9DlsslnpPWt+sSEmHkgoRRwSVbRFsWJCxHiL1GikDd3sQSCQWy05Cymml9mkDKRnsTnEWeMRwXqIQIals0SsdkMoBQ9BCEQqVpu+SCSJ5LfUakrLUcyAcTphusmTLjFUQ1GeU5qR1oMx0BBDygv+W+rTZ81vPIakDT1XGgnao5MYEGCBV0DZlsVgs9Zz0vpAZFcTuMg5wJ/AfSHqIGJsyU6/RKvAQKTFV9UrN3EAgZQsi6QAZHSSQcB70Lztu8H0mqxBJG7QMBaYwCQ+RpEqEGKCNPcf1GJ2Xw6AkAAbGguhs5iRqXEYDxha86jVacZiEhwh3ADfh08ZLVLi2IFKPUbnZpV5tjJV4tTHGgtuwViDrE2OxWNKA9L6QSemBTKKy7SYq24kakDbBzdxSLyGlGBkDMgaMJRQiJVJsFpx7S/1HJfuXealpblIFpGTkZA/PUnNIKQeE4LyGQsFCmQgMBLJFr3oNkQF8CYbA2wmRSJnrNIGkbamoz5CSAkoH12dHBJtOPNiYIDK2Zaa+oxWDUUhuSqCMqSohoQIyViFisVjqP+l9s0qaqjIGOA5YqIxCRCsbCVef0YonW2bAkwqRpPu5NdxMG7T2SidjXsK7jwVCIK3tOU4HkmquhAcBKRUUvABA2XNcrzEGUImWGQawcAYgkrGsxrZU1HNIq5KUGZZQarJycyyrHqjXKB38QcJU1fMSXnzJe7CCNVW1WCzpQFpfyEhKB7qsh0gIjPMg0EBrkJVz1l+kFCVJFCLYmaJkHBwAklY9kBYoGU463JfE/fFEp5tVAaUHMlG8ZAwIhQHmo6Qioq1PTL3GmGDRBARrqnAZhYjRgJL2HlyfkVoEBREAwglMVUtaZrT1AKrvKBkUvJIKPtcN/jAEqi9pW2YsFkt6kN5SN5XwEAELdqW8UGnLjNLW4b4+4/sOkGid4BVSZkDBQtpS/1GJBTEPHO6Dc8yTCRV2sZwOKBkuKYB4oeA8AwAIMFbpVa/RmsOY0n9HErGsQEI9YneX6zVKOoGCgAOOc7Po3pvBcc4pMUm21+j6jVJBmh8SihDXA7zEPTh43KbMWCyWtCC9JyNSejAG4ALMTexeJPpbg90p2/tYX6G47wAGQctMmcVyomPGqgfSA1JmMogCGbbrIdhmRhDpKGXmyR6fJQVI6TIiUMInhpEJvtNEgLIqvnqNlIzKLqgikURrIwBjQFLagld9RkkHRgUeIsLxAQBcmJIFs7aL5foMKcXJmJKUKOa6gV9bsmVGSdsyY7FY0oL0vllpmfAQASDEUNG1B4MQk0p2L2zLTP1F+oERI5VNmXFR0qyu/IyTPEJLKtClhm7M8xKTsWTKjE0SSgdIyUi5JCHXA0sWRLS2hc16DCUl9yxxXY5Egvjs5KaEtgWReo3SvLRlRmgAgBCy5N5sfZ7qN1oGKUJBz0zCQ8QrjdHWOlCBWSwWSz0nrS9kJKVHSVNV4QaNzELo0gu5NXSrtygpEndlQCQMN5OmqiCQUnaxXM9RuVmspCDCWHB+HadMyoyyPjHpgFKipEfdcRJKL24XVOlAUnLPAAgO5kVKY3e1Nb+u9yjllBS8hCMBAI4wYBRco21KVP1GSV7aMpO4ByevzwyBAbZVAVksljQgvS9k2vBg55EFuxYAwLkOFCIaMJqd3AFaqgv5vleyUObOBOesLoxxHkmaqkJJqxCp7yQNGZMpM14IcEOlxrlK336SR2hJBUqFgUR6kOcmdiBZEMtqTVXrN1oFCypC0LrqeQBLpJCQAZQ1ZKzXGC2ClgoGCB4oRLhQoMQ12piTsukklyxw5JxZ1kespqiEB1BwfsEcB0y4pYqvIHbXfoctFku9J70vZEYHkTJB72NCzsk1CIEHwUnYnYpNfWiAycsexVq23uRMmPixO2K0X9djSAuk7yb9JJgQgWufcExJQUSbOl9IxV/8xxlq9szvoqCgDZo13eZ+55oXvAsvLajrcaQNWjOooCAS+Es4QZGEcwTGuepkj9CSAoJEqDJJQkCg+lJkU2bqOSRlqamq4wAhL0h8Y0HLDPm+VfLVY0hJFwkVLnMSHiJCmEC8SXUeuysXfuHJ1/71g/gvb7metB5RdN1lj7mXXfkn7+rrd9XlONIGKQW0CRQhXCQUIg7AEwVsbU6aqarevJGL9h3NiZ9psVgsJ+bboRABgl0LAOA8cQGlOm2ZkfPneEXXXfqQeuf1ZSY3e6r69ON3/cceeDL+35db19UY0gmS0iNK9LUm1T9ClOwso453pmKPPjBEPvPEK7Rh3RTavfMus2b1E/7jD77ovzDtzLocRzpBSrIgWhlBEcRNGucmzjEZ6Pwcq/Kq7ygVLtcW5bplTFVNehft0x2tebCgQonXExM80dlogk0LS/1FKRdaJ1W4BgC448bBgkt3Xba8qYVzXf+vU/6gly58BkaPYAygrZvuli/8/W/+G6+1rKtxpBXJlCjOgmuy43DRuRsD+IOlSuu6LYjEHv/jdUXfmzg19ouf/D16589+JefM6lCX72+xWNKT9J6MaOUkdx6TN2uWNP4KMtTrZLKtcrOZfPpP99PWLfcgHgMVFQJkYL7cfrN667VfyTmfWmlnVZF+uCRxxAl6l5kQhiWlnES31tVQ4v/6+5nqnf8+BjKj4MeD88sYcGD/RPn2f/7Xf//NxnU1lrRCqcSs2oBxBl5iqpqogRCBpFWJ1HuULG1/c7zgD094AWnrBVSvkZKDglsuc10wLwSIhPl1sGC257c+o7STVOEm78NwHQ3GwFC3Ci//n8/cQdu23s0MgsJqKBzcI44cmShf/edDOjfLFs+rCCnpkAkKXkwIOD16BzuMjAHggWKzDgsi0Tt/eo/64O3v0IZ1/0O7d/1ILZjziP+3P//Cf/+t/nU1BovFkp6kdUGEjOElZn0lDuiOT8EdHFRH/cvyzdfG6LycewACGjeBM3oseLuOgWR4+7Y75euv3FgX40grfN8L6iEMEE7SMLf0cWOg82p/AqTmzvbU+2//nAqOjCLHBe/RZ5J3yy/PEG3b3Q3Xhdm25Sdq+nvfre1xpCW+H3x/CQB4cH6FSOwuU/BH+ml9Dfs2UGKAzDmY5wZpQkwkTFXVvSd5eJaaoFXgMQEAjrhDdO/FIET/MgUR+/2tz2hV0rpaYqoqHBW0NaLOzm/8iUf7mfyciYjFgMwG05yrvtfZ/dEtrVmTZlOgFcy2LZPkB28Pr4uxpBVac5QEE/BJZR+i5H24js5x9OH7blKL5o9AtPhKAkBaA4ZgNm+4Tb76wo1qzYpmdTEOi8WSnqT3ZEQndi+4CJzPAUBwEyywCNCy1ncv5MfvNVQzP7of4QggfYhzLuzj3XInd867sD0aNnqRolGYvJzL4q/965TaHks6Qb4fCtQDHMwpKYhQyUTMGKAO1APq85nDzfr8u1hmA7CmTR/xfvCTl0M/+tkOZ8Jlr7DmLaZCSpj1+dPif/tzl1ofTJpBUgoAidPMgz8s8QdIJs3YXb/6jpQNg7+woF0mmWJgEpNeS72FpAo8CIiBhBsFAJZscazjlgpLLWCSKtsyrauuq1GHsdlq1XKuPv5gMkAjKB6HM3z0a+Hbfrk+dN0P9jhjz3uJfB8sFIL69ON71OJ59vetKigZtEShjGkuUBpOQBQo/GoZOfOj7urDd74Dxi4mpeBceMlI95rre/Ez205GPA7atuV2+eo/b6rtcVgslvQlvQsiRgnAgAQHHDdh+OXIkrhWXfstM+rzTy/A/r2j4Qqwdh0mu5deniW6dKfQj2/bIvoPeR2+D/j+herDd39c22NJK3w/iFwNWmaS/jAExwFAgDEwStXq77c/88NMvWr5dyAlkNkAzsix/3FGjfUBwLvhxzt5736fIOQBhw9DLfjiitocS1oifRGsik2gDuE8uROZeIIJYgEt9RutfgKDMj4xpS0z0Boqz/rE1FtKFlQARInpJpUx3TwpKSSWFKHKqAN4YtPJcWSpubl+odaHMHP6ENqz+wryJdiZbac44y9ekHxMXHBxFjvtjEfAOWjnlxerBXN71/Z40gqlHEoamXOnNADAceIACzaeVO3Oo/WWTVx98NblKCy4FFqBdegw2b3yugXhO/832xlzzpssMefTC+eNkjM/6l6bY7FYLOlL2i4m9Kb1DrThRBQsppIpM64XDyZjte8hIt9/q4leuuiHiGQATLzoXnLlc07XHpR83Bl73hw0aw4oH2bzhvP8t/7TvDbHk1bIeOC7wgC4riz5u3ATcZ0akLWrHtALvhhidmy7HaEw2Gmn3xb+1b0ryz4uRp69gJ96xiMmWgza9VX/+IvPnlGb40k7pEykRCFIqEiqRISTMM4lkJR1ulhWyxeL+FOPd4vee/cFsT/9cYBc8IVNQakBem0uAxmUyO5LCiIiKIRpBRjrE1NvkVKANMAIcBMLKifRUkGmThQEFfFf+1eb4rtvvbL4lz+7Ov63P3fRudm24FZNSKpQoMJlpUpN19FJFR9pU6sFTbViidBzZv4SoRDg+3DOvfAFZ+TZJQt3p3c/Emef+zJpA7gO9IK5N8olC6xRcyUpUXgxVlrwAgBH+IwzQGtQLRdETNbKvmrxgt+zjIYAY++7V1z7D6dnHwIAcc74dbxX35sRjYJ8f6L84O2JtTkWi8WSvqRtQYSUcqDNb0EAEwJMOIGpquvFk7sXpGs3dlevXNafdu28kGVkQJxx5nLv+km7yz7uXXJ5gRgw5DKKRgFjRqpZn1xZm+NJK3y/JJmCuV6iIMKDSEcAgAZ07akH5PIlwqzNG4OiQrAmTSH6DJhT8TnexZcX8F59Z4AIiMev0PM+v6S2xpOWKD9oeWMAc51gkcw5yHFASQ8RJetsh9mf/l7D2B8m/8X/+xO58q1/f+z/48ll8Yfue9p//+1GdTWGdIN8idIksETLjOeCWNJjQgXxy5b6idYCpkQhklAQeLKkIFLHKTPR/7tnXPyx37+v33/zdfXRu//2pz2RH3vsgTvVqmVWqVIdSjxEOBDyEgogT4ElW2YUUIttb3rFsvZ6x/Yr4DhgLVs96Yw+J6/ic5xxF+SyJk2mskgmzKb1Pze52XZjorIo5TKjwBgv9eEDArUX40HKTC16iOgtm7iaN+dsKigABIfo2uP90NU37E0+7nTvRc75F71DnIO5IejlSwfJz2d2qq3xWCyW9CVtCyKQ0oNSwaSLCcB1g90Lx1FIBJFA1V5BRM6eETE5qy8iMkA4DDF89IfHep4zYvQ8eCEwx4HJWX2NnPe53XGuDL4fQXK1nNyZYgzMdRMTMQJ07SlEzPw53bBnz70wBjjt9DvE0JFrj/U80WfAat60ORCPw2zZOE7Nt4qCykJSOkHLDAWpAZwHO1WuU8ZUtW5aZuScWSH/b39+jNavu5U1awHeohV4m9NAm9ZPki9O+52cM8umZVQHJXlJklDy+5tMEiIAytiCSH1GKQeKQGBgbuAhAseR4BxEBKrDFJLoH347Wn307h8gnIHs1DPA25wG1qgJaNmiKf4/nrLG5tUhuakUJEQFBRHXVWVaZmrtPqzWrGZ60fyJ4AApBTF4xOtO/0Gm4vPcfgON6NHrM7guqLgYZs2K0bUxnrRESQemJKmxRHnDHNcPWmYoSBqqJUxuVk+zctnjLBQBCfG8c/5F71R8jnftjXt5l253Qkmg6MhEtfALe34tFkuVSd+CiFIOyASTasFLFCJw3HiJw72qvcg/k7umk9mx7U4WyQBr2uJuMfrcTcd6nuje+yBv1+EeaA06fOhsvWRRr9oaUzpBUoZZQqpbsnPBGEGI4Nya2l1I6bycYaawAAiFITp1XumOGCOP9Tx2VpeDrFPnmykeBcViV+iFX/SprTGlHVKWTrSEc73o0Ik5XXsw5rgACCADqmWfmJKhvP/WJbR5w09YqzZAJGMq793vKmRmTmHNW8JsWHeX+vjdCXUxjrRDKQZDidomB3Oc4A/nSHoBkbIFkfoKaSmIEmvURAoJc0VgumkIMKZOlBn+e2801Qvn/hDSH8aaNAVv13GSGDxsPBh7Ec1bQi+Y85z/9yftznJV0TqIzOYczA182pgjCDxITCetQbVUEDGbNzQ263Mf46EMwPWeF2POWfZ1zxXDz54HL/Qkcx2YDWtfkNPftaq+yqCkh0TsLjgvLTYJ4YMlPERM7bXMmJzVfc3ur8AyIhCnnJbtXXvj3mM9T4wY+x5pBeZ5MMuWDlLLF7WprTFZLJb0JG0LIiR9D1oHChFHAF7gIcI8V9eFQkTn5w6nI4fBMhpAdOq8wunRi471PNG9JzlDRnxISoI5DvTKpReprNV2AXAipMwoUYgk1T+MB0oCmKS/RK1MttX8OZ75ckcfRIvBWrSC6Nz9mOoQAHD7DzJO774LYUzwK7dy6cW1Maa0xJdOUiACxyktODlOcOoDhUit94PH//n3M82Kxa/D8wDOprkTJv4t44ln33DHjX8BrgcoCZOddVH8rdesB1AVIekHCpFkGhjnwX9FInYXBNSxT0z85edPK7752v8puv6K/43++vbvKOs5UH2kDCU9YphbEsuqA4+YujNVlR+/fyWOHLoRSoGfcebNoV/c88/II098Inr1+YiMBsAhZ39yk1w016aQVAWl/g0gUBB4idZV10vE7lLQUlFLSWAme2V/OrAf8DyIdh0WeeeOj37dc73vfPcQa9lyM4tkwOz8Enpt7lm1MaZ0g6QM5tEVW2YcJ1EQ0aBaCidQSxa20TnZPciXQCgE0X/QrK97rjNk+BbepNmTCIVhtm75qVm3rnNtjMlisaQvaVsQgVIOaQ0QBbuNpQoRv+Rja/VWbby1fO+tJmbH9mdI+mBNmz4oBgxZcbzni8HD1/HMBs/DC8FsWne/2by+aW2MK60wiYk0A+AkTFUDtUitK0T0kgU9UFRwK0kJfka7SaJz1/3Hez7v0Xcja9o82O3etmWMnD0jUhvjSjtUomUGKE2oABIFkbrzENHLFp1L+/aBhSPgnTrPDf38l+sBIHTnb3JYx443QQiYvXsm6flzz63tsaQdSrGSwoeTLIgwlMR2Bue4zu5T0Yf/b7h8euprJi93Km3b9KCeO/ut2O//9xn/o/ca1tUY0orkpgMBEMk0sEQ8OhnAmFovQPjvvtGUNm44h4qKwZo2hxg5drro1ZcAwL32B2+yBg2nskgEZsO6yWbpYhuPXklUXjYr8QfhvLRlxnF12ZQo6NSr+OSi+Y7OzxtLhgDhgA8a+vmJXsO7dF/EMjJAhYUw69cOT/WY0hKtHRgNxhh4OYWIo8E5KFDw1cr1Wees7mu2bvwVC4XAGje5T4wYk/t1z3UGDNasS9cvAIBixdCrV/TXmzel7/rGYrGknPS9YEgZtMwAABdgjhMoNNxAIUJgICmh83NTvmjWWSt7Y/9eMDcEnHpavnv51YeO93xn1Fifdei4CJyDDh2CyV7TM9VjOpn4H77TOPbYH4akNGVF68DdPlCIBCc66S8BBJPtWmqn0KtXnAfpgwkB3rXbSjFw6HFd4/iZZ8Z4p86T4MdBsdgYvXypjYarBCR9l5JKkGTRCwBz3JvKpMzU6oIq/s9n2pmN656D0WBNWz7onHdROS8gZ+CwOWjeElRUCLNp/Sh/1scZtTmetEMmPERKfGIYGGMACzwmAIDqyCcmPu3JTuqDt/9IRo9CPA4qOBx0V361Y5J85bm71AKrHqgyUjolfhLJ73ByMRUoRGrdQ0R9+vGliEWvRjwK0bf/VaEf/nRH8jFn+CjlDBj0AcIhULQYeuXSC9SKJdZgtTJICVISlDBVZZ4TqHBdh1hZU+RauA+b9Xmn0bZNv+XhMFijhg+KoSOO2ZJcFtF/SBYaNX6QgYG2bXtC2lS/E6OkC4NkykxZlaYEA6BNUDSpBUx+bnc6sB8sIwOsbYdVzrBRx40bc4aNngMhAqX1upyptHVjh9oYl8ViSU/StyCiElK/YGcK5HrBzdpxfYbk7oUK/qQYs2HdMDpyBKxBI4hOnddU5jVi8PBZgcKBQ2etulAtmpcWk+/41IcGyGlP/km99/oi+dzfXoz+5n++o9fWvAhFWkWQPIqTmIgxBgg3mGgbDWiV8omt/GxGRO/YPpiiUaBlK/BuPTec6DWia0/i/QbNhVKBee7q5RfovNQX4tIO3w+BKOhwc8u1zPiBHJsAlfpzXBazfPE42r83UId07brIu+Kag2UfFyPP3io6dr4eWgKHDtyq58waVZvjSTuU4jAmWFQJAYAHCTNCIPCJAaD8Wl+gytkzw+rT6T9ihw+O4eEIeK/eN7s3/rQ7GjeeykIRmJyse+VH742r7XGkG6SUi+T91k0oRASnkpYobabW5vvL+Z97OnfNRPg+0KAh+JARX1R8jjP+srlo1PhBeB7MpvVT9LIl7WtzTGmDVpy0SnSuMsDzEsb1rglSZpBcMKf8XmfW5fWhgweAcATsjLZZ7oAhJ4yy8S6eWIg2p+YjFALt2wOduyZt/Lx0fi6LP/6HYcU/veHnsfvvGa9SFQevtRekCDFAlMbusqSHSBCNnvKCiJwzq4PZsqk9xWJgjRrD6dP/a/1hknjX3riXNWtxH4uEQTu2Qa9f2zXV47JYLOlL2hZESEqHlA5aJzgHyihEWNJDpBYiHf23/tOc9u7uTrEY0KbNA6J7742VeZ0YNnoza9zkER6JwGzZdI9em1fvTaH8l587Xb77xhTasfWHiMdAhw+crT6f+ZZ8/dUxNT54sve8bDsUYyXtFIGUM/U7U3rh3AGIR69APArRudt1vGOnwsq8TvQduAWNGr0Ix4XZtP5BvXVjZqrHlnb4fihhFgLmuvGSn7uODEQFBNSSTwwA+B++3chs2zIcxcVAy9bgAwYvqfgcp3svEn36L2aZjYDiIpjsNRNqQ3WWtkiZ6HFD8N0VCQ+RZFtUyXNqeRgzPzrXbN74awqFgZat7/Em3fZC+I5f5YmxF7yAjIxpUApmxeJr/TdebVnbY0krlCxZmCVNNyEcU8ZDpFbfXs+ZNRhFRRMpWgzerefPRM8++yo+xxkxRvJOXRaxBg1AB/bDZK8eWquDShekZFDJlhkG5oaCf7iuKfEQ0an3EFHzPg/Rpo3DyPeBBg0g+gxcUNnX8rO6rWKNmoAKjsBs2pA251k+99Q18rUXF+jF855QH707Pf701PvlskU1L1Ro5ZVJ86ugEKm9gohesWQw7dl9G4QDtD7lZ3zwsJ2VeR3v1GUxQhFQQQH0ujxbELFYLJUmbQsikMqB0QAqFkQ8BQYwMECpoGCSQvTyxSOo8MgNYABv32G5O+Gyosq8zundj3jHzgsQzgAOHYTOzxmY0oHVMSp7DZP/fflB8uNno0FDoEFjsOYtAamgF837gZwzK1yjN9D6bhgDOC54QiEiuvYgOA6SCSS1oR7QK5ZeFkj6GUS/AYud7r2PaZZbEXfkGMk6dJ4DAObIEZisVd1SPba0w4+Xeq14XmlBxEksrGDKLbhSjZ47+xwcPjwJIPBOZ10TuvamPcd6Hu/Vdytv1+EeUxwFHdx3u5o/p21tjSntUFLAJNLAXC8w7wuu14knmFoviMhPPmhg8rLGo7gIrHFTiBGjP3CGj5YAELn7d2tYu44LEI7A7N55o543x/rEVAUpQyWzDDfpMeEkUmYMYDRUblbtxLLmZjG9ZOE1zA3uCWLoyBlOn/7HvOE7g0cs4E2bPwJfwmzbNNL/4K3GtTGmk43Ky0nd/9dKcaiEwpbxMgoRhwIPEQCkU34fNmtWdjI7v7wHjgPWouWdfPDwHSd+VYDo1Xcja9V6MqSE2b3rQf8/L9f7jafYHyaPU1/MfhXGgGU2BDiHyc+5R7707KSaHpuUFjBI+LM5pXLqZHHEGKAWPERMXk4PHD4E1qAheKfOq53uxw4lqIgYOHgZIhkAGMzmjR3lzOm2KGKxWCrFN6ogonOzGqTsYEp6yR1GJgRY0mfCdVUydjeIhEutQsSsyz0H0WKwho3AO3fLqcpr+YAhixHJAMjAbFg3Us76pN6ab6pZH/c2O7bfwMDAW59yj3PehQN5x87XQ2vQkSM36OnvXVjdY+ukmRsBzHUBxymd5DqJTiNjgujlFOK/+0ZT8+X2u6ANWMvW4D16V3oiBgCi/6C5RAQmOHTW6rFqxdK06VX33/pPs/g/nuwkZ36YMuUL+X4kIRApTRICwIQbL/GdqKXFss7PZWbd2rMpWgw0agzRs8/Sr3uuO3qcL3r1/QI6UKTpxfMuqY0xpSMkpVOSGOS4N4uOZzGnc1fGHIGS63QtJwnJz2aOw969t4Jx8PYdb3InXFrOvE+MHDOTtWgJRKMwG9ed47/7hjW9rixShoHAE6bkOyyECVqiABgFqNpJETLZq1uaL7fdCgJYqzZPi74Dtn3dc73vfu8AO/WM1XBdmAP7f6JXLO1XG2M6WcjZn4aj9/zPpf5fHvlR7I/3jtQrl9X8uiklKymIcA54JW3JBPBAsRm0NaZ0nqnX5g3DoYPBYrlt+yy3d99KLZYBwLvgoig7s202HAcoOAK9atnIVI6trvE/mxHRi+b/mPw40PqUYNOpcVOwjEyYRfNu9j98u0aFPVLaI0puKrpljM1FoAIKFECpnWd99E5fs+vL0ylaDNaqNUSP3vmVfa131ff3s+Yt7mChELBz50/1ulzr12axWCrFN6IgIufM6hD91W13xX7/vw9F77n9Tv+Lz2puhiSlA5OQ+gkBCDew4HRdE8yzCVASMKkriPj/eak1HTxwO0WjYKecDtG5+5dVeX3o+z/czZq3uAPhCLBzx506L6tTqsZWl6g1K7ie8+nNCIVAsRj4sFEfhH9z/3Jn1NiZcATgx6Fzsy7WWauq9/unVKm7vRDBzTkBcxIKfE2ATO3OlF66cCiUBOIxiJ59LndHjvVP/KpSxKChm5GZ+SQLh0FbNj5itm6u97uQam0OK77jRzfGp/x+f/zPj66P/99vPoz9+eHULCYSHiJBAkmZlhnHkSWLaCVrpjT6GvTCuWfQkUO3UzQKfka7e3jXXsctfvFeffNY06aAUjAb14+TqerhTneU74KCbGXmlIt1vB5A8F32/VrzU1Irlgpal3s+CguBps0g+g1cIDp3L7fACt/0k69Yx07XgQF06MAkvXCu9YmpLFq9BbBgh9lNxLIKkfAQMaBaaKlIopYtHgGlAOlD9O7/gTt05HENw3jnrllo3AQoKABtWJc2KST+J+83iP/pwb/KN159Vy+YM81/5Z9zY4/9/l69akWN5n+kFIdWwXU4KIgkNp08EyhEWDLtLWX3YTlnVlh/ub0fxaJgTZpDdOuVVdVjiE5dctCocdDiuGlDvT7P6qN3J5ojh66BVhCdOl/lXndjC96z7wTEYyCl+6uZ06+q0RtoFVyfhQC80pYZJoKWGTIGlGJTVb144VAcKbiJAPB2Ha7xLi/v23UiRPuOa1jDhqAjh2DW2/hdi8VSOU56QcT/+IOe/p/+OFm9++ZjZm3uberj9x/3//i738s5n9asGCATChGi5O5U8HPXVSW7F1KmdDKmli06m6QESQXepcd57rjzY1U9Bu/QaQ0aNAAdPgxat7Z/qsZWl+js1W3Mlk23MNcFmjWb5gwbvRYAWKfO+3nHs+5GtAhUcPiHct6cs6pzfJKSBRMxk/AdcEoXMMJFcrFMKnUJJGr5EmHWrLiCeSGAcYgBQyrdt5zEHTJC8bbtlyMUBh3YB7Muv1qf/5uE/4+nvqvnfPYCA8BbtQYVF42Rb742Nf73J2o8ESEpvVJ/Cbd0sew6EggW0bWlHlDLFp1LUoKMBu/SY4E7Ztxxi1+8Y+fDvGPn2xCPgYoKJ+oVS+xErDJIJcoUvaIlP3dcmfSPqc1oZfX5p71x+PCtFI+Bt+94m+g/ePOxnid69FmCJs2A4mKY9WtHqTUrrU/MCdD5uQxSBn5djJV4iDDhECvxEDGASr3pplo0z0XOmstYKAIIAWfQsKP8fyoievTexNucOhnxOGj/3gfj/325VarHVdeovBwmX3/1R7Rp/STeth1Y85bgrdvArF5+r//uG6NrdnApoFQwl2IsKIQAQdIbYwAjEBlQCs3Nzcpl3XDo4C1kDPhpp00Svfsfs43xePCu3b7ip50OikVBB/b/Il5P22bkssWC8nMuZbE4kNEAYtDQ+d7V1+93x4ybRwBYJAKzasU/5OyZ1VcaaxWGSRheu2XuwY6bMFUlQKXuHqy3bOKUn9sD8ShYg0yILt1XVfUYrHuvHNa4KSB90Fc7zlCfzbD3YovFckJOekFE/efF681X23/I2pwC1rAxWOOmoMOHrpP/nPZjs60GOeJGOUBCOCA4nG49gpWVEyhEGAAYAyJKyWRM5+Uwys+dwIwBy8iA6N7jazPTj4fo2TuHNWkG8uMwX20bLGekrgWhrjBLF48jpUDaQPTq/74zdIQCAHfYKCV69p1rEq0FZvni6rXNaMXImITM3gl2HJM44jLAJE1zU3ajNuvyWpqvvpwExwGat5jKe/XdW53jiO69l0C4wedfnz9YLa+/EY/+O/9tpud+dgdr0hQIRwDBwZo1A4qKxqgvPrtG5a6u2XdLaTfZNlFiyAiAOY4qaaVRKuXqAbViqaCN685nWgey7O69TijZdXr3JdGj9wKjNMAFzIqlF6R6XOkIKSmIEmkyZVvfhOMHHY+Uckl2WczKpReSjAOeC9G95yJn2LFVBKJXn+28bfs7TTQKOnzwLrN4XsfaGlPaYHSgwmSJKOVkUVMk5fYJ002deoWI2bC2ld711Y3wXKBZ8ym8V58DJ3qNe8HFxbxt+zUgAyoqhlmzckCqx1XX6Jkf9qK1eVNZw0aAFwJatgY4B2vcBOaLWXeoGrTlktaMTPDdZWBgiYKI060ngQWJUQmfmJSdX5OfMxKFBWAZGeDtOuSJPv0q3S6TxB03Pso6dJpAZEDKh1m2aGyqxleX6DmfDjRFhddQNArRqfMd/KxuewHAveTyAnZm+3vAOMz+fdCrl1e/bURrAUMAF2BJDyCgNHGGCDAmZesIvXLpQLN/z20mGgU75TTwLl23V/UYomeffWjZ6mZiDHRg3y06d03vVI3PYrGkLye1IBJ7csqVZvvWdjAE1rgJ+JltgUgGmOtB52X/Si5dVH0XcD/RMhPEhV1X8nPXTayWeTISLgWfBNBZK1qZA/tugO+Dn3IqxFldqrdg7t1/H29zyiQmHND+A7foNSt6pmSAdYT8bEZE52e/xEMhwBFwRo6eX/Zx3r3XWta4MaA1zOYN51crXlhKnjxvzHHBnDIKEceNJ+tgqfSX0FmrBsKPA2Qguvb43Ok7oFpuvGLA4I3IyHgErguzY+sTZsvGJqkaY10jP50+EUoPQzwG0bvf5c4lV3Xlp55xG6QP2rPrfvXpJ71q9AZKekgmQpXbnXJUYhZeKw73avmStqbwyNUUj4Gf0W6y6NipUpJd0bPvOhYJgzkCetPGKWrubNs2cyKk9JAsbrplFSKBPJsCD5FaaZmRn3yYaXbt7E+xKFjL1hA9+qz7uue6o8b5/Kwuy5LKQr1iWb1cRNUlpDVIKrCkItMr8RAhiCCFhIhAtdAyo/OyBlA8CmIMomv3OaKSpoy8Y+c8NGgExGMwG9eNSPW46hq1ZuU4OnIY8DyIfgPPCf3qtw5r3uIeeB70nl0T1col1Z9faMVBOjGd4oDnld2YAOMMTBtApqalQs77PKR3fTmY4lGwps3Bz+p6wsj7r8Pp0j2bhzPApITekH+BWlv/ksH0yqUTmTEACKJ3v7lli7nOoCEzKLExZLJXn6tWV7M9SiqPyIAEB9yyHiJuPFABIaX3YL14/kiSEpASvFPXS9zzLy6u6jGcXn2Jn9E2n2VkAAWHYdattQoRi8VyQk5qQcQsmjcCxcXfhdHgw0cP9O76rRB9+o2n4mLAKJjPPz1Xb95YrTGSSky0A3fsMh4TLoEj+LkxKatu62WLz4bWoFgcrFuvCc6IMfLErzoa0a0nsfadslhmJqiwAHpd/rBUjK+uMGtz29GunUA4BNai9WTvimvLLSZ5+w5H2Jkd7qR4HCgqvFCvWFbl1ijSOihkJaWcZc+vELokJi5F6gH1+ayQzlnzPvNCADj40BELq3ssd9RYn7U5ZR0imaA9u2HW5XdJxRjrGjn9vYZmzcrnWDgMMPa2GH/xjPAdd6/lPXovYsIBCgqgVywdX6M3UdJjQHKxXGZ3ylFBmwUDqdT2LwOAWbZoPIiBYnHwPv1mO4OHH9d7IAnv0KmYtW1/DxkDOnQAOierXarHlm5QPO4FSj0D5pZJEhKJfnUiQPqh2nhvvXThAIrHrqDiYrAuXa/jHY4foS2698znjRsHHkhbNo1RSxbUqtlrvcdoBiWDWQYTYE6QQsKEoCCWFcnzm1KVnJozK6Tzc99ljgcmHIgBQxdX9rW801lf8TanwsSKQfv2dZX12EDX/9c/zqAvt08lGQdr2eo+MXrcInfgMC2GjPgwkMgSzMoVF6rF86v3e6xUkBDFkgWvUElBhHFxc2mSkEmNCnfZop5UUPB9isbA2nWcxDt321/dY/FOXXaz086EiUZB+/ffaFataJ2KMdYV8rNPIvTl9hGQPlizFuA9+5Yr5orBI3JZKONpHo7AbFj7MG2t5saLUSEYA8YFWJm2VSZKfdugUzSHzstuoHOzezAicNeD6NlnVXWPxTt13sCbtgAVR6F3fnmaWrqwXrZFWSyWuuOkFUTiLz83Tu/eeSoVF4KdesYU0XdAntNngBEjz17AHAEWCkOvWXW/2bShel4iyvdAwc2auU7pYiqpEGEIJL0piN1VK5cKnb36Sua4Qb9y/4HLa3I80bXHBtaqDai4ELTzq36pTO6oTdTaXKbzcgZTLAoIF6Jn77kVn+P0G2Sc3v2/gB8HOIdeuaTqrQUy0bucbJlx3DIeIonFMgOgZEoWUnpd7hm0Y1vQFtKixQOha26olvqnZIidu61kmZmgaBR6y8a+Ki+7/u1OZa/uSgf2gRwB3rHzLG/8pUUAwLv22MBOORVUXATa9VV//8O3G1X3PUir0oSKRLQyADDXDRbLDIBSKV0sy3lzPL029xImOJCZAdF3YHZlXyu69SDRu/9nUAqMc+iVS8/V9XDnsU6RMjDOJSS8YQK440qW6IuiWmiLAgC9cvklDATmCDg9+y4RPY4foc07nnWAdTzrDlNcDCo88j21YmnNzb+/Qcj5czz/jdeaV0u1dyyUZlTOYyKR9OY4hKSHCJnAnDOF6A1rT6Md28EiGWBNmt3nXXtjpa/X7vkXRVnnLpcgFgfJ+BVq+eLBqRxbXaJXLB5HRw6DOR5Yx85LvfGXFAOAc/Z5uaxB40d4JAK9Zf39Oi/n1Oq9gRZMm6AdSojStmQAcETCYyJ1aW961YoLmB8HcwREl24rnf6Dqj15c8ac47NuPcZDxsGMgVoyv17FaaslCwdSLDbKRIvBu3S9ibVtX05J4Z59bpyfdnoWQqGgbSY/t1v13kg/BkpsPDlu2dhdnWxnDdrTa45es6I/7d39Q4rFwU4/4xHeudvu6h5LdOm+l5122m3k+8CRQ7folUvr7ffYYrHUDSetIKIXzB3DpPwufAnRZ8D05M3au+SKAtau493EGMz+fVCrV1TPWNSXTqAQEYBwS81N3UTaDBgoKIjUeMFicrNbm127rgQAduqpU3j3Xvtqcjzes/ch1q79ddAKKCq4QS2aP6SmY6wLzNq8xmbj2hfgumDhyFQxZOSKYz1P9BuQh4xMQDgw6/Onyi9mVS0pREpOSgeTLdcLJthJElJ7MAAyNQspk7NmKIqLAdeB6N5zTk2PJ/oNykejxg+ADOirL58yWatapmKcdYVasUSYrFXnBX3iDGLQsE+Tj3kTrzrMu3S/HNIHYrGr1YIvqm/cp1TQciIEmCgtiEAIHYiAGJBC41wA0KuWdWSHD44nrSHadribd+p8XNVARZxBw7Lheq+wcBhmQ/5TetuWjFSO72Shc9aw2F8e6R391c+/E/vLo71TJjFXfggMQcpMWYWII2TJhLsWjHP9995qbHZuvwtKgbVsA96j9wl71Z2Bw7To3mshjAYjwCxfNCHV4zpZxJ+c0tOf8oc/+c89vS/+yP1T49P+WvOEM60ZpI+SlBnPS7TMOGUUIgBkagsiZm1eHyo4AoRC4Gd1rrQ6JInTvfcqFgqBGQ2TtbpenmO1dKFjtm0ZRIUFQIuWcHr2XZV8zOk/yLBOXRZQOAN08ADM2py+1XkPUkqQ1gBnYI64o9yDQmiAB21Tuuatq3LOrLDZvvVcxONAi1bg3Xqtr+kxRd8BK5jrAZzD5GZdodasPOmeepVFr1h6FeMCMATRb+A8p8fRLWGi36A58DxAKpj83DFy+eIqnQeVkxWk+SVTZsq2rQon+C4zBtLa0ZvW1/garRbMG8kIQDwK3rPvp+7I6qmsAcAZMkKxjp1WwRFAtBh6zaq+NR2fxWJJb07KDUCtWNrCbFjXCUqBNWoM0XfAqrKPi8HDpwejYzCrlg1SK5e2qOp7kB+0zDDOgOSOMpDYneIAWMLQTdf4/wO9bNE4pjVISYhefT9x+lTPX6JkiF26k+jWcwWLZAKxOExOVs1aD+oIk5/TjXbtBI9kAG1OWedNCFQDFXHHX1LM23a4m8jAHDoAvXplldJWSPoOtAqik123nKkqc12/5Lc6Be7n/lv/aWbW5b8E1wXCGVPFsDEnTCs4Ee55F0b5qafn8nAEtH8fdG52vfKJ0evWNjebNzzIIxGwzIZTxLBR5Xq5ea++yxDJCCZiudnV/t1lSmYGu1NORYd7hcRynJSsvoN+BVRuFtPLF10C4QBKQgwcOsPp1rNKpn3ueROi/PQzl8NxYfbugcnPbZ+q8Z0s1OqVLP6XR25Tr7+yWn06/S3/pWdX+888cY3KrqFpLpD4jgZ+Eihr2ue4gXEuKFCRpBi1eN4oKBnEgvfofbk7+pxKRWjzHn3zWWaDoDd/w/pz5KL63zYTf+HvZ8pXnp1mNm24lXZ9BbNx/a3+i9Oejb/6QvWUAwlIK0bJgghLRN4jaJlhnCPZtpHKlAo548PMkijVjAyIAUOWVfUYvHPXPazNqYCvYPbsul2+/Xq9a5sxi+Z3pYIjt0L64O063Mx79CqXxiIGDlmEzAYAEcyG9cPlpx9XvXArpYAOTKTLJUQBQUEk2ZacAoWXXvDFIMSKx5poFLxz15t4h07HnFtUBdGl2wF+2umPkFagvXsm6lXLzqjpMesC+eE7jbFty8/BOXizZi+KXv2OWcwVw0auR8NGD/BQCGbLpgd1XnbVvs9KMtIKMARWsSDiurKkqKnMQzVVAal5c840WSv6wfUCg+tBw6r8va2IOKv7OtakGRCLwmzd3F6tXtGspse0WCzpy8kpiCxfPBQFR65DLAbevuOdouNZh8s+7owYvZZlNniSRzJgNq2/02xcX3VTJOl7JQoRxy3Tmy4IwkmYQZnAGKwGyM9mRHT2qpdYJAIIB87QUUtrcrwkvEv3bfzU04FoFLRnd0//3Te+0RdznZ/DzIa1Q6ioEGjQALxbz+PuzIkBg2fAaDAuYFYuu0Bnr6n84sqPu4ERIwAv2OEpwXWCWGVwQPk1XiybrJV9ze6dQGYm+CmnZXsXT6ySYuDrEGd1yUbjJkDBEZjNGwam4ph1hcnP7mkO7AfCEfD2HZc5g4aWcybmZ3XbzU8/E4jHQPv33eq/8Vrzar2RUvcDSMp1y5qq6tLJWOraKcymDQ3NuvxHEAqDZWS86AwZfsJ0mWMh+vT/ApwDSsHkrBmmqvK7/Q1EvvTcFXrR/CegFFgoBEYE/fnMV+V/Xz6/xgf3EwUtQkVJtiqJXJY1/x6XRS1fKszqFROZ4wKMQQweVukIbd6xUyFv1+FuSB905MjFZs2yet02I7/4LCTfef1XFIsNY82agTVqBNa8BejQwTHqw3d+JJcurP5CR2sGqRKFDw54XjJlhuAkDmsMIP3UmTLm5XQ0u768i0ciYC1a3uZ99/tV9plwRo31efeel1EsCmgFtXRBvTNXVauXnwvfB4QD3rn7MmfAkHLX6ND3frCHt2x1GwtHQDu//LXJXlV1LyulBIwO7r+OW76gKBxZ4iGSgpYZvXThjSyxkSX6D557LEVEVXH6D9ai3+AP4QdD1wvnXlrTY9YFavmSwYhFASXBu/X42Bl59jGLuc6QEYqfcWYuMjNh9u+Fyc/tV6U3kpJBKZSZR5ctiCiwxG1NK6CGXl5q+eKhtH/flSAD3q7DZNG9x+ETv+r48A5nHeRt299pYlGg4MhNelkNQhosFkvac1IKInrpoiHgHKQkeK++88SAweVu1s6QEUq0bbccXhg4eBAmP6fqsWF+3IMuuZCXTLSZI4IdZ8YDD5Eayjl19qrOZtdOwHPBTz39HveyK2t8IQcSO81delxCfhwk5YV60bwxqThubaFXr2xFX+6YCgCsSbP7xMAhx11MiiEj8hHOeJ6FwjAb8h8zWzdV3msiHg8WwWTAXDfYvSg5sCtLfq1ruLMsF3zh6bV5YxAtBmvYCKLfgPknflXl4D16b2KtWk+G9EF79zwSf+WfNdqNrSvUvNmeWZ8/BloDkQhE/0FHLSbd0WN93q3nePJjgNbQSxdWuW1G5+UEiykgURApG63s+uBBuw6kTFmSi8la2RuHDgKOAG9/1jxn9LhKqQYqIgYPy2GRyFQWjoA2rZtmNuTXux3mJP4brzVXs2fczZo0BRo2AmvVBrxVa4AIevnia/0amk6SX9oyU9ZDBI4IVEC1kDKj83Nam692TIIQYK3bTBW9+u058asSw+rRm3ifAbMpsdDXq5Z9o6/LJ0ItmDOANqy7lTVpDta0xX3ivAlD0bjxg7xxE5h1+ffrL2b3qfbBtWaQQexu0DITCpSTwgm+0+DJlqiUmarSxvW9cfgwkNEQon2nNdU9jug/eDE4B3Mc6OyVE9XqlfWmqCkXznX1jm1DKR4Hb9ocoku3zcd6Hu/QeQUaNIQ5cgh6fX7Vi/JSeki0zECIigWRwEMkmGPV6Brtv/5KK7N92yQYAm/deprofWxFRHUQw0YvZ6HwGywcgcnJesL/hvu1qaWLHL16xUTyPBARxKARx23hFT37LkXDRkA8DmzeOEwtrLw/EJWk+R2jIOIkFCIMgdK6BiovtXJZC71kwTA4LqAUxNCRH4gqKjOPhTNkuOJduy+CNoDR0CuX1quNJ4vFUrfUeUFELpx7Om1Y1xmCB5LW3v3zjvU80XfQPITDIK2h1+V3k4vnV2nBSL7vgRL9rZ4oKYiIrj0JjggmaVoDSld7MiaXLRZ61fLxMAYkBMSgoTOqe6xjIXr1WQHPC3Zks1ZN/CbvNOvcNf1p/z6wjAzwU09b650zPnq857ujx/nijHZL4bqgA/uhc7O6VvrN4vHSRZTjQnQta+bm6GRUK9Xg3AKAXjS3F+3ccS8cB2jZ+g4xYky1Y/4q4p43Icrbd1wJxwEKjkAvXzIqVceuTVROVjvase1eFo6ANW12txg8fMexnid69V0FxwUL+rMvqmp7BWkNKmucW8ZDhDnCsKRCRNfsHCeRC+e6Jmv1eeACxDnE4GGfVfdY7rgLYmh9ah6LZID27oFZn1+llrBvCio/l6nZMy6D9AcDBNG91+XuD3/ahHfqchUTAjiw/0Y1Z1bNVCLSjyQ9JpjrlW1tlIHpJqVUBQQAetXS4VASIILo0Wem07tflSbfos+AfBaOgIXDMPl50+QXn9VKCk5tI+fMCulVyyfAGMBxIEaMeSvy2wcXi/6DP4QXAooKYXLXjFI51bzvaM2hdWC6yVhpLKtIbEpwBhCBUuQD5H/8fgP6ansfSAk0aQres29OdY8luvXcx1q1mQrGQV99Ncmszak3Pk962eIuKCq6mmJR8A5n3cw7dDhyrOeJPv3yWLPmgB8HfbWjj/9BFQ2wpe9Cq0Ah4jrl24SFkEFBxIBUzdqS1bw5l8JowI9B9On3oTt8dLW9JSrijr+4mLdrPxdCgA7ug1m1oneqjl0bmI1rW2HbpltYKATWtPlUp9/AXcd7vtN/yFbWotUdjHPQnl33qNXLK+8NJOOBAogQxCh7peb1zHENWKDYCXxiqq8Q0XnZPWld/v+wSAbQsOHTzoizc6t7rIqIbj3XsgYNAWNg1q/tolYuq3L7vcVi+XZQ5wURvWZVXxzc/10YA962/d2sY8dj9oLyAUO2sIaN7mPhMGjH1jspP6dKPgskpQeiwEOkrBQbCKrdpTfrahcZTM6qM2ht3sM8IxM8s8EUZ+SYSidSVAbWrfsedvoZj0BL0N5dN+ilC76RfgQqZw2jLRsGUVEhWMMmYJ26VmpnjvcbMJccJ+hjzs06Wy2pnDyb/FiwAKGEh0gZmOv6rNRDpGpmrRUwa1adQ4cPAw0bwTmr80qnf3klU00RXXtmsabNgOIi0KYNo9TKZSmNn6wNaG1+Pzp8CMjMBGvbPsvp1feYi0nWpds+1uaUqSAD2rNzks7PqdpERCsGHfhqMiHAXK+Ch0giKUrKlOzomQ1r25gtm+5l4QzwRo0fFENGHnNXtbKIHj2XIRIBRWOgjesH6OouKk8itDavEWWteo5lZgKMvyjOv2imd9lVh8WQ4XPRoAGouBi0eeNwtXButRe0gfqDgmtyOa+n5G4kAbJm3+OyyM9nhk1u1uvcC4OEAzFkeJVNN70JlxaxU06bDM6DYm5edttUja8u0Vkrz8KObZMRDgPNmk12z7swBwDckWNXonnLycQZzJfbp+rFC6r3+YxmoMRpZAzM9QwAiK7dg5YZhsCwMUUKEbNmZQ+zf99dEAK8TZubvKuuO1DdYzkDBmvRrcfnQTuAgl69vN6kVJgVSy5gDGAE8B49lzl9Bh7T08z7zncP8VNOv445LujAgVvNqqVVMrAnKV2oROyuW95DpKRobUyNvr9yxkeZZuWyf7BIBHA9iOFjjkquqyli8IhPCAAcF3rFkqvUgi9SpjpMNTp79RAqjgKMg5/Vba7oe3y/OjFoiOZnts9GZibo0AFQfk6l27/Il5woSPoCF6Utb0CiZSYRt2wUoKvXFqXXr/X0skVDqbgwMK3v2nO2M3RkpWLuKwPv2PkQP+PM++BL0KGD1+mlC23bjMViOSZ1WhDRa/PCZvXyQRAcpBR4j97znW7H7gV1Bg/T/NTT1rJIBHTwAPT6tVXzEZF+Qs7JwbhTfkdBiDtLFCI12GHWq1cNM4cOApEMsI5dFjjDq++KfSzcoaOU6DfoQ/LjYFxAz59zeSqPnyr00oVtze4995P0wdq0uUf06lOpxaQYMmItz2zwCItEYDatf9isy61cVnzc9wCAwMA8r3wKgHB0mcVytSc28Wef6mB2fvUI4nHw1qc8IAYMWVXdY30dvEu33ezMdneaeAxUcPhWvXBezZMdahH52cyw2bG1H8VjYE2aQfTo87WFL3fQMM27dv+cpAQpDbNqedXkqkoFcnsiwBHlk4SEIHAerKe0Ssnk1eRk9aMjh4FIGKxdx+VOv2MvIiqL6DMgnzVs9ACEgN6x/Smdl13vdqZ09so+5uB+wAuBteuw0Lso8M/hXbrvY+07/Yz8OKjwyO160fzqmwInTHEZZ2BO6XWaCRH0pASF65QVCk1+3pm08ysg7IE1b3Gfd2X1Fs28V585ZAxIKZi87HqzWC4Lrc0fQEcOgzVoANGp2yKRUMo4486PiTPaZrNwGDi4HyY/u1pSc1JSwJhE7K4oX7zm/PLAmdYAMjWxnWZd/mAqKgBr1BC8bYdq+f+URQwcspgAMNeFycserxbP/8Yb6Mp5sz2zdfPZAAMyG4B3PX4aC+vYOQcNG4GKi2A2bhhQtTeTocAHjIMJt/zch4ugpUIboAYKEb104SBzcH+QNHZm+7u9K649WN1jfR1i5Nj1vGGjR1gkE2bjhl/o3KwzU/0eqUDO+TRi1uadS0IAQkAMHlop7yPepWs+a9oMFI1Cf7m9n1xQyQK2H3NLFCKCl8ZmA4DjGPCkh4iutk+MXr18oMla9RALh8Fc72lx9nmfnvhVlcfpP8jw3gNmkowDjEMvWThMb6x5Io7FYkk/6rQgYnbuON1sWHcvvBCY48IZMOS4SgLes89SNGoMikZhtm7qWKW2GemHgsmYk8hML4U5jg/OEmZQ1dud8v/7cmtam3sRYwzIbDjFGT5yXnWOcyKcoSNXwAsDngedl/OY/9G7DWvjfWqCXrl0HAqPgLkueLuOq9xxF8RO/CrAHTZKsXbtVyIjA+bAfqjsNYMq8zqKxzIABFJsL1y+Ncd1S0xVSakXqvhRSlDzv/gOigoAzsE7d1vgXnJFQXWP9XU4I8ZI0a3nAgYASkEtnndZqt8jlejVy7vR/r2/ZlyAt2z1M6dv/93He77Tb9BSBoC5Hkxu9ni1Ymmlv2ukFCOZmGM7TsXJmAbjQbFEykeq92lK8T/5oIHesHYUGQNkZMAZMGRRTY/pnn9RlLVstQmRCLB/L8z6tfWqbUYunOua/NyRAIG5DpxBw2clH3MGDdOic7flzHWBWBQ6e3X1fTSUcgF2bONcIjAwMJWaohcA6HW5AyhaDDgeRLee1b5mi74Ds5kXAg+FYdblvyQ/m5FS49faRk5/r6HZuaMnxX2wxk3g9Cuf9Ma7dstmjZuCiqMw27f2lUsXVX0RoRWHThREOIdTprWROY5kLNEykwKPGP+DtxuZPTv7IFoM1qIleLfuNY9l7dV3L2/SbApCIZjt227V6/Jb1/SYtY3OXt2eCo5cDOlDtOtwp2jX/rhpLKJL162sVetgjrV3Tzf//cq3zZDvh0ipxHe3wqaT40ownvSXqJZCRH42I6IWz/sJ8zyQITgjxrxfneOcCKf/QMO79ZqdbBPTq1aco/Kyv3GKPp2X285s2XwLz8gAa9L0AWfA4Ep5H4nuPffwU874GWkNdujgLXrx/Mq1BcV9B8YAYGCOC+aGyqT5eSpIimKAUqBqKkTU0kVDafcuICMT7LQzVnlXXH2oOsc5Hs7AwVkIR8A8F3pd3v+aLZvrtRG2xWKpHeq2ILIuvyvt2QU4Dlib0+5xJ1x23Js16zdwG2/W4k7GBWj3rv8xq1ZUXtKpVCD34wzwvPKGX47rBw7oGlDVUxHoxQvGmd1ffY9FIuBnnJHtXX3D3uoc50S4Ey4r4l26/gxGA4UF0PNmn1sb71Nd5LzZntm0cQxFi8GaNgfv3qtKRnZ84LC5yGjwJLSGWZc73v/wncYnfJEfDyFpFOJ58XKPeZ4ETyhE/PgxX34i4s8/087s2DqMiorAWp/ytBg4JCXJQceC9e6Xn+zjNls2jZUfv9+gtt6rppj87GFUcBgsIxOsfccs0bv/8eW6vfruZk2aPQnXhdm+5XazcV3lk5KU5EmFCBNuidweAJgQid2phMqrhtCald3w5Y67WDgE1rL1bd4NP9pZ44MCYB27rGENG4IKC2C2bOybimPWFWbj+lZm+9YHWSgMZDZ8kA8buans47xr9w2seYtgIfXl9oGqmj4aFPcjjCGQ3XtlU2ZcWRKtbFLkE/PhO43MurWvMtcDQuEnxeBhy6t7LO+yKw+z5s0nIxwG7d4J2pBfLyI7k+js1V1p3967mOOAtTllknvV98opZXivftv5KafdQdIHHTgw2axY2q7Kb+KrUoWI49xX7jHOAyWfIUDXvCBili4aiMLCSZAavG3Ha7wrqt8uk0T07m9Y564LIBxQtBgme/U3XglkVi4/h3EGSB+sV5954mtaGpN4l155mLfreDlTCigummSWLRxW6TeTcQ8m6SFS4T7sCAXOQcaAqpkSpRfPH0hbt1zDIhHwFi0ecM67cF11jlMZxJhz57GMyFTmOjD52c/opQu/cSoRnbN6NIoKwEJh8K7d51bWeNQZPEKxs7qsZF4IVFQIs2rZJZV5HcVjIZjEHLripoQXMqUpMxrwq26qGn/txdEma2U/EAGRzCfFqLHTq3qMyuBOmFjI2ne8E1oDhw/C2LQZi8VyDOqsIKLzczNM9uq+kArEOETP3ifcnfOGjFCsbfsslhEBHToIk5tVacMr0oYjWRBxyytE4CQc0JUOouOqiP+fl1vrtbnjEY0CTZo+LQYPO67Td01xz53wNrR5m4Uj0IsX/Fh+VImiQR0hP3pvPAoLbqBoFOysLpNE737HVQ1UJHzjzV+xNqfmMi8M+nLHzXrh3BOai1I8npmshzAvVE6NwlxPUfJG7Vc9JEStzWXqw3duZXH/CorFIAYNedursFhIJeKsrkdEzz7XUXERmPLHy5nTL6qt96oJ8qN3GpmvvuxPRUVAy9YQ3Xod0wy5LKLvQMM7dZ5PDEC0GCZnTa9Kv2GyIAIEk7Eyhm5wHI1EshApBZ2fW+3dPJWXzXR+zggqOAKW2RCic/dl1T1WRUSv3utZ02YPQCrQzp1P+W9WM374JEDr83rSgX1AOAPsjLZZboUkMN6h02HWsfMkikVB0aLvqSULq9c2o/wpwQF5eSWf42gkKyJKpcRDROfnnEW7vgQLR4BWrTZ4l11Vo0Qw0bnHArguqKgQel1+1SItTzJ6w9pBwe98A7C2HY4yH3WHj5asQ8c18DygqAh6zYoqJ0VBycCUkTEw1ym/YBZOYLqJ1Jjm6rys8xGLgmVmgnXpsaKmx0viDB8zB647jQkHJjfrLfnJB9/YgrX8fGaY1uY+BS8U+G30H1wpU1nRufsalpEJxOPQ2asnnPgVCZTMgC45v+V9HxxHQTCAdLVaV/2P3m2kF8+7GUYDrgtn+Jg3y5mnpxjv4suKWLsOSxHJBO3dA71kwTfqPhx/6bkzaF3eMxACyGwwxRl5dpVUjKJ7r7WsdRtQcRH0zh1D/Hf+e+J7kR93k99fOA5Y2Za3kBvcgxMKkapuLOpNGxz9xafn0J5d32ehEHjb9stDP/zZMQ3aU4EzbPRHpA2Y60EvmT9CLV1QL1L9LBZL3VF3BZGN6zqbdfm/Z6EQmBd6WgwbubIyrxPde+agWQtQURHM9i1t5eczK+ezoLUDouCCLdwKChHHB+eBO7asemVbzvjwejqw7wYIAdap67zQj27bUtVjVAXv+z/czc5stwCeB9qz+0I1Z9Z5tfl+lcWfNSOilyz8Efw4WCgEMXjY59XxXhD9B81Bk6bBOc5e9R354VtNjvuCeCwTyeSCUIXeZdfVDAyMMZCMQ+fnVGmxLF/711ja+eVdFC0EO+30aWLMuZXq060uTreexEeePYscBxAuzLKFP5Gfz/rGpVbIuZ+dg8KCSTAGokOna7zvVq5IJAYP/wKMg7kudM7qC9X8zys1caK4L0Cm1EOk7O6UcAyQiPxTskYqEf35Z2eZ7dumQivwVm0mO8NHra72wSrgTZhYyE47MwuuAzp0AGbFsm/8DjMAqEXzXLNp4wCSPlhmJkSvvkcppJy+A43o2XsxwMDIwKxcVr0FhJQIUmYEWJlzzJJeQACQAp8YlZ/DzLr8IVRYGHymbj0X1vSYYuDgVYhEpkIImA3r/y1nfLMjO5PIT6dn0O6dvSlaDLRqBdGt5zF33kXnbnm8aXNQtAhm+9bBclnV2mZIKZFcMMP1KppuBoVrMoDv1+h657/47Bm0b8+vqbgYOP3MB0W3HilbWHnf/d4B1qJ1PotEYL7cDp29ukuqjp1q9OoVnc2BfQDjYGe0u8cbf0lxZV7Hu/X4kp3Z9gGKFoH2773df/6ZdpV6Q6UTm04ccMvPsZiTMN00BBhd5YKX+nT6d8y2Ld9nkTBYm1PuDt39u2pHKFcWZ+x5M9C02RQoBbMu/6n43//Srbbfs7LoRfMvod27wCIRsHYdl7kXfaewKq/3Lr/6kOjZ5zL4Plg8Pl5+8sF1J3xRPB6G1oG/k+teU1aRwtyQQaJlhqQCVVEhIt989TqzLv9exOJAy9ZTxbnjP6jK66uKM/qcdaxJkycRCsNs2nCzXrm8SgbCFosl/alDhUhOd7Pzq8C0sE2bte4FF1fqZi0GDtnF23W4CUaDDh28Wc35tHItI9rwpDs2K9ubDoC5TiDHVgpUxcp27PEHB9HmjeNQVATW5pSnnVFnzzrxq2qOM+GyV+C6z8N1oBfPvzX+z7+3q4v3/TrU2lwmX37udhQXXUKFBeA9+tzhDBmxpTrHCt/+qzzesdMkgGD27v6hfOf1Hx33BfF4sGPMGFgoVKFlJqTAgzg4xP3AtK+S+P95uZWeMf1eCAGKx+GMv+Spyk4qa4LoO3Cv6NztbvJ9oODIWPXJ+xfU9ntWBbV6OTfZay6iaDFYg0YQvfpUuoVIDB6+izdp+iAiGTBbNt9l8rIrJ0WOx0WQnQww4YDxMkIuxzEsaeimJMhUvyCili6cQAcPAOEIWOdui5xzKud/U1l41+6r0bgJqLAAeuPaETqvagW6k4HOXtXW7PzyQQgHaNr8bjF4+JZjPU90772JN2sOKAOzbcvZanbVfDR0XlZgnMuQUIh4pbvMwjEQwSUcWtW4QKiXLTrVbNv8FDiApk0fcAYPr3EimPudqw+xZi228EgEZueX0Hk5HWt6zLpAL1vUF0eO/ATGQJzZ7jrRo/ehYz2Pd+mxj7fr8DOKRkGFBT/Ri+ZVPhodAKR0SetkCknFTYngHmwoSISrAeqLzyZCaZD0wXv3/8Q99/iR71WF9+ozDxkZoGgRdPaas9Wq5XWeznci1PLFQi9dNBFcAEZDDBnxYWVf6447P8b7DpiBeBwggpo948SLZQBQygMBADvKQ4Q5rl/i81RF4/rYXx7tZ1avuDGIT272tHPO+Deq8vrq4l31/f2ia485CIVBB/ZBzfnsByr75KeDxf76eC+zLvcS+HGgRaupzphx1TIedYYMX4iGDQGpYHLWXO2//2aT474gHvcCDyBxVEETXqIgAgSbElX4Dst33xioPp91Dh05DHgeRP9BH4Suvn5/lT9QFXD69CPRf/A7cByQ70MtnDtKrbARvBaLpZQ6ubGrlUtbmJw1fSgeA0IR8F79Kh2dJrr3Jt6z9xLWoAFQXAyzZmU/nZd9XNmq3rjegVFO4I7tAK5TflWcvFkrFdzUK4mc/l5D/ckHv0M8eiGIIIaMfD103U2VMraqKaEbfryTn9V1NotkgvbvP1t9+tFP5II5Jy0eTr7ywnhas+JhxhgQikx3L5r4mtO3+skczuhzpvNWrZ9HUSHM+nWPxe67+8Kve66JRkuN37xI+QVsyNMl7uey8gUR+fEHDeSrL9yLeGwMxWMQPfvd4V54aVY1PkqVcbr3Imf8pa+A9HREMqDmzb7Tf/eNpnXx3pVBTX9vKA4fmkTFReAdO9/J+/TfVtnXim49iHfrMRehEFBYCL1mZeVi//x4sKtIBDguStQCQJA4I5KTMQUYU61Ja/yFaWfSji0jES0GO+X0KWLQ0JRJ7ZOI3v228jPa3k2xKMyB/ZPVvNnf+EWzWZvXlw4eAMtoAN62XdbXqb542/YxflaXSYjHQdHisWrZ4qq1zShd2tbGeflYR0doiMSmo6p5QcSsXj4S+/aCRTLBz2i3yj33wpQsmkWnziuR2RBUcARmXV610ljqGpOXMxKxKFg4AtaxS9bXtSI4g4Zq3r3X4qQs3qxYWrVCbTJlBjgqlhXcUQwJBYGS1T6/8tOPMs263O/AGLBGjeEMGJTya7Zz9jmrWdPm90G4MFs2TtGL5n7jDJJ11sozzLq8+1lGBtCg4ZNi9LgTtjSWRQwetpo1aQZoA7Nh7YRKtfdplYjM5oDjVTBVFcGJDwoilW558z94u7GeOf1XdPDAWITC4D37flLbCtyyOOddOJuf2fYBxGKgL7ffLV/6x3fr6r2Phfz804iaNf2XdPDAeITCED36zPSqWTxwr75hr+g/+DpTVAQoNUK+/sovdW7W1987/XgGjAEFCqDyG08hj5DcpAjCCSqlEJGfz+zk/2vaj+nQwRsQi4J373mHc8nlX1Tn81QVZ8LEuWjYcAoiEZi87F+pBV9UvQ3QYrGkLXVSENGL5o00m9b/CuEQ0KTJfe7IsVWatIi+gzby9p3uMcVFoP37b5YfvHX8+NlA6vc/MAZwnUTySNkDuvFg99kAlWyZUQu+8Px/PPUwFRZcguJi8K7d73EnXFYryTJfh3PFtW+yVq0fgOvArM+/x3/pueMrKWoBtWShE538i0vV9Hc/ghcCSR/OuRf8ybv2xhqZyoZu/PFOZ9S4F8AYEItBzpz+UfRXP79SLV989O5StPip4C8MCIfLS3U915TE7hoNUvKEv+P+h+808l9+7k6zacOtiITBGjWe5t3wo2edHr1rrWe5IqEbf7yTn9XtY3ABOnhwjPronWt11uqTvjulVi4Vas5ntyQjUMWQYTOcoaPUiV9Zihgxdj7LyJwC14Fem/dC/LV/nThe2Y+FQASAAM9D0jMEAJjjmmAyxgCpAF29goia+dFNKC66AgB4776feJen3uHeHTXO5916zgfnQSLLkgVfW+j7JiAXzHVp29a+iBaDNWsG3q3n116rRZfuJPoNnE+J66xetexilV/5dAbSilM8DoCBCQF4pca5cF0D4QCMAKXvrdFnmjfb05s3DqfiIrBmLcB79U2ZTwwfOGQVmjZ7AEaDtm19zn/z399onxj56ccZZveu3hSNgrVqA35W163He77o1nMDb94CTPowWzaPVHOrYJ6rlAOjgUByX14hIkTClNEE8a3VRM386EKKxcYiFoXo0ecm0bVnjXxhjoU74myfd+yymDVoCBzYB726Gn4qtYjKy2F68cLzUFQAeCHw7r1nuIOGVkk2502YWMgHDrkcsSKQMSPk+29NUjkn+C5r5RERiAvArWhc76ikgoAqqRCRcz6NyOf/9jjt23MNlALv1PVOd+J3P67K56gp7oWXFvFRY19HJBOIFgdq3L8/cVJaZ9SCLzz/mSfupz27bqR4DLzjWZPd8ZfMrskx3Qsv/YhlZr7NhIDJXv1b+dZ/xn7tk+NxD0YDggFu+dZkp2cfYlzcwRgD0xqoRMqMP/3d3v6Tj//SfLnjZhaPgbU+ZZp72XdfdoeOrNJ8orq4I8dI3rP3pyyzAVBQAL143gi1dNGJ5yIWi+VbQa0XRNS6/LBevmQIDhwITAs7dV7qDK/agsodPc4Xg4dPBwOgNdRnM85Ty77+QkbxuJfYOQa8UNBGURZHBJMFhkpdyOWCua7/9NTJtGXTLWAc1LDBG85V3/uHM6xqn6OmeOdPiIqx5/2bN2n2PLSBWb3yqegtN96icmpX1qlWLRNy+nsNY4/9fkj8j797Sk1/713GBeC5EL363Bz5459Tkh3vXHHtPDFo+E2kJBhj0NPfez3+0L1PyIUVlDDxGFhigc4ikfITMTdkkgk0pAkk5df+f6NWLhPRh+4b7k/9478oZ839rGEDUDgyzb3y2kfd8ZVr6UolzuXffYk8bxrPbAi9dNFT6oO3K+/4X0v4b79+Lvbv/R58H6JdhwedYSPXVvUY3iXfKcTpbVezzAagPbuhVywZeaLXUDzugFGgyA6FILp0L2uqSqWTbQVoVeXf//hTf+pmtm0eh3gMaHPKNGfYqFpLEhI9euezFi3BYjGYzRvHyZnTM2rrvWqKXraoCx3YPxnGgJ9y6s9OZJIsevffjEaNXmSOC7N5471my+bK+2hIyaAS82whyiUJQTiaOaXGuTWJwdRzZg3F/v23ExH4mW0niQFDv6zusSriXXJFAT/19HwWCoP274VeteIbrRLRyxf1RbT4exSPg3XqfJ3o2PG4XgSsQ8dC3rHzzYjFQLHiiWrxgkobm0NJt8RDxKng9eQ4CgzJ6OxqKR3V55+G9eKFk1goDCIGcfa5H4uu3WuliC2GDF/CWrV+kKQEbd40xv9nJX026gD1xayzTPbqaSwUBsvMnOKee2G1Fs3OBRfNRCjyNguHYVaveER/PuO4LVLkBy0zzBFg4VCF+7An4QgAVCkPIP/Ddxr7Ux58nnZ+OQlag7Vu87Qz8cqX3dHjqu6MXkPcCy/NEYOGXkdxH1B6lHz5+X/4/3q2bV2OIf7is23jjz4wzWxafzdTGqxps1fERRNfrGlLp3vplYedcec/Qb4EC0cg33n9T7FH7z+mapOixY2hNRiOkSIEAJxpMBYkCWn9tfNotTYnI/bXKVf6jz/0G9q88afMdYBQ6G33qu8/5F1V8zSoquBOuOxztGw1Ga4L2rDuTvXh2xPr8v0tFss3l9oviLz3xpW0aeM9MAasZasHnJFnV8ukkg8flcfbdngQfhw4ePD78X89+yO1fu0xb7QUj4VhNIgIcF0wr4KHiOMosMCf4EQO9/47/20en/rgFJOz+l40agRo/b57xXX3hmoxeeR4hG//VZ4YOe55OG5Qz1mx7Kn4/90zJf7fl1tX53g6P4fJxfMdf/r7DeKvvHBq7MkpvWK//99x0btuubb4x9f9T9EVFzwVvfOnKnb/PUfkay8uMru+upllNADC4Rd5917XhX45+dlUfTandz8K3XbXi6L/oJuIsTfQoiVMbs4t/isv/ECvLZMkolRJ6i4Lh8v3LruuKUmZMQaQx1aIxJ+e2iX22zufU/99eT6KiiYiHAEyM6e5F172ZOin/7MxVZ+pKoQuv/ag02/QO4iEAUaQMz/4TeyZv3Q+GWMBgPgbr7bUn340GZEMkPLhnDP+laqqQ5I4g4bNQaOmgJQw+dkXn0glQvF4GAYACAhV2EB2vdL+5eAcV2mxrJYuFvKDtyczsDEU9+EMG/Wad9mVKd9ZTsK7dD/Eu/a43sSioHhsovrsk29UdHZZKHfNaCoqACIZ4O07rXb6Dz7uTrMzepzPO3SaB6IgXjhnVeV3U32fl/i/cAF4obIpM4FChChhnFv92rNes3ICiovAGjQA79ZridNvQLVb+44F79xtFUv4xJiN64bob4DvwNdhVi6fANKA64B36bZK9Ohz3AKC07Mv8b7955ExYJzDrF5eeYWT74cDw2MGeKGico+5np+M3SUlq5UiJD+bMYYO7h8PEFi79pPFoCG11r7qXXHNQd6523zmhUCHD3xPzvvsitp6r6qgViwRZuHciXT4IJDZEOysrgvcCZcWnfiVR+NNmFjIh454AUqDOS7U2//5o//6Ky2P9Vydk8Ug/WkgA7ju0UpN1/PBBcgQoL5+sQwAsUfuHxF/7IH3ae/uayAckOe94V513eOha26okeq0ujjde5F39fVv8rbtHoSSgDEj5N///N/oHyaPU7nVL8yWReXnMLV0oePPnJ7hv/Fay/izT3eKPf7gkOJf3XZt4eXnPyv/+vgW2vXVjSwcgmHsfXfiNQ+Ff/DTlJgFR/7w+OeiU+c74HpgjtNH/fflv0XvvevSis+jWCyzROHleUcXpjgPksCCa/Qxz3H8n8+Mj//mF1PV88+8jsKCa9CwAcD5K+7VN/4m9JOfb0nF56kK7uhz407fgbNYo8agaDHUskXD/DdeszG8FosFVU5YqQrys086x594bAwVHgHCYYjuvea4l1Zv4eENHyNjT0/9p3r2r5PRuCloyYLf+09PVTov+6+iW8/yu1x+LJiIJW/WjlfBQyRh6HacgohavljI11680n/8j7dAq9Fo2Agk/bediyc+Er7j11Xqz0014QcemR/99e3j1cyPfs0yG4ylXV/dKZ94dHDR9yd+Jrr2mM3PaL8RjZsUweEGUgpEoyEqONyQCo40oYKCZjhyuDkdPnQaHT50ZvT2H58C6X8HxgBKg7QM/n9jHIzz4L8MgBNYsoAMWOMmU8S5F74Q/sU9Ofjbiyn9bKJ3PwLwr9hD9+aqGR8WsyZNbzDLlzyjli95H8BXOj+HxX59O0pTZsLlF2zCIQiR8JbQgDpaPRC962dX+y8++3MmxAiWmQlICXZmu8nu5Vc/611bN54wX4c76Wcfm11f3oH1xX+hwsKL1Vv/jsefnjo5dMsvqqzMqAn+O6839f/x18dgzChoBdax8z3i/IvygV9V63ihH92yvfgn11+v9+x8Cfv23ahnfJil1+b+qZzyo9wAfA+g4DvqhS4p95ibVIgQQASSfpUKu/4rz11L+/d+jwkHrM2pTzrnjF+I30+p1ueqDE7PPhT/x1NzzKL5waJyxZLr1LLFHzoDh1TfDbYWkLNnRPypD/WnaDFY8xbgnbtuqMzrRN8B8+S6fAQy7DVj1ZqVy5zge3xcyPc5TKItinMwtzRamQnHQIjkdxjQOnnFrhLxv03tIt/4969NNAp+Vpf7RJ/+KS92il59tuiFX9xDe/c8jP177lfzPv83gGMmt5xM5EfvNow/fN9wKA3erDmcbr22VOZ1okefLbJRY4ABevPG++WMjx53z59wwkU3SemQ1mCcg3kVdpgdEaSQAICpmukmAPjT32voP/b721gkA6Q1vPMu/LfTpfZiWQHAGTh0iVm98knas/Pn2LZtWPyZJzqHfnr7ST3P8o1XLzIb1j0C4QDNWz7gnj9hJv48rdrHc6+96cN4fv4jOHLo13Tk8ET/+b8Vxf/1j9+Ebvzx9rLPo3iUQ8tgMSwcsHBFpWYyGp0Ao/+k8nP/7FRQ78T/+1Ib+cq/Hlavv3Ijy8gI4tXJvO1e/+Nfh26+fVO1P0QKcMac4/vT330o/qeHmrLCwlvIdQfr99+eZZYu/lf0/t+8Inr3XcFPPf0wGjTUcJygMO/7DNFigcJCl44cjlDB4UZ05EgjKjjclAoKWlBBQXMUHD6FCg63i93+o8A01hjAmITSUQfXQSGAkBckcHH+ovf9H/4xfNtdKb3/e3f+5qn4lAcFbd/yJ/BQL/3xB/fFfvtLhP/w+HvJ55Dvh2FMIkXoWAoRHiSBBXPHcmsJvXUT9//8yK/k3/48BsIZj8wGIOmDNWg0xb3mximh6394XOVhbeJcPHGp3rT+ZlqxdBoOHrxBvv7KEbVy2Qan38B9J2tMFovl5FNrBRG1fEmr+ON//BkOHfwRYlHwLt0ni3MuWIg/Tq32McO3/GJj0c9uuI4WL3gVDRvBLJjzUHz/3pZq3udPOiPP3pJ8HvnxMBkVLN4dt3xkJwC4rk+MA4xAx0gwiL/+Sqv4g7+7j3Z+dQucIHGEuaEX3e9e+/DJLoYkiTzyxCexRx/Yo97+z/0Ui13CMjJG0vatI+W2rfcyLgLvFADBhMSAtC5jMBpEZcJQUPwwBkQG0MECE0YlzCw9IBIBMjKfZBkZB/lpZ+SK/oPmi2GjvnTKRLDVBuHfPLC0+CfXzzT5OTfQvj3QWauGAHhbdO1BhRclWrhdF6zsrjKQkN67QDweTDAqeIjEH39wgP/6Kz9nofAIFBUBrVpNdSZc9vfwbXetxevTa/MjVQqnW0+SMz/6h3x6anO9eeO9iEavkG/9W0Tv/Nm/3cuueNcZc25KU1AqIufMCunPZ47wpz15Aw4fupE5DiCcF70bb/6r8zXmi5VFDBv1GW1YO40OHbjZbNk4xX/091pnrf6L6HX0LjXF46GgYYaBeaFy7UvMdUtNVckAyq/0gir254f7yddeuIVlZIAOH4b7vR886Z597tGTvRQjevfbydu2e5D27JpsorGr1eyZjwOotTad6qDmzRlEhYWTKB6H6ND5etG1Z6XM+0T/QRvVe29Og9Y3m00bHjFbN/8dwIkL39IXQUEEgOCA55Vvi3IE4BNIK5DS1dqZlZ/Puh5KghkD0affLPe81JiplsU9Z3w09ttfLja52aCiIqgVS87FN7AgohfNHQnfH0vxGESfgdfxM9tV6lrinjs+WnzTVT/TeTl/g/ShFs8bBODzE72OpAxBaxBjgFc+DYyJpEqTAK2r3DKjZk2fQPv3XswaNwVv2Xpy6Kd31PoC2rvm+v3F99z+of7gnZ8jHrtCfvLBl2r1il84ffqnVHFUWWJ//N1IOXvmDYjHwUJhiP6DPnYnTKxSHGtF3IFDdfzN1x6Rf5valPzYzTh8+Hv+C9Maxx65/w/hX9+3uOSJ8TgnGcwTWFAQqdAS5aqgoEkJ002/XEHTn/bXLv4/nvozFRSMZ6EQqLgI7NTTH/Fu+PGj3pV120bxdXgXXlYkP5vxy/jf/7KNNqx/mLkO6ND+G9XsT27Uc2eBeaHguoVkcR5BAVfrYHMpOe8iAgMCPySTiJInSsy/EkrmRGEERCDHBWvRegrv1fsz99IrZrkjx6a8bcgZMESrNSv/7D/x2AGTs+YFGNNfLVv04/hzz2SHJv00+C4pmQkiMCbAKnx/AQTJUYIDWoMqePH5f//rbXrl0odKNqcyM6c54y9+3r3k8qVO75PzfUni9B1o4q+98K7ctnkgHTh4M3bvvM2f+kdfrVz6kNNvkC2KWCzfUmqlIOL/56WR8UcfuJp277oNxYVARub7zgWXvOSdU/M4vNDP7/q35FONWrrw30wI6JysO/2XnitWK5f9paTCG497kIkbjOeWN+sDgskZ4wCxoxQict4cz//Tg/eZXV/dwqQP0hxiwOCbnO9c/YZ3YfWkqLVF+Ff3rvRnfHS1+ujd80z2qovM3t03QymQEIG6IyGDoZKbb+L/E+EA4TAQyQCLNADzwuANGgBNm12HZs138qbN97FmzQ6xxk2K0KhxjDdrGXf6J5Mmnq+zz+ecfc4MuXUzGGOgjetGqrmzP3RGjfWhVBDH6nlHF7sch+B6SBaC4JculuUXn4Xiv//f3zDXG4GiIvAhI65xr5/0pjt0RJ16wZwI97wJUfnRe4/Ss3/VZm3O/axJs4l61dKJZkP+c9HbJs1lHTpm81NO+xJNmhaxcIaE4BRMsAyDURy+FCR9B1Jy+L4L6bvkSxdKOlDSg/RDkJqTjEcQj0cQj2WYwoIWdPjwKfEpfzgT0aJJiMaA4iKgcZMX3R/+9B5vwmU1/t0P3XTzV7EHfvOCfPO1biwaHaU3rJ0ae/i+RmrZoj86A4eWPwfxWCSohxAQDpe/bggHTDgJz1Uqd46PR+yvU3rK11/7IxPOMCoqghgy/Prwbb9cX9PPVRmcIcNV7PEH/y1ffm4yy2wANXvGrWrpgh85g4Z/Y373zIqlV0D6YK4H3qvPUtG3cq0l7qhxftGNV62kTeth9u2DyVrVC8CJDad9X4CCt2BeKNghLjmoa8BLUmaOqfQ6EfGn/9RNvvbiZPiBgZ8zeMTKqh6jsrBefbOw4AvQ4YPAts2j/Q/eesW7+PJaa8OqKmr5YhH77S+/B9cFxeMQg4bMrYrfhhh59oc6Zw2YF4JZPP8mtXjefGfISHncF0nfCxZUx5DcO05QyCY6YdtqRWLP/LmLfOWf/4brAYK/6Fxy+Qt4s268N90x5801q5Y/SXv3/Jyxvbf7055cjbq8KQLw33uzsf7s40vUZzMnsnj0CiouBB897rrIvX9cmIrjh6649mD89Vd+o16YdoS+3HEXaXWx+nR6PPb4gw+Ffzl5OQBQLCagEmpSxwHCkfLXMc/T4ImWN21Avl/y/VVffBaO//XxW2n/vvHMdYHMxk+6l18zzbngohynZ986MzKvDO6482Nqbe6j6oO3P9Sff/p9vW3Lr6E1yHHABAdjZfZbKDHXomCuRYnPDjLBrcx1wcIRIBQGwmEwLwxkZIA3anwTa9JkD2vU+BCat9zDTz9jH2vXocDt3d/g0b/W2mdzevcjnZf9YvyJR329eMGr7OCBi/XCOfMAPAIgiEsmSharj/quM9eLMcYTChG/pKgpZ33cNT7lD4OouBiMc4jhoy53v/eD953BwxUm/6HWPk9VCF17057Y1IefkC8+exZisbFm65Y74w//X9h/8dm3vRt+lBJPPIvFUr+ocUFEb93Eae+eVmbXl6fStq3tzNq8rvKl586iQwduolgUUHqO+73v/zb0o1u2n/holRhw994E4D+xh+9fp2Z8+FMWP3izXrPit/LDt7cCCPwsYrEwtAQMgbleOSk2ADAvFGecgRgdFbsr33ztu7Rn1y2IxYBTT5viXXz530I/vWMTpr2SiuGnHO/8CVEA78l5n39sNq7/P9qx9Uyzb29rFBe9G8QOCyAcvoxFMgpZw0aH0bDRETRoWMQaNYqyRo1jrEEjyRs21KIOE1Uqi3ftTXuKvz/xDuzd/Rfau/tOnZt1p1zwBeL/95vgCeEw4IbKj1uIoE2KMZDWICVLFst68by+tHvXFaxJE7DTz3jAvfHHb7iDh32j2haSuBMuLVJzZz8sX/vXerVg7qs4chh0+NAk2rd/EuVlBRMrzwUTLhgrLXwREpMwo0t3nZLqoGQBAVT+MTIgqQDlB/+VPuCFIHr0vtO94toXvCuuOZiqzxW+96GFsfvv+Y18743fM2AsbVh3v/+Pp/YBeLrs8ygabRjsujGwSLjcTrbo2oOKrhifeCKB4sdPilJLFznyw7dH6/feuplFi8aDMbB2He9xb779VTzzUqo+2glxzj4vT8346EkUFf2cvtpxo/rkw+cB1Enk4ImI/fVP3eR/Xrydiosgzmz7iOjVd0tVXu8MHTZLbt8SmCGvXjFezv18iTvq7OPubFI87oIMiDGwo41zDRyRXDADWlWpLUotXyLiv7v71+AcVFwE98LLXnTHX1JrRslOnwEHTPfeV6nZH7+OWOxqNf39GajjhfLxUPPndqNdO7/HMjLBTz19ihgw5KuqvN4ZPnqHfOu1qSgo+IXZvvVGNX/uXwAct8BEUoZK4rK9UPmipusq5jjJttVKK0T8995qLJ9/+uesoACIZIJ17/1R6Kabq/RZaoJ74SXFsScee8p/9qmfM2OgVy67Kfq7u3ZGfj+lVuSFau5sz+zZ1ZAO7GtKu3edarZt7Smfe7o3HTr4E8SioCOHIAYNv8278ebXU9m+Grrqewfk7Bm/81+YtpGyV/+NDh++Qs+eUShnz/ypO/a8GHxfQCZaZhwHLBwpfx91XQ2HJxVA5Xye5MwPzzc7d/wcWoF16nyPd90Pn3EnXnkYv5ycsvGnEie4LmXr5Ysnq9zsqWZdXjezY9tZOHhgGkkfCSFj0hgaPJIBNGwIZDacwDIzC1nDhodZw0aFyGxUyBo0iLOGDX00bCR5RgMtep7ceZfo1pP811+eYbZtnUJbN99FO78c5L/3VhPv0ssPQWmHjAk2nkLho9VkrutDiEABVMYYWX0243wUFX8f0Sj44GGT3GtuCIoh3zDCv7gnJ/bgvb+Wr7/yGJNyDO3Yfot87V+Nim/7wXDRo/ca1qnLOnHK6TtEz95HKntMvWUjh1IOpPQgpUNKelDScQaPqLNrlMViqR6VKojo3KwG5sD+Fjh0oBkdPtyIDh1sZg4daIbDhxv5jzzQ2BQW3EsFh0GHD4MVFoCiUYBxoFnz592JV00J/0/q20zC99y3Mnrvr17Wcz69Gfv3wqxcNkh+8dln7uhxmwJDxoSE0fUCE8ayeJ4ELzFV/TeA/wCAXDjXjf/2l9eBCHAdOBdNfKYupLipwB15tg9gZ+IPdH4OBwW9+V/r01APYO3PWsm2bgEVHIHZtAGsYSMwBAt/Fs4Aq6D+cbr2oKLvTgjW/UYDUgkAUGtWsfij/3cBEwLQBmLsef/+phZDkjijxvoAXos//8xctfCLc2jLxhdo3z7g4L6gxYlxlP/FTs7MAEalp5wIYCwoLhAC6xUwFhSPHBdwHTA3BGQ2AW/UFPyMtlex3n2XOYOGbnP6Dky5vDV838PzY4898Ev51n/uZ45ziV4y/6n4tKc+Dt18a+l3LVbcqFQhknH0QjbkJXbjDCDjx7yOyYVfeHreF338vzx6ntmx5UEcOQICwDt3vdv72Z1PuP0H1al01xkwWMemPvR39Z+Xfs5CHtSsT+7233wtx7vi2kq1ptQWKms1i0++8w7GGCgegxg66k337POq1EYkzj5/g/z04/tYYcH9ZvOGyXr5ojdxggUz/LgbKNZEEK1cBiYcYiLhW6SqniQk//vypbRn141wXbA2pz3tnHvhUvzfI1U5RJUQXbuT//Lzc/XieYCU0Nmrr/I/evd1b8JlBbX2ppVELZznxh/5v58yxwWkhDN67L+r2uYhuvei2EP/94r84K1fgAuo2TNulTOn3+6ed+HXF5mkDCevR/BCFVsqZIlHjKlcy4z8fFZITnviTvpy+60EBn7aaZO963/0Jp76Z1U+So0J33732uI7f3qZnvXxuyyzwSg1e4aJ3nVrpnPpFe+7o8dVuf1OrVgizL59YRzan0n79zc1+/e1xsH9p6CgoHn86alPUeERIBoFolFQUWFQsGYcaNAA4oJLLveuvfF9Z0jqVY7u2PNjctYnL/jP/83T2av+QocP3Sg/ens6gP+Q0TxoBwGY44CFQxXbkks8REhrMCkFAKVzs1j0vl+fi6IiILMhxPDRH7gTa8/QOpWIAUM0gN0Adqvs1XMQjT4PrVjJbZdzQAhirkvwwlRbiUepxrvq+/ujd936mdq0/i6Kxa8wyxc/C+Bj0jICYwDXAwuFjv79ct0YOE9sqpR+VJOf3QOkASEgho6aWddpjFUhPPmBpbEnH/2Zev/t22jP7lvoyKHvY98e6LzcIHa+cZOHo7dNKoLrKAhHgXNT0upnDIfRTkJ9zaEN9x/9vQuj74UOWqdMctOp5EJosVi+qThq2eJmpFUYsVgY8WgGiosz6NDhRubQgWZUcKQRCo40iv91SmM6fOheOnIYKC5GIoIv+K/SpV91IYCMTPDTzwQ/q8tVYsy5s1K5u1wR96pr59G2TT/T+/f+zezdfbP6YtZSAJuQ7GdMmKoyr4JNiBfySwzdVOm1Wi9b3JWKii6EHwPv3usOZ+TYelEMORaihn4P3xTEWV026GWLgMIjMF9uDxbyCZk9IhGI3seQ2HreHQD+klA/MACgXV9l0LZt9yMcBjIz/7+98w6Tqrrf+Ps9t07Z2dm+S7ehVKUoGntM1JjYO4oajBgVYzRiCT81ajCWKIoREyxRjC2xJGo0iSWxN0A6CAgruGxj+87M7ef3x5lZxJ1VlIWdXc7nYR/Yfe4M5z6z995zvuf9vu9s9XuH5lyPf1cYk3/+hbdk4dxg3Zq/B5Vr+6G2poK3NJfASj4VOB7A00kORCKtQ1PAFA1QFdEepSjHQ9NsqKpLquZCUT1oqgdNt6HrLgzDZmY4Rfn5KcQLUzvCU8Ocdv0nqV9dNMd7/+1jQQTv9Vcme/M/ukEdl041saynNh/cuSBCeqYtigOu00ly7zw1t9y59/cXBes+ux5tbSKiORKBOmbfierE857VDu7+vuytwbz82mWJM38yjW/4/A6+qf4n3j+eudD96P3btf0O6LFJo/vCswfyjRsuhK6Dlfefoxx8+CLg5m/1HuqwkTx149Wv+w0NN6K+FsH8D4/1PnpvydfuDNq2joADCkBG6Lwt31DlHS0zvgd4W68Qsf44a6j35z/+CqYBblmv6sefMks96OvVKt0BG7dfHRsz/rzgo/cfQSR8tPfsk+cDuHt7/7/fhPvGvycE69ZcQnn5oGjeTPWon3yCq3/zrd9HPe7kBd6H797E66qvx/rK872Xnv8fgL90+QLHeQ4gYRRpfMWDQNUCqCrgWMDXRHZ2vNVLf485c+75FV/32fXcsoB+A+5VTz7jwZ5qd9TPu/BFp73tPH/h/Efge4d6b71xaLBxw03W3bf+Xdlz+BoUFFgUCvtgjMP1GLdSCpIJFcmEwZubokFjYwFvbirmLc1l9h/ufALNTeDtbUAyCZ5MAlYS3E8nyINAjADdBMXioOIisEGDT2V7j//A+OnPv9gWE9VvQjviKMt++P7ngk+X34OAI1i25FgAT8NKaR3qH1UFzPAWBRHSjIAUcVvmX7p+/U/m9UNr86U8lYQydNg0Zfz+O6RlsbtRR+7NAeT0hsq3ge01fCnefBVwHPhrV7/i/OefcOc+iI6Ut1Co8/1T1VwQAzwH4JwBgPvWG7ta111ZTI4NqugHtuewHjNP3VrMS69a4bz43DX+W6+/FKxYdmhQW301aqrAq9bDA64Bz2wipR9BmYIIMqpbgHdUxb4yHf1OVuASiaQnUO1Zt/8bvrcPTyZUpFLCjNK2wFMpcMsSk1ESkxowBmKqkOqbYSC/UCxMwmGwvLypFC/cSBX917M9h3+mn3haM2Z1WyJr9sGPGsOtmb9721+5Aki0I1j96Z5+5VrmvfaKLiYSHND1YztV6k3TAUt3UribN66CpQsPA2Pgvg9ln33fUEflVj/rzggbulc9xePTeF3NHWioh9/aInYVASAcPj/riwxTGMt5XsfOBa/+ogjNjUA8Duo3YIm67/69ajKT/l1sSX+tAAB/wcd/467DeBCIthlREOHQVE6qxqGqOV0Y006b9C9vycLZxNjFweoV0/0lC+cAWA8AsO1fgNEsBByUbTKmG+cBeAQIAOcrhm4vPFNg33nLn6m15WhSFaCoCKz/oCuU8RNeVY/88TJl5NdHjW5v1DPOedC9/55BZNmXBksXz3DnPlDjrVj65+1tVJwN56m55c59d90EXQcsC+oJp9+nHfL971Q8UI867kN/6ZJr0NR4a7B2zY3ey/94B8AbXR3PHVsHT08qDWNLSbaioENyz3mX8dmdzufxh/u7jz10Exz7QK4oUMaMf9zo5oSGrlCHjeTOc0+94Cxe8Aop2o/8RQtm2nNmvWxM6bkkEufxh/s7j/zpV2AKwAjKEUc98l1VX+qIUdx64A9/9p6eW45kcoo/7/3HrOlXNJsz7nrpq8d6yxaTc//dwm9SUQDT6JxComqAlQL3vBkAbsn2f3pLFpH3+sv7OPfd+Ss01J3FHQdUXPKwesKp9xg9mAimjh7DvUWfzHXmzmkIFs47kTc3TQ6WLLw++HTF9V5RCaioCIhExbzJdYUfU3sbeCoJ2DZ4Min+HXARayrUBWI3PhQGCgpBpglEosJjIhZrQrywnpX3q6YhQ+r0I3+SzHQIb2/Y6LHVbJfdpvO1a2aA0Vnu80+fxZsaNie9afokZcSoLe9dhrk5fcXzwNMtM8HK5WPgiNoY222PBdoOKFRKvhk2cMgmKi4DGjeBNzUiWLJIbH4CgBkCQuEsz2DdhqKAWz7g+wwAgnVrdodtnxTYDtTBu05kJaVf7zOUI+jHntQG4BXnxWffCZYu/hv/4vOhvKmxPGhvvwuOA+KBiJDOtByDxB9GABh4pmDCMmslRVzPGT+/T//Zo+cnkUi+GdVf8FF6MSUiVqEyQNVA0TxQQaHYYdZ1MJE2MhWhSCNisWZWULCJCooaKT/ehnhBgpWVW+q4HR8jqYzaZ63/7v9uCFYsvRGNjVf6H757JU+mkL5bgcxQJ9d1Mk0Xiugo4Z4Hf/lSUoaP5HxD5SHEGBAKQxm6Z7d4nki2DXX/g7zk1MkbwFaJAl0qJfxBAg4WCmU3+tTNFAhp7wyxcxHUVFdwxwYpKtjgIct25DlsLxTR8tGjju3bgjrhe17yqqkvBR+9dzG3LPiLFxyITEHEtUNEDBx+VwURS7j6c3Bns6Gbt2gBs2/7zS/R3HQ08uOggoIZygEHP68ecfRCdd8DfODXO+r0usQ4/rTm1B03P+j/64UIGpsmBx+9/5Dj36548z74cydz2e2I89zThc5jD/wfb2s9HJEI2O5Dr1F/cuISXHXdd3o/bf8DvdStv3nNq60Gb22G//H75zhPz12un35OTdYXuK5omRG7kF8xzlU4FHVzQXMrjHPtuQ8OdJ945GZeXXU6j8ZA5f2m65MvfhwPPPGdzue7oJ90RlPqiotm+++++SMoCtxnn77J+effp+g/PmGr+9C7C/eVF/KcR/50Ka+tOYHy8sEG73KZOe26xdvynuYFUytTV136nP/u/6bwZBLeG/95MfXLCybp50x5Uhm77+bnv2Mz0dqRXiCY5hYLI9I0H6oK7gcg3+94Bm8x/ldfjth33fLzYOHHvyempNM3SudoJ59xu3HRL7s9Pvnbou49hgN4ybr3jtX+e2+t4LU1dyCZAK+rAa/+YvMCipEw32Qk5lOqBopGwQoLwRUNCIVA4fA0ikQbEcvfxIpLqqmopIEKC1tQVJJgZRW22oMeX9r4Cb51/bS33ZXLQGYI/pJPhLF1EIiWS9Ps/Bw2DBGbzXm6ddVRASDYUDkejgMKh8EGDq7c0eciyQ6Vldusot8Uv7Z6DnkO/EXzwVMJsfY3TVAo1GluT6ZhCQ8Rv8NDJFj32a5gQhbBBgxaq/RAkX9b0I89uQ3AfADz3Xf+q/OGTQ8jkTDgugr3XBVBoKR7kAHGfFIUoQJjSgAl/aWqAVTNg6YFUNWANC3A07IgIpHkOqqy29BM7yOgqtNIN1KI5jVSQVE1xeONFIu3UkFBG5WUtVNZuaMOH5VTNzjtBz9KJa+65GO+bDG4nYK/cIFw84Yw+4Jhdkq2IdMUUr+03o0nE8xfMA+pX0wuBwCK5YMGDNqm+DpJ90HlFZXQ9Q4Dt0zPKoXCWRcZZBiJQPjDAJzD+2Se4jz+54Fg6WLfgMGy2JUjqAcd9p6zcD6gauCfrT7UfffNZ7UDD3XguJEOn5OvLKYAAIaeElpVDrh2R8uMv3B+/2DZ0uspXgAw5WFt4uSZ+ulnNwA37tDz+iZC065bnPq/Xz3m/e+1GDn2KcG8D+fYG6vGWQ/Nvl094OB12/M+6777lu6/898xzp9mXc7ra06naB4QzZupT/rZbHX4tk1gtaOP+4SvWXWeP+/DR3hDw7nuE49Y9r9fvNI46tjO91PLCvMgAAEgw9wyWpnE4jEz94TjdNlW4S1bQt7fnz7Yeei+36C97XAKR0GlZTdpZ0+erR5w0A5vqdDOPPeVYNWK29DWejWvqTrdffLR5e6br9+mHXrEdm9Fy2D/5eH+zh/vvi6o+uJCMkOgopIZ6skTH8Vjz2/ze2vnXvAfnkyc4c/78CnwAP7b/33M2vD5vt77b1+pHnCwuFZtm8GyO7yKKBzZUgGkqkJBAGGay70tL3Hn+aeK7NtufBDVG08QGzMMVFx6g37q2ffpZ0zqUc+dr2JeOu1Tb+G81f5/X33FW750PDU39ofjzICfrlczJgohmn4NDKOdItFGKiquZUXFdRQvaKaS0haU90tq++aupxXtOnQN0klQ/soVoLwY4NggQweFQp1bGg1DtERlImdtSwMA3tI0BJ4rNtwq+uXU57gzo+4zLkjdeNVKPv9DkOuBr69EpqBFhgl81TQXEGmNmVhdx9H9lcvD9sxb+oNIRDEPGNir51npuGOpYJJIdhJU/fJrDyBVIQpHfWUHmwx2F2zIbmsoEgUcB8Hq5aBYDBl3bMpSEIER8sA2y7F5e6vHU0nwlCVeU97/InXsfjk7OdnZYP0HVlE4ArS3AWoUHU2Z0Vhz1hcYug0CeBAAnlvH66rBGzaBEwMzDLDBu+Z8X+vOgn7cKS2Js46/grU038Vrqy8MPls9w1u++Av75ukKCCBVB3Sj8+6UZiQBgPMA3HHMzM/9JZ98D74LcICNG/+8KIbkJqHf3vk/6/qrfPe1lxVi7EReX3Oh96dZF3rP//Wh5K8uepXtvudCVlq+CZGITabpdfTs+xzwPMY9R4Hninhl19W462hwXQWOo3PX1eFYIdi2wS0rwhPtcd7UVMGbGna3rr3sEkomAF0XxsTRvJnaKRNnakI2vE2o+4wN3GeefCGo2jCTb6q/HJs2Xeje8dsya86sq82vtI5w2wplosDJ/IraizFASy+YQV0WRKw/3DnMuvayy7Cx6kIyDHBNB8rKZuhnnjtLP/G05m09n++Cuu/+vv3Yg/e4j84poGjelGDZ4hvdP81S3Nf/dZt2xNHdnnTjffKxEtTXmbxqQ0mwZtVI/9MVh7r33nklFFEA5nmx2dqPfvyofsKp3WJeqY4Yzf2VS//qPnh/q/v+WxeQEj6RV1X9wp49sxbp1hfu2Iw7oiBCTAFCkS0LU6ouWmZ4OvHKcxnSngzu+29rzr13/ILXbDyBSkoBVZutjp/wvHbWT19XcrSNNd2GtAzAMn/lMuJ1tb/niYQKHhA0LaBI1EO80NvWgmNPQUN2aUQ0CgDgdTVASxO4bQG6ARidVbjqqH14YsrZADg4MQSWZXjvva3ZN/86H44HVBSBCos7z80kPQbrN2gDWFrVw5goZgYByDBBptl5baAZNpjoZOSOdT9varift7UJ2wxFAZWU7XBVnEQikXxXVO2wH+SsA/TWwgYOqaFYAWCnwJuawFtahIpA1QDT6Jyfbpo+ZW7kARfHNzWAuzagMigV/dbt8JOQdAmVVTQhLx+8qSmToSJ2HfPjzVmP1w07EzkctLeDPBdItIFEj/YNrP/AzhFykh6DDd5liV+1QfQur1u9nuKF6ZoXA4zscl3oup1pmYEnTBnd+R8q9m03juGKClIVqAcc+i5w/449mW+JedPtb1v331PlPfN4PW9tnkJmCGhuOt9//+3z/XffFP3Hmi6UURkyvhrpaGWeiVnukFNg898AwEmk9ZCQ7hMRuKYBtg02ZLfp2pnn/FE/ZWJjd52TdsqZTfbD99/lPjh7CHz/RDjOCe4D9/WzZ888x7j48g4/D25bEQrS68NQaMto5WEjeeL8M9MHAtzb0jjXW7GUnJm/m+rOfeBMMowDYBpAKgk2bNRl2k9/Pkc/4qgevcaNST+rtm77zRzvlRdMmOY5QeVn19t3/Ha31Izr/qj+8EcfaFsZQ+l+9J7Km5sMNDdFeFNjnDc1FvOmxjLe1FTB25r7cSsVt6ZfcQmSCdFSSEzc53QNSCZAhUWztTPP+Z0x+aIvuvP8lL1GcgCvWHf9br37zOMnkq4j+HTFDPvROX8xzp2ynvyAYFvi91BVQKHwFudLqspJUURSlO8B7uYUIe+9t0YHa9dcT5EoKBL9vXb6pLv0c35WjVvv6c5T2G6kfZv61O6yUlrmsOKy6bxm4wwwJpIEPQ+kaqBwKOu1RooyEaAnQASkUlXBxg0IrCS450ItKwflx3uFv8TOAus/sJ7F8oXiQ/vS7TYcOUnde1yngghpmkfEwBkDUikENRtF2AIREAqD4vE+8/svkUj6PlsVu5vrUElZisorwFetFAZQmRgwhYFMo7NM2TACUQEXkWG8cRN4fa2YSHKAlZdX9cBpSLqA9R+YYsVF5/mVax7J/IwYA8ULmrO+wDBT4AFIUYHWFvBWLgzCdB3Ii9WpXzWAk/QobM8Ry/z58wCvDnxjFYLoSuFczwhk6FnluqTrjkiZCQDPE7O3hk0mqquuZqYJyo/fpAzdq3lHn8t3wbzosrXexx9c7L70/Fz/4/dP4I2broQl1hhcYYDjILMT10GmKIJ0vHjm+0wCE+fgoC/5F4i2SK4ACEXmsAGD56kTvveGcsgRa7fH9WBMvugL58lHL3TmPlCJ5ubLSTf2c597eob3xn8mqd8/MgUA3LINMMooRLJGK4vdSgDOVwoiTz12uP/x+7MoFgdPtIMKimarJ51+v3nF9KX4y7a3hXQH5tW/mW/dcfOd7j+eCfNk+ymkamf5r718VvDem48mzzl5FRUWrUcsvx6qZsP3GVKpfJ5oL0AqUcAdJwLbynNunn4ltyzAc4QnBQDwQMRqZzwqOAcCT5h3+hxc14BY7GFl/yOf0U48/TXte4dst4WnecW1y5JXTT3Gf/3fL5Ouw3/rjZMA3M3BiduiQANF6VzUVBiHoooNicAH9zab5vLVn45FWxt4SQmU8RNe0M/5WfX2Gr9k61CGj+KpX/58qbfhc3FPzihsFQJCWWLRAUDTXDAGCnxhKGun0gVsF1RQ9EN19Bj5HM4hqKzcovw4eEO9KIik/W9YLC97UqSmO5yJgie3bQQ11UBC+I6wgkKwaL4seEkkkl5DnyiIaPsf6CWvmnqMv2TRyyyzM8o5iBSQGcniIRIKxG4pCffoxgYEdTVCnq9poNKy+h19DpKuUfceG6SuvawKX1oQgAhUXJJd4p8xaNRU8NYW8GQCvL0dZBig4kLZLpNjsL2G11N+7BpeZ9zKazYiyERPMgXQjexyXV2kVhA4eOAJw75Nm/J4SwsoFgMrKv48V+X12UinHr3rrVj6XrBq5W+DtWsGBLUbB/CW5kIkEk/AdTcXO4gJxYimZf6eSKpuQdctUlVXRCxrHum6A123YRg2zJDF8vITVFSUopIySx09huORv27Xc9LPPLfe/e+r1zp33eLwluareW31ye57b84C8BYAwEnFOpQsZqhT4Zp04yQAz4EDcOyO7HTnlRfynN//9lLSDcBzoRxyxLHa6ZP+pU3YOtXFjsScdt1i52+PX+g+/dgn/splM4gIMNrP5U2Nokc/I03nAA98UJAu8qWVE9z3RbS976XvewykqsJgVFXE5x/JAysqvAZl/VZRxYBKZZdd17Ohw5rUMeMD3HHfdj9H7Yij3/Tf+R+gavBXfXqc98m8e4PqKlWokQAoyjUIR7a8FhWNi0VXALh+R4qQ88Kz+c7D98/hgQdWWHyDOuHABdv9BCRbBQ0e/BneC4SNN4MobqgaKBLN6rdGmmaRqgEBR9DaBPJ88fvACFRQkH2RLekx1HET/OTF504MaqqfIBPiPkQMyMvP3mqna6KNkxi4ZYHXVovY6CAAKyiaouwtC14SiaT30CcKIgDABgyqJJWlb+JiggmFAZFoJzmnMnJvnjjjWICRmHA2bgKvrU0vLnRQcdk299JLuhcqragmTQc8HwABmjqHlZZl7UEm03BBBFI18Poa8EQC3LFAmgGKF2VPvJD0GNqEA73EJT+tROU68LY28ERCqLwIIF2/Rh3ZubBBpmmJFhHxvbdiKXn/fqkCnicWi+UVlTv4NLqFdPRuJl45k4b0pL9yOXV45xBB2XN4r5hsaof/0LZmz3zAfXru1VAU+J/MO9lfNP8dZe9xARwnBBJFATLNLEo+M9mhgLGscObHwaIFo4LqqhNYcRmoX/9p+gWX/LMnIou3Fv3Usxq9T+bd6n/wztP+vA8ODT5f+xDa2sCtlLif8fQKU2HgqiKi7VUFiOSD5eWD8vOB/PxTKS+/EbH8JhbLb0Us1k758STLy7cRjfoUjgQ9leigHfWTZPLs46/wK9fdhUT74cHyxR533c1tXoz56l5b/r6SSGIQz+vABzyPAQCvXDsQLS0iDaykbK12zPHZk8QkOxxl192/8HQDHWbWvg+KRkHRvC4UIroFRZig8+Ym8PZ0aolhggqKctbbaWeG7bL7Mv/9dzb/gAgoLNqU7VgyDQ+qKgq7zc3gmedT4IMKC6WqSyKR9Cr6TkGkX/9aGEbaO0QVk0xNB8JZ8tMBkKZPha7/AVYSQU0NeHOzuLFrGqikTHpM5BhswKBqhMNASyMQjoAKK6rULlz5yYy0k6IATEGw8Yv0ooOL+OiikqwPd0nPogwasoovXQTYNmAY6V1ydI5jzWCGUqJlhIFAbwbVX4DX1oD7HpiugwbtsnaHnsB2RtmrdxRAsmFefPlniRN+eBN3nOv5+spf+GtW3wSgAb6vgQGkqoBpdrpPk2kmwUl0BNm2DgD+iqVk33nLOCHXV6B87+CcLoZkUMeMDwB85i9fvJbX1TwR1NZFgpamPKRSIQQ+A1MC0nUHoVCKwhEbkYjNIlEXoYhP4ZCvjMrt3VY2asxb/rq1IEWBv2gBEI6mE2YYoBudFQS6xqEL9QAAcF8oRIKqDXugrRUUjoINGNjj0bqSzbBd92hFNO9eWNalAMB9FxSLgQoKurhHGzY0FdzzQPX1CFpbAQ5h0llY0i0Gv5LuRRm61+duph3K9wAjBFZcmj3Nzww70ET7FG9vBU+2Cb8gl0AlZbIgIpFIehV9pyBS1q+dwnmAawNQxc08Pw4WjmTvYzSMdugG0N4O7riAlRLy5WjeTWovTdvpy+inTmxM/vLC4/2Xn/8HRaJQDjrsOTz3n+wHRyJ2h1t6W6uQfXIOhEygrFzuTOUgbNc9Pqe8PJFgEA6LgggARKLZzT4N0wZBXLOOA1RvBG9qFJ+zZoANGlK340Yv+SbY0D0/8JsbwVtrEaxZtcl9/V9wn3kivWhWgVCoc+Fa1zt+xh07BADBxiozqNowi3QDiERvU8bu16sWzcrw0RyAlf7qM/ciZeQ+n7ov/wOAiWD1p0AoAlgWoJtgkWjnxa+q8o6NCwCwHQUAeGPDgCCVBCuvAPUb0K1GsJJtQxm1D0+ef8ZCf/VKYfbsuqC8/ClUUp59A0k3LWga4DoI6mrFfRqBSLcqKur2tCXJtsP2HNFKg3e5ga9ZdSNPJqCM338aGzQkq2KawhGHaZqIhvI9wPE7TJRZWYUsiEgkkl4F++ZDegmFRS6VlAqHbEA4oMfzgXAke3yuYVpQVXDHBpIJYUhHBFZc0qd2lvsS+hnnvKydNfkg9ZSJI80rfr20q+MoErGhKJnvxJcwbgSr6Je131nSs7Bdd29BUclF3NvSBoLyC7O2OJFhOkinyfD2dgTVG4H2NpCmgUKh6ay8n1R55RDK6LELYBgA5wg2VCJYuVyYKzImVHlfSSEBIMyRwUVCjusaABA01OehqQGkG6B4fKN20GEyySAHYLvtkWCx+G1QNdEeUVsNnkwiXbhq7vQCVeOk6uhoA3Ns3XnrDYMn2osR+EAsH6ysvPPrJD0KG7vf23Ac8PY2IGmBSivWpdVPnSDDSJGiiMWylUJHxHY0TybM5CjKXsO5ftqk+9iwEdew4aNmqMedNLfLDcJI1IWmb043U9KbUMTAyiukAkgikfQq+oxCRB0xmienXXJM8NmnLxNFwT0PLF44EZFIFw9rM0FIt+UzJh7aAKikVCbM5Cjq/gd6AN79puMoEnWgMMCDeFAThMmuGZqqHSgXULmIOm4/P3XNZWuCpYs6UqI4ASguzq70MEyPFLHDzBNt4Bt98LZW0Z8ei9Ur+3SOCZT0HMqIUfWI5t1AmnYj6mrhMybaFFVNmMNGotni0e3MehnczyQJFfBUEhSNgYpLNuzAU5B8DcpeI3jywklLeVvLZjNG38t8tp0k9+qI0Tx1xc/FcQDgWHVYvw48lQQCDlZYCCqvkCqCHEM97Adr/A/emRqsWvEHGjR4Ntt3wvyujiXTtDen0aQXy54PKi4BhcM53QK2M6OfManB/fiD34M4tPHZ25IBAOGoD/1LRc0Mmg6UlMoNCYlE0qvoOwoRAMrg3dbA94VKxHVApRWV6vAuIiVNIynMVzPJJRycc1BxiTTd7O2EIx6Ysvn7zA5GXl729gtJTkD9B27o8AECB0BgZeVZE5/ISBu6MRVoawWvqQZvbxPKgfy4TBLKMZQx+waspGw1whFhYr12NXhTkyiIiKSKzhNvw7AzITQIAO+T+YzX11XAsgAzBBowqFe1y/R1aNCQTzmRUAIwBpG/yUCRaFdpYD/MPIN5IgFeUwPYDgAOyi84Xv26xZikR1BHjOb6hZfN0Y4/ZT/957+4zjj5zK7TYgzT6vg9AMTn7LtAUcnxyl4jZEEkh9H23d//2mIIAHXvMRyadt7morX4B+XHb1LH7y+vXYlE0qvoMwoRAGAjR69HLD6XW6lzYBj/ZXsM7XrCbBibdy8A8cxWVVBxaZ/p695ZoUjE3+Kz9X2QroMVyMjdXIYNGlJDBUXApjrANAFFBVUMbM56sGmIz1hVETTUA+CiR13XgPx8GemYg1BF/0pasVSkqwR+uuZFIE27SR3d2TSUdMPJFMbg+S/yhjrwlmZh0mjoYOX95PWcQ7Bd9qgkzQB3E6LOEQQgxkDRvOxtippuExN7MryxEbylERSk26jyYvIazlG0gw51AXz8jQcahtehFMoQ+KCiYnnd9hFI062OeVY6LpyKij/v2VFJJBLJt6dPKUS0w35ga2f/9Aa2627TtBNPv9aY+NMujRXJMKwtFs3gYLrRpaO2pPeg7j0ugKLNyESywvOEcWO8UCbM5DCs/8B2VlJyEU+0i4lVLDZD/+HR2aOVDdOHqgnlj22LJCHfBzQDVFAiDVVzENZ/wBdkhsTn9GUFl6Zlb40wTRccIMbAXRdBdRV4oi2dBmaAikpkPHoOwXbfo5EM4zbKGKUGaQPNWH7WgghpuiPMr4GgoR5BYyO46wGhMCheINV8vRwyQnZHYhiQVmoqYIXF8jncV/hyChznAA9AcRm5K5FIeh99qiACAOYFl1ZGnnjx9+b/zfjw6w8MWWDUUdVOR3yCZO9jn4DCkWYg3RIV+MK4MT8ui105jDp+gs8OOvyfXNXe5I79ivr9Ix/v8uBQ2CctLXBL91XwwAcME6y0TC6mchA2aNdNPBwG94SBtShGc1AkeysbmabwFSGRJBRUbQBvbQFpOlgkehkrKbV35PglX4+23wE+8gs2bPFcNUOg4i4KV4bhIKMQqasFr6sTra7hCCheKBUivRwKhx0yQ2k1WLqdQjdBRSXys+0rhCOtUNSO650TgUrkhoREIul99KmWmW8DRaMJ0gzwZLr+QQTo+nR1X9m33CeI5dWjhoCAg3u+cLYvLZcTsRzH/NklG9y3/3skXJdp3z+yy+IkhSMcmjYD4NM7PGI8D2QaoNISmSSUg7CBgyzKj1/E16+7HxzpRRKB4tk9X8gIOdA0AATYKfCqDeCtrcJ3JBJpUcdPkPfqHINKyz7n69eKRXAQgELhy6j/wKzXMZlpjwkeCP8Q3xVpb3l5oIICaaja2wmHPYRC4AEXYk3OhWKotCzR00OTdA+UF2shTUv7fgFM00Dl/Tf28LAkEonkW9PnFCJbC8XibdzQwRGkXfEJiMWloWofgeKF6V2KAPBcID9/KvUbIBfKvQDt4MOdryuGACIeEIqWREdfFISZYzh8GZWUSeVADqIMG8GppPRzKMoWSUJUWJTVOBe6EcDQAVUFb6gHr6oCUilA10B5UVnczEGUvUYs5QD4pk2A44AKCjeqI0ZnN9AMhVMdbat2CggCcN8XCpFonryGezkUjbkUiYp2RkCocE1zJhWXyKS3PgLF4y3QtbRPDAcUFWzgYHlvlkgkvY6dtiCCwqIkGaaYmPs+wBhYefn6nh6WpHugktIa8CDtLeGBFRZt1PaVzud9ilCoHeDptqiOoma9OnqsjNzNUai8ogqaISbQ6ZYZFJd2Ea1s+NAMQGHCTLW1RRjnGiZQKI0ZcxFjytRKZex+J4EIbMiuM9Qf/OjVLg8OhTb7DxCJLz8AYnFQXqxTDLOkd0Gx/ADR6BnwXYj7tA8qKqlUR+4tE2b6CBQvaoFuCB8vzgHTnPFNmxkSiUSSi+y0BRFWWm4hFJoqeh8DQFHAKvpv6OlxSboHZZ9xK6Hrc4LaarFrscewxT09Jkn3QtHoZu+JIBCfczyeXW0gyQlYxcBqikQA1wYIIKaAVfTPbrJoGAE0HUDGk8IHPBfMDIFKSuXnnKPoky/6u37l9H76JZffoh9/SkuXB5ohF4wA8A4fIAQBqKDwJMTisnjdy1H2Gs4pXlArCtYc3PPABgxa3tPjknQfyl7Dm1jFgClBbQ24ZUEZNvLtnh6TRCKRfBd2Wg8RdfQYnvzFz2q5YwO+Byrvdy8bOkwWRPoI+pE/Tlm333yf9/5bNcqwEW+rh/1gbU+PSdK9UCxeL1pmhEKEFBVUUChjs3MYZc9hjV5ZxVS/cu0fKBYDq+h/G9t9aFazYzLMgHQdPNEOMCa+PA8ImaCikuYdPHTJVpKOUP7GpAnhEaMDAe/YmuG+B4oXbFKHjZAqgj4AG7RLJRQVvGETYJpgI0cv6ekxSboPZe+xgfPXx5/lthVlZRWfqSef+RpundXTw5JIJJJvzU5bEAEAZex+7/nLl8yh5sYp6vBRr2lH/UQaufUhzKuuW+wtWrBU3XtsgFvu7unhSLoZKizaxMFBHGKhbIaA4jLZSpHDqOP28+377vpPsGbV8xQKNSkTDnq+Kwm9Omofnjjtx9eAB7eCMwAE7ntAOAxWXCKNGXs5ZJo+hUKA/RVLiXwZudtXUMbtt0EZP+H8YNWKh9iwUZOMSefL+3MfQz/trEYAMwEAd/+pZwcjkUgk35GduiBinDdlo/OXh68PNn7xR+3oHy/CXX/s6SFJuhl1b+kn0Veh4nS8H+fgrgsqqwArL+9aoi/JCYxLrljt/PUvFyCV0vVzL/h6JUHIbM9EdiL9F8uLn0dF0pixt0PhsEfhKHiqDoAO+D7IMMAKCuQ13EdQx+7nA3jYeeHZv+nHnZw9flkikUgkkh5mpy6IAIB+9uRaALW46vqeHopEIvkWsH4DG0nTAcsCLAusqPg81n+wVHn1AvTTzt661iYznF4cc+H1RATKjzeoo/aRLRW9nVDYRzgC1KXtQnwfFA6DCovkwrmPIYshEolEIslldlpTVYlE0rvRjjkuQfGC6bytBXBssF33WKqOlgvlvgTFC+o5SKhDOAdAQCwufWL6AGQYnKJ54JlYVk+0Q1FBUerrXymRSCQSiUTSfciCiEQi6bXoP7v4HuXAQyaqp086RD3u5AU9PR5J98KKiupAAMCF+bVpgJWUZI/plfQqlBGjOcXjxyIQXY3c90HxIlA0z+vhoUkkEolEItmJ2OlbZiQSSe9FO/q4BIAnAQA33t6zg5F0O1RWUSvUIQAcB5QfBysrl6abfQQqLasC5yJByHFA/Qceo47dV/o+SSQSiUQi2WFIhYhEIpFIchI2eJcGcP4MwMHb24CCwmnoN1D6EfQR2J4j1nLPfZfX1YC3t0EZOXpRT49JIpFIJBKJRCKRSCSSnCA5+YzJbSMH8bY9y7l1x82je3o8ku4l9dvpE9pPPebq5DWX/aCnxyKRSCQSiWTng3p6ABKJRCKRdIX37v9099//nECRaLt23CkLlWEjpHFuH8N97y1N+94hbk+PQyKRSCQSyc7H/wNXAxyQLRlAuQAAAABJRU5ErkJggg==;clipPath=inset(4.05% 20.67% 0% 0%);" parent="1" vertex="1">
          <mxGeometry x="94.14" y="523.19" width="230" height="34.31" as="geometry" />
        </mxCell>
        <mxCell id="Z4fjTaCAJ1MgGn6guNNH-6" value="" style="shape=image;verticalLabelPosition=bottom;labelBackgroundColor=default;verticalAlign=top;aspect=fixed;imageAspect=0;image=data:image/png,iVBORw0KGgoAAAANSUhEUgAAA2AAAAByCAYAAAA1ZLKpAAAACXBIWXMAAAsTAAALEwEAmpwYAABOcklEQVR4nO3deXwTdfoH8GeSyTW50zRN0/SglLZAucshICAgAgIiouJ9u96uu8u67q7689pd1/t2vXVdBTlERETkstyFQmlL7/vMfWcymSST3x8tu67rgVg6Tfq8X6++rG0y8ynScZ75fr/PlwCEEEI/qHFzx9ieI45iVbaifdzNI3bwnQchhBAarOLxON8REgLBdwCEEBqsDv61clXZszW/DQcixUIhUZU5O63k3L9OeMAwVufjOxtCCCE02GABdnqEfAdACKHBqG5D28R9fy5/HITE5JQRShCQAoPjpGeyrdKdtqHlw81850MIIYQGEyy+Tp+A7wAIITQYnXi97vYoHZ2SPdf4lzlPT8ou/s2oCxVmapvlsHPa1uv3P8J3PoQQQgglpiEzBfH4K7WLm7/sWgQEQNZs4zeTfzd6Pd+ZEEKDU/3Gtolf3XLwTSpNZrlow+xL9CM1DADA8dfrFh58tOLBKBOTzvrLhD+Nv61gG99ZEUIIocEAR8BO35AYATvy3MnlBx6teLjly+67mr/ouuvw30+u/urWg3/kOxdCaHBq2NRxUZThJuYtNX9+qvgCAJhwW8G2gstz1nIRTlz+av3tzhqPlM+cCCGEEEo8SV+AdR2wmY6/Uncnx3Li3MUZL+evzP47cCCo39B+ye7fHrmL73wIocHF3egne444pshSJCX5K7I2fvf7856b/GLqOG25tzWwrOyF2l/zEBEhhHjhafYJDj9VtXLf/5Vf3/p1dx7feRBKVElfgFW+23R90Bqeb5ph2Lfi87l3X/TJ7PvH3Dz8bUIAXM2/Wq+qeKdhLt8ZEUKDR9c+68xgd2hh6jhtRfrUVNv3vWbSvSNfECnIA01bui5s+rKrcKAzIoTQQHOcdFPbbzv8Wtnztesq3mh4d9e9R18ofapqJd+5EEpESV2A2Srcqs49lvOkGtG+ifcUvnTq67P/Nun1ERdlfhYNRaljL9beba90KfjMiRAaPLoPO6Zw0ThkTE/d/0OvKbw05+iwhelfMZ7wzBOv198+kPkQQogPBx+vfNB6zH0rQQAIJQIIWkOLy16svffoS7VL+M6GUKJJ6gKs5cuuhQEbM980LfXQsAWm+m9/74K3pj+uH6ut8LUFlx95pno1XxkRQoOLo8ozRqIUHUqbmHLsx1437taCN5SZ1Lbug/ZpFW81zB+ofAghNNBq1zRP69htnSNWiXbNeHTcvGXrZqdmzkl7NkrHqOMv1t6LMwEQ+nmSugDr+MY6WyAkIPfCjC++7/vFvxn5jFhJlrR+bZlf/VHL9IHOhxAaXDr3Ws2+9kCWIkvePuyC/35o812maamWgpXZ67honKx8u/GmgcqIEEIDrXZd+6VsMDKt4JLMDWNvHLErvVjvWL5hzm/Tp6SUMm52fumTVffznRGhRJK0BVhXqd3grPGOUmbIt6RP0Zd+32vyL84uH7408/NoMDr9xD/qfjXQGRFCg4uz1lsY9kRmpRSqa0/n9ec+NuEd7Qhlo6vWW7jv4fLrz3I8hBAacJ0llizLUWexIkO+rXBVzppvf2/m4xP+pMiQbXZUesbu+UPZbXxlRCjRJG0BZi93jQ85w3NSx2gq9KM09A+9buJdBS+rhyk22crd4w8+UXHlQGZECA0ujipPEReNQ8po9cnTfc/YG4a/S5BEtO6Ttst7yhy6s5kPIYQGWvsey5yQMzzLPCN1v3GS3vXt7xknpbjG35b/GkES0bp1bZe27ezJ5SsnQokkaQswa5l7YjwaB+Nk3ZEfe13KSA1TdOPwtwlSED35Ycs11uNOzQBFRAgNMs5a70iSEh41jNVUnO57xt1WsM04NfWQrz24sOIfDfgEGCGUVDr322cIRILy7PPTd3zf9yfcXrAtc3baHtrKzD3+St2dA50PoUSUtAWYs9ozWqwUlqaO15X/1Gsn3T1yS/qUlNJgF73w+Ct1uDcYQkOQp9kv8HfQZipVYstdZD6tKYinjL81/02JWnSgeWvXopavuvPPVkaEEBpI1nKXxlXny1eaqc6Rq4Yd+qHXFd9b+II8Tbqrc69tVtX7TbMGMiNCiSgpCzBLmVPnbw9mKczyzuzz0ltP5z0T7ix4RawW7Wve2r2o8fOOorMcESE0yLgb/Xm0nVmsylR0/tz35i0zV+QsSN8R9kZmHn8VnwAjhJKDpdQ+hXGE56QWaap+7HUZM9K68y/J3hBjY8W4ph6hn5aUBZiz2jOK8bCztHmqxtN9T96SzKqcBaavwl52+vGX6+4+m/kQQoOPs8ZbGA3FQJOnaDiT90+4o/AVuVG6o2u/dXrV+434BBghlPAsR13FcQ7AODnlR5dzAACMu23E65rhyo32Kk/RAVxTj9CPSsoCzFHlKYqxHKQWqSt/zvsm3lXwsjKT2tZT6phS9lINbiyI0BDiafLlQTwOutPsgPhd6VP0tvwVmRuiIa74xD8a8AkwQijhOWs8IyVqERjGp5T/1Gu1uSqu6Prh7xMEATUftVxlq3CrBiAiQgkpKQswV52vgJQKIeUnhsy/K21CimfklcM+jsfigqp3mm5yN/rIs5URITS4eJoDw0QUCdrhyuYzPcbYX+W/oc1XbXJUusdiW3qEUCKzlDl0vg7aLDfKNqmy5a2n855J94zcnD5ZX+prDS4uf70emxIh9AOSsgDztQVyJBrxHl2+6kc3Uv0+Mx4a94F+jKbK0+RfXv4aXjwQGiqCnSGzRCPZocigfvYasFO0uSpuzE15bxOkIFr7cesV3Yfthv7MiBBCA8VV5y8Me9g5muGKRu1wJXe67xt/Z/4rIqXoUMuWzgtbd/Tknc2MCCWqpCvAug7YTAFLyKg0U5360dof3P/rx4y/Pf81oUR4tH5j2yXt3/Rk9XdGhNDg0nXAZqIdjF5ulFgM43S+X3KsSXcVbjFNTz0Q6GEWlL1Qe29/ZUQIoYHkbvDncWwctCPVNT/nffkXZ5fnzDPuCnnYWdiWHqHvl3QFmLsxkBehY9NUOYrWMz3G6KuH78s8L21XyBaegzdQCCW/QBdtYgORmcoM+RmPfn3bpHsKX5BoRSXtO3vmV/2zaWZ/HBMhhAaSu9E3QkASkPIzGpqdMv6O/FfkadIdXftsM7EpEUL/K+kKMG+LLycejYMmV9H0S44z8c7CVyiTbEfXPvvMshdrlvVXPoTQ4ONrD2bFIxwos+Qd/XG8YRdk1OdfkrkhEopNKX+l7k53A64nRQglFm9LIEesFu1TD1f87HWx5hlp3SNWZG+IhaPFlW813nI28iGUyJKvAGsODheQBGjO4ILxbZmz09pHrhr2cTwWJyvfabzBXuVR9FdGhNDg4msL5sQJAk53ofnpmHhnwaspo9RrXHX+VWUv1d7TX8dFCKGzzVrhUgUtISOVKrWZZ6ad0cyAsTcPf0s7QrXRUe0Ztf+xE1f3d0Y0+BAEwXeEhJF0BZivPZglUpCgzJS3/9JjnfvY+Hf0RZoqfxu9/OgzJ3/TH/kQQoOPv5POIKVCUJrPvAHHd2nz1NEJdxS8JqKEBxo3tV9Ut6FtYn8dGyGEziZ/O53Fetj5qswzvybqRqijo6/PexeERLTmXy1X9WBTIoT+LakKMMdJD0XbQ3qpVrxFniaz9ccxJ/268DlSSZY0f9m1qPK9xjn9cUyE0OASsNBGkZwsUZr7Zw3YKUXXDi/Jmm/cEfFHZ5U9W/Pb/jw2QgidLZ5mX24kFAP1L1zOMenuwi3pU/Slge7QQlxTj9B/JFUBFrSGjGEXu0SeRtn0ozRn1AHxu/Ivzi7Pvzjz0ygdm3b85bo7nbUeaX8cFyE0ONhOuFQhO2OgUqU246QUV38ff+rq0U+pchSb7JXuop33lv66v4+PEEL9zVPvyycIAHXume+LeErxvSNfkGrFJa07euZX4YNshAAg+QowQyQUA7lJ1t2fx514z8gXdaM0a9z1/pWlfz/5+/48NkKIX7QtbAh7IvMpo9RyNo6vL9IGJtxV8BIpFTJ1n7RdXrumddrZOA9CCPUXXzudKZQKQTtC/bM7IH5XzvmmxvyLMz+NhWJTjr9ad7u72ZdU954InYmk+iXwtwVzYiwH6mx5W38eVztcyU3+9cgXxEryQOPmzqUn3qyf35/HRwjxx98ZMMfCHCiMMuvZOsfYm0bsGnZhxhcROjat9Kmq1e4GL3ZFRAgNWoHukEmqFe9QZVG/eD09AMCEuwpf1o1UfeKq9V9W9kIdNiVKYtiI4/QkVQHmaw9mEQT060L6UwpX5RwacXHmpzEmJi17sfZeS5lT19/nQAgNPH8HnRWLcKDsxw6I32faH4r+ps1XrnfW+lYcfKzqwbN5LoQQOlO2Ey4VbWMMslRpvy3n0OapohPuKniFpASH6te3Xdr4eUdRfxwXoUSVZAUYnUnKSFBln/kmzD9m/stTn9aP01b4mgNLDj1eiTdQCCWBQFfIRAgI6O8GHN+lK1Czxb8d9YxYKTrUtKVzyZHnqpefzfMhhNCZ8LUGcyLB6Cy5Udav07KLrs0ryT7ftIN1s9OPPHVydX8eG6FEk1QFWMjOGEQKco86+5e3oP8h0/885jGpTrKv4xvLrP2Pnrj2bJ0HITQwfB3BTLGcPCsj5981atWwQ6OuGvavWIQTl79ad2f7bkvO2T4nQgj9HL72QFaUiYIqk+qXjem/bcrq0U8pcxRbbeXu8bt/d/Su/j4+QokiaQowx0kPFXKGdZRe4kjppyHz75O7yFw79pa8NzkOBJVvN97U8Fn72LN1LoTQ2ReyhQwiBblLNQAFGADAec8Uv2yarj8QtDDz9z9S8fBAnBMhhE6Xr4POAiBAmdX/D7MNY7W+CXflvyIQE2zt2tbL6ze1j+/vcyCUCJKmAAv0hEyMh51P9fOQ+feZ/tC4D7LnGncxTmbWoccrH7Sf9FBn+5wIof5nr3IrQi5WJ0uRulJGapiBOu/0/xv/sDKD2mY77pz45Y37Hxqo8yKE0E/xtQczhRIBqLIUZ2U20cQ7CrdmL8jYHvZGZh75+8nV7kYfNiVKMtiI46clTQHm7wiaOZYDebqsZyDON/2hsY9pRqg2eZoCK/c/XP7IQJwTIdS/gj0hY9gbmUulS/t164qfYj4n1VL8u5HPkDIB3by1e9HBv1ReOZDnRwihHxKyhQwiGQmUQWI7W+eYev/oJzW58k2OKu+VpU+d/N3ZOg9Cg1XSFGC+1kAOF+NAlXn21n99m2G8znPOH8c8IVKSJZ17rbP2rD56x0CcFyHUfwJdtDnGciBPldoH+tzjbs7fMfLK3I/jMY6sfKvhppq1rVMGOgNCCH2bs9YrDdpZg0Qr3kKlSh1n6zxp43S+4t+Mek4kFxxq3tK59PhrdQvP1rkQP3AU7MclTQEW6KFNAgEBqrMwZ/mHFFyac3TszSPeJICA6o9arjr+at3igTo3QuiX83fQZojHQZFBDegI2Clzn538YsYMw76wLzL30BMVf+o6aDfykQMhhAAAaAejD3vYJTKt2NNfLeh/SNG1eSX5K3PWxcKc+PjLtXd3lFiyzub5EBpMkqYA83eGMki5CBQZsgG9kZr+4NgPc5eYP4+FOXHZc9X3NW7uwKYcCCWIoJUxxgFAniEbkAYc32fmE+P/pCtQfeTvpJftfeD4X90NuB4CIcSPkC1siNJRkA/QtOz5L015NnWctiLYwyw++Bhu74OGjqQpwGhryChWkDvkBtlZm7P8Qxa9Pf3xtIm6Y4yHnb/3ofJHukvthoHOgBD6+YKWUBopEYJiAJr3/JDU0Vp6xiPjH5YbZNvsVe7rv7m/7Em+siCEhjZ/N22KhWOgyJB3DdQ5z3lw7GOUQbrNctRZvP1Xh/4wUOdFZx9OQ/xhSVGA2U+6qbAvopKoRb7UsVofHxlm/XXCA6psxXp/S2B5yR+O/9VZ5xHzkQMhdPoCFtooUpBwNtc6nI6c+emNU+8f/aRYQe7p2G2Z+9WvDuJNCEJowAXag1nxOIA8feAeSmXNMbZOuKfgJVImpOs3tl1S+nTVyoE6N0J8SYoCjLYwRtYfnU+lSgd89OsU4yS9a+aj4x6m0mTbLUedN5bcfxyfYiM0iLkafGTYHdGJlaItEo3Yw3eeohvy9oy9Nf9NQiJk6ta1X1rywLFb+c6EEBpaAj2hdAFJgHKAGpqdMvGOwq35K7M2xGMgOPZi3d24x2rywFGw75ccBZiNMURDUZDx/BQ7d7G5euofip6UasQl7bt65m69Aff3QWiwom0hA+uPLJbppY6zvdj8dJ3zxzEfjbwi92OCAKh4q/GWw09WXcZ3JoTQ0EHbQgahWADKAV5PDwAw/8Wpz5rO0R9iXOysAw+feKTniF0/0BkQGihJUYAFrSFjPBYfsD3AfsyYG/N2Tbir4BVSLqIbNnZcsvPe0l/znQkh9L9CjrA+EoiCTC/m9cHNd817rvjFvGXmz7gIRx59vua+spdql/CdCSE0NNCOsF6iFu+Qpw78enoAgJl/mfCAtkC10dXgX77vT+VP8JEBoYGQFAWYvztkgjiAIn3gn9h8n6m/L/pkzI3D3yYI4Ko/bLlmz+/LcI8whAYZ2sYYuEgc5AbZgO8B9lMWvTvj0ezz03ewvojqyFMnV5/4R90CvjMhhJKb/aSHCjlZnTRF4tKNVDN8ZEgbp/PNfHTsg3KjdFf3Ice0L67e9xgfOVD/wmmI/yspCjDaGkojRARQBv7WgH3XrCcmvjX6utz3uVhcUPVe03Ulf8T1HAgNJoHukCnOcaA0U7y1oP8xF62bvTpzjnFPyBWedfhvJx+ofK9xDt+ZEELJK9hDm6J0dI5ML+F1VsDwCzOrJ/+u6CmhTMg0fdG5ZNdvjtzDZx6EzobkKMAsjJGUkkClDZ4CDABg3gtTni+4LHtdlIlJq95tvAGLMIQGj6AlZAQCgEqT8taC/qfMfb743ozpqW+E7OE5hx6rfPDEW/Xz+c6EEEpOgW7aFA3FQJlO8b6cY8Lt+dvG357/GsQBaj5queLAYyeu5jsT+mVwFOy/JUUBFnIyOlIu3CU3Dr4bqYVvnPOXwpVZGyI0R1V90HzNN38ou43vTAghgKAllC6UkSBP42etw+nQjVBFz3um+LfGaSlv0TZmbumTJ+8//nrdQr5zIYSST6CLNnERDhQ8bkz/bTP/b/x7BZflrIsxMWnFGw2/KnuhZhnfmdAvg0XYfyR8AWYrd2nC3ohGphW7Uot0Ab7zfJ+F78x4dMSKzA2RYFRR/UHzNbt+jY05EOIbbWMMIkpYojANjrWjPyR1jDYw74Up96ZN1r0TcobnH/n7ydVH8UYEIdTPAt2MSUASoBjAPcB+ygVvTPtL9vmmHaw/qjj6fPV9Fe80zuU7E0L9IeELsJAzrGO9kfmUYfA+xQYAWPzujEfzL876NMpy4tpP2i/ddsuBP/KdCaGhylXvE4e9EZVEKfKlTUxx8Z3np+hHa+jzX512Z9pE3VthX2Ru2XM19x18ouJKvnMhhJKHv4vOIKVCUGQMrnWxF62bvdo0PfVA2Budc/hvlfef/LBpJt+Z0JnDUbBeCV+ABSwhYzQcAznPe4CdjkXvTH+04PKctXGOEzRt7bzws8tLcLNmhHgQcjD6sJtdIjcOnie9PyWlUM2c/+q0O03TUl+OhKLUidfrb9+z+ih2WEUI9QvaweiFlBDk6dSguy6e91zxfYbx2nfC3siCg49WPFi7tmUK35nQmcMiLAkKsGBXyByPxUGeIeviO8vpWPDK1KdHXTXsXwJCwHXstsxZv2jna/Yqt4LvXAgNJUELY4wEo4Oucc9P0eWr2Eu2zL07c1ZaCRfjBCf/2XzNtpsO/JnvXAihxOZp8gvCDlYv1Yg3S7WiQTcrIKVAzc57afLdKQXqDxh3ZMHeB088Vv1xyzS+c6EzN9SLsIQvwALdtCkei4NikLaS/j7nPTP55fG35f9DJCdpS5njtm03Hny7bWdPLt+5EBoq/J1BczwWBypNauU7y5m4aN3s1cMWm78khAKu8fPOpRuX73rOWeuV8p0LIZSYaDtjCHnCi2UpMpdmuIrjO8/3SR2tpee+MPlebYHqQ9bDLtj3p+NPVOF0RJSgEr4AC1rpNKFECAoTNagX0n/XOX8e++HU1aOfkuok2zyNvsu2337oteoPm/FCgtAA8HcEzRwXB1WWvJ3vLGdq0VvTHx919bB/kjIB0/GN9ddf3njg7fY9lhy+cyGEEk+ghzbGGA4onvcA+ylpE3SeeS8W36sbqf6A9UXm7vvj8Scq3m7AxhwJaiiPgiV8ARboYYwiBblPnj64O5l9n/F3FGyd+ej4h9W5yvUhW3jBnt8fe/Lg4xW41wVCZ1nQyqQRQmLQLTb/ueY8Oen1iXcVviQ3yLY7K91X7rj98GtVHzTN4jsXQiixBHpCJi4SA3m6lPc9wH6KcaLeNfe5yfeljtO+w/ois/Y9dOKxoy9UY2fYBDVUi7CEL8AYZ1gvVpKBjKmpCbWW45TCy3JKz3u2+LdpxSlvRZno9NKnTq7+6uaDf3bWeHA6EUJnCd0TMokVIkikJhw/ZMrqovXTHxn3sDpPtcnfSS/85v5jTx54tOJavnMhhBIHbWGMcS4O8kG+LccpaRN1rvOem3xf+tTUN6J0ZPqhJyr/dOBx3Kw5UQ3FIiyhCzBLmVMX9kVUUp100C0Y/TkyZ6W1z39pyt3Dl5ofFYoFbM3HLY/tuLP0ldbt3fl8Z0MoGQXsjF6sEm1LhO6pp2PUqmGH5j5XfF/69NQ3IsHotCPPVt+35Zp9j9lOuFR8Z0MIDX5BS8hICAWgSE+c5RyGsVrf3Bcm35s1N/3ZGMNJy56tuW/nvbjPKkoMCV2ABS0hY9jHzlIkwVPslJFq5sL3Zz48/vaC16R6cUnXQfuNO+898sKR56qX850NoWRiK3dpWG9EI9WIPLpCNcN3nv6SNcfYOu/FyXcXXJr9oEBIcI2ftv95x12lr9RtaJ3IdzaE0OAW7AmlkxIBUIbE6gybUqhmlm+Y89sRl2Rt4Li44OQHzddtuXrvY846r5jvbOjnIQhiSI2EJXYB1hMyxdk4UGmShOxk9n1mPjr+nVl/mfiAfrR6vaclsPDIUydXb73hwEO2cpeG72wIJYNAT8jI+qNzKIMkoW40TkdKgZpd9Pb0x4t/N/IpyiDdZTnqvHrvH8v/uu//yq/nOxtCaPAKOcM6khKVyAZ5E44fsvjdGY+OuSHvXUJIRBs/7/jzrl+XvtBRYsniOxdCPyShCzB/R9AMBCRcB8SfMuqq3APnvzbt9uFLMp6OBKKKpk3tj+y45/ALle834uJ6hH6hoDVkjDFRoAwyO99ZzpZzHhi7Zs7TxatTx+nW+DroBSder//VZyu/eapzr9XMdzaE0OBir3CpGDerk+rErvTJ+oQswAAA5j43+cUpq0c/JZaLDnQdsN+2+zdlz9TgXmEJZ6iMhCV0ARboCZmAAJAneCez75M+We9Yvn7O6uLfjnqGVJD7bOXuaw89Xvng13cc+r2nyZ/Q/90Q4lOwJ2SMA4AiATun/hz5K7KOLXrnnJsKLs1+NBbmpO27en6389dHXjiK05oRQt8S8kQ0YV9k4WDcgPnnmnp/0Sez/jbxAUUatd3d4Fu57+ETj+x/pBybEiWgZC/CEvpGnrYxqUKJEBRGacKvAfshMx4e98H5r069PbVI+xFtZ/QNmzqe/PKmA2+f/CduPojQmfB3hcwCAFAkSLevX0I/SkNf+P6Mh2c8Mu5hiUayy9sSWHH0+Zr7Pr+y5Imeow493/kQQvyjrSFDlIkBlSZLimnZRdcOL1nwj2m/0o/WfkRbmQWVbzfe9MW1+x5x48PrhJPMRVhC/2UMWkNGsUoEMn1ydDL7IXlLM6uuOrDoqqLrh78PAAdcNd7r9/9fxSNf3nQA29Uj9DPR1lCaQCwEWZLcbJyOSfeM3LzovXNuME1LfTUSjFId39j+uP2WQ2+WPnNyBd/ZEEL8CvaETLFwFFQZVBffWfpL1nnG1oXvnHNT7iLT36KhGNW2w/LQl9ftf79hc8dYvrOhnydZpyQmbAHmqPFIGTerkahEmyQasYfvPANh3vNTnp/3wpR71bmKNZFghGr5svuxL67c9zFOKULo9AXtIb1IToI8NbG6ff1SmbOM7Su3zrtz4j2FL5FS4a6glVle9nzNfZ9etOuFjm9wsTpCQ1WgmzYBRyTFvojfllKoZpaumfXAuNvyXxOQUOJp8l+957dlz+x/rAL3C0tAyVaEJWwBFrIyxog/ulCmlzh0I1RRvvMMlIJLs49efXDxFSOvHPaxiBLuCNqZ5aVPnVy9btGO15q2dRXynQ+hwcxZ45UyTlYvUpJbZQnWbrm/zHho3AcL3z7nprQJ2lchDmA56rpn200H3y75Q9ltfGdDCA28YHcoXSgWJO207HMfm/DOnKcnrVaYqI0ROjq//NW6Ozet2P2Mpcyh4zsb+nlOjYYlQzGWsAVY0BYyROgoUEmykerPNffZyS/Oe3HyvYZx2leFEiFrPea+bfstB9/86lcH/2DFlvUIfS/GHdaxvsgSWYrElVKgZvnOw5esOcbWS77oHQ2jUiWboqHY/BNvNd70z6lb12K3VYSGlqAlZBRKhaAwJ19Ds1MKLxtWuviD6deYZ6b+XSASsJ377L/54pr9/yz/R90CvrOhM5PoRVjCFmC0lTFw0ThQRmkP31n4krvYXH3JF/PunHh3wUvqbOoTiMPM2jVtf/388pK1+x8tv9bd4CP5zojQYEJbQwbWHwF5kndAPF1Tf1/0yQVvnPOr7PPTH5XqxC5Ps/+yPb8pe27Tit3PtGzrxBF1hIYA2sXqxApyh9xIJdUUxO/Sj9bSy9bOvn/i7QWvydOkWxhHePHePx7/65ar9z5mOe7U8J0P/XyJPBqWsAVYoDtkgngclCb5kL+Rmvyb0RsveOucW/JXZP1WmSXfEnKEFxz5e/X7n1+59+OyF6uXYdt6hHr5u0Jmjo2D3ChLms3bfynjFL1t8XszHp7+4LjH0ibq3iApId2y3fKbbTcffPPruw7/ruuQ3ch3RoTQ2WGvdCsYZ1gvS5U6dPmqITErYOoDRWvmPDVpdfoU/cuklGQaN3X+ees1+/95/LW6hXxnQ2cmEacmJuwIScASMhJE8i0aPVOGsTofADzbsq1r68l/NZf3HHZOcVZ7V+7904mVDZ92vnfizfp/ZZ1n3KPNGzrr5RD6Ll8HbY7H46A0y5N2qs2ZGn1N7j4A2HfwL5VXNn3e2elu8K2qfLNxZvtOy7ySPx3bUHBpzvq08ToP3zkRQv0naGWMrD8yRz9a/TLfWQbSsIUZtQBw9/6Hy6+v39Du8rYGl5Q8cMz82co988bdUfBaztz0Zr4zojNzqgiLx+M8J/lxCVuA0TYmjaSEQA3RhfQ/pO+i8mDtmpZpdRvbynsOOaZ17bddbyt3XZ8+Rf9G+et1n2bNNe7S5Q/d9S9o6Ap2hzIIAkCZRbXznWWwOuePYz7qOerYXre2bW/Ll52LvC2BJUefrV7Yur3ngkNPVH46bJFpW9rElITfsBUhBODvCJpjbBzkaUNzVsCMR8a/17y1q7Ty7cb6zn3WmY2bO39nPeEev++h4x/nr8xZbxir9fGdEZ2ZwV6IJXIBZhApyF3J2rXnlypcNewQAByqfKdxbsOm9ot6Djmnte203Gopc95qLE55/cjz1V/lzE/fkVqkDfCdFaGBEuyhjSK5CJQmCq8bPyK9WO8AgFdbd3Rvr1vXtr9tp2We/YR7pbvOt7Lpi86PDj5R8cWwRaZtxol6LMQQSmD+Ltocj3IgT+IGHD8ld3FGNQD89sgzJ1fUfNxyheOkd2XZc7Xz2/dYZ5e/Xvfx+NsKtvGdEZ25wVqIJc5kyW+xVboVn63Y86lYKfZdd+zCS/jOkwgq3m6Y2/BZx0Xd++0zw77oRJlOBCmjNO/lnG/8Omu+aYdpih5HElHSe3fs55/FwjHpJVvnLtIOV3F850kUjZ93FNWtb7u0fZdlbtASnilRk6ArVH2YPT99Z+6ijK2mqal4/UAoAX191+HfnXy/6ak5TxdfMP5X+dv5zsO3rkN248kPmq5t+qzzItrBTJfppQcyzkk9UHBp1rrCy4eV8p0P/XKDpRBLyAKsdUdP3hdX7W0wTta/fMmWuXfznSeRVL3fNKtufdul3Yfs01hfpFimFYMqR7nGNF1/cNjCjG3DFpjq+c6I0NlgPebSfXrx7k8VGbLOqw8svorvPImo8fOOorq1bZe37uyZz7jD0yQqMWhyFWsyZhr25y01b86cbcSpnQglkE+X736u64Dt1wvfmT4mb0lmFd95Bov6jW0TK99puqHjG+sciEOR3CTbbp5p2F+4KnvNsAUZeJ+UBPguxBJyCmKgK2iK0DGQp8uGbAv6M1V03fASACip39A2sWZN6xWde20zHZWuVd5W/6q2HZbNX1yzr2LYQtOXo67KPcB3VoT6k68zaA57I7OMU1Ke5jtLospbmlkFAFUNmzvW1X3Semn7Tst8e6Vnlbc1uKp9l+W8r245UDZ8aeaWvGWZFXxnRQj9tKCVMYrkIpDjevr/kr8i+xgAHCt7uXbJyfebrnPWeFc2bu5YYDnqmLT99kP7R1097EPzjDScyp7Avt0xkY9iLCELMF9bMCcejyftru0DIf+S3otL89auUfUb21a07bTM87UGltHW0LKew/Yp6xbsaM2cm7Z7+FLz5tTRWprvvAj9Ur62QBbHcqDKlHfwnSXRjegtsCpav+5+v/qjlivbdlrmeRoDK4I9oRVd++znbr68pGLYItOXY67P28N3VoTQ93NUe6hNK77RSDTiTRKNxMN3nsFo0l2FW5w13h01H7d8WfNRyxW+tuCykKNjWfdh59Sdvz6yt+ja4R+kTdThWtgEx0cxlpgFWCdtFhAEqLMVON3lF+pbfFrdXep4o2FD24rmL7sXBbpDprDXvcBV5721bl37xm03Hziee6F5S/7FWeV850XoTPlaArmEgABVJl43+kvO+aZGAHi0c7/trdqPW65s29EzL2hjFjJ7bQstRxzFH5/31XXZ89O/zl+etUk/WoMPchAaRIJWxsB62IWqLM0bQ2UPsDORMlLNAMA71mPOTRVvN97Y/EXXhf724Ir69W0rOnZbztt5b+nu0dflfoBNiZLDQBVjCVmABS2hNKFUAMpMbCXdX/qacLwOAK8fe6lmSePnnUudNd5RwW56RauVWdG+y3Le2nnbW7Pmpu/s7X6GbahRYvF10JlCMQGqHEUr31mSjXmGoRsAnnZUeV6v/aTlsuYvui8M9NBGT53/em9j4Pq6NW1bvrr14MG8izI3Db/QXM13XoQQAG0LGSJMFOQGGU4/PA1922883bnPtubEm/W3dJXYZtE2Zlnd+vZlbTss5++4u3TnyKuGfZQxLRX3p00SZ7MYS8gmHB9M+mJD2MeqLto4+2LDGB22UT9LGrZ0FjV92r6856hzMuMKL4M4AMfFQaIUbTeM1VbkLM74YuwNOMUIJYaPZm77p68zePVF62anpk/WO/jOk+yOv1q3uPHzjqWuOn8+x3Jz41wcCBFRohuhqh++xPzFsAvSt6WM1DB850RoqDr6bPWKfQ+Vb5hwV8Hts/826XW+8ySa9m+sWZVvN9zUc9A+PRKKzY9zcRDJyR3mmYa9o64Z9mH2XBNu5pzEfmlBlnAFmL3SrdiwdNfncoPMdk3p4sv5zjMUOOu84sbN7cs6dlvP8zQF86KhyIJYmIN4HEoVJll3+jT94WELTNv7Fq0iNOg4qz3Uxot2fyZRin1L1826VDtciS3oB0jj5o6xDZs6l1uPOSeEPeHl0TAH8WgcKL1kW/p0w/7hS0xb8i/OLuc7J0JDze7fHLmn/B8NL8z624Slk+4euYXvPImqdWdPbs2HzVd3H3FOjvjYJVGGA6FUWJI+OeVo4eU5awsvy8H29UnsTAuxhCvAmrZ0Fn15/f5K0wzDiys+O+9evvMMNc1bO0e1ft0z33rMNSnYHTKFA5H5UToGApI4ph6uaDTPNOzPnmvcNRzb2aJBpPnLrsIvr9tfk1ac8urKrfPu5DvPUGSrcKmav+ha3FFine1rCeSwvsjCSDAGhIg4qstX1eecn/511nnGPZlzjK18Z0VoKNh82TdPtu3o+f2CN8+ZVHAJPkD9pTr2Ws11n7Rd1nXANiNkC69gAxEghMRRw1htRd7FmZ9mz0vfpR+Fa2GT2c8pxhJuDZi/K2iKhKKgNMuwkxkPchebqwGgGgCg8t3GOV37bN84a7wjg5bQld5G/0RHleeykx80H/1w+tb6jBmG/RnTDQf0o9XVunw1LvBFvPF1Bs2RUBSUWdgBkS+GsTofAKwBgDU1a1umdHxj220vd40L9tBXOqs9xbYT7isr3mo4sH7JrmPZc427zdNTD6TjWgqEzpqAJWQkKXKfKpPq5DtLMsg8N60TAJ7tKXV82LCp/auufbYZvrbgtZYyZ3FPqePGqrzGTbtXl309fFHGtqy5RpyemIS+vWYM4McLsoQbASv587Gby56reXP6g2OvmPqHMWv4zoMAbCecqq4DjumWUscUR7V3dKCbvoxxsxALx0CiloBuhHKNcYr+sLFYdzRltKYaG3iggVby5+M3lz1X8+Y5D469YtofivC6MUjYKtyqjm8ss7oP2Gc4a32FwW56OeONACEAUJpkO4yT9UczZhj2G4tTjpqwGEOo3zhrPdJPV+zZIBAKuRsrly7lO08yctV5xc1fdi3u2GU5z1nrLQxYmAWxcAzkabIS04zUAznnp39tnKwvNYzRYi+DIeRUUZZ4I2DtdKZAJARlphw7IA4ShnEpPgDYBgDbug/ZjdbjrnctZc5i50nvaF97YJX1uGtVzxHHKolKBKpsxaYvb9h/PG2i7ph+rLYia7YR/zuis87X4h8mIAlQZVOtfGdB/2EYq/UBwBYA2NK2sye354hjbU+pY7KrxjfK30UvrF3bNr9pSxcoM+Vbt1xZUp4+VX/YMDHlWN+TZoTQGQraw3rGxS42jNW+AZV8p0lOugI1CwCbAGBT7dqWKW27LLstR52Tvc2BFfXr2ma1fNn9h5SR6jXf3H/0m8zZxpK+GUYoyZ0aJUu4EbC1875+21njufHCf84cnj0vHYdwB7GeIw69o9I91nLEVWyvco/xNgeuph1h4CIciJUkKM3UVm2eqjGlSFNpGKup0Oar69Mm6Dx850bJ5+NZ2953N/tzl62ZfYV5pgFv3ge55q1do3qOOIotpY6prlrfHYEeGqJMDMQqMSgzqS36kZrq1Ana42kTdOW5CzNq+c6LUKKp+rB55s47S/fmLTc/euH7Mx/mO89Q0bHXau78xjqns8R2ruOk51baxvSO+Jvlu/TjNOUZ01IPG6foS7NwLWzSS6gCzFHtoTZfWrIOIA7L1s++RI8tjBOG7YRL5W7w51vKnBNtx1yTXHXeW4NWBrhIHEipAGSpUlCa5R9qRygb9KPVVbpCVW3KSHWtJleF3erQL2I74VJtvrRknVAmZG44sfQivvOg0+dp9glctb7CniPO4p5Sx1TnSc8dwe4QcByAWEGCIkO2VZOnbEwp0lSmjdNV6EdrqnDDZ4R+2v5HK649/NfK96f8fvQNMx8Z/x7feYYaV51XbC13je/YY53Ttd82w9MUWBYLx+DUTCH9WE2FaVrqQWNxylHcNiU5JdQURNrGGBhPeLEuX/UeFl+JxTBO5wOAowBw1N3gI72twadsJ1zjrcecE+wV7rGBDnpJoIu+2lrmALFaDDK9BBQm6o3ttx9u0hepq/Sj1NVZ56W38vxjoAQU6AhlMW52QXqB/mU4wXca9HP0PYCpBoBqT7P/Q3ej/wXLUWdxzyH7VEeVt8jTHFjsaQxA514bUHopKEyy97669WBD6jhtedp4XXlG7wbRCKHv8LcGcgghAZrhSpxJxIO+6YmlAFDac9hu6Dpkf7tjl2We9bh7vLPas9zV4FvescsKykzqoy9vOlBjmppSmjE97YC+SIPrxZJEQhVggc6gORKIgjJbgeuGEph2hCoKAI19H+ttFS6VvdJTZCtzFluPuSa4G/153ubATG9T4FbrUSe0bBOBVCveuG7RDps2T9mgK1TXGsZpK8wzcR0I+mmuBm9eJBQFTa6iie8s6MxpcpUcANT3fXzUud9mshxxTunab5vhqPIUBbrohf5O+np7hQfavu4BaYp4/acX7+5MGampMYzXlBsnpRzVDMcRdYQAALxtgWyxUnRInSNv5TvLUJc+NdUGAJsBYHPbbktO+y7L3PbdlvNctd6rbeWuK121PujYYwG5seWjbTcdqEmfoi/NmGnYh6P9iS2hCjBPcyCXi8ZBlSlv4zsL6j997akP9H1AR4k1y17pLrIcdky1n/QU+TtoM+MKr/A2B8B+wg2kTAhipXjTuoU7LJpcZYuuUFWbNl5bbp6FDT3Q/3JWe0YRBICuQF3PdxbUf8y9o1ubAGCTrdylsZ5wje3eb59pPe6a4GsLZoWczEpPSwCsR1xQv5EEKkX80RfX7Ws0jNFUpk3Wl2IDIDSUBa0hg0Qt9mTi/zcHlezzjK0A8I6n2f+evcrzVPuO7vmdB+zn+FoCuSEHe6WnyQ8de6wge7dpzRfX7qvPmJZ62DQjdV/fLCOUQBJqDdjW6/Y9Ur+h/aH5r06ZXXRtXgnfedDAaPmqO99y1FFsr3SPcVb7RoUcjD7GctMJIQFCkQCEIgGQMuFWWarUocqRt+pHa06mjtFU6ArU9X1PzdEQtva8r9511HgLl66ddTnedA8NzVs7R3UdsE+3ljknuRv8eWFvZD4AgFBMgEAkBJISbpUbZRZtnrLJMEF3LG2i7pip9yk0QkmvY6/FvPnSvetSRqmrV+1acBPfedBPq/2kdUrbjp75liPOyYFu2hSPwRShRAACsQAkGvEmzXBlo3FKyhHz9NQDODsoMSRUAfbxnK/eddf5Cpetn32JGef2D1lNWzqKrMdd423l7gneZn9uyMXqYmxsFiEgAAgCCAGAUCQEmVa8nkqXWVJGqU/qR2uqU0apq9OLcTHrUOKodlMbl+7+XKwU+64vX3Ix33nQwLOdcKt6jtin9Bx2TLFXesbQ1pAxynBzCEFvO2CCIECkEG5TmKhuXYG6LnW8rtwwXlNumoIFGUpOle82zNl5z5Hd+ZdkP7r4vRnYATHB1KxtmdKxxzLHcsQ1OdgTMnEcN10gIAAEBIgocrsqW95qLE4pS5+qPzTioqwKvvOi75cwBZir3iPecOHuL0iKpLGTGfq2pi+7Ch1V7iL7Cfc4b3MgN+QI66NMbEGci/dueMcBEAIAUkFul6VKbSl5qmZNvqpOP0pdrStQ1aZgQ5ekVbOmZdrXdxw+mDk77fmLPz3vPr7zIP617ujJsx5zTrSWuSZ5m/25tCOsj0fjcziOA+gbLxcpye1yo8yiL9KcTB2rqTCM05VnnGPAjaBRUij50/Gby56veXPqH4qumf7g2A/5zoPOXN261uLO/faZ1mPOCcHukCnKcPMhHgeO40BICvdRaRKLfoy20jRNf8g0LfUQTlUcPBJmDZirIZDHeNj56fmqV7GTGfq24YsyagGgFgDWAwC0f2PJclZ7RzkqPWO9bYHsQE/IGPFHVsQYboG/OQDuej/A550glAhAJCd3rJm3vV2bp2zQFajrU0aqqlVZinZc3JocnFWeoliYA/1o7Un4lO80aDDImZ9+qgHQJwAAjZs7xlqOOoud1Z6Rvg46i3Gxl8WY2AJPUwBc1V6oX9cOIkpQ8uG0rd3afFW9foym0jBOV6HJVTRr81RRfn8ahH4+b4t/mJAkQJunbOQ7C/plCi7NOQq9HaahdXt3ftd+2/SeMuckf3swiw1ElwUtIfC10SubtnSCRCXete6CHY2GCbrjpin60pQidZUuX83y/CMMWQkzAnb4qZMrDzxcvm7crwrunftc8Yt850GJw17lVjirvaMc1Z5R3pbAMH9H0My4IrpIMLI8xnAQDcUgGokBQRAgIAmQ6STblZnyTlWOvEVXoK7XFihrVWZ5p3FSiovvnwX9PBuX7X6ha5/tnvNfmzq18PKcUr7zoMHN3egj7VWeIttx13h3g3+Ery2QE3azV7J0FGKhGMQYDgDiIBALQJ4u26wdrmzWFqpr9EXqKm2ustmEo2QoAXw4bevHgW7atOTjc68wz0jD5RxJyHLEqe8+bJ9mPe4c727wj6DtjCHijy6MhqIQi3AgFAlBYZJtSRmprk6blFKWOl5brs1VNvd1qUYDIGEKsK037n+oYV37I3OemXTBuFvzt/OdByW2zn1Ws7PWW+htDeZ4m/zDg1bGwLjCN7L+KETpKLB0FOLROMQhDkKxAOQG2XbKILWpc+StmuGqJlWOvFWVLW+Vp8ls+lE4WjYYOao91GeXlGyIx2KCZZ/MvtwwXufhOxNKLKcKMletr9Bd7833d9CZtIPRh72R5RF/FKKhKMTjcSAEApDpJXsUZqpTN0LZkDJKU63NUzYqsxWtxgn49w4NHj2ldsPmy/eulaVIHNcevfBSvvOggVG7rrXYVu4e76r1jvR30OaQM3wZ64v0XsO4OIiUIlBnKdbrClW1hgm646ljNBWqLHl7335l6CxImALs43O3/dPd5M9dunbW5ZnnYocX1L/czX6Bp9GfF2gPZnnaAlm+9mA2bWUMtJ25LeyNQNjLQpSOQTzKAReLAykVgjRFDDKdZJMyS96uzlG2KMxUpzqT6pSbqG6pTuxKLdLihok8qlvfVrz91oNH0qelvrpy67w7+c6DkkPrju48T6M/z1Xvy/e1BbODlpAx5AhfGfawwAajwLFxAOBAohYDZZBuVZjlndoRygZNrrJZM1zRqMyguo3YDAjxpHZda/H2Ww4eyZ5vevqi9bNX850HDbzuw3aDs8pTZD/pKXLX+0YEukLmkDO8nHGzwLExACBAppeAwkx9kjJKfTIlX1WfMlpdrcpStOODzP6TEGvArMecuk0r9pjlRsqCxRc6G7T/vckrAAC4m3wCXwf9ZLA7ZPK2+HMCXbQ50E2n01bGGHKzqxgnCy6Hf7njpBc4lgOhRABilQjEKhHI02QffXbpN92KdFmPMpNqV2bKOymDzCbTiV14ARsYPYcdU6KhGBjGa0/AVr7ToGSRM990ag3ZNgCAniMOva8t+Jyn2Z/rbQnk+NqD2YGe0B2MPQz+dnqxp9EPbdu7QSgVgkQjBkov2bJh6a5WVSbVocpRtKqzFa1yk6xbnia14XoMdLa5ar2FsTAH2hHKBr6zIH70bbmxq+8D2nb25Lrqff9w1XoLvU3+4b52+q6ANQT2CvdlliNOEIoEINGJQZVBrf98VUmjNl/VoM1X1auy5a0Kk6xbixvcn5GEKMCcNd5Cxs3OMU5OfRqO8Z0GDRV9F5XWvo8Dp77ec8Shp23MY/4OOsvfGTT7OujMYDdtCjnCNwdtDIScYQh00ld2HbCBQCAAUk6CSCYEiVYMVKrsw0+X73bIjTKrwiTrpowyiyJd1k2lSh1SndiFN2D9p6fUMZWkhMdM01IP8Z0FJa/0yXoHADigbyG8u9FHBrpCT/o7g2ZvSyDX2xrI8XcEMwPdoVuDVgY8zYEl9ioPEECASEGCiBICZZCCwkS9sfX6/RZVtqJFlUl1KjKoTnma1JY2Edeeov7jrPaOJkgCdCPVtXxnQYND9rz0ZgBoBoBtnma/wNsSeM7d4Mt31fvy3Q3+Ef6OoNnfRS+3V3lW9hx1AikVgkglAkWaFJSZ8le/vvNwiyZP2agZrmxWmmWdxol6vGadhoSYgvjNH47dduzFmtem3F903YyHx33Adx6EvstV5xWHnGE9bQsb/N1Bk6+dzgp0BjNoC2P0d9E3M+4wROkYsMEoQCwOAokASLEQBDIhSDVikGpFIFVL3qAMEpssVWqXpclsCqPMQqVKbFSq1JE+RY97Ev0Mbbt7crZcue9jZbqs+9pjSy7hOw8a2lz1XnHQyhgCXUGzuymQ620O5AY66Uxfe/DWkDMMkUAUInS0d2N5qRBISggynQRkKZIPKYPUJk+X9SjMVKcqk+pUpFPdcqPMgp1a0Zn45+Qv1gWtjGH5pjkXG7G4R6ehc7/N5G3x57qqfaNcDb4RniZ/bqCHXhH2RCDGxEAoEQApI0GmlwJlkHykyKA61VmKDvUwebM6V9msMlOd+jG4JOO7EqIAW3/hzle6D9rvuODNcyYVXJKNY2AoYbjqvWLGHdHQtpDB30Fn+buCpkB3yBTopDMD3bQp7IssZn0RiASjQAABAhEBhIgAoVgIYqUIRHISxApyjVQncUl1Ypc0RepUGKUWuUFqk+olDsogteH+RP9rz+qyO46/UvtK0Q15q89/ZerTfOdB6LvcjT6ScYV1/q6QydPsz/W1BHK9bcFsb2sgJ+wKLwl7IxAJxUBICkAgInqnMKpFIFaKQKYTvyPTSx2yVJldmUl1KjNknfJ0yqLMpNpTcNE8+gGde63mzy8rWacermy8ct/Ca/jOgxKT9bhT4++izc5aX6Gn3pfvqvMV+NqD14acYYjSURCIBCAUCUGsJEGqE4MsRfKewiTrVpjlXephimZVlrxdPUzROtQbmA36Asxa7tJsvqxkrYCE6PJPz7sY/+eCkoWt0qUI2cKGQDdt8nfS5kAXbfZ1BDODlpAx7I5oGA+7IBKIQDwOIBAQAEIChCICSKkQhFIShFIBiBWiT8RK0idWiAKyVKldYZRapHqJg9JLHXIT1S1Pkw7JLo0fTNqywddOZy18d/oNeUvMVXznQeh0OarcCn83bfK101m+9kCWpykw3NsayGHsYT3tZBZE6RgQAgCCIEAo/s8UZ5GcBIla/J5EK/bI06RWhVneKU+TWpRmqhP3NkQAAEefq16+78HyT0deNeyBC/5xzt/4zoOSg7vRR9LWsMHV6MvzNvjyHTXekZ4Wfw5tYVYwHhYIIIAgCRBJhb3XKwUJMq34A5le6lBlU22qbEW7epiyWTtC2TiU7lcG/RowW7lrfMjGLMicm/YsFl8omRjG6AIAEIDeudf/xVLm1NGWkDFoCRl9HcEsX1swK9ATSg85WT3jCuvCXnZu3BmHQJy+DACAEPTejAnFQiBEBJBiAQhlQiAl5Jq187bT0hSxQ6aXOimd2CVNldkUJlm3wiTrlqXKHCn5qqT6vTr2Su3ivX8szzNM0B7D4gslGn1v99T/aggEAGA56tT7u2iTtzWQ42ny5/naAtlBC2OkrSEDbQ/PidsYgDhcTwgIEEqEQEoEIBAJgKSEIJKJPvlkwQ6PPE1mkxslPfJ0yqLKlreqMuWdOL156LCUOSeBkIC0STqcSYT6Td+G9N19HyUAvbN//B1Bs7vRn+c86S1y1ftGBLppU9ASWsa4wuBrD14rFBJAysh/P0gSK0Rr1i3e6VJlUh3KDKpbM1zZqM1X1fets006g74A69pnm8nF4pA+NfUwbOQ7DUIDo2/TZxcAVH/3e9ZjTh3tYPSBrt6RM39n0Exbw2m0I6wP2RhDlI4uCIdiwDnDEOdgFSEAIEgCBEIBEILezaYFot6bM6FYsHHNeV/5xGqxR6oR+6QpYjvVt/7s1Ghaoi2orV3TcgVAHPKWmj+HPXynQah/GItTTjX7qPj213uOOvSBrpDJ2+zP9TT7c30ddCbdEzLRNsYQoaNzWB8LXCx0GSEkQEgSAH3Xgt4HNoItH077IiDVSx1UitRFGSRWVbaiXZkpb1eaZN3GJL3xGaoclZ6xMp1kT9oELMDQ2dXXUOxUc4/tAADOWq/U3xU0uev8hc4ab6G3JTDM1xbIYdzhJRFbFIKW0CpCSICjwg2EkABSIgShWLDl41lfueRGqUWRLutRDVO0akeo6pVmqtMwTufj9Yf8hQb9FMT3xn/+KeNidcvWnnu5Cde6IPSjXHVecdDGGALdtCnQFTIHLSEjbWf0IRuTRtsYAxuIKGIstzDGcsBF4kAQ0HsVIAAIIAD6pjYRAgIIAYBQKtwqUYoCIoUoIFKQAVmK2EmlSm2UQWqjDDKbTC92SFMkLplW6tKOUEb5/vm/ub/sthNvNtyiHaFqvObw4sv5zoMQX+yVboWvPZjlbQ3k+NqCOYEuOiPQRZtCjrA+wsSWxJgYcFEOCAHR+/tP9P5TICAABASQEsE2iVbsEStFPplO4lKYqS5lBtWpyJB1y9Moi9woteAmrYmjbn1b8fbbDr1mmKArv/zr82/hOw9CAACe5oDA1xEwu+q8hZ4Gf563LZjtawnkMt6IKhqKLuAiHBDC3lKFIAgQCHuvT2KFaIs0ReygUiUO9TBFizpX1azKotpVZqozdWxiFGaDugCrfKdh7u7flT2VPll/9NKv5v+K7zwIJTpHrVdKd9OmQHfIFOydumSgbYyBtoVSGQ+riYViVJSJrYjQMeBicSDiAPF4HOLxOEC89xjxOABAHIh4b8MQkiJBRAk3kVKSkWjFLipF4pKmSJyyFLFDliJxSVOkDlmK2CVLkTjSJqR4ztbPdvzV2sWH/3by/hgbE5/z4LjHJt5ZgLt/IfQdnma/wNcRNPvb6Bx/F20KdNMmf1cwg7YzhmggpogEostj4RjEASDOxSHOnfrF770EEAC9v/NycrNIIQzI9VKHIoPqooxSS+8UR8pCpUkt8jSpTdO7vyIaBHb9+sivT7zR8Nykewt/NeuvE9/gOw9CP6anzKHz1Pvy3U3BPF+LP8fbFsgOu1kd64+siDAcEADAxeK9NyRxAIgDCMQEiJSirRK1yKMwUhZVjqJNlU21qrIU7apseftg6/o5qAuwTSv3PNW6ved30x4oumLaA2PW8J0HoWTnqveJQw5G31uUMYagndGHrIyRtjOprD+iYINRRTQYo9hA5DIuGod4LA7xaBy4GPfvm7U4958bNwIABH1r0wRiwQ6hWMiK1aRPliJxyHQSl1Qrdks0Yo9UK/FIdb1FmlQr9ohVIp+IIunTuYFznPRQJz9ourbm45YrIiGOGrYgffuSf537pwH440IoqTiqPVSgmzYFu0MmX2fQHOikzbSVSQv7IqqwL6Ji/ZHLuAgH8WgcYlGu9/efi0M8CsBxHBAE0bv2TCIEUircJtWJXfI0qYVKk1rlBqmNSqNs1KkurjqxSz9KO2QW3PPtn9O2fuxtCeQuemfGDcMvzPifqe0IDXbuRh/pbQtm+doCOd6WQI63OTCctjP6kIvVRfyRlVyEAy4aB67v2sT1XZ9IqRBImXCXWCXyKdKpboWZ6lKmy7pVWYp2ZY68VZ4mtaUWDXyb/EFbgLV81Z2/7aYDb5MUSS/9+Nwr+tbEIIR45qzxSBk3q6MdjD5kCxtCjrA+aGf0rCeiCfvCatYfVbD+qCoail7JRePAsRz0TnnsHVWLx+K9F8lY740cAICAFAAhJEAgBCBIAZASIYjVok0StcgnVos9EgUZIOWioFhBBoQyIQMAEAlGqGAPk+6o8IwNWkMLBSQBxin6V1d+Me9OXv+AEEpCzlqvNGQP6QM9jCnQN4oecjB6xs1qGTerifgjqhgbXxFjYhBle6c3ctE4nLopgngcBKSg7wNAJCd3SHtHyx0yrcQjS5XY5WkyC5Ums8nTJBaJVuyRKEW+1N5mRegXqP6oZfrOuw+/pBulqb5qL7afR8nFXuVRBLpok6+9tzgLdNOmkINNoR0hfSQQvTIW4iDKRCHWdz/CsRzEIQ4CsRCEJAEiOblLbpRZqHSZRZEmsyrMsk5lBtWpMFHdshSpK22i7qzUH4O2ANt63f5H6j5pfWjkVcMeXPjW9Mf5zoMQOn2eJr8g7GE1IVdYF3KFdUxf90bWF1Ex3oiK9bLqsI9VRekYFQ1z18fCMYiGYxBjOOBiXO9NW6Tv5i3C9U41AAAgCCCI3s/jXG/3R5GCBKlGvN00Xb9/+oNjH9fkqnDaE0IDzHrcqaGtjDFoDRkCFsYYdoV1IRerCznCqWEvq4qGolSEjq2KhmIQY2N9D2ZiEAv3PrEGgN6HMAICCCGASCECiVq8RawW+aQqsU+iE7vkqRK7LLVv7alW4pFqxB6xRuyRKEmfQCxgtcPxd//7bFq556nWr3p+V/zbkTfM/L/x7/GdB6GB4Grwkv6OUJavPZAV6Ayag7awgbYyabQjrI8GIxQbiK6KBKPAhTmIMFGIMTGIQ+/691OdpWU68XZpitQlS5XYlOlUj8Is65QbZRYqVebouw65SJmQOZPp1oOyAKtZ0zpt92+OPCMQENyiD2Zclz03/X/adCOEEp+nubdQY7ysivGwGtYT0USCEUXYG1WFfayK9UY0jJdVx5iYNBbmxLEwJ+Wi3I1xABCKiLfEClFAPUzeYp6Zti8fN2lHaNCylDl1tJ0xhOyMPuyNaHofzIR1ISebwvpZFeuPKiKB6I1sIAKxcAxi4RhEQxxEwzGIR3vXoRLwn3VoQqkQREoRSPr2FRIpRB/IdGKXVCdxSnVil1Qj9kg0Yo9EK/ZItRKXRCXyCWVCRkSRdEqhmuH5j2PAtHzVlf/ljQffJaUC5qINcy5JG6/z8J0JIb71HHHoA120OWhhjLSd0Qd7aBNtC6eGfawq7IncyvojEA1FIRqMActEgWPjQEAc4vHeB0UiigSpRgRilQikGsl7lFFqoYyyHnma1EalymyyVImD0kscIoqkRQoy0Neq/78MugKsu9Ru+Pr20tfc9d4VI68Y9qcL3jjnL3xnQggNDo4aj5RjOTEAgFAiZIfSjRRCycxR7aEYV1jHuNjekXIPq2GcYV3IzepYL6sK+6NK1seqWG/01kgoCtFQFCLBKEToKMRYDuDU+tNTC/OJvv3Q5EIgZSSQUiGIKCFINJL3JCrSJ1GLfRK1yCtSinwStdgnVYl8Ek3v+lNSLgyI5CQtono/ErmZyIYlO19q32W9a9Q1uPkyQj/F1eAjaStjDDkZHeMK64I9jIm2h/QhB5sacjE6xsnewQaiwAYjEPVFIcJE+9bA9q17JwBEchJEChGI5EKQqMUgSxG/LtPLHFKdyC3TSx1StciTszBj26AqwOo2tk0se77mXluZ61ptoWrjkn+dexXeYCGEEELIWeORhn0RVSQQVbD+iCrkYnWMm9Ww3rCG8bKqiDeiZTy9DUOiweiNkWAU2EAE2EAUYuHYv9efxvvWosYBQCDsLdSE0r5mQaLep9tipQhEShLECtHLIjkZEMvJoFgl8olVpE+sEAXESlFArBL5RApRQCQXBsRyEU1SJC2SkwHt8MFRsO17uPz6Yy/U3ivRiV1LPzr3KtO0VNzKB6Ez5G70kYyL1TEeVhN2s5qgLWQIORh9yMHqQ45wasjJ6Fhv5GbGw0LY2zuC1tuwKA7xKAfxOIBQJAAgABa/P+McAgCgbkPrxDgHAgFJRHv3AiE4QgAcIQAOCAIEAoIDAjgQACcgBAAC4AiC4EAAHCEguL79Q3rfQxAAAuLU533vIQAEwAEBnEAg4CAOgliEI6NMVMq4WZ2/I2juKXVO6dpvn+FrCyxUpMt2zX1+8n15yzIrfuoPBCGEEELoFEe1h4rQUSoajFGsP6JivKyK9bCa3hunsC7sjagYb1TNBiKKaCB6R9jHAuuPQCTQO5oWj8Uhdmr96alGQUIAgUjY20RE9J8N7UkZCSJKCKRMCCRFAikVvi6S9047EsnJoEhBBsSUiBZRQvpUwSZWkAGSImmxnAyQciEtoki6b+PafnPgsRNXV7zVeAvjDOum/H70U9MfGvdBfx4fIfTfnDUeKeuPqhhvWMU4I3rGwehpe1hPOxl9yBFOCbtZHW1nbqUdTMkFr59zO2E74VJ+vqrkkyjDLRSKBf/ejJEQAADxrQ0aAfo2ae399N+vIwD6dnH9r8///e8EAQICAAT/2eQxDtDbiSTKQSQUg7A7DGFPBLhoHHSj1Run/2nsE/krsnA9B0IIIYTOCk+zXxBlYtIoE5NGg1GK9UdUYW9EFfb2FWseVhP2RDSsP6JkAxEF64uowp7I9eFABGIhDrhoDLgwBzE23ttYJMYBAAEE2bthbG9n176N7ftG2khJ30ibRAhCce9Cf1ImfIukSFokIxlSJmBIGRkkZQJGpBAHxHJRQKQUBk5NhyQpkhZRQlokE9ICsYAVioUsxEEQZWNixhnWuep8hR0l1nN7DjumMa6wbviSzC3L1s66n+8/a4SGOneDj2SDvdeRzFnGdsJyxKFbv3jnV9FQrFhACno3XAUAiANwHPxnk7O+xWf/3pQRAL69hOz75zLG//Odb/2j73AQ72tLK1aJQJVJrc9ZYPqq4PLsTwwJsos1QgghhIYGT5NPEGN7mwGF/b03Uqyvt2AL+yIq1htRhX2sKuxl1aw32vs1H6uKhGLSGMstjoV7uz9GmVjvSBvX95yb6O26BoK+DmwEASCEf7ftF4qIf39OCAkQiHoLt1P/DgDARTiI0FFg/VEIuVgALl6VtzRj85KPZuGeiAgNQr1TEDe2TYxH4iRAHOIcCOLxuCDOxQVxDgQQj0M8GifjAABcXMCd+joXF3CxONlbqMUFEIuT8XgcOC4uiMeAhHgc4rE4GY/1HS/We0yOiwsIAkAoETIiOUnLUiQOpVneqR2hbEzkha4IIYQQQt/lqPVKI4GIgg1EFBFfVMUGo1QkEFGEvREN6z1VwLFq1hNRhXv3UJTGwpw0wkSlsTC3OMbEINZXtAEAxInveehN9G7NQcrIUs1wRePIVTlrJ90zcvOA/7AIodMyqJpwIIQQQgih3rVs0VBUGgnGFJFQVBoNRhVhf0TBeiMaNhiluHBMGg33doUVSYWMzCC1afKUjcPONzXynR0h9OP+H8p64YVZL6vlAAAAAElFTkSuQmCC;fontFamily=Latin Modern Sans;fontStyle=1" parent="1" vertex="1">
          <mxGeometry x="94.34" y="606" width="229.6" height="30.29" as="geometry" />
        </mxCell>
        <mxCell id="Z4fjTaCAJ1MgGn6guNNH-5" value="" style="shape=image;verticalLabelPosition=bottom;labelBackgroundColor=default;verticalAlign=top;imageAspect=0;image=data:image/png,iVBORw0KGgoAAAANSUhEUgAAA1wAAACRCAYAAADXe7kzAAAACXBIWXMAAAsTAAALEwEAmpwYAABMaUlEQVR4nO3dd3wUZf4H8O/MzpZsNr0SQoBQBURqRERERERERERERQ49BUVUFAv2w3KcZDebSq8C0nsnBAghhCSEAKGE3nsomWfrtOf3R/TufnfKUZLMlu/79VohSnY+i5PvPN8pz8NQSsFfMAyj2rYPVchGIlCTXaAml0QNLgkMLgkMThkMLokaBAl0nAZEnYZxGTngg/TAh+iYm8F61h6kB1fTcI1cE7n86f8/QgghhBBCtY3x1QG3ms1V2VXJdOKm0vhkJU08WyknnOVpvcs2Glvhoq/yLgoKACgUgFIABQCoAqAwAAwFYBgADVP1q5YBCAtgIdbETI8JhEuxRuZC/VD2TONQzcnEUOZsiyjOWd3ZfXV/QAghhBDyZbU19sWx4t3zuYZLjUbr+E2Z23NZbld6RW5z4Jry4NEbStNKN+3pkgBEGYBjATgNAxwLwAIAA7//499+/x//Gyj8qyETZQBRrmrUtCwDBo5CuIFZ1ypKc6BNjGZf2xh2zzONtOU18dl8bf9ACCGEEPI1al5ouFP+PKb0qYarNne2kzdldsd5ucv2s3LXoktyx2sO2tclUeBYAJ2mKodCARRKgdKqf6fXAHBc1RUsDcAajYaRDBpwGTlwaDWMJCmUE2TQOUQwumWqEyj0ESUAl0RBUgBYFoAFBli2qhkTZQoyBTDpmO0RBuZGUpymsEu8Zsej9TQ7E0M1Sk19dl/aZxBCCCGEvJ03NFx/xF/GlD7TcNXWjrbosJC0/oTUa99V+aGrDtpfUhjQMgAyBXBLFBQGwMAyYNLD5vrB7Ol6Icy5+iHM2YQgzdk6JuZipJGpMHLgCNAyrts1RcduSNwNF4RfstG4C0SOu0Ag/rJdiT11izY8W6kk2EToLsgUWLaqkWMBQKIUtCxAdCC77NF4Tf6zjbg1Tydqj9bE34Ov7DcIIYQQQt7OWxuuf+fLY0ufaLhqeic7el3WrTom9t18Wnry+E3a2CXTHpQy4Prt6pNWAxATyGxqGaU58GAkW9Yykj3UPJItbx3N8TWRZ+8VKfRghdKi5JLc4UCF0rL8utKcd9OukkJBr2HBoAVggYJJx254IJw59FRDLvvd9voNNZHlP/nC/oQQQggh5C18odn6M74yrvT6hqsmd7LNp6XGa49LvYsvyR0v2ZTBTgnAIdLfmiwGGoSwa9rHsnsei9fkto3V7G0Xy92osTC3kX9eijt4TW6147z86J7LSrszlUofUaEQqGUhgAMwcLC5bhB7MSmOLezXRLvi0XrcxdrO6O37GUKoZvjyQKGmYV1FCAH4Rx319nrntQ1XTe5c60+IzVceFfvtvqS0v+qEAXaRgk1QgAEG6gWxm7vUY/O61NPsaBWlOfBwHHe1xoLcg8KLUvSey3K7zaflp4ovyh9fcVBgACBQx4CJo1DHxC54uK6msG9jbtWTDbUn1c7777x1X0QI3Rl/GBSoDesoQv7H32qrN9Y5r2u4anKn2nBSbL7+hNyr4IL0yFmeDuRdFERKwaRloGUkO/fxBC73sXqaHb1qaEbA6nS4QjYcuS43zz2ndC04Lz9Sfl0eZJco6DQMhOgZSAhiFnSpx+X3aaxZ062+9rTaeW/H2/ZRhND/52+DATVhvUTIv/hrffW2Wuc1DVdN7lD556W4NcfFPltOy0+erKQDK90UWKAQE8hCxzqsuXNdTUFSHFfUpR53vsZC1KDcM1LC7styh23npCdKLysjrzooMBQgxMBAs3Bmbo8GXHbfJtyqtrHcLbWz3ilv2W8R8lf+OgjwBFgfEfIf/l5rvaXeeXTDVdM70eEK2bDplNhzxVHphX1XlaG8AKDXAMQEstChDjv+qfpcdud4dmfLKM5Ro0Fqyd4rUuiO83KXnFPSk3uvKqOu2Kummw/RM/BwHJv5QjPd8r8+pN2ids675cn7MEL+xt8P/p4AayJC/gHr7b94et3zmIartnea5UeENvMPSa9sOyN9dssNEMABRAay0CqCSe/RUJv9TCPNhsZhGqlWQ9WSw9dkw/qTYu/NZ+QnD1UoI647KbglgCgjs7N3I83aAc11S55O5GpkOvma5Cn7MkL+CA/8ngXrIUK+r6bq7rEbMse7abBTokaXDAa3BDpatRysoufApdeAEKhlbEF6xuZpY2VPrX2qNlxqHKD3XpFDFx0WBs47KL120aZ0DdQyEGpgIDGUnfFsI27tC025FYlhNbdosCc5XCEZFpVLAzeflp86dUsZTNwUXDKFxBB2w19aa2f3b6Zd1jRcI6id82546g8aQr4KGy3PhfUQId9WXfX3yHVZd9lOY49cl5ufvKUknuVpvYuEfnnTpYBNBJAVAMoAMBRAwwIE6wEiAhiIDWR/bBDCnkkMZU82DWeOxgaylxuHe04D5kk1sNYbLjUPzosPCx2su4WP9lyWXw3QMGDSMRBphBU9GnDZb7bWzXggUuNSLZyKii9KkdP2CW/lX5AfvemEPkSgICkUnmzAZX7QQZf2VEPtcbUz3i1P+iFDyFdhs+XZsA4i5Luqo/5uPSM12Hle6px/Xn60/EbVHU82gYKGBdAyABqWBZYB+PdNUQqgUAqyQkFUqr4O0jEQFchAywg2pVNdrvCRupqdjyV4zrwHnlALa7XhUuvgfOyGzGWWCCN/PSi+5pahQ7COAa0GtnWqq9k1vI12sqfP0ldbVhwR2kwpFd8+fIO2ECTa7ZabQoSR2f5uW93ELzrrF6id7154wg8ZQr4GGy3vgTUQId90P3V4xj6h+5pj0rO7r8gdrjmUrlqWAb2GAa0GQMMAsAyAjgXgNMw/v/6dQgEkSkGSAUSFgkIZkBUAQQFwyxREmUKsid3Wua5m54vNtEtfbK7dUw0ft9qoVRNrpeFS8+C86qjYelyB64sDFXRQsJ4BSgHqmJhlw9voJg9rq9ukWjAPZi50D5i5X3jjhpP2psCAU6T7O8drdn7dWf+DGosmVwccdCBUPdRutvLPi3FHrytNy68rzS/ZlDpEhGCFAmvUgqNOIHupWThb3iiUPdkj0fuuzNcUrH8I+ZZ7rcOpxa5+Cw5JL5dfV5ozAG2MHAMMA0AZCjoWtsUGai4nhjEn6wWz5xqFMsejjezVMANzy6RjbBoGJFkBjoiK6YaDhl+yQ9zpSrnB6Upa/3Sl0uCynQ5UFArAVDVgTomClmF2t4xiDrzaUjt/WFu9x425a/WiU01vTM2D81dbXW/NOSi+LijQlQEAmdKi55toV45+WJfSPMI/bx+8U0UXpeifdrq/yj8nd9ZzTAdRphBsYDa/00Y3+ZNO+iVq57tbOOBAqHqoUdMPV0iG1cfkvrlnpcfLbyjNiUC7M789T/DvKFN1e4tBw2xvGMqcbh+rKXmxGbfk0XparzxRVF2w/iHkO+6lBk8pdfecuV9648QtOZFjmSQGqq5G6TSws2m45uij8Zr8xxM023s21N7ThGknbspsWYXSOu+c3KXogvzwsZtyY5lCJx3LgKIAyECLHopm9w9vo5s84AHd7nvZRk2prfpYow2XWs1WySUp/G87hLG7L0kdWIbpxLspJIaxqz5J0iW//qBuhyqhvJRll6t/5h7x/Zsu2s2kY4BS2NmtvmbbvL7Gr9TOdi9w4IHQvVGjnh+6Jhmn7RPfyjkjP3ndofRlGAYkBUBSqpa0UKCqwfqdhgFgWAb0bNWD3ZRSCNQxmx6ty+W/9RA3zZ8bL6x9CPmGu6nF2aekxukl7g/3XpbbKMB0kWQAu0ihronZ9GQDTc6zjbg1zzbRHarujMuPCG2WHZVezD0rdb3phK6BOgY4hoKGZbY/Wlez44OOuoxOdbnL1b3d+1HjF6BqYgNqXtX6pUzomlbs/vCKHfrbJQCF0v39m3JLP07SpzwYrbGpFsyLbT8rJaQWCx9uPCX1CuCghV7D7Gwazhz9rJP+52caacvVzncvcPCB0J1To6Yn73IPWHRYfPmqXRkgKAw4JApuiUK4gYX4YHZRw1DmdF0TcyFIBzzLgOKQwHiOp/XO8EqDC4S+etmmAMcCBOpY0GsohOiYNd3qc1s/6KBNbxLOecwsWrUJ6x5C3u9O6/GYra53Vh0Xn6t0QW+XBOCUFGgYqlnXv6lmaf9m2mVtY7lbNZsUIO+cGL/6uNR3Wbn0wgWb0sOkZcHAAYQFwKqXmmsXf/OoYW5NZ7hX1V0vq63hUvu+fgCAb7a73lxSLr503QG9KgUKDULYTaM66qzvttNtUDubL/hHgXvQhBL3u9ec0DVEz0BMIKx6s7V2+ocdDavUzna3cOCB0J2p7dq+/YyUkLFHeH/PZbkdcUN3XlBAp2GgdTQ7t1sCl9spTrMrMZQ92SJK84cL0h+9IesuEBpXellut/Ws/ETBBWkkESiYtAwE6gAahmh+GdFOm/VyC11RrX4wD4G1DyHvdSf1eN0JsUVWifDewQqlBRFoN5tAIc7Ebnv5Ae3CF5tzSzrW4SpqIer/k3dWip9/SHx1xTHp+esO2jlYD2DSMds6xLK73++gz+iawJ2t7Uz36l5r6F03XJ7QWP2nQxWS0bxL/GTLGfGJGy7oJlEK3RO4zA87eueU5p5s+VGxjaVQGF10URps1DIQbWQ29UrkNqb3DEhRO9vdwoEHQrdX2/V+8h53z5ll4hsnb9FBNrcCLMvAw3GaGS811y7uVJfd1Sbm7s7Ill+XDbsvyR2WHxVfyD0jf0xECiYtC3WDmFUDmnNLv+1i+KWGPopHw9qHkPe5k3o8vsA1cFG59NKZSmUAESgEaBno04j78fVW2jk9E+/t+azqtOyI0G7OAfH1nFPyKOm36eQTQ5kFQx7Uzn63nd6nL47ctuHyxObqP204ITafsEd4t+CC8oFNUCBIzxS92lI7/83WuhmtozW82vl80a4LUmxmifDemuPy126JQoiB2fV4Pc32Ee20WY/X13rNWQoAHHgg9EfUqP1j89xDfj0kvHaB0J6SQiExlF03qIVuYe9GmnUd7vOM7KEK2Zh7Ruq6qFx8ueiSMhSAgYgA2P5MI836D9rr01v+ydUyX4a1DyHvcru6fLhCNkzYI4xYfVx67pqDdlMUgJZR7JLBrbTz+jTi1njSYsQHrsmmdcel3rMPCH85fpP21rEAdYOYDf2aciv/8UTAJLXz1ZQ/bLi8odECAJi1X+g2YY/w7qEKZaBMARqGMOv+0lo7+/NOhkVqZ/N1J27K7Mz94pvzDoqvXbbTbloWoG2M5pcPOujSPG3Nhf8FBx4I/Ysa9f+THOfIeYek1265lE5GjoXH62tSXmuhnVfdtWTneSludpk4ZOVR6flKN3TScxSeqM+lfvGIblxSHHe1OrflDbD2IeQdbleXd5wT41OKhI9yz8of2yUGgnSw++mGmg1DHtTN6dmQU/2q1p9ZcVRs80uZ+Pq2s9LHTomCScvsfq6xdvWoJF2qL14w+X8Nl7c0WgAAlkJX/wl7xPfOE9o9gAN4KJr9ZVgb3eTXWul2qp3Nn0za4+41q0z6y+Hr8iBBAkgMY9e930Gb8U5b77o0jAMP5O/UqP8nb8nsuJ3CmMWHxZdECm0ijcz2fk20y4e31U5pEVlzV51+3OEavPCw9PKZSqWPSAG6xGumjX1M/13neO9cZ/B+YO1DyLPdrjavOia0thQKo4suKUM0DEBCCLvuxabc0h8eN8yoxYj37FCFbJyyVxi26qj43FUHdGcAoHsDLv2LTrpxneI9axbD+8VQSr2q0QIA+HKba9iUUvFtl0Q7hBiYnZ3qsrs+6qi3dqnHnVc7mz/aeFJsmrZb+LDkkjKCCAChBtg5sr0268vOhl/VznY3cOCB/JGa9f/NtY5vFxySxupYBuqYYMPrD2rn1Fbd+PWA0DmrRHyv/Kbyqk2g8EgcN+sfT+i+8LSpimsD1j6EPNPt6vMvZULXn3e5Pz9xk/Y26RhoEsYsGN5OO3nog/pttZeweliL3P3mHBBeP30L+jskCh3raOZ+1Vn3Uy8vnQn7j3hVp3Xkuqz7R4F7zKJy6WUdCy2C9cz2Zxtxayf0ChivdjZ/d+SGrPsp3/3V1jNydyLQLgpl9o9sz2X9vVvAFLWz3S0cfCB/oPaJtjfWOL5dcFh6xahlmtcxMWs+bK9Le7utbnNtZth2RmrwY777q7Jrylu8QKFDLDvX8qRhtD/eXgiAtQ8hT3K7Gj21VOjxtx3usZVu2jlIz0DrKHbKF4/oxnWrrz1dewmr1/IjQpufd4mfn6pUBhE3QMNQZt13j+rGDvSRGWW9puEquSSFf5Pn/mHrGWVEsA4gSA+bX22hm/99V71XXDb1F6M3O0cuOSK95JSgq0NUDgx8QLt4xrPG79XOdbdw4IF8kdpN1u/e3eD47Jcy6S8mHdMixsSs+qqz/qeXH9CqclDdf0UKHpXjsh66Rt8kIoW2MZq5GU8Z3m8bq7mlRh61Ye1DSH23q9XWYle/cTvFLyQZkoxauuOReG7X3x/XfeEL6wvmn5PivtvhGnvwGn3LIQGYtLDz+8d03/y1jX6L2tnul2ccff+HvHNS/Ogcl6X8Oh1o0gGYtMym0Q9rLcPb6jepnQ39t7/nu16dsk98W5CgGxHhQI/67OafnzB83jRCI6id7W7h4AN5O09psn73Ta7rzfTd4ocBWto6VM9uGNdN/8ULzbR71cx04Kpsem+TK+vIDWWIUwJoH8vO2PJq4F/VzKQ2rH0IqeN2NXt8gXvgP3YJn2tZaMcxsLNPE83qyc8Y/1GL8Wrc8Zsy9/Fml6XokpIkU+jEAi36rot+7Ij2+nVqZ7sfnnUk/gMbTojNP8pxWyscSi8Nw0BUILPm7131XzzXVHtA7Wzoz03d6+7xU77wlVum3VwywEPRmllpT+k/fCia87qZZ3DggbyNpzVZv5uw2937b/nCdwxAklFHtyV3M3w64AHdbrVzAQAcvCYZ39ngmnzkOh0sKbCnW33NtmUvGkernUttWP8Qqj23q93f5rrenFgqvqvVQAdJgaIhrbg55icDMmsxXq0autYxdt1xqRfHMkkUYNffOuu/G95e57UXWli1A9zO0nKh3ajNLustF+0lKQCNwplfpz1j+Cs2W57v7Tb6zZYnDaOD9ewmDcPAkevK0LfXuqbuOC/Gq53tbnnq4BWh/8QwjMfur6uOCq2TC4VPGYAkloFd3z1qGOspzRYAQMsozpHZ0/Be/RBmCcvSdtvPyV2Hr3eMUTuX2jx1f0LIn/wtzzl0yj7xbU4DHQSZ7h7WRjvVl5stAIBZzxq/e72lbo5DhL0A0OmnXe6vJpS4equd6155bMM194DQ5atc4SdegF42EeCRupoJU3sFvP1wXf98mNkbvdhcu2dKL/3b8UHMCodI4RyhA0ducmcsKxfaqZ3tbnnyQBb5t9/3TU/eP3edl2K/2yGMtUnQzSXB/g876NKGttZtUzvXf3oohuOtPfQfxRiZdbICHVYdk5//+073q2rnUpun718I+YI/+xkbt9M1aPo+8a+UQidBons+eVhn+fFxw7RajqcKSw9D5tsPcVMdIt0vSNDVXCiOzipxe2XT5ZEN1/R97u4/7hS+uuGkvSrd9FC/Jpof058yfNgiqubWZUE14/H62rNTehmGt4/VzKh0U7hso/2+yRN+mF0mdFU7273AgQfyBN7QZP27r/NcP5wnSj+HSA8NfZCbOaazfoHamf5Ml3ra8z93138ebIDtLhk6Tdsr/vXXA0JntXN5Am/a5xDyJn/2c5W8yz1gyl5puF1iusgK7P76Ud0PYx4xeGz9rAnJTwZMeLetdqJNpAeIAN2tReJHk/a4e6md6255XMOVWeLqYy4UP71qp73sonLolRba+XP6Gr9pHK7x+tlX/FVSXe6q5UnD6GcacSmVLgqXbLT3+F3C51NL3T3UznavcOCBasu/N1feuN8NX+8Ys+8KbWMXAZ5rzK1K6xmQqnam/6VPY92Brzrpf2IZuueGk3ZPLhQ+zTvrfbdD1xRv3h8R8jR/9jM0ba+7x6S94rs3XbQbKHTP54/ofv4oybCidtN5hn88ETDpvfa6LLdM91930R6pxeKH0/e6u6ud6254VMNlLXL3Sy+W3r9AaC9RoQfeaK2bOa13wI9q50L3r22s5tZPj+u/eq0l940k0/3nedo7pUgcPWGPd14a/p23D4aRZ/G1/cmyy9V/9THpOYcIHTrGan75vqv+O7Uz3alh7XSbRrTVZSlA95+upP3+lieMPXpd0qmdyxP90X7r7fsuQjXtdj8nCw4JnaxF4kfX7Ep3DUP3fJykt37aSb+kliN6lJ+fMEx6t51uIlXo3ot22stSJIxeXC50UDuX1xm/yz2w0URbTmAyoRFWvuTjza4P1M6EasYHm5wfh1tJSaCZ0EYTbTlpxe6+amfyFpRSfPnIy9etPyE2bzKJZBuTedpiim3t5lNiY7Uz3YuhaxxjTWaehlgIHbzK8YPaeZA61K4X+PKt1+1sPiU1bjPDttxkJjTSyhd/net8q5Z2c6/waY5rRJiVLzWZK2nbGbbla4+LLdTO5DV+2ul6tW4GyTcm87ROOin4bItzhNqZUM36MNs5KiaNFBqTCW0wgWzN2O3uo3YmX6b2wcXfX/7mxE2Z7TrXPttoJrROBl8wba/33j589Iake3q+fbLJQmhoCinF4xP6M2rXGXx5/ut/KbkkhT/6i32e0UxouJWUfJjtHFXze673GbHR8VmElS8JTCb04Vn2hTvPS3FqZ/J43+c5h8SkkcJAM6H1Mvm8L7Y5h6mdCdWOz7Y4R8RnkrxAM0/jM0le1m7vvr3Qm6l9EPK1l797Z71zTGAy/9vdCk6vv1sh/5wU12GmbbHJzNPoNFKYiSeI0F1Suybhy/OPCSduyuxzi+wZAb/VziGrnWNreLf0akPXOMZGWPmSgGSedp9nn156WQxVO5PH+nq7862wFL40xEJoowkk55tc15tqZ0K167MtzhH1MklekJnQuAyS740zzyDvoNZB1N9M2CP0jrCSkhALT59ZaJ+odp7qsviwu0PjiSQ72FJ1VX7lUbG12pmQ91O7EcBXzb3u1l/XOr4OTOZpuJXQ55fY02pgd/M5/ZbYrZFphAaMJ/S5xfaMYzdkTu1MHuerXNdbJjNfFm4lNHGCLeenfJffr3Xirz7JcY6sn0Vyw1IIjU0jBZNKselCyBvtuiDGNppoywlNIbTlVLI2/5xv3eZhLnQPiM+oOkHUdrpt+b4rcrDamZBvUrtZwFftNFm/+3a7880gCymLSiW08y+2eQevycZq3J181uEK2fDUfPvUqFRCjcmEDlrhGKd2Jo8yZpvznZCUyn0xaYQ2nGDbOr7ANVDtTEhdn25xjojP4PMiUwmNTuMLp5QKPdXOhBC6O30W2TN+v1o90UevVr+/yflxTBpfGGQhtM8iR4baeZB/UruxwFf13eEwa7/QLSqVL45MJbTFFNvanFNiYrW9uR/Ye0UKTZplWxibTqjJzJeN2OD8TO1MHuGLbc5hoSmktE4GoQlZfG46zlCHfjM6xzmyTjopiEkjNDadFEwudWPThZCX+H6Ha0hoCimNTCX0r2udX6udpyY9v9ieFpXK0xALv++DTY6P1c6DEPJO+efFuCYTbdlRaVVj4rkHhC5qZ/JGW89IDVpNJatj0ngamsKXfr7V+Y7amVT12RbniKhUvrhOOqF10knBhBKcJAH9f6NznCMjU0lxnXRC49JJ/ox93rWwHUL+aPMpsXH9LJIbYSX04dm2hSduyh61xmN1O3hNMrabYVsalcrT6DS+MKXQ3V/tTAgh7/PEPNvMyFRCI1NJMT5ac39WHRVbN5xAtsamExqZyhcn73INUDuTKr7Y6hoWm04KYtMIjU4jhem7XXhlC/2hT7Y4R4amkNI66YQmTiQ5c8rwjA9CnqzHfNvUSCuhMWmkcGm50E7tPLVh3XGxRXwmyYtKI7RBFtm64qjYRu1MCCHv8de1zq8jU/ni0BSeDl5lxzX+qsHsMnfX2HRSEJNOaEImnzutVPDaJUnuSdX031XP50Ra+eIJJQJe2UK3NSrbOSrIwpfFpBHabLJt4+LDuJo4Qp7oi63OYVFppDjIwpeN8rM1YzJ2u/uEWUlpVCqh7WbalpZclsLVzoQQ8nzmQveA2HS+ICSF0Mfm2OYcvSHr1M7kK8yF7gERVr4kOo3QJhNJ9qJDQpLamWrFF9tcw+plkrzQlN+ubOEzW+gOjcp2jgpM5g9GphLaehpZueoYTsOMkCdZeVRs3SCLbDWZedp1rm222nnU8NFm5wcmM18WaeVprwW+Mw0+QqhmrDkmtmoyiWSHWnnaaCLJ2XIGJ8mobt/luYYGWfiySCuhD06zrV57XGyhdqYa9XuzFWypmu4bF4tEd+udDc4xJjNfFmblafuZtqWbTopN1c6EEKrSda59doiF0PgMkrfuhI8f0G5j4HL7z8ZknkZa+eI31zq+VTsPQsgzHb4uGzr/YpsXbOFpZCpfPGUvTg5WU0Zucn4SZOHLwqyEdpxpW5xzWvLNxnbMVtc78Zl8XqCZp3UzSH4aXtlC9+jtdY4vTWa+LNhC6COzbfPzzonxamdCyN99usU1IjSFLw228Pu+3e7060XrD1fIhsfm2ucYk3kanUYK/5bnGqp2JoSQ53l9leOH0JRKGmThyz7f4ucz6dWCYeucXwaa+YMhFp52+cU2p+CCGKt2pmr12RbniJh0vtBo5mn9LJKbWuTup3Ym5N1eXeH4KdjCU1NyJe0+zza94LzkWz80CHmR5UeENvUySV5gMk+fWYi30QEA5JwWE1tNta02JvO0XhbJm1rq9q+HtRFCt2Xe5RoQaeWLA8087bfEblU7j794ZYVjXLCFp0Fmnvacb59ccslHnrX9JMc5MtzKlwSaedpwgm2rpdCF0+Wi+3bkuqzrv9RuCbXwNDCZpz0X2CcfvCbhSuwIqeCxObY5gWaeNp5IsrecxucPfjdzv9CtfhbJDTQT2nQS2YgzFyKEAACyT4qNG00kOYFmnj403bay+JIUqXYmf1F+XTb0XeJIC7UQGpjM0z6L7BmHK2SD2rnuy4fZzlHBZn5fsIWnTSfbNlqKcG0SVH0OXpONzyy0Twy3EhownqcDltqTj9+UObVzIeRPPtviHBFo5g9GppLi73e4hqidx9N8v8M1pE46KTAm8/ShabaV2JAihJ781T7dmMzTepl83sz9Qje18/ibfVek4Kfm26eGWQk1JvP05eWOn4/d8NLx43sbHZ8Yk/mD4VZCm00iGzNwggxUA0qvSKHd5tpnRll5akzm6WurHD+pnQkhf7HqqNC6TjpfEGrl6dMLbJPVzuOp3lnvGBObwRcEJlc9d7rvshSsdiaEkDo+2ewcGWiuPBiVyhd/lO38QO08/qroohj96Bz7vMhUQgOSK+mg5fZxJ27JrNq57sprKx0/BSbzB6NTCW02ybZxSinOuoJqzq4LUuzDs2wLo9MINSaTgyM2OD5TOxNC/uCxObY5QRaeNplky87BKze3NWiFY1xMGikMNPO05wLb5BM3vezAjhC6b4vLxQ7RqXxhhJWnT/xqm6l2Hn+Xe0ZK6DDTtjiqavxIX17h+FntTHfkcIVs6LPInmEy82V1MqoWGJuFl0pRLdhyRkpsOcW2Niad0CALKRuzFWf7QagmfbbFOSLIwpdFpZLisXl4K+Gd6DnfMTkmnVCTmacDl3vJgR0hVC1O3pTZdjNtS0NSeNp4ki170ylc1sYTZJ8SG7eaZltdp6o2l7241G5RO9NtFZyXYh/9xTYvwkpoXDqhjSaSnPkH3Z3UzoX8x+LDQofECSQnJo3QyFRS/I8C9yC1MyHkizacEJvHZ/J5EVZCn5xnm652Hm9x4Kpk6jjTtjgmjdBwKykZusYxVu1MCKHa8c5655jQFEIj00jxD/muwWrnQf+y7oTQ4oHJZH2ddEIjrKTkucWODLUz/aGlh4V2LaeStbHphEZaCX1gim39muNiK7VzIf8zc7/QLTadFMSmExqXQfIn73Hh7awIVbMnf7VND0vhab1Mkrf+hNhc7TzeJO+sFN9ssm1jVBpPo1L54rfWOb5WOxNCqGbNPyh0iksn+WFWQnsvdGSpnQf9tw0nxOZNJpHsqLSq9RN7LrBPPnJd0qmd659SCl39m0yyZcdlEBpkIbT9TNvSbWekBmrnQv7LWujuF2ElJTFphDaeyGfPOyB0VjsTQr7iu+2uoZGpfHFwCtn3xTbXMLXzeKOVR4XWCVkkNyK16sTQ8PXOMWpnQgjVjBM3ZTZpln1hWAqhiRNJDq4b6rk2nhCbNp9M1oelEFo3ndDH5tjn7DrvAYsjj9rsHNVwom1rTBqhhmSePrfYkVF6RQpVOxdCY/NcQ4It/L7oVEIfmGpbv+642ELtTAh5u21npAZNJpLsYAuhXefaZ6udx5stOiwmJWSR3NAUQutmkPx3NmDThZAveneD47OIVEJDUvh9KYW4PJKn23JKSGwz3bY8MJmndTIITZplW7i0XGynSphtZ8QGLyy1WxtMIFtDUggNNvP7Rmx0fea1c9gjn/RJjmtkYDJ/MCKVp0mzbAvzzknxamdCyJs9u8ieFZLC0zoZpABvG79/vx4UOidk2XKDzITGZ5K8IavxmS6EfMnCQ0JSvUySF2jmaX9Pn4wB/dP2s1LCY3NtcwzjeRqdSmjrabaVqcXufrUawlrk7vfoL/Z5UWmEGsbzNC6D5P+4w40P/yGP9NY6x9eB5sqDoSmEPjHPPnPfFVz/BqF78VO+89VIK19sMvNln25xjlA7j6+YVSZ0aziBbA1IJjQmjRS+tMyefPCqbFQ7F0Lo/py4KbOdf7HPM5l52mQSn110UYpWOxO6c8UXpch+S+xWQzJPQ1IIbTKJZI/Z6qr5GbA3nBCbv7XW+XWjSSTHZOZpQDJP286wLZ+0R+hV4xtH6D68vML+c6CZpyEpPO231GHF9W8Qujs7zknxTSaRbGMyTx+ba5+jdh5fM3u/0LXFFLI2IJmn4VaevrDUYd1+VkpQOxdC6N59uMk5KjiF0FArX2oudA1QOw+6e2VXJdPb6xxfhln5UmNy1e3ff1ntHLvzvBRX7RvbcV6KH5vnHNJptm1+kIWnhvGVNDKV0AHL7Ml4SwnyBoeuycanF9gnB5kJDbLw9I01jm/VzoSQN3l+sT0tMJmndTNs+SuOCm3UzuOLFh0WkjrOsi0ONPM0yMLTbnPtM5eWC+o8N4AQui+rjwmt6maSfLyV0Dd8uc05rEEW2RqQzNNgC0+f/NU2vdrWGd52VmrwY75rcLd5tpmhKTzVj+dpaApPW08jKz/b4hpRfl02VMuGEKoFuy5IsY/Nsc0JsvA0JIXf92G2c5TamRDyBuMLXANDLPy+0BRS+tFm5wdq5/Fl646JLbrOtc0OsfDUMJ6nLaaQtRm73X3UzoUQujtPzLPPDLTwtOkksrHAE2a5Q/cttdjdr+10sjzEUtUTNcgiWz/b6hxRelkOvZf3Y5aWC+02npR6FV1SOh67ofSTKAWjloVQPWxrHa3ZP6gFN/+VFrpd1fw5EKpxOafFxNFbXJbTt6AfAN376cO65K8eNfyqdi6EPNXO81Lc66tdc67Yle5tojVzdwwJfF3tTL4u76wU//edrq/2XqXvEDcFA8fsHtSSW/jmg9oZ7epwN9TOhxC6vb/luYZaioTROg0IH3fUWr56NADHGT5i+RGhzcRS4d0D1+gw3k1BBoCu8dyU4W20k/s31+65qzfrOtc2G36qpCYzT2PTCW04gdDH59pn/7TT9WrNxEeo9iw+LHRoOtm2MdxKaFQaKZ5Y4sZnEBH6E30X29MCzYTWyyR5y9SaFtcPHbku64asdoxNyCS5EdaqW/m7/GKbs/iw0EHtbAihP7f9rJjQcALZGmTh6dPz7ZPVzoOqX/l12fDOBueYppNsG2PSCDUm87RuJsn/NMc5ouSSHH7Hb/TOeseYYAtPG00kOd3m2mb+Lc819Mh12XNWWkboPk0ocfVukEW2RlirHoBcXC7iIAah/2ApdPcPtpB9Eal8yXsbnZ+onccfjdnqfKfpJLKxbgahwWaeRqXxxSM3OT/ZczcHdYRQrXl+iT0tyEJog0yydf0JsbnaeVDNmVzq7pk0y7YwPoOnUalVjVerqbbVPxe4Bt7JMllM5m6hz/oT4jMDHtAufqO1blstZEao1v24wzU4o0R4X6ZMUpgBNk/rbfjr4wnas2rnQsgTFF0Uowevcs+55lB6NglnFxUNNb2sdiZ/teiwkGQpEkafqVQGsgwDDpFCHROz4ZUW2vkvP8AtaBbBCWpnRAgBZJW4e3+zXfiBAQpDWulmW58ypKudCdWsA1cl098LhC92nJO6yMB0FWUAl0ShWTizZEBz7eJ+TbUrmkVo/rBGM7UdFiG1jNzk/GT+IekVFqBdQjCzbMazhjceiuF4tXMhpLYXFjusuefkUXoN3ZXylOEjfG5XXUdvyLp/FLjHbDghP61Q6KxhAdwyhXgTu+LZRtzafs24FR3juAq1cyLkrw5VyMZBK5zzz/FK30ahzJLdbwa9pHYmVHtmlQndJpcKw0/cUBI5DZNEAUCUKcQFMquebMDl9G7ErXsqUXv8378HGy7kVwavcvyw+pjcV8/R1q2j2WmbXzG9rXYmhNRkKXT3/3mX8Lkg0aSBD3BfTelt/LvamVCVRYeEpLQS4cOD15QWWg3TxqABkBUKoQZmXato7sATCezWjrGa3R2w+UKoVr21zvn1siPiDxoGdpu760f/pbV+u9qZUO0bX+AaOOeg+PrZStpHxzGg1wAoCoVAHbO5fgh7uks9TX7nOM3Ononao9hwIb/z9AL75J3n5WFGLVP0WIJm+5IXjJ+qnQkhNRReEKPfWOueedGm9G4Ywq5Y9ELAS03CNZLaudD/Zy1y95t7UHz96HW5P8MwEKhlgGMBNCxAhIFZVjeIOd84jD3xQCR7qEEIczrWyF5+MIazqZ0bIV+0rFxs90G2K4130y59m3A/zn3e+I3amZB6DlXIxmVHpP4rj4jPH7mpDFCAQiDHglYDwDIAQVpYF2NizmLDhfzOgWuS6e21zqllFTAoSEd3vdBUu3xCr4DxaudCqLa9sNRu3XZGHsWxsNvaw/DR4Fa6HWpnQn+s7Kps2nxa6rH2uPTs3qvyW0SgoAEAo44FnQaqXiyAUQsQomd/CdIBb9QyjgAOXFoNiHoN49JpQNCxIOg0IOg5RtCwcEfN9e0GCgyAUl3f85/f+GfvcbvvZ6pjVPP/M/zx52MAtCwjaFmQ9BrGZdIxtrAAuBWiZ26ZtIztz57jQN7vyV/t00suy29GGZnNC543vty+jgaXb0Bw4Jpk2n5W7rrxpPx0yWX5gxsuBRQKYOAYCOAYBzZcyC9tOyM2eD/bnXHqltInWMfsfOshbvr3jwfMUDsXQrVl3E7XIGux8JFdgKQhrbSfT3wGTzp4g0PXZOOBa3Kr7eekrqVXaNvjt5RXK10UFKi63VDLAug4BnQsgIZhgGEAWABg2N9+ZarOumru4uj/53+UAQB6l99zzxu7oz/yx2mqdfP//IMsA8DQqiuNGoYBnQYgQAsQqGUmBWrBFqRlSZQJKhoEs6ebhmuO9mjIHf/fb4w82Y87XINTioWPJIVyX3bWjxvziGGB2pmQZzl6XdaduKUkFl2Sk4ouyA8fuaGMuGyn2HAh/7X8iNDmky1uyxU7dI8wwPaPknTWUUn6FWrnQqimbTktJg5f75580a70aBnJLpr/vOGVRmHcn191QB6p8IIUfeKW0vjYDaXxyVtKo7O88m2FA6DSTYEXAASZAoWqJkL5rRP5/Vf6573S//bP97jf9sbz/Ncn+pOP+Pvg6Z9/n/B7I8uAVgPAsQA6hgGOAwjWAYQZmAVxJvZiswjmSNsYbm+bGHZv03C8CuZNCs5LsUPXOGefs9Gej8WzUzYOMg1XOxPybPuvSsHneBp//KbSEBsu5Nem7XX3+GGH8E2FE7rGmGDLj4/pv3m1lW6n2rkQqkk959sn559XhoXoYWfqU4aPBj6gLVI7E7o/x2/K3DU7jbzhouEVDiXyhgvCeYEG2wUwiQpwokx1kgKcqFBOUkAryPCt/G/NxL20TpTef8N1u7e4p0z3nKTKf511+JM3pBRApgCiDCAoVVNDO0UKTomp+r0E4JQoSBRAUijIStWtRUE6BmIDGWgczqQ8EscVPFJXs6tLPe78fcZGtWDQCse4NcelMSF6ZufUZ/Rv926sO6R2JuQ9sOFCfu8fO92DUncLHxKBdmoYwq4Z/4T+896NtVhIkU/6ZItz5ORScTjLMMrbD3FTzU8GZKqdCdWukzdlVlSAkxX4n4t1/id6+6/Yuw5zDw3Xf23nLrus+7iw98/t/tZwcZICnCCDzi1RnV2kJpsApkqBBvNuGnzDScOvOGjMJULjLjuUt647ACoFCm6JAsMAhBtYeCCCnfVUQ03204ncpg51cLZJTzVzv9Dt0y3uZEGGDn9pxY3OeDogRe1MyLtgw4UQAHyS4xo596DwWqWb6dQyklmS2kP/UZd6WjzriHzKosNi0vvZzgynCElJcbgsAkK1Ydd5KfbkLSXx6A2l6aHrygMnbimNr9pp/1suCk6JQqCWgYfraqa82Ixb+ng9bnvzSI1L7czoX47dkLjXVrrmHahQBraIZJfMfz7gFZzNFSGE7tEbaxzfRqeRwoBknj4+1zb74DXJqHYmhKrL4QrZ0GGmbXGQmdBGE0nOxpNCU7UzIeSPlpaL7T7NcY14fK59duIEQiNTCdWPr6RhKTx9cZnDsuGE2FztjOhfRm92jjSZeRqdxhdO2evuqXYehBDyev2WOKwxaYQax/O072J7mtp5EKoub651fBto5mlMGl/4/Q7XELXzIOTvDlyVTX/b7hr6yC/2+fWzCI1OJVQ/nqcJWSR33E7XILXzIYCc02Ji3UySH5pC6ItL7Ra18yCEkE84el3WdZtnnxmbTmiQmS97fZXjB7UzIXS/JpcKPcNSSGlEKqEvLHFY1c6DEPqXsquy6YNNzo9bTrWtrZdJaHQaoUYzf/D5xfa0kktSuNr5/Nlzi+0ZwRZCEyfwOXlnpXi18yCEkM/Yc1kKbz/DtjQ2ndBQC186arNzlNqZELpXRRel6GaTbRujUgltNplsLL4kRaqdCSH033acE+NfXOawxKWT/PhMQsOsPG05xbZ22RGhndrZ/FFWibt3uJUvCbfydMxW5ztq50EIIZ+TfUps3HiiLTsmjdDoNL7wx3zXYLUzIXQvnllknxhu5WlUKl+cWezuo3YehNDtWYvc/ZpMItlRaTyNTSc0IZPPTd7lGqB2Ln9y4qbEPjiNrA5N4Wmn2bb5J2/Jdz8DJ0IIof9t/kGhU1w6yY9KJbReFsmbVOrupXYmhO7G51uc70Sl8cUhFp7i7bEIeY8dZ8X4bnNtM4MtPI3LIDQ+k+SNznGOVDuXv/hgk/PjcCtPI62keMZ+d3e18yCEkE+btMfVKyKVL4lKJbTJRJK9+LDQQe1MCN2JRYfFpPqZJDc0hdCOM22Ly6/LBrUzIYTu3NHrku6dDY4xQRa+LCqV0LoZJP/ttc4v1c7l6zafEhs3mEC2Bpl5OmCZI1ntPAgh5Be+3+EaEmLh94VbCW0zzbZ840kRp9NGHm3fFSm4w0zb4tCUqkHa6mNiK7UzIYTuzd93ul+NSSWFQRZC62bw+W+scXyrdiZf9uwie1aQhacNJpCt+efEOLXzIISQ3/h4s/MDk5kvC0sh9JFf7PMLL0jRamdC6M+8uNRuCUvhabCF3/dTvutVtfMghO7P1FJ3j8SJJMdorqSx6aTgjTVObLpqQGqxq19EGl9iMleWfbvd9abaeRBCyO+8sdb5rcnM02ALT3stsE88cE02qZ0Jof/0xTbnsEgrXxxorqSvrHCMUzsPQqh6zD0gdGk+2bY+IJmn0al84ZDVjrEnbuJkDtXl0DXJ+OA0sjrQzNPH5tjmqJ0HIYT80ombMvvCErs1yFJJg8yEvoT3diMPM32fu3vdDD7fZCY0aZZtIZ4UQMi3zDsgdG49jaw0JlfSkBSevr4aJ8OpLsPXOcYEJlctDr+4HJ/XRggh1ey9IoX2mG+bGmThaZCZLxu2Dh9gRp4h75wY32IKWRto5mmjiSRn8SEcMCDkixYdEpIemk5WBlsIDTLzZcM3OMeoncnbLSsX2tVJJwUmM0//ssY5Vu08CCHk9/LPSXFJs2wLQ62EBlv4fV9sdQ1TOxPybyduyOyTv9qnByYTGpvOF4wrcA1SOxNCqOYsOSx0aD/DtjQ0hadBFr5sVLZzlNqZvNnj82yzA808bTXNtnrfFTlY7TwIIYQAYO1xsUWrqbbVYSmEhqXwpT/txIkJkHoGr3L8EJjM06hUUowzmCHkH1YeFVq3mErWRlgJDbLwZWN3uIaonckb/ZjvGhxk4csiU0mxeZcbF5hGCCFP8utBoXPiRJITmUpoVCpfPH2vgIsjolr36RbniCALKYtM5Wn3X23T1c6DEKo98w4KnRtPItmRqYSGW/mS1GJ3P7UzeZPCi1J0k4kkOzSF0B6/2qeqnQchhNAfyNjt7hOXwedHpRKakElylx4W26mdCfmP9N3uvuEpfEl0GqGtptpWF5wXY9XOhBCqXVNK3T0TMvnc6FRC49Jt+YsOCUlqZ/IWg1bYxwVZeFovk+StOia2VjsPQgihP/FNrvPNqDRSHJtGaNPJZOPGU7gwMqp5S8qFDgmZJDcmjaf1svg8nCQDIf+VXOAaEJVGimPSCG0+2bZ++1kxQe1Mnm7GPnf3qDRSHJrC0+HrHTjxCEIIebr3Nzk+Drbw++qkEfrQNLKy4IKEVxpQjSk4L8a2mkpWx6TxNCKVL7EWufqpnQkhpK5R2a5RoSmkNCaNp51mk/lHrks6tTN5quM3ZK7jTNviiFRCW04law9ek41qZ0IIIXQHXlnhGBdk4WlsOk87zbbNL74oRaqdCfmmx+fZZ0enEWoy82Wjc1wj1c6DEPIMr69y/GAyk7LoNEL7L3VY1M7jqT7Y5Pw43EpomJUvzdrt7q12HoQQQnfo5E2ZHbDUnmxM5mlMGqHd5tpmHqzAs2aoer203JEcnUYKA82EvrLCPk7tPAghz/LUfPtUk5mnMemk8EOcLv6/LD8itEnI4nNNZp72X2bHphQhhLzN0euyrvdCR5ZxPKFRqYT2WWTPKL8uGdTOhXzDyI2OT2LSSaExmdAe8+1Tyytw30II/X9FF6XottNty01mQuMzSZ61CGcu/Hfd5tlnhlgIbTSR5Ow8J8apnQchhNA9KL0sh/b41T7VmMzTCCtPX1yKZ9DQ/fsm1/lmXAbJN5p52na6bXn+eQkHCgihP7T8iNim4QSy1WQmtOkksnHtcaGF2pk8wd/yXEPDraQkyEzKfsx3DVY7D0IIoftQcF6M7TrXNtto5mloCl/6l9WOsWpnQt4rudA9ID6D5BmTCW08kWSvOCq2UTsTQsizZRS7+8SkksJAM08f/cU2b/9VOVjtTGraclpMbDyRZAcm8/Sp+bjmFkII+YTcs2JCp1n2+UEWQkMs/L7h63DaWXT3Jpa4e9XLInmByYQ2yCJbJ+1x91I7E0LIO3y82flBWApfajITOmC5I1ntPGp6brE9IzCZp/WzSO76E2JztfMghBCqJmuPiy06zLQtDrYQGmzm943CB5jRXZixT+jeYALZGmjmaXwGyRtf4BqodiaEkHfpv9RuCU2pmtV0zFbnO2rnUYO50DUgJIXsC03hSz/f4p9/Bwgh5NOWHxXbtJpqWx2WQmiQhS/73E8PeOju/FLm7lovk+SZLDyNzyR5X25zDlM7E0LI++y9LIV2nGVbHJZCaFQaKZ6xz91d7Uy1KfeslNB4oi072ELoo7/Y5qmdByGEUA2Ze0Do8sAU2/qIVEKDLJV+e5YR3ZlFh4WkhEySG2IhtG4myf8o2/mB2pkQQt5rWbnQrskkW3ZICk8bTSA5286IDdTOVFueWWif+PuMjQsPCUlq50EIIVSDpu1190icaMuJSSM02Ez2fZPrelPtTMjzLC0X2jXI4reGpxAal8Hnj9jg+EztTAgh7/fzLtfAOhl8QYiFp4/Nsc1RO09t+G67a2iwhd8XkcqXvLfR+YnaeRBCCNWCrBKhd70sklcnndCIVL7k61znW2pnQp5j3TGhReIEkhOdytPoNFL49jrnl2pnQgj5jjfWOr+NSiXFoSnE52fP3XBCap6QQXIjUwntNNs2X+08CCGEalFasbtvnXRSUCej6n76sXmuIWpnQurbeEJs2nwyWR+TRmi4lZT8ZY3TpwdDCCF1PD7PPjvSSmiUlS/+cYfvrkX1xDz7zAgroXXSScHyI7iUBkII+Z2M3a4+UamkOCat6raxb7fj7YX+LOeUmNhqqm11bDqhoRZSOniV4we1MyGEfFP+eSmu6STbxqhUQhOySK4vNiOjtzhHRqXyxaEWUvpJjnOk2nkQQgipxFzoHhBp5YujUglNyCS5X+e68PZCP7TltJDYbgZZGpNGqNFMDr6y0jlO7UwIId82a7/QLSqVL45M5Wn7mbalpZelULUzVZcVR4Q2CVl8boiFp93m2WeqnQchhJDKrEXufhGpfElYStWZRpy90L9sOCE2T5plWxiVylOjmacDl9t/VjsTQsg/fLHVOSzIwpdFWHn63GJ7htp5qsPR67Ku82zbvNAUnsZn8nkbTuICxwghhADAvMs9ICaNFJrMPE3IIrmfbHHh7Q9+YM0xsVXSLPvCcCuhhmSeDljmSC6vkA1q50II+Y+XVzh+NibzNDKVFH+Y7Ryldp77NXiV44ewFJ4GW/h93+/A56MRQgj9m9Qid7/4DJJnNPO0Tjop+HizC9dd8mELDwlJHWfaFgenEBr4W7N1qEI2qp0LIeRfDlXIxkdm2+cHJvO0ThopyNjt7qN2pns1rsA1KCqNFAckV9J+S+xWtfMghBDyQGlF7r4NJ5CtxmRCo1NJ4QebnB+rnQlVv1n7hW4PTiWrjWZCQyw8fWW5Y9yha9hsIYTUseaY2KrpJLLRmMzTZpNtG1cfE1upneluLTosJDWYQLYGmgl9aLptZfElKVLtTAghhDxUxm53n6aTyMZAM09DU/jSYeucXx67IXNq50LVY3Kpu2fjiSQ7IJmnEVa+5LWVjp+OXpd1audCCPm39GJ33zrpfEFgMk+TZtkWFl6QotXOdKd2nBPj2063LTcm87ReJsmbe0DoonYmhBBCHm5Ciav3A1PI+tAUQgPNPH19teOHg3gFxOulFrn71c0g+YFmQuMySL6vLzqKEPIu7290fByZyhcbx1fSXgvsE494ycmgHr/apxqTCY1K5Yu/2OoapnYehBBCXmLGPnf3VlNtqyNTeWpI5umzi+xZJZekcLVzoXszbqdrULiVLwmxEBqfSfKGr3eMUTsTQgj9pxeW2K2RVp4GJhP62krHT2rn+V+GrnGMDRjPH45KI3TQCgcuqYEQQujuLDosJj04jayOTSfUmMzTTrNs87efFRPUzoXuzmdbnCNCLJX7ItOqpv7/KNuJE6IghDzSkeuyrssc25zoVEJNyXzZx5s9t159tc35VrCF3xeVRujj82yzj9+Q8PZ7hBBCd2/DCbF5uxm2pXEZhIal8LT5FLLeGx9o9ldvr3N+GWwh+2LTCa2Xyed9s935ptqZEELodvLOSfEtp9rWRqfzNNTCl369zfWW2pn+k3mXa0BYCimNTuNpq6m21fnnpDi1MyGEEPJixRelyEd/sc2LTONpTDqhDbLI1jn78aFgT3bipsw+v8SRFmElJXEZhMZl8PnmXa4BaudCCKE7seiQkJSQxefGphMamUqK/7HTPUjtTL+bvMfdMyadL4xNJ7RuBsn/9aDQWe1MCCGEfMCRG7Ku90JHVpiVlMZlEJqQSXLH7XR5zAEQ/UvRRSn6sTm2OTFpPI1JIzQ+g+RNKRV6qp0LIYTuxuQ9Qs/oVL6wTjqhddL5gp8LXAPVzpRV4u6dkMnn1kmragTH73KrngkhhJCPeX2V44dAMzlYJ71q8oVh6xxfqp0J/cuiQ0JS++m2pXUzCA1N4WnjSSR7yWGhg9q5EELoXowvcA0MTaksjU4jtP4Ekvt9vmuIWlkyd7v7NJxAtsakExpsJvu+3e7CW7QRQgjVjFHZzlFBFr4szFr1XFCfxfYMXORRfX/Pd7/6wBSyPjad0IDxPO0407Y4+5TYWO1cCCF0P37Mdw8OTqncF5ladUv76BznyNrO8FO+69WmE20bo1IJNZn5ss+2OEfUdgaEEEJ+5ucC18C6GSQ/ILmSxqQR2nWOffaCQ0IntXP5o5O3ZPbtdY4vG0205YRZeaofX0mfW+zI8KaFQxFC6HZ+2OEaHGblS4MtPE3IIrlD1zjG1tai7aOynaMSJ5CcsBRCgyyVZWO2ut6pje0ihBBCMLdM6NJuhm2pYTxPw6yEtp5mW4kTM9SuzafExv2WOKyxaVVT94dZ+dJ3Nzg/O1SBC1UjhHzLzwXugXEZfH7AeJ7GphP63CJHxqpjQuua2t72s1LCqysdP/2+YHy4lS/5KtfpcTMmInQnGLUDIITu3caTYtOsPcJ7W87IHygKQHQgs21AM27pO211kxqHayS18/my2fuFrpNLxeEHr8uvChJAXROz+a9ttNO/6GxYoHY2hBCqCRP3uHulFQsfnq6kvfQcQNMwdsmLD2iXvtSMW9QoTKNU13Ym7HH3XnhIfHn/NWWIUwSoY2K2vfWQdupXjxp+ra5tIFSbsOFCyMuVXpFCs3YLI9eelJ696YJOgVoGnknU/DisjW5q1wTurNr5fNHPBe6B0/eJfz3HKz05DcBD0ezct1prpw99SL9N7WwIIVST5h8UO03c43639KoyRJQBwgMY6F5f8+PzTbUrX2qu3X0/773uuNhi5TGx76ZT8tOXbLQbxwA0jWCXDWujnfpOO/2G6voMCNU2bLgQ8hFf57reWlQuvnTJRntKCkC7GM2vw9toJw9prduudjZfsfuSFDltr/jWkiPSi3aRdgjWA3SK49I/6KBNe7KB9qTa+RBCqDbknhETJuwR39t5Qep8wwVdZIVCvWB2c48GXHaPhprNzcI1R1tFaWx38l7lFbLh2E2l8fZzYteNJ5Wnj91Q+rIsQLCOgXax7IRhbXSTn2+q3V/TnwmhmoQNF0I+ZPIeoeeUfcLwszztb3NTCDMwO99ozc18/UHd3OYRGpfa+bzZknKhQ2aJ+N6uC/JQPQcQbmC2PZ3IbfwkSWfG2zcRQv7o61zXWxtOSk+fI3SAXVBAVBiIMjLQPoZN71hXU9wyQnOgjgkuB+lYnmNBohRYmQJrE6jpmkOJLr+uNC+6JHfcfUn57KJNAZZhIEgHEB3IrulRX5M9vJ12SvMIDo9dyOthw4WQj9lwQmxuLRY+OlQht7CL0MUlATyRoJnw0cM6a48G2uNq5/M2J27K7NwD4uDJe8XhlW7aOUjPQLge1g1uqZ33JT5PgBDyc5tOik1n7Bff2H9Vbl3pht4OiYJDpMAxDBi1DMSZGIg0MhDAAcgUQJABbjgpXLIrQNwAMlAwcAwYOQaMHGxuGcUeerWFdt7LLXRFan82hKoLNlwI+ah3Nzg+23RKftopQnciUAgLYLa//ZB26jddDHPVzuYtNp0Um1qKhNE7zknDjDoWdBoKiSHs3FEdddYXm+v2qJ0PIYQ8xfyD7k5LjygvHr4utSAC9FZkAAkARBlAUBRQFABgAVgA4FgWdCwAxwJoWAAjBxsah7PHn03k1r7bHp/VQr4HGy6EfNiUvULPjGL3+xVO2geAAadE9z4Uw+7/LEn/87NNtIfUzufJvsl1vjmrTHrDLtIuARwDDNAdTzTQbvu2i35skzAWbyFECKE/kH1KbLztrNyt8KLy8DW7Ek1E2tclUVBo1X9nGQADBxCoZdaEG9gbbWM1pU/V12zCYxLyZdhwIeTjii9KkT/mu7/ZcUHuomeZdjIF0Gtge79m3Mr0pwJS1M7naVYeFVpbi4WPDl5TWuk4poMgUYgIYDa8316X8V4H/Tq18yGEkLfYe1kOPVmpJF6xK9FOEYwcC5JOA0JkAFOREMKeTYrjrqqdEaHagA0XQn4io9jVJ6tUfO8iob2C9AwolO5qEMyeHtZWN/mN1rptaudT274rcnD6buGDrWfFJ9wS011QACQZ9j7VkN306cP65I5xXIXaGRFCCCHkfbDhQsiP7L4kR2btEUasOCK+oFBoY9IxEKCFze1jNHuGtuZmPtNIV652xtp24qbEzi6Thq47IT1zxa4MEBQGeDeFhiHsug876tKGt9VtUjsjQgghhLwXNlwI+aFZ+4Vuk0vdw/dcoYMCOACTjoGIAFj1aF1N/uCWurmd63EX1c5YGyyFrv6rj8vPna5UhjpEAN5NIVjPFPVvpln+xoO6GQ/XxdtdEEIIIXR/sOFCyE/tuSyFzz8oDlpcLr100a50M2gYCNYzUD+Y+bVzvCb/mUTthu4NOJ9czHfKHnfPNSelZw9X0BY3nLQHERXQaxjoEs9NGtKKm/1KS90utTMihBBCyDdgw4WQn1taLrRbeUx6fvNp+dsKJwUtCxCiZyAxlJnbuS5X0L2+ZkuvRlqvv9XwcIVs2HpG7r71jPTEgWtKq4t2pZdDBAjgAB6KZuf2bcqtfKqBdnObGM0ttbMihBBCyHdgw4UQghM3ZTb7tNRz3Qnpmd2XlA+uOylQChCsZ6BRGLPosXhNXpd63I5+TbV71c56t/LOSfFFF+Wk/PPSo3uv0I+v2BUQFAAjB9AknF3SK5Hb+HRDbsNjCdx5tbMihBBCyPdgw4UQ+qf9V6TgjafkntvPSY8fuKaMrLBTcP7WnCQEM2uS4jTFneO4nQ/GsPsf9uDpfMsrJMOxm7TxjvNSl10XlEcOX1eG3HIrwEDVbZMJwcyyR+I0Bb0bcet6N8a1XxBCCCFUc7DhQgj9l4MVsnHjSbHXttPy40du0uYVDqWnXaQgU4BwAwstIplZneI0Be1jNXsahbHH28Zyt9TOXH5dNpzjlfiSS0qHPVektqVXlM/OEwVEGcCoZSBIz0C9IGZBhzqakh71uc39mnnf1TqEEEIIeR9suBBCt5WxW+iTc1p88uQtJfGGC/o6RAC7qABQgHAjC03DmF86xmmK20Sze5uGa45GBDAVjcI0Sm1kO3hNNp7llYSya3LrwovKw3uvyB9ftlFwyRSMWgZMWgZMOoC6JnZW21hNae9GmnVPNdQer41sCCGEEEIA2HAhhO7QvINC582n5B5l1+QHb7roALcMIMgADpGCIFMI1jMQZWSgeQST2jaGK00MZU82CGVO1wlkL1ZXA7b3shR6ulJpcLqSNjh6Q2laekVpe57Ig647KSgAEMixYNAAcBoKJh27LjGUPdm1nia3dyPNupZRnKM6MiCEEEII3Q1suBBCd2XvZSl0w0m5V8EF6ZHjN2lju6T0lhQGFAVAogBumYIgVV1hCjUwEKKHZXVN7MX6oeyZmEDmcmQAUxFmYG/pWXBpWFA4DUgaBiSOBYkCsC4JDC6RGuwiGK87lcirDhp9gSh1z/I04aqdRt9y016VbgoMA2DQsKDVAHAsAAMUAjh2U3wQnG8bqyl9vB63vW9T7X61/74QQggh5N+w4UII3bPdF6XIrWelbsUX5Y7lN5TmN13QV1IoAACwDAMUACgFkJSqK1CyUvW1VsMAxwKwDICG+e1Xtuq/CQqAIFOQJACFAdAAAMtWvR/HVm236n0paBgG9BxsqR/MnG0fqynpXl+zpXdjHU6CgRBCCCGPgQ0XQqhaHL0u6w5UKK2KLslJh68pD5wnSvwlO+0vyABVLVIVlmGA/f2Lf6tALAP/bNCAVv1eofSf30mBAZYBiAxgNtQLYs7GB7MX2seyu9vHavZ0qstdroWPiBBCCCF017DhQgjViCMVku6ijcad42nCGV5JOF2pNKhw0ChegGC7QI2CAgNlAKAKBYkCSEpVQdJrAPQaBgwc/GrSMbZwA9yIM2kuJIQwZxuFsifrBTNnH4rheLU/H0IIIYTQncCGCyFU6w5ek4yiAjqFAispwCkKsCIFDgDAoAGXngPBqAVH4zBOUjsrQgghhND9+D8wnaRyOCs7qQAAAABJRU5ErkJggg==;" parent="1" vertex="1">
          <mxGeometry x="99.08" y="566.75" width="220.91" height="30.5" as="geometry" />
        </mxCell>
        <mxCell id="Z4fjTaCAJ1MgGn6guNNH-44" style="edgeStyle=orthogonalEdgeStyle;rounded=0;orthogonalLoop=1;jettySize=auto;html=1;endArrow=none;endFill=0;strokeWidth=2;" parent="1" source="Z4fjTaCAJ1MgGn6guNNH-21" edge="1">
          <mxGeometry relative="1" as="geometry">
            <mxPoint x="421" y="400" as="targetPoint" />
            <Array as="points">
              <mxPoint x="400" y="705" />
              <mxPoint x="400" y="400" />
              <mxPoint x="421" y="400" />
            </Array>
          </mxGeometry>
        </mxCell>
        <mxCell id="Z4fjTaCAJ1MgGn6guNNH-21" value="" style="rounded=0;whiteSpace=wrap;html=1;" parent="1" vertex="1">
          <mxGeometry x="85.39" y="675" width="245" height="60" as="geometry" />
        </mxCell>
        <mxCell id="Z4fjTaCAJ1MgGn6guNNH-29" style="edgeStyle=orthogonalEdgeStyle;rounded=0;orthogonalLoop=1;jettySize=auto;html=1;entryX=0.5;entryY=0;entryDx=0;entryDy=0;" parent="1" source="Z4fjTaCAJ1MgGn6guNNH-22" target="Z4fjTaCAJ1MgGn6guNNH-21" edge="1">
          <mxGeometry relative="1" as="geometry" />
        </mxCell>
        <mxCell id="Z4fjTaCAJ1MgGn6guNNH-22" value="" style="rounded=0;whiteSpace=wrap;html=1;fillColor=none;dashed=1;strokeColor=#000000;" parent="1" vertex="1">
          <mxGeometry x="160" y="517.5" width="70" height="125" as="geometry" />
        </mxCell>
        <mxCell id="Z4fjTaCAJ1MgGn6guNNH-42" style="edgeStyle=orthogonalEdgeStyle;rounded=0;orthogonalLoop=1;jettySize=auto;html=1;entryX=0;entryY=0.5;entryDx=0;entryDy=0;exitX=0;exitY=0.5;exitDx=0;exitDy=0;strokeWidth=2;startArrow=classic;startFill=1;" parent="1" source="Z4fjTaCAJ1MgGn6guNNH-36" target="Z4fjTaCAJ1MgGn6guNNH-37" edge="1">
          <mxGeometry relative="1" as="geometry" />
        </mxCell>
        <mxCell id="Z4fjTaCAJ1MgGn6guNNH-36" value="" style="rounded=0;whiteSpace=wrap;html=1;fillColor=none;dashed=1;strokeWidth=2;" parent="1" vertex="1">
          <mxGeometry x="440" y="90" width="700" height="300" as="geometry" />
        </mxCell>
        <mxCell id="Z4fjTaCAJ1MgGn6guNNH-37" value="" style="rounded=0;whiteSpace=wrap;html=1;fillColor=none;dashed=1;strokeWidth=2;" parent="1" vertex="1">
          <mxGeometry x="440" y="460" width="700" height="300" as="geometry" />
        </mxCell>
      </root>
    </mxGraphModel>
  </diagram>
</mxfile>
